<svg width="318" height="246" fill="none" xmlns="http://www.w3.org/2000/svg"><rect width="318" height="246" rx="15" fill="url(#a)"/><mask id="b" style="mask-type:alpha" maskUnits="userSpaceOnUse" x="0" y="0" width="318" height="239"><rect width="318" height="239" rx="15" fill="#F4FEFF"/></mask><g mask="url(#b)"><path fill-rule="evenodd" clip-rule="evenodd" d="M536.754-8.087 521.464.612c-15.29 8.698-46.564 26.49-98.692 21.373-52.823-4.721-126.5-32.352-163.932-20.993-36.736 10.965-37.227 60.92-58.571 87.965-21.344 27.046-64.932 31.973-104.747 39.722-40.51 8.143-77.246 19.107-105.442 40.116-27.501 20.613-46.462 51.271-77.041 68.667-30.58 17.397-32.199 5.233-59.7 25.846 0 8.764.54-213.089.001-271.395h683.414Z" fill="url(#c)" fill-opacity=".24" style="mix-blend-mode:screen"/></g><defs><linearGradient id="a" x1="159" y1="0" x2="159" y2="246" gradientUnits="userSpaceOnUse"><stop stop-color="#03E6F4"/><stop offset="1" stop-color="#2699FF"/></linearGradient><linearGradient id="c" x1="119.761" y1="229.144" x2="-134.114" y2="-217.106" gradientUnits="userSpaceOnUse"><stop stop-color="#9EE5FA"/><stop offset="1" stop-color="#00339B"/></linearGradient></defs></svg>