<svg xmlns="http://www.w3.org/2000/svg" width="1920" height="334" fill="none"><path fill="url(#a)" d="M1919.99-121.001H-.014v455H1919.99v-455Z"/><path fill="url(#b)" fill-opacity=".8" d="M1919.98-121.002H-.023v455H1919.98v-455Z" style="mix-blend-mode:color-dodge"/><g clip-rule="evenodd" style="mix-blend-mode:screen"><path fill="url(#c)" fill-opacity=".2" fill-rule="evenodd" d="m1266.99-7.096-28.32 20.9c-28.32 20.901-86.26 63.652-182.82 51.357-97.856-11.345-234.339-77.736-303.678-50.441-68.052 26.344-68.961 146.374-108.5 211.359-39.54 64.984-120.284 76.823-194.039 95.44-75.042 19.566-143.094 45.911-195.326 96.39-50.944 49.528-86.068 123.19-142.715 164.991-56.647 41.8-59.646 12.572-110.59 62.1 0 21.059 1-512 0-652.096H1266.99Z"/><path stroke="#000" d="m1266.99-7.096-28.32 20.9c-28.32 20.901-86.26 63.652-182.82 51.357-97.856-11.345-234.339-77.736-303.678-50.441-68.052 26.344-68.961 146.374-108.5 211.359-39.54 64.984-120.284 76.823-194.039 95.44-75.042 19.566-143.094 45.911-195.326 96.39-50.944 49.528-86.068 123.19-142.715 164.991-56.647 41.8-59.646 12.572-110.59 62.1 0 21.059 1-512 0-652.096H1266.99Z"/></g><g filter="url(#d)" style="mix-blend-mode:soft-light"><path fill="url(#e)" fill-opacity=".22" fill-rule="evenodd" d="M685.493 100.244c-143.094-.053-259.052-116.097-258.998-259.191.053-143.094 116.097-259.051 259.191-258.998 143.094.054 259.051 116.097 258.998 259.191-.054 143.094-116.097 259.052-259.191 258.998ZM1840.4 143.959c85.6 0 155-69.396 155-155s-69.4-155-155-155c-85.61 0-155 69.396-155 155s69.39 155 155 155Zm-1742.002 261c85.605 0 155-69.396 155-155s-69.395-155-155-155c-85.604 0-155 69.396-155 155s69.396 155 155 155Zm753.063 46.65c-.035 92.039 74.55 166.679 166.589 166.713 92.04.035 166.68-74.55 166.71-166.588.04-92.039-74.55-166.679-166.59-166.713-92.035-.034-166.675 74.55-166.709 166.588Z" clip-rule="evenodd"/></g><defs><linearGradient id="a" x1="357.242" x2="1092.15" y1="-296.784" y2="1166.97" gradientUnits="userSpaceOnUse"><stop stop-color="#034275"/><stop offset="1" stop-color="#02A9F7"/></linearGradient><linearGradient id="b" x1="357.232" x2="1092.14" y1="-296.785" y2="1166.97" gradientUnits="userSpaceOnUse"><stop stop-color="#034275"/><stop offset="1" stop-color="#02A9F7"/></linearGradient><linearGradient id="c" x1="494.534" x2="-183.537" y1="562.912" y2="-355.991" gradientUnits="userSpaceOnUse"><stop stop-color="#1097CD"/><stop offset="1" stop-color="#00339B"/></linearGradient><linearGradient id="e" x1="1184.76" x2="851.462" y1="451.734" y2="451.609" gradientUnits="userSpaceOnUse"><stop stop-color="#D4F0FC"/><stop offset="1" stop-color="#D9D9D9" stop-opacity="0"/></linearGradient><filter id="d" width="2096" height="1080.27" x="-78.602" y="-439.945" color-interpolation-filters="sRGB" filterUnits="userSpaceOnUse"><feFlood flood-opacity="0" result="BackgroundImageFix"/><feBlend in="SourceGraphic" in2="BackgroundImageFix" result="shape"/><feGaussianBlur result="effect1_foregroundBlur_1252_694" stdDeviation="11"/></filter></defs></svg>