<svg width="1000" height="653" fill="none" xmlns="http://www.w3.org/2000/svg"><path d="M980 25.025H20c-11.046 0-20 8.955-20 20v565c0 11.046 9.306 20 20.352 20H979.652c11.045 0 20.348-8.954 20.348-20v-565c0-11.045-8.954-20-20-20Z" fill="url(#a)"/><path d="M980 25.025H20c-11.046 0-20 8.955-20 20v565c0 11.046 9.306 20 20.352 20h959.3c11.045 0 20.348-8.954 20.348-20v-565c0-11.045-8.954-20-20-20Z" fill="url(#b)" fill-opacity=".8" style="mix-blend-mode:color-dodge"/><g style="mix-blend-mode:soft-light" filter="url(#c)"><path fill-rule="evenodd" clip-rule="evenodd" d="M195.419 326.045c-83.96-.032-151.997-68.12-151.966-152.079C43.484 90.006 111.572 21.969 195.532 22c83.96.031 151.997 68.12 151.966 152.079-.032 83.96-68.12 151.997-152.079 151.966Zm768.58-65.297c0 50.228-40.718 90.946-90.945 90.946-50.228 0-90.946-40.718-90.946-90.946 0-50.227 40.718-90.945 90.946-90.945 50.227 0 90.945 40.718 90.945 90.945ZM292.8 532.206c-.02 54.003 43.741 97.798 97.745 97.818 54.003.02 97.797-43.742 97.817-97.745.021-54.003-43.741-97.798-97.745-97.818-54.003-.02-97.797 43.742-97.817 97.745Z" fill="url(#d)" fill-opacity=".22"/></g><defs><linearGradient id="a" x1="186.071" y1="-208.708" x2="1367.93" y2="713.347" gradientUnits="userSpaceOnUse"><stop stop-color="#034275"/><stop offset="1" stop-color="#02A9F7"/></linearGradient><linearGradient id="b" x1="186.071" y1="-208.708" x2="1367.93" y2="713.347" gradientUnits="userSpaceOnUse"><stop stop-color="#034275"/><stop offset="1" stop-color="#02A9F7"/></linearGradient><linearGradient id="d" x1="600.341" y1="532.279" x2="450.819" y2="532.237" gradientUnits="userSpaceOnUse"><stop stop-color="#D4F0FC"/><stop offset="1" stop-color="#D9D9D9" stop-opacity="0"/></linearGradient><filter id="c" x="21.453" y="0" width="964.547" height="652.023" filterUnits="userSpaceOnUse" color-interpolation-filters="sRGB"><feFlood flood-opacity="0" result="BackgroundImageFix"/><feBlend in="SourceGraphic" in2="BackgroundImageFix" result="shape"/><feGaussianBlur stdDeviation="11" result="effect1_foregroundBlur_2759_2436"/></filter></defs></svg>