<svg width="374" height="384" fill="none" xmlns="http://www.w3.org/2000/svg"><path d="M296.179 133.867c29.791 63.732 53.451 144.255.295 190.569-52.657 45.877-129.531 11.189-188.341-26.734-48.89-31.527-81.227-83.491-70.823-140.387C49.016 93.301 92.285 33.217 157.58 27.303c64.311-5.825 111.412 48.404 138.599 106.564Z" fill="#A0DCF1" fill-opacity=".4"/><path d="M304.607 175.449c9.434 67.093 8.556 147.999-53.071 176.084-61.047 27.82-121.714-25.457-164.938-76.732-35.934-42.626-50.991-99.553-25.541-149.226 28.634-55.886 85.063-99.42 146.494-86.84 60.506 12.39 88.446 75.487 97.056 136.714Z" fill="#EAF6FB" fill-opacity=".67"/></svg>