<svg width="374" height="384" viewBox="0 0 374 384" fill="none" xmlns="http://www.w3.org/2000/svg">
<path d="M296.179 133.867C325.97 197.599 349.63 278.122 296.474 324.436C243.817 370.313 166.943 335.625 108.133 297.702C59.2423 266.175 26.906 214.211 37.3104 157.315C49.0163 93.3009 92.2848 33.2174 157.58 27.3031C221.891 21.478 268.992 75.7066 296.179 133.867Z" fill="#A0DCF1" fill-opacity="0.4"/>
<path d="M304.607 175.449C314.041 242.542 313.163 323.448 251.536 351.533C190.489 379.353 129.822 326.076 86.5981 274.801C50.6645 232.175 35.6066 175.248 61.0569 125.575C89.691 69.6893 146.12 26.1543 207.551 38.7341C268.057 51.1244 295.997 114.222 304.607 175.449Z" fill="#EAF6FB" fill-opacity="0.67"/>
</svg>
