<svg xmlns="http://www.w3.org/2000/svg" width="1920" height="341" fill="none"><g clip-path="url(#a)"><path fill="#E9F7FD" d="M0 0h1920v341H0z"/><path fill="url(#b)" d="M1919.96-121.003H-.04v462h1920v-462Z"/><path fill="url(#c)" fill-opacity=".8" d="M1919.96-121.003H-.04v462h1920v-462Z" style="mix-blend-mode:color-dodge"/><g clip-rule="evenodd" style="mix-blend-mode:screen"><path fill="url(#d)" fill-opacity=".2" fill-rule="evenodd" d="m1266.99-7.096-28.32 20.9c-28.32 20.9-86.26 63.651-182.82 51.356-97.856-11.345-234.339-77.735-303.678-50.44-68.052 26.344-68.961 146.374-108.5 211.358-39.54 64.985-120.284 76.824-194.039 95.44-75.042 19.567-143.094 45.912-195.326 96.39-50.944 49.529-86.068 123.191-142.715 164.992-56.647 41.8-59.646 12.572-110.59 62.1 0 21.059 1-512 0-652.096H1266.99Z"/><path stroke="#000" d="m1266.99-7.096-28.32 20.9c-28.32 20.9-86.26 63.651-182.82 51.356-97.856-11.345-234.339-77.735-303.678-50.44-68.052 26.344-68.961 146.374-108.5 211.358-39.54 64.985-120.284 76.824-194.039 95.44-75.042 19.567-143.094 45.912-195.326 96.39-50.944 49.529-86.068 123.191-142.715 164.992-56.647 41.8-59.646 12.572-110.59 62.1 0 21.059 1-512 0-652.096H1266.99Z"/></g><g filter="url(#e)" style="mix-blend-mode:soft-light"><path fill="url(#f)" fill-opacity=".22" fill-rule="evenodd" d="M685.352 100.231c-143.094-.053-259.051-116.097-258.998-259.191.054-143.094 116.097-259.051 259.191-258.998 143.094.053 259.051 116.097 258.998 259.191-.053 143.094-116.097 259.051-259.191 258.998Zm1154.908 43.714c85.6 0 155-69.395 155-155 0-85.604-69.4-155-155-155-85.61 0-155 69.396-155 155 0 85.605 69.39 155 155 155Zm-1742.002 261c85.604 0 155-69.395 155-155 0-85.604-69.396-155-155-155s-155 69.396-155 155c0 85.605 69.396 155 155 155Zm753.062 46.651c-.034 92.039 74.55 166.679 166.59 166.713 92.04.034 166.68-74.55 166.71-166.589.04-92.038-74.55-166.678-166.59-166.712-92.036-.035-166.676 74.549-166.71 166.588Z" clip-rule="evenodd"/></g></g><defs><linearGradient id="b" x1="357.217" x2="1110.21" y1="-299.49" y2="1177.56" gradientUnits="userSpaceOnUse"><stop stop-color="#034275"/><stop offset="1" stop-color="#02A9F7"/></linearGradient><linearGradient id="c" x1="357.216" x2="1110.21" y1="-299.49" y2="1177.56" gradientUnits="userSpaceOnUse"><stop stop-color="#034275"/><stop offset="1" stop-color="#02A9F7"/></linearGradient><linearGradient id="d" x1="494.534" x2="-183.537" y1="562.912" y2="-355.992" gradientUnits="userSpaceOnUse"><stop stop-color="#fff"/><stop offset="1" stop-color="#00339B"/></linearGradient><linearGradient id="f" x1="1184.62" x2="851.321" y1="451.72" y2="451.596" gradientUnits="userSpaceOnUse"><stop stop-color="#D4F0FC"/><stop offset="1" stop-color="#D9D9D9" stop-opacity="0"/></linearGradient><clipPath id="a"><path fill="#fff" d="M0 0h1920v341H0z"/></clipPath><filter id="e" width="2096" height="1080.27" x="-78.742" y="-439.958" color-interpolation-filters="sRGB" filterUnits="userSpaceOnUse"><feFlood flood-opacity="0" result="BackgroundImageFix"/><feBlend in="SourceGraphic" in2="BackgroundImageFix" result="shape"/><feGaussianBlur result="effect1_foregroundBlur_832_1144" stdDeviation="11"/></filter></defs></svg>