<svg width="1937" height="1342" fill="none" xmlns="http://www.w3.org/2000/svg"><path fill-rule="evenodd" clip-rule="evenodd" d="m1937 213.333-108.15 19.371c-106.53 19.37-322.83 58.111-537.52 38.74-214.68-19.37-430.979-96.851-645.663-145.277C430.983 77.741 214.684 58.37 108.149 48.685L0 39v523h1937V213.333Z" fill="#09F" fill-opacity=".05"/><path fill-rule="evenodd" clip-rule="evenodd" d="M108.149 193.704 0 174.333V1342h1937V0l-108.15 9.685-3.18.29c-107.62 9.78-321.77 29.243-534.34 77.192-71.2 16.06-142.57 35.317-214.01 54.589-143.964 38.838-288.169 77.742-431.653 90.688-214.685 19.371-430.983-19.37-537.518-38.74Z" fill="#D4F0FC" fill-opacity=".6"/></svg>