<svg width="1920" height="544" viewBox="0 0 1920 544" fill="none" xmlns="http://www.w3.org/2000/svg">
<g clip-path="url(#clip0_198_547)">
<rect width="1920" height="544" fill="url(#paint0_linear_198_547)"/>
<g style="mix-blend-mode:color-dodge" opacity="0.24">
<rect width="1920" height="544" transform="matrix(-1 0 0 1 1920 0)" fill="url(#paint1_linear_198_547)"/>
</g>
<g style="mix-blend-mode:color-dodge">
<path fill-rule="evenodd" clip-rule="evenodd" d="M39.499 548.772L73.3959 534.366C107.293 519.959 176.627 490.491 271.937 526.418C368.787 561.69 491.612 662.357 568.808 651.386C644.463 641.07 674.49 519.115 730.491 462.556C786.492 405.997 871.55 413.523 951.136 412.455C1032.26 410.733 1107.92 400.417 1173.32 361.7C1237.19 323.638 1290.8 257.175 1358.59 228.362C1426.38 199.548 1511.44 207.075 1575.3 169.013C1640.71 130.296 1684.92 45.9907 1758.18 25.771C1829.91 6.20623 1930.69 50.7269 1980.31 73.3147L2029.93 95.9025L2355.82 862.675C1739.51 1124.61 1120.75 1380.78 504.443 1642.72L39.499 548.772Z" fill="url(#paint2_linear_198_547)" fill-opacity="0.14"/>
<path fill-rule="evenodd" clip-rule="evenodd" d="M39.499 548.772L73.3959 534.366C107.293 519.959 176.627 490.491 271.937 526.418C368.787 561.69 491.612 662.357 568.808 651.386C644.463 641.07 674.49 519.115 730.491 462.556C786.492 405.997 871.55 413.523 951.136 412.455C1032.26 410.733 1107.92 400.417 1173.32 361.7C1237.19 323.638 1290.8 257.175 1358.59 228.362C1426.38 199.548 1511.44 207.075 1575.3 169.013C1640.71 130.296 1684.92 45.9907 1758.18 25.771C1829.91 6.20623 1930.69 50.7269 1980.31 73.3147L2029.93 95.9025L2355.82 862.675C1739.51 1124.61 1120.75 1380.78 504.443 1642.72L39.499 548.772Z" stroke="black"/>
</g>
</g>
<defs>
<linearGradient id="paint0_linear_198_547" x1="2078" y1="-407" x2="478" y2="785" gradientUnits="userSpaceOnUse">
<stop stop-color="#034275"/>
<stop offset="1" stop-color="#02A9F7"/>
</linearGradient>
<linearGradient id="paint1_linear_198_547" x1="2078" y1="-407" x2="478" y2="785" gradientUnits="userSpaceOnUse">
<stop stop-color="#034275"/>
<stop offset="1" stop-color="#02A9F7"/>
</linearGradient>
<linearGradient id="paint2_linear_198_547" x1="963.959" y1="155.862" x2="1431.36" y2="1255.58" gradientUnits="userSpaceOnUse">
<stop stop-color="#1097CD"/>
<stop offset="1" stop-color="#00339B"/>
</linearGradient>
<clipPath id="clip0_198_547">
<rect width="1920" height="544" fill="white"/>
</clipPath>
</defs>
</svg>
