<svg xmlns="http://www.w3.org/2000/svg" width="1920" height="544" fill="none"><g clip-path="url(#a)"><path fill="url(#b)" d="M0 0h1920v544H0z"/><path fill="url(#c)" d="M0 0h1920v544H0z" opacity=".24" style="mix-blend-mode:color-dodge" transform="matrix(-1 0 0 1 1920 0)"/><g clip-rule="evenodd" style="mix-blend-mode:color-dodge"><path fill="url(#d)" fill-opacity=".14" fill-rule="evenodd" d="m39.499 548.772 33.897-14.406c33.897-14.407 103.231-43.875 198.541-7.948 96.85 35.272 219.675 135.939 296.871 124.968 75.655-10.316 105.682-132.271 161.683-188.83 56.001-56.559 141.059-49.033 220.645-50.101 81.124-1.722 156.784-12.038 222.184-50.755 63.87-38.062 117.48-104.525 185.27-133.338 67.79-28.814 152.85-21.287 216.71-59.349 65.41-38.717 109.62-123.022 182.88-143.242 71.73-19.565 172.51 24.956 222.13 47.544l49.62 22.588 325.89 766.772C1739.51 1124.61 1120.75 1380.78 504.443 1642.72L39.499 548.772Z"/><path stroke="#000" d="m39.499 548.772 33.897-14.406c33.897-14.407 103.231-43.875 198.541-7.948 96.85 35.272 219.675 135.939 296.871 124.968 75.655-10.316 105.682-132.271 161.683-188.83 56.001-56.559 141.059-49.033 220.645-50.101 81.124-1.722 156.784-12.038 222.184-50.755 63.87-38.062 117.48-104.525 185.27-133.338 67.79-28.814 152.85-21.287 216.71-59.349 65.41-38.717 109.62-123.022 182.88-143.242 71.73-19.565 172.51 24.956 222.13 47.544l49.62 22.588 325.89 766.772C1739.51 1124.61 1120.75 1380.78 504.443 1642.72L39.499 548.772Z"/></g></g><defs><linearGradient id="b" x1="2078" x2="478" y1="-407" y2="785" gradientUnits="userSpaceOnUse"><stop stop-color="#034275"/><stop offset="1" stop-color="#02A9F7"/></linearGradient><linearGradient id="c" x1="2078" x2="478" y1="-407" y2="785" gradientUnits="userSpaceOnUse"><stop stop-color="#034275"/><stop offset="1" stop-color="#02A9F7"/></linearGradient><linearGradient id="d" x1="963.959" x2="1431.36" y1="155.862" y2="1255.58" gradientUnits="userSpaceOnUse"><stop stop-color="#1097CD"/><stop offset="1" stop-color="#00339B"/></linearGradient><clipPath id="a"><path fill="#fff" d="M0 0h1920v544H0z"/></clipPath></defs></svg>