<svg xmlns="http://www.w3.org/2000/svg" width="122.88" height="102.25" viewBox="0 0 256 213.012"><path fill="#fff" fill-rule="evenodd" stroke-miterlimit="10" d="M61.44 0c7.42.006 13.434 6.02 13.44 13.44A13.61 13.61 0 0 1 74.4 17l29.26 22.72c.24.19.452.412.63.66h9.47a9.15 9.15 0 0 1 9.12 9.13v43.62a9.13 9.13 0 0 1-9.12 9.12H9.11A9.13 9.13 0 0 1 0 93.15V49.52a9.15 9.15 0 0 1 9.12-9.13h9.47c.178-.248.39-.47.63-.66L48.48 17a13.61 13.61 0 0 1-.48-3.56C48.006 6.02 54.02.006 61.44 0zm9.78 22.65-.28.29c-5.25 5.238-13.75 5.238-19 0l-.28-.29-22.85 17.74h65.26zM36.72 57c-.09 1.27-.16 2.52-.23 3.76-.07 1.24-.15 2.5-.26 3.76l-8.57.48v2.5h7.44l-.41 6.27-7.08.2.05 12-10.23.2.65-29.17zm25.93 9.66a13.9 13.9 0 0 1-.27 2.86A8.23 8.23 0 0 1 60 73.85a13 13 0 0 1-2.24 1.74l4.81 8.57-9.1 1.78-3.11-8.61-2.5.08-.37 8.41H38.8c.07-3.07.13-6.14.19-9.18s.13-6.11.21-9.18c0-1.55 0-3.08.08-4.61.08-1.53.08-3.05.17-4.61a26.07 26.07 0 0 1 2.78-.87 29.804 29.804 0 0 1 5.57-.8c.94-.05 1.93-.07 2.92-.07 1.513 0 3.018.215 4.47.64A11.61 11.61 0 0 1 59 59.05a9.62 9.62 0 0 1 2.66 3.17 9.37 9.37 0 0 1 1 4.43zm-9 .65a4.82 4.82 0 0 0-.24-1.56 3.34 3.34 0 0 0-.69-1.22 3.15 3.15 0 0 0-1.13-.81 4 4 0 0 0-1.59-.3 5.08 5.08 0 0 0-.79 0 5.85 5.85 0 0 0-.75.15l-.32 7.52h.48a7.79 7.79 0 0 0 1.77-.22 5.36 5.36 0 0 0 1.61-.64A3.69 3.69 0 0 0 53.14 69a3.18 3.18 0 0 0 .46-1.74zM84.41 57c-.09 1.27-.16 2.52-.22 3.76-.06 1.24-.16 2.5-.27 3.76l-8.57.48-.2 2.54h6l-.44 6.27-6.07.2-.2 3H83c-.08 1.49-.16 3-.25 4.42s-.17 2.93-.24 4.39l-17.42.41.68-29.23zm21 0c-.08 1.27-.16 2.52-.22 3.76-.06 1.24-.16 2.5-.26 3.76l-8.54.48-.2 2.54h6l-.44 6.27-6.06.2-.21 3h8.58c-.09 1.49-.17 3-.26 4.42s-.16 2.93-.23 4.39l-17.43.41.67-29.23zm8.31-11.11H9.12a3.65 3.65 0 0 0-3.63 3.64v43.62a3.64 3.64 0 0 0 3.63 3.61h104.64c2-.01 3.62-1.63 3.63-3.63V49.52a3.65 3.65 0 0 0-3.63-3.64zM61.44 7.75a5.68 5.68 0 1 1 .046 11.36 5.68 5.68 0 0 1-.046-11.36z" font-family="none" font-size="none" font-weight="none" style="mix-blend-mode:normal" text-anchor="none" transform="translate(0 -.004) scale(2.08333)"/></svg>