<svg version="1.1" xmlns="http://www.w3.org/2000/svg" xmlns:xlink="http://www.w3.org/1999/xlink" width="122.88px" height="102.25px" viewBox="0,0,256,213.0125"><g fill="#ffffff" fill-rule="evenodd" stroke="none" stroke-width="1" stroke-linecap="butt" stroke-linejoin="miter" stroke-miterlimit="10" stroke-dasharray="" stroke-dashoffset="0" font-family="none" font-weight="none" font-size="none" text-anchor="none" style="mix-blend-mode: normal"><g transform="translate(0,-0.00417) scale(2.08333,2.08333)"><path d="M61.44,0c7.42042,0.00551 13.43449,6.01958 13.44,13.44c-0.00201,1.20266 -0.16341,2.39975 -0.48,3.56l29.26,22.72c0.2399,0.18938 0.45198,0.41155 0.63,0.66h9.47c5.03389,0.01649 9.10902,4.09609 9.12,9.13v43.62c-0.00551,5.03455 -4.08545,9.11449 -9.12,9.12h-104.65c-5.02286,-0.01098 -9.09351,-4.07715 -9.11,-9.1v0v-43.63c0.01098,-5.03391 4.08611,-9.11351 9.12,-9.13h9.47c0.17802,-0.24845 0.3901,-0.47062 0.63,-0.66l29.26,-22.73c-0.31659,-1.16025 -0.47799,-2.35734 -0.48,-3.56c0.00551,-7.42042 6.01958,-13.43449 13.44,-13.44zM71.22,22.65l-0.28,0.29c-5.25012,5.23845 -13.74988,5.23845 -19,0l-0.28,-0.29l-22.85,17.74h65.26zM36.72,57c-0.09,1.27 -0.16,2.52 -0.23,3.76c-0.07,1.24 -0.15,2.5 -0.26,3.76l-8.57,0.48v2.5h7.44l-0.41,6.27l-7.08,0.2l0.05,12l-10.23,0.2l0.65,-29.17zM62.65,66.66c0.00902,0.9601 -0.08146,1.91855 -0.27,2.86c-0.33112,1.65303 -1.1619,3.1645 -2.38,4.33c-0.68097,0.65996 -1.43211,1.24344 -2.24,1.74l4.81,8.57l-9.1,1.78l-3.11,-8.61l-2.5,0.08l-0.37,8.41h-8.69c0.07,-3.07 0.13,-6.14 0.19,-9.18c0.06,-3.04 0.13,-6.11 0.21,-9.18c0,-1.55 0,-3.08 0.08,-4.61c0.08,-1.53 0.08,-3.05 0.17,-4.61c0.90973,-0.34158 1.83784,-0.63204 2.78,-0.87c0.92,-0.22 1.84,-0.4 2.76,-0.53c0.92,-0.13 1.87,-0.22 2.81,-0.27c0.94,-0.05 1.93,-0.07 2.92,-0.07c1.51287,-0.00055 3.01806,0.21496 4.47,0.64c1.37698,0.39611 2.66874,1.04369 3.81,1.91c1.10613,0.85119 2.01379,1.93288 2.66,3.17c0.69156,1.37232 1.03498,2.89367 1,4.43zM53.65,67.31c0.00626,-0.52965 -0.07483,-1.05672 -0.24,-1.56c-0.14112,-0.45089 -0.3763,-0.86671 -0.69,-1.22c-0.31164,-0.35079 -0.69771,-0.62753 -1.13,-0.81c-0.50403,-0.20727 -1.0451,-0.30936 -1.59,-0.3c-0.26293,-0.02051 -0.52707,-0.02051 -0.79,0c-0.253,0.03359 -0.50354,0.08369 -0.75,0.15l-0.32,7.52h0.48c0.59648,-0.00532 1.19037,-0.07914 1.77,-0.22c0.56782,-0.12461 1.11159,-0.34077 1.61,-0.64c0.46937,-0.31707 0.85944,-0.73794 1.14,-1.23c0.31769,-0.5236 0.47742,-1.1278 0.46,-1.74zM84.41,57c-0.09,1.27 -0.16,2.52 -0.22,3.76c-0.06,1.24 -0.16,2.5 -0.27,3.76l-8.57,0.48l-0.2,2.54h6l-0.44,6.27l-6.07,0.2l-0.2,3h8.56c-0.08,1.49 -0.16,3 -0.25,4.42c-0.09,1.42 -0.17,2.93 -0.24,4.39l-17.42,0.41l0.68,-29.23zM105.41,57c-0.08,1.27 -0.16,2.52 -0.22,3.76c-0.06,1.24 -0.16,2.5 -0.26,3.76l-8.54,0.48l-0.2,2.54h6l-0.44,6.27l-6.06,0.2l-0.21,3h8.58c-0.09,1.49 -0.17,3 -0.26,4.42c-0.09,1.42 -0.16,2.93 -0.23,4.39l-17.43,0.41l0.67,-29.23zM113.72,45.89h-104.6c-2.00413,0.01097 -3.62454,1.63585 -3.63,3.64v43.62v0c0.01643,1.9947 1.63524,3.60459 3.63,3.61h104.64c2.00025,-0.01093 3.61907,-1.62975 3.63,-3.63v-43.61c-0.00546,-2.00415 -1.62587,-3.62903 -3.63,-3.64zM61.44,7.75c2.71105,-0.01087 5.05187,1.89572 5.58982,4.55288c0.53795,2.65716 -0.87693,5.32411 -3.37872,6.3686c-2.50179,1.0445 -5.39299,0.17535 -6.90413,-2.07551c-1.51114,-2.25086 -1.22093,-5.2559 0.69303,-7.17597c1.05953,-1.06447 2.49811,-1.66507 4,-1.67z"></path></g></g></svg>