<svg xmlns="http://www.w3.org/2000/svg" width="318" height="246" fill="none"><rect width="318" height="246" fill="url(#a)" rx="15"/><mask id="b" width="318" height="246" x="0" y="0" maskUnits="userSpaceOnUse" style="mask-type:alpha"><rect width="318" height="246" fill="#F4FEFF" rx="15"/></mask><g mask="url(#b)"><path fill="url(#c)" fill-opacity=".15" fill-rule="evenodd" d="m523.082 326.618-17.099-6.614c-17.098-6.615-52.073-20.144-70.44-59.254-19.144-39.41-21.68-104.402-52.132-125.326-29.675-20.623-87.264 2.821-128.246.684-40.982-2.136-66.911-30.455-94.324-54.776-28.19-24.621-57.864-45.244-95.1-55.076-36.46-9.532-80.48-8.272-114.678-21.5-34.197-13.23-20.982-20.16-57.441-29.692-10.064 4.173 244.933-101.095 311.633-129.241l317.827 480.795Z" clip-rule="evenodd" style="mix-blend-mode:screen"/></g><defs><linearGradient id="a" x1="159" x2="159" y1="0" y2="246" gradientUnits="userSpaceOnUse"><stop stop-color="#03E6F4"/><stop offset="1" stop-color="#2699FF"/></linearGradient><linearGradient id="c" x1="56.753" x2="239.684" y1="146.227" y2="-326.668" gradientUnits="userSpaceOnUse"><stop stop-color="#7BE1FF"/><stop offset="1" stop-color="#00339B"/></linearGradient></defs></svg>