<svg width="318" height="246" viewBox="0 0 318 246" fill="none" xmlns="http://www.w3.org/2000/svg">
<rect width="318" height="246" rx="15" fill="url(#paint0_linear_981_1279)"/>
<mask id="mask0_981_1279" style="mask-type:alpha" maskUnits="userSpaceOnUse" x="0" y="0" width="318" height="246">
<rect width="318" height="246" rx="15" fill="#F4FEFF"/>
</mask>
<g mask="url(#mask0_981_1279)">
<g style="mix-blend-mode:screen">
<path fill-rule="evenodd" clip-rule="evenodd" d="M523.082 326.618L505.983 320.004C488.885 313.389 453.91 299.86 435.543 260.75C416.399 221.34 413.863 156.348 383.411 135.424C353.736 114.801 296.147 138.245 255.165 136.108C214.183 133.972 188.254 105.653 160.841 81.3323C132.651 56.711 102.977 36.0876 65.7404 26.2556C29.2814 16.7243 -14.7392 17.9842 -48.9367 4.75553C-83.1341 -8.47315 -69.9188 -15.4049 -106.378 -24.9363C-116.442 -20.7626 138.555 -126.031 205.255 -154.177L523.082 326.618Z" fill="url(#paint1_linear_981_1279)" fill-opacity="0.15"/>
</g>
</g>
<defs>
<linearGradient id="paint0_linear_981_1279" x1="159" y1="0" x2="159" y2="246" gradientUnits="userSpaceOnUse">
<stop stop-color="#03E6F4"/>
<stop offset="1" stop-color="#2699FF"/>
</linearGradient>
<linearGradient id="paint1_linear_981_1279" x1="56.7531" y1="146.227" x2="239.684" y2="-326.668" gradientUnits="userSpaceOnUse">
<stop stop-color="#7BE1FF"/>
<stop offset="1" stop-color="#00339B"/>
</linearGradient>
</defs>
</svg>
