<svg xmlns="http://www.w3.org/2000/svg" width="1919" height="584" fill="none"><g clip-path="url(#a)"><path fill="#E9F7FD" d="M0 0h1919v584H0z"/><path fill="url(#b)" d="M1917.59-121.023H-.411v707H1917.59v-707Z"/><path fill="url(#c)" fill-opacity=".8" d="M1917.59-121.023H-.411v706.999l1450.331.001 467.67-.001v-706.999Z" style="mix-blend-mode:color-dodge"/><g clip-rule="evenodd" style="mix-blend-mode:screen"><path fill="url(#d)" fill-opacity=".2" fill-rule="evenodd" d="m1266.99-7.096-28.32 20.9c-28.32 20.901-86.26 63.652-182.82 51.357-97.856-11.345-234.339-77.736-303.678-50.441-68.052 26.344-68.961 146.374-108.5 211.359-39.54 64.984-120.284 76.823-194.039 95.44-75.042 19.566-143.094 45.911-195.326 96.39-50.944 49.528-86.068 123.19-142.715 164.991-56.647 41.8-59.646 12.572-110.59 62.1 0 21.059 1-512 0-652.096H1266.99Z"/><path stroke="#000" d="m1266.99-7.096-28.32 20.9c-28.32 20.901-86.26 63.652-182.82 51.357-97.856-11.345-234.339-77.736-303.678-50.441-68.052 26.344-68.961 146.374-108.5 211.359-39.54 64.984-120.284 76.823-194.039 95.44-75.042 19.566-143.094 45.911-195.326 96.39-50.944 49.528-86.068 123.19-142.715 164.991-56.647 41.8-59.646 12.572-110.59 62.1 0 21.059 1-512 0-652.096H1266.99Z"/></g><g filter="url(#e)" style="mix-blend-mode:soft-light"><path fill="url(#f)" fill-opacity=".22" fill-rule="evenodd" d="M685.6 100.254c-143.094-.053-259.051-116.097-258.998-259.191.054-143.094 116.097-259.051 259.191-258.998 143.094.053 259.051 116.097 258.998 259.191C944.738-15.65 828.694 100.307 685.6 100.254Zm1154.91 43.715c85.6 0 155-69.396 155-155 0-85.605-69.4-155-155-155-85.61 0-155 69.395-155 155 0 85.604 69.39 155 155 155Zm-1742.004 261c85.604 0 155-69.396 155-155 0-85.605-69.396-155-155-155s-155 69.395-155 155c0 85.604 69.396 155 155 155Zm753.062 46.65c-.034 92.039 74.55 166.679 166.592 166.713 92.04.034 166.68-74.55 166.71-166.589.03-92.038-74.55-166.678-166.59-166.712-92.038-.035-166.678 74.55-166.712 166.588Z" clip-rule="evenodd"/></g></g><defs><linearGradient id="b" x1="356.472" x2="1737.93" y1="-394.163" y2="1374.77" gradientUnits="userSpaceOnUse"><stop stop-color="#034275"/><stop offset="1" stop-color="#02A9F7"/></linearGradient><linearGradient id="c" x1="356.472" x2="1737.93" y1="-394.162" y2="1374.77" gradientUnits="userSpaceOnUse"><stop stop-color="#034275"/><stop offset="1" stop-color="#02A9F7"/></linearGradient><linearGradient id="d" x1="494.534" x2="-183.537" y1="562.912" y2="-355.991" gradientUnits="userSpaceOnUse"><stop stop-color="#1097CD"/><stop offset="1" stop-color="#00339B"/></linearGradient><linearGradient id="f" x1="1184.87" x2="851.569" y1="451.743" y2="451.619" gradientUnits="userSpaceOnUse"><stop stop-color="#D4F0FC"/><stop offset="1" stop-color="#D9D9D9" stop-opacity="0"/></linearGradient><clipPath id="a"><path fill="#fff" d="M0 0h1919v584H0z"/></clipPath><filter id="e" width="2096" height="1080.27" x="-78.494" y="-439.935" color-interpolation-filters="sRGB" filterUnits="userSpaceOnUse"><feFlood flood-opacity="0" result="BackgroundImageFix"/><feBlend in="SourceGraphic" in2="BackgroundImageFix" result="shape"/><feGaussianBlur result="effect1_foregroundBlur_226_380" stdDeviation="11"/></filter></defs></svg>