<svg xmlns="http://www.w3.org/2000/svg" width="588" height="161" fill="none"><mask id="b" width="588" height="161" x="0" y="0" maskUnits="userSpaceOnUse" style="mask-type:alpha"><rect width="588" height="161" fill="url(#a)" rx="20"/></mask><g mask="url(#b)"><g filter="url(#c)"><rect width="588" height="161" fill="url(#d)" rx="20"/></g><path fill="url(#e)" fill-opacity=".2" fill-rule="evenodd" d="m595.648-1.746-14.013 10.34c-14.013 10.341-42.677 31.493-90.454 25.41-48.413-5.613-115.94-38.461-150.246-24.957-33.67 13.035-34.12 72.421-53.682 104.573-19.563 32.152-59.512 38.009-96.003 47.22-37.128 9.681-70.798 22.715-96.64 47.69-25.206 24.505-42.584 60.95-70.61 81.632-28.027 20.681-29.511 6.22-54.716 30.725 0 10.419.495-253.319 0-322.633h626.364Z" clip-rule="evenodd" style="mix-blend-mode:screen"/></g><defs><linearGradient id="a" x1="12.124" x2="242.322" y1="6.012" y2="333.281" gradientUnits="userSpaceOnUse"><stop stop-color="#145EF7"/><stop offset="1" stop-color="#03E6F4"/></linearGradient><linearGradient id="d" x1="12.124" x2="242.322" y1="6.012" y2="333.281" gradientUnits="userSpaceOnUse"><stop stop-color="#145EF7"/><stop offset="1" stop-color="#03E6F4"/></linearGradient><linearGradient id="e" x1="213.465" x2="-122.02" y1="280.272" y2="-174.367" gradientUnits="userSpaceOnUse"><stop stop-color="#fff"/><stop offset="1" stop-color="#00339B"/></linearGradient><filter id="c" width="604" height="177" x="-8" y="-4" color-interpolation-filters="sRGB" filterUnits="userSpaceOnUse"><feFlood flood-opacity="0" result="BackgroundImageFix"/><feColorMatrix in="SourceAlpha" result="hardAlpha" values="0 0 0 0 0 0 0 0 0 0 0 0 0 0 0 0 0 0 127 0"/><feOffset dy="4"/><feGaussianBlur stdDeviation="4"/><feComposite in2="hardAlpha" operator="out"/><feColorMatrix values="0 0 0 0 0.00784314 0 0 0 0 0.662745 0 0 0 0 0.968627 0 0 0 0.2 0"/><feBlend in2="BackgroundImageFix" result="effect1_dropShadow_1278_5048"/><feBlend in="SourceGraphic" in2="effect1_dropShadow_1278_5048" result="shape"/></filter></defs></svg>