<svg xmlns="http://www.w3.org/2000/svg" width="1919" height="600" fill="none"><g clip-path="url(#a)"><path fill="url(#b)" d="M0 .002h1920v600H0z"/><g clip-rule="evenodd" style="mix-blend-mode:color-dodge"><path fill="url(#c)" fill-opacity=".14" fill-rule="evenodd" d="M1955.62 62.777 1921.9 77.59c-33.72 14.812-102.7 45.11-198.43 10.329-97.27-34.108-221.29-133.295-298.35-121.4-75.53 11.223-104.09 133.529-159.41 190.756-55.32 57.227-140.46 50.721-220.03 52.743-81.098 2.695-156.625 13.918-221.56 53.416-63.402 38.825-116.212 105.926-183.655 135.55-67.443 29.625-152.585 23.119-215.987 61.944-64.935 39.499-108.13 124.328-181.147 145.425-71.485 20.423-172.792-22.886-222.68-44.877l-49.887-21.991-335.062-762.809C248.823-492.637 1342.5-448.689 1955.62-718.001V62.777Z"/><path stroke="#000" d="M1955.62 62.777 1921.9 77.59c-33.72 14.812-102.7 45.11-198.43 10.329-97.27-34.108-221.29-133.295-298.35-121.4-75.53 11.223-104.09 133.529-159.41 190.756-55.32 57.227-140.46 50.721-220.03 52.743-81.098 2.695-156.625 13.918-221.56 53.416-63.402 38.825-116.212 105.926-183.655 135.55-67.443 29.625-152.585 23.119-215.987 61.944-64.935 39.499-108.13 124.328-181.147 145.425-71.485 20.423-172.792-22.886-222.68-44.877l-49.887-21.991-335.062-762.809C248.823-492.637 1342.5-448.689 1955.62-718.001V62.777Z"/></g></g><defs><linearGradient id="b" x1="-42" x2="1718" y1="-64.998" y2="739.002" gradientUnits="userSpaceOnUse"><stop stop-color="#034275"/><stop offset="1" stop-color="#02A9F7"/></linearGradient><linearGradient id="c" x1="1035.94" x2="555.383" y1="466.741" y2="-627.297" gradientUnits="userSpaceOnUse"><stop stop-color="#1097CD"/><stop offset="1" stop-color="#00339B"/></linearGradient><clipPath id="a"><path fill="#fff" d="M0 0h1919v600H0z"/></clipPath></defs></svg>