<svg xmlns="http://www.w3.org/2000/svg" width="122.88" height="96.04" viewBox="0 0 256 200.075"><path fill="#fff" fill-rule="evenodd" stroke-miterlimit="10" d="M59.07 96.03 1.15 29.77h38.01l19.91 66.26zM61.18.11 45.89 25.24H77.6L61.18.11zm21 24.96L65.17 0h31.45L82.18 25.07zm-40.53.24L56.55 0H24.61l17.04 25.31zm60.06-22.33L86.67 25.24h36.21L101.71 2.98zm-79.45 0 15.81 22.26H0L22.26 2.98zm22.47 26.59h33.63L62.04 95.04 44.73 29.57zm20.18 66.47 57.23-66.27H84.13L64.91 96.04z" font-family="none" font-size="none" font-weight="none" style="mix-blend-mode:normal" text-anchor="none" transform="translate(0 -.004) scale(2.08333)"/></svg>