<svg width="62" height="68" viewBox="0 0 62 68" fill="none" xmlns="http://www.w3.org/2000/svg">
<path d="M61.3225 27.2391C61.3225 23.1874 56.2502 19.347 48.4705 16.9672C50.2655 9.03862 49.4682 2.7304 45.9526 0.71069C45.1009 0.232452 44.1366 -0.00875095 43.16 0.0121848V2.79267C43.6536 2.77742 44.1429 2.8888 44.5814 3.11621C46.2762 4.08951 47.018 7.79187 46.4386 12.5542C46.3032 13.7251 46.0772 14.9597 45.8024 16.2186C43.197 15.5923 40.5528 15.1401 37.8873 14.8649C36.2986 12.6766 34.5661 10.5963 32.7013 8.63793C36.7624 4.86112 40.5798 2.79132 43.1722 2.79132V0C39.7446 0 35.2571 2.43665 30.7182 6.68184C26.1806 2.46914 21.6917 0.0487331 18.2642 0.0487331V2.82922C20.8443 2.82922 24.6712 4.88549 28.735 8.63793C26.8805 10.5916 25.1618 12.6699 23.591 14.8582C20.9197 15.132 18.2705 15.5902 15.6624 16.2294C15.3754 14.9827 15.1642 13.7738 15.0139 12.6151C14.4291 7.85279 15.1493 4.15043 16.8347 3.16494C17.2083 2.94158 17.6943 2.84141 18.2682 2.84141V0.0622709C17.2839 0.0411191 16.3116 0.282198 15.4512 0.760778C11.9478 2.78049 11.1627 9.07517 12.9699 16.9794C5.2159 19.3727 0.167969 23.1996 0.167969 27.2391C0.167969 31.2785 5.24162 35.1297 13.0199 37.5109C11.225 45.4395 12.0223 51.7463 15.5378 53.7661C16.3935 54.2456 17.3621 54.4868 18.3427 54.4646C21.7716 54.4646 26.2591 52.0211 30.7967 47.7827C35.3343 51.9968 39.8218 54.4158 43.2507 54.4158C44.2347 54.434 45.2058 54.1906 46.065 53.7106C49.567 51.6908 50.3535 45.3962 48.545 37.4933C56.2746 35.1121 61.3225 31.2663 61.3225 27.2336V27.2391ZM45.093 18.9206C44.6314 20.5288 44.0575 22.1871 43.409 23.8453C42.8987 22.8477 42.3626 21.85 41.7765 20.8537C41.1903 19.8574 40.592 18.884 39.9815 17.9365C41.7508 18.1977 43.4591 18.5226 45.093 18.9206ZM39.3832 32.2003C38.4099 33.883 37.4135 35.479 36.3793 36.9626C34.5207 37.1237 32.6391 37.2117 30.7439 37.2117C28.8487 37.2117 26.9793 37.1237 25.1342 36.9748C24.0999 35.4858 23.0901 33.9074 22.1181 32.2369C21.1706 30.6043 20.3096 28.9461 19.5245 27.2756C20.2974 25.6051 21.1706 23.9347 22.1046 22.3021C23.0779 20.6195 24.0742 19.0235 25.1098 17.5398C26.9671 17.3774 28.8487 17.2907 30.7439 17.2907C32.6391 17.2907 34.5085 17.3774 36.3536 17.5276C37.3878 19.0113 38.3936 20.5906 39.371 22.2656C40.3186 23.8995 41.1782 25.5564 41.9633 27.2282C41.1782 28.896 40.3186 30.5624 39.3832 32.2003ZM43.409 30.5759C44.0642 32.2003 44.6378 33.8541 45.1296 35.5372C43.497 35.9352 41.7765 36.2723 39.9937 36.5335C40.6042 35.5737 41.212 34.5896 41.7887 33.5798C42.3654 32.5699 42.8987 31.5722 43.4131 30.5759H43.409ZM30.7682 43.8773C29.5464 42.607 28.3897 41.2755 27.3028 39.888C28.425 39.9381 29.5716 39.9746 30.7317 39.9746C31.8918 39.9746 33.0628 39.9502 34.1972 39.888C33.1272 41.2801 31.9826 42.6132 30.7682 43.8814V43.8773ZM21.4941 36.5335C19.7234 36.2723 18.0164 35.9487 16.3839 35.5494C16.8441 33.9412 17.4181 32.2829 18.0665 30.6246C18.5769 31.6223 19.1129 32.62 19.6991 33.6177C20.2852 34.6153 20.8836 35.5914 21.4941 36.5376V36.5335ZM30.706 10.5927C31.9295 11.8639 33.0862 13.1977 34.1714 14.5888C33.0506 14.5387 31.904 14.5008 30.7439 14.5008C29.5838 14.5008 28.4128 14.5265 27.2784 14.5888C28.3484 13.1975 29.4925 11.8648 30.706 10.5967V10.5927ZM21.4819 17.9351C20.8714 18.8949 20.2636 19.879 19.6869 20.8889C19.1102 21.8987 18.5769 22.8842 18.0625 23.8805C17.4073 22.2561 16.8338 20.6023 16.3419 18.9192C17.9785 18.5375 19.6991 18.2004 21.4819 17.9392V17.9351ZM10.2002 33.5405C5.78716 31.6589 2.93222 29.1911 2.93222 27.2336C2.93222 25.2762 5.78716 22.7949 10.2002 20.9254C11.2723 20.4638 12.4433 20.0523 13.6535 19.6665C14.4159 22.2574 15.353 24.7937 16.4583 27.258C15.3652 29.7106 14.4403 32.2348 13.69 34.813C12.4568 34.4258 11.2845 34.0008 10.2002 33.5405ZM16.9064 51.3551C15.2116 50.3832 14.4698 46.6808 15.0491 41.9185C15.1845 40.7462 15.4106 39.5117 15.6854 38.2527C18.2908 38.879 20.935 39.3312 23.6004 39.6064C25.1888 41.795 26.9214 43.8753 28.7864 45.8334C24.7254 49.6116 20.9079 51.68 18.3156 51.68C17.8268 51.6908 17.3428 51.5811 16.9064 51.3605V51.3551ZM46.4765 41.8563C47.0613 46.6172 46.3412 50.3195 44.6558 51.305C44.2822 51.5298 43.7962 51.6286 43.2222 51.6286C40.6421 51.6286 36.8152 49.5723 32.7514 45.8199C34.6065 43.8643 36.3252 41.7837 37.8955 39.5929C40.5668 39.319 43.2159 38.8608 45.824 38.2216C46.1037 39.4187 46.3201 40.6296 46.4725 41.8495L46.4765 41.8563ZM51.2754 33.5405C50.2033 34.0021 49.031 34.4136 47.8221 34.7994C47.0595 32.2086 46.1224 29.6723 45.0172 27.2079C46.1107 24.7578 47.0356 22.2358 47.7855 19.6597C49.0188 20.0455 50.1911 20.4719 51.2876 20.9308C55.7006 22.8125 58.5555 25.2816 58.5555 27.2391C58.5555 29.1965 55.6884 31.6765 51.2754 33.5405Z" fill="#61DAFB"/>
<path d="M30.7289 32.9345C31.8558 32.9345 32.9575 32.6003 33.8945 31.9741C34.8315 31.348 35.5618 30.4581 35.993 29.4169C36.4242 28.3757 36.537 27.23 36.317 26.1247C36.097 25.0194 35.5543 24.0042 34.7573 23.2074C33.9603 22.4106 32.945 21.8681 31.8396 21.6484C30.7343 21.4287 29.5886 21.5417 28.5475 21.9732C27.5064 22.4046 26.6167 23.1351 25.9908 24.0723C25.3648 25.0094 25.0309 26.1112 25.0312 27.2381C25.0312 27.9863 25.1786 28.7271 25.4649 29.4183C25.7513 30.1095 26.171 30.7376 26.7001 31.2665C27.2292 31.7955 27.8573 32.2151 28.5486 32.5012C29.2398 32.7874 29.9807 32.9346 30.7289 32.9345ZM2.94158 64.2685H1.0613V67.5173H0V59.5048H2.65053C3.553 59.5048 4.24564 59.7101 4.72846 60.1207C5.21127 60.5313 5.45539 61.1288 5.46081 61.913C5.4707 62.3801 5.32814 62.8378 5.0547 63.2166C4.7712 63.5984 4.38057 63.8873 3.93248 64.0464L5.81412 67.4456V67.5173H4.68108L2.94158 64.2685ZM1.0613 63.4048H2.68573C3.21096 63.4048 3.627 63.2694 3.93384 62.9987C4.08789 62.8647 4.20994 62.6978 4.291 62.5104C4.37205 62.323 4.41006 62.1198 4.40222 61.9157C4.40222 61.4216 4.25331 61.0412 3.95685 60.7773C3.66039 60.5133 3.23804 60.3793 2.68031 60.3712H1.0613V63.4048ZM9.25521 67.6175C8.44841 67.6175 7.79187 67.3535 7.28559 66.8256C6.77931 66.2976 6.52662 65.5883 6.52752 64.6976V64.5108C6.51743 63.966 6.63179 63.4262 6.86188 62.9324C7.0713 62.4905 7.39936 62.1156 7.80947 61.8494C8.20074 61.59 8.6599 61.4521 9.12932 61.4528C9.90363 61.4528 10.5047 61.7077 10.9324 62.2176C11.3602 62.7275 11.5745 63.4562 11.5754 64.4038V64.8275H7.54414C7.5351 65.3488 7.71711 65.8553 8.05584 66.2516C8.21296 66.4274 8.40648 66.567 8.62294 66.6605C8.83941 66.754 9.07364 66.7992 9.30936 66.7931C9.62767 66.8033 9.94286 66.7276 10.2218 66.5738C10.476 66.4238 10.6986 66.2256 10.8769 65.9903L11.4983 66.475C10.9983 67.2412 10.2506 67.6243 9.25521 67.6243V67.6175ZM9.12796 62.2826C8.9333 62.2789 8.74014 62.3173 8.56166 62.3951C8.38317 62.4729 8.22357 62.5883 8.09374 62.7334C7.81624 63.0312 7.64296 63.4495 7.57799 63.9882H10.5561V63.9111C10.5272 63.394 10.3883 62.9942 10.1392 62.7117C10.013 62.5693 9.8566 62.4569 9.68142 62.3826C9.50624 62.3084 9.31669 62.2742 9.12661 62.2826H9.12796ZM16.4312 67.5173C16.3513 67.317 16.3029 67.1056 16.2877 66.8906C16.0728 67.1252 15.811 67.3122 15.5193 67.4392C15.2275 67.5663 14.9124 67.6307 14.5942 67.6283C14.0669 67.6493 13.5509 67.4726 13.1471 67.1329C12.9664 66.9763 12.8225 66.7819 12.7256 66.5633C12.6287 66.3448 12.5813 66.1075 12.5867 65.8685C12.5744 65.5888 12.6324 65.3104 12.7554 65.0588C12.8783 64.8072 13.0623 64.5904 13.2906 64.4282C13.7635 64.0834 14.4272 63.9111 15.2819 63.9111H16.2714V63.4427C16.2791 63.2873 16.2547 63.132 16.1997 62.9864C16.1448 62.8409 16.0604 62.7082 15.9519 62.5966C15.7399 62.3837 15.4263 62.2772 15.0111 62.2772C14.6856 62.2652 14.3651 62.3603 14.0987 62.5479C13.9876 62.6204 13.896 62.719 13.8318 62.8351C13.7676 62.9512 13.7328 63.0813 13.7305 63.2139H12.7071C12.7133 62.9008 12.8238 62.5988 13.0212 62.3557C13.2469 62.0668 13.5422 61.84 13.8794 61.6964C14.2554 61.5324 14.6619 61.4499 15.072 61.4541C15.7588 61.4541 16.2958 61.6265 16.6829 61.9712C17.0701 62.316 17.2718 62.7871 17.288 63.3845V66.123C17.2707 66.5667 17.342 67.0095 17.4979 67.4253V67.5173H16.4312ZM14.7417 66.743C15.0612 66.7429 15.3748 66.6574 15.6501 66.4953C15.9177 66.3491 16.1345 66.1248 16.2714 65.8523V64.6339H15.4741C14.2278 64.6339 13.6046 64.9985 13.6046 65.7277C13.5973 65.8685 13.6221 66.0091 13.6772 66.1388C13.7324 66.2685 13.8163 66.3839 13.9228 66.4763C14.1524 66.6609 14.4406 66.757 14.735 66.7471L14.7417 66.743ZM21.2693 66.7972C21.6142 66.8023 21.9498 66.6853 22.2168 66.4669C22.3453 66.3684 22.4517 66.2442 22.5293 66.1023C22.6069 65.9603 22.6541 65.8037 22.6676 65.6425H23.6301C23.608 65.9938 23.4859 66.3316 23.2781 66.6158C23.0547 66.9302 22.7559 67.1834 22.4091 67.3522C22.0551 67.5331 21.6627 67.626 21.2652 67.6229C20.453 67.6229 19.8077 67.3522 19.3294 66.8107C18.8511 66.2692 18.6129 65.5283 18.6147 64.5879V64.4187C18.605 63.8861 18.7141 63.358 18.9341 62.8728C19.1297 62.4414 19.4468 62.0764 19.8465 61.8223C20.2725 61.566 20.7628 61.4364 21.2598 61.4487C21.8699 61.428 22.4646 61.6427 22.9208 62.0484C23.1395 62.245 23.3153 62.4846 23.4374 62.7522C23.5594 63.0198 23.625 63.3097 23.6301 63.6038H22.6676C22.6502 63.2426 22.4923 62.9026 22.2277 62.6562C22.0989 62.5331 21.9472 62.4366 21.7811 62.3723C21.615 62.3079 21.4378 62.277 21.2598 62.2812C21.0285 62.2702 20.7979 62.3155 20.588 62.4134C20.3782 62.5113 20.1952 62.6587 20.055 62.843C19.7734 63.213 19.6326 63.75 19.6326 64.4539V64.6461C19.6326 65.3311 19.7734 65.859 20.055 66.23C20.1966 66.4136 20.3808 66.5601 20.5916 66.6568C20.8024 66.7535 21.0336 66.7975 21.2652 66.785L21.2693 66.7972ZM26.1575 60.1275V61.5611H27.2688V62.3476H26.1575V66.0377C26.1433 66.23 26.1959 66.4212 26.3064 66.5792C26.3728 66.6437 26.4526 66.6928 26.54 66.7232C26.6275 66.7536 26.7205 66.7645 26.8126 66.7552C26.9756 66.7495 27.1375 66.7272 27.2959 66.6889V67.5173C27.0418 67.5896 26.779 67.627 26.5148 67.6283C26.0613 67.6283 25.7175 67.493 25.4874 67.2222C25.2572 66.9515 25.1408 66.5562 25.1408 66.0513V62.3476H24.0579V61.5611H25.1408V60.1207L26.1575 60.1275ZM37.5677 67.5173H36.5064L32.4765 61.3485V67.5173H31.4152V59.5048H32.4765L36.5173 65.702V59.5048H37.5677V67.5173ZM42.9568 67.5173C42.8776 67.3168 42.8293 67.1055 42.8133 66.8906C42.5986 67.1254 42.3368 67.3125 42.0451 67.4396C41.7533 67.5667 41.4381 67.631 41.1198 67.6283C40.593 67.6491 40.0775 67.4724 39.6741 67.1329C39.4934 66.9763 39.3495 66.7819 39.2526 66.5633C39.1557 66.3448 39.1083 66.1075 39.1137 65.8685C39.1011 65.5887 39.1589 65.3102 39.2819 65.0586C39.4049 64.8069 39.5891 64.5902 39.8176 64.4282C40.2905 64.0834 40.9538 63.9111 41.8075 63.9111H42.7971V63.4427C42.8051 63.2873 42.7808 63.1318 42.7259 62.9862C42.6709 62.8406 42.5864 62.708 42.4776 62.5966C42.2664 62.3841 41.9524 62.2772 41.5381 62.2772C41.2126 62.2652 40.8921 62.3603 40.6257 62.5479C40.5146 62.6204 40.423 62.719 40.3588 62.8351C40.2946 62.9512 40.2599 63.0813 40.2575 63.2139H39.2341C39.2398 62.901 39.3499 62.5989 39.5469 62.3557C39.773 62.0674 40.0682 61.8406 40.4051 61.6964C40.7815 61.5323 41.1884 61.4497 41.599 61.4541C42.284 61.4541 42.821 61.6265 43.2099 61.9712C43.5989 62.316 43.8006 62.7871 43.815 63.3845V66.123C43.7974 66.5666 43.8682 67.0093 44.0235 67.4253V67.5173H42.9568ZM41.2687 66.743C41.5878 66.7431 41.901 66.6575 42.1757 66.4953C42.4434 66.3491 42.6601 66.1248 42.7971 65.8523V64.6339H41.9997C40.7525 64.6339 40.1294 64.9985 40.1303 65.7277C40.1232 65.8686 40.1483 66.0092 40.2036 66.1389C40.259 66.2686 40.3432 66.384 40.4498 66.4763C40.681 66.6627 40.972 66.7588 41.2687 66.7471V66.743ZM46.7891 60.1275V61.5611H47.9005V62.3476H46.7891V66.0377C46.775 66.23 46.8276 66.4212 46.938 66.5792C47.0045 66.6437 47.0842 66.6928 47.1717 66.7232C47.2591 66.7536 47.3522 66.7645 47.4443 66.7552C47.6072 66.7494 47.7691 66.7272 47.9276 66.6889V67.5173C47.6735 67.5896 47.4107 67.627 47.1465 67.6283C46.693 67.6283 46.3492 67.493 46.119 67.2222C45.8889 66.9515 45.7725 66.5562 45.7725 66.0513V62.3476H44.6895V61.5611H45.7725V60.1207L46.7891 60.1275ZM50.1991 67.5173H49.1811V61.5611H50.1991V67.5173ZM49.0985 59.9894C49.0946 59.8368 49.1477 59.6881 49.2474 59.5725C49.3715 59.4617 49.5319 59.4005 49.6982 59.4005C49.8645 59.4005 50.025 59.4617 50.149 59.5725C50.252 59.6866 50.3072 59.8358 50.3033 59.9894C50.3063 60.1397 50.251 60.2852 50.149 60.3955C50.023 60.5023 49.8633 60.5609 49.6982 60.5609C49.5331 60.5609 49.3734 60.5023 49.2474 60.3955C49.1469 60.2819 49.0937 60.1342 49.0985 59.9827V59.9894ZM53.7945 66.1379L55.2687 61.5611H56.3137L54.1749 67.5173H53.3992L51.2441 61.5611H52.2824L53.7945 66.1379ZM59.679 67.627C58.8722 67.627 58.2161 67.363 57.7107 66.8351C57.2053 66.3071 56.9522 65.5978 56.9513 64.707V64.5202C56.9417 63.9754 57.0565 63.4356 57.287 62.9418C57.4963 62.4999 57.8244 62.125 58.2346 61.8589C58.6259 61.5995 59.085 61.4615 59.5545 61.4622C60.3288 61.4622 60.9303 61.7172 61.3589 62.2271C61.7876 62.737 62.001 63.4626 61.9992 64.4038V64.8275H57.9679C57.9589 65.3488 58.1409 65.8553 58.4796 66.2516C58.637 66.4271 58.8306 66.5663 59.047 66.6598C59.2634 66.7533 59.4975 66.7988 59.7332 66.7931C60.0518 66.8018 60.3669 66.7247 60.6455 66.5697C60.8991 66.4193 61.1212 66.2212 61.2994 65.9863L61.9207 66.4709C61.4226 67.2371 60.6749 67.6202 59.6776 67.6202L59.679 67.627ZM59.5518 62.2921C59.3573 62.2886 59.1644 62.3271 58.9862 62.4049C58.8079 62.4826 58.6486 62.5979 58.5189 62.7428C58.24 63.0406 58.0676 63.4589 58.0018 63.9977H60.9799V63.9206C60.951 63.4034 60.812 63.0037 60.563 62.7212C60.4368 62.5787 60.2805 62.4662 60.1053 62.392C59.9301 62.3177 59.7405 62.2836 59.5504 62.2921H59.5518Z" fill="#61DAFB"/>
</svg>
