<svg xmlns="http://www.w3.org/2000/svg" width="1920" height="1082" fill="none"><path fill="url(#a)" fill-opacity=".04" fill-rule="evenodd" d="m1651.28 145.356-29.37 14.439c-29.36 14.438-89.43 43.971-175.74 16.76C1358.53 150 1244.64 66.702 1176.7 80.21c-66.61 12.851-87.29 122.509-134.2 175.423-46.917 52.914-122.743 50.397-193.294 55.236-71.886 5.496-138.497 18.347-194.626 55.893-54.793 36.889-99.103 98.472-157.836 127.348-58.733 28.877-134.558 26.36-189.351 63.249-56.129 37.545-91.225 114.497-155.232 136.017-62.672 20.864-154.255-13.703-199.38-31.315l-45.123-17.612-326.605-664.29C114.988-282.355 651.383-539.864 1185.32-802.378l465.96 947.734Z" clip-rule="evenodd"/><path fill="url(#b)" fill-opacity=".06" fill-rule="evenodd" d="m77.34 1587.55 31.768-18.63c31.768-18.64 96.749-56.76 195.88-33.36 100.575 22.55 235.301 106.63 310.452 85.84 73.706-19.93 87.837-144.73 136.119-208.01 48.281-63.28 133.601-66.73 212.393-78 80.238-12.11 153.938-32.05 213.838-78.84 58.45-45.94 103.09-118.73 166.63-156.01 63.53-37.27 148.85-40.72 207.31-86.66 59.89-46.79 92.92-136.07 162.98-165.523 68.63-28.606 174.29 2.616 226.39 18.65l52.11 16.035 421.58 718.618C1837.19 1940.51 1256.4 2273.95 678.8 2612.8L77.34 1587.55Z" clip-rule="evenodd"/><defs><linearGradient id="a" x1="850.379" x2="381.955" y1="539.128" y2="-413.612" gradientUnits="userSpaceOnUse"><stop stop-color="#1097CD"/><stop offset="1" stop-color="#00339B"/></linearGradient><linearGradient id="b" x1="943.746" x2="1548.38" y1="1079.28" y2="2109.94" gradientUnits="userSpaceOnUse"><stop stop-color="#1097CD"/><stop offset="1" stop-color="#00339B"/></linearGradient></defs></svg>