<svg width="1920" height="1082" viewBox="0 0 1920 1082" fill="none" xmlns="http://www.w3.org/2000/svg">
<path fill-rule="evenodd" clip-rule="evenodd" d="M1651.28 145.356L1621.91 159.795C1592.55 174.233 1532.48 203.766 1446.17 176.555C1358.53 150 1244.64 66.702 1176.7 80.2098C1110.09 93.0614 1089.41 202.719 1042.5 255.633C995.583 308.547 919.757 306.03 849.206 310.869C777.32 316.365 710.709 329.216 654.58 366.762C599.787 403.651 555.477 465.234 496.744 494.11C438.011 522.987 362.186 520.47 307.393 557.359C251.264 594.904 216.168 671.856 152.161 693.376C89.4888 714.24 -2.09429 679.673 -47.2184 662.061L-92.3425 644.449L-418.947 -19.8405C114.988 -282.355 651.383 -539.864 1185.32 -802.378L1651.28 145.356Z" fill="url(#paint0_linear_1695_1161)" fill-opacity="0.04"/>
<path fill-rule="evenodd" clip-rule="evenodd" d="M77.3398 1587.55L109.108 1568.92C140.876 1550.28 205.857 1512.16 304.988 1535.56C405.563 1558.11 540.289 1642.19 615.44 1621.4C689.146 1601.47 703.277 1476.67 751.559 1413.39C799.84 1350.11 885.16 1346.66 963.952 1335.39C1044.19 1323.28 1117.89 1303.34 1177.79 1256.55C1236.24 1210.61 1280.88 1137.82 1344.42 1100.54C1407.95 1063.27 1493.27 1059.82 1551.73 1013.88C1611.62 967.09 1644.65 877.81 1714.71 848.357C1783.34 819.751 1889 850.973 1941.1 867.007L1993.21 883.042L2414.79 1601.66C1837.19 1940.51 1256.4 2273.95 678.8 2612.8L77.3398 1587.55Z" fill="url(#paint1_linear_1695_1161)" fill-opacity="0.06"/>
<defs>
<linearGradient id="paint0_linear_1695_1161" x1="850.379" y1="539.128" x2="381.955" y2="-413.612" gradientUnits="userSpaceOnUse">
<stop stop-color="#1097CD"/>
<stop offset="1" stop-color="#00339B"/>
</linearGradient>
<linearGradient id="paint1_linear_1695_1161" x1="943.746" y1="1079.28" x2="1548.38" y2="2109.94" gradientUnits="userSpaceOnUse">
<stop stop-color="#1097CD"/>
<stop offset="1" stop-color="#00339B"/>
</linearGradient>
</defs>
</svg>
