<svg width="1919" height="1558" viewBox="0 0 1919 1558" fill="none" xmlns="http://www.w3.org/2000/svg">
<g clip-path="url(#clip0_924_3112)">
<path fill-rule="evenodd" clip-rule="evenodd" d="M1650.94 -4.59863L1621.57 9.83966C1592.2 24.2779 1532.14 53.8108 1445.83 26.5999C1358.18 0.0452727 1244.3 -83.2531 1176.35 -69.7453C1109.74 -56.8937 1089.07 52.7642 1042.15 105.678C995.239 158.592 919.414 156.075 848.863 160.914C776.977 166.41 710.365 179.261 654.237 216.807C599.443 253.696 555.133 315.279 496.401 344.155C437.668 373.032 361.842 370.515 307.049 407.404C250.921 444.949 215.824 521.901 151.817 543.421C89.145 564.285 -2.43804 529.718 -47.5622 512.106L-92.6862 494.494L-419.291 -169.796C114.644 -432.31 651.04 -689.819 1184.97 -952.333L1650.94 -4.59863Z" fill="url(#paint0_linear_924_3112)" fill-opacity="0.04"/>
<path fill-rule="evenodd" clip-rule="evenodd" d="M11 1696.56L42.7682 1677.93C74.5365 1659.29 139.517 1621.17 238.648 1644.57C339.224 1667.12 473.95 1751.2 549.1 1730.41C622.806 1710.48 636.937 1585.68 685.219 1522.4C733.5 1459.12 818.821 1455.67 897.612 1444.4C977.847 1432.29 1051.55 1412.35 1111.45 1365.56C1169.9 1319.62 1214.54 1246.83 1278.08 1209.55C1341.61 1172.28 1426.93 1168.83 1485.39 1122.89C1545.28 1076.1 1578.31 986.819 1648.37 957.366C1717 928.761 1822.66 959.982 1874.76 976.017L1926.87 992.052L2348.45 1710.67C1770.85 2049.52 1190.06 2382.96 612.46 2721.81L11 1696.56Z" fill="url(#paint1_linear_924_3112)" fill-opacity="0.06"/>
</g>
<defs>
<linearGradient id="paint0_linear_924_3112" x1="850.035" y1="389.173" x2="381.611" y2="-563.567" gradientUnits="userSpaceOnUse">
<stop stop-color="#1097CD"/>
<stop offset="1" stop-color="#00339B"/>
</linearGradient>
<linearGradient id="paint1_linear_924_3112" x1="877.406" y1="1188.29" x2="1482.04" y2="2218.95" gradientUnits="userSpaceOnUse">
<stop stop-color="#1097CD"/>
<stop offset="1" stop-color="#00339B"/>
</linearGradient>
<clipPath id="clip0_924_3112">
<rect width="1919" height="1558" fill="white"/>
</clipPath>
</defs>
</svg>
