<svg xmlns="http://www.w3.org/2000/svg" width="1919" height="1558" fill="none"><g fill-rule="evenodd" clip-path="url(#a)" clip-rule="evenodd"><path fill="url(#b)" fill-opacity=".04" d="M1650.94-4.599 1621.57 9.84c-29.37 14.438-89.43 43.97-175.74 16.76C1358.18.045 1244.3-83.253 1176.35-69.745c-66.61 12.851-87.28 122.51-134.2 175.423-46.911 52.914-122.736 50.397-193.287 55.236-71.886 5.496-138.498 18.347-194.626 55.893-54.794 36.889-99.104 98.472-157.836 127.348-58.733 28.877-134.559 26.36-189.352 63.249-56.128 37.545-91.225 114.497-155.232 136.017-62.672 20.864-154.255-13.703-199.38-31.315l-45.123-17.612-326.605-664.29C114.644-432.31 651.04-689.819 1184.97-952.333L1650.94-4.599Z"/><path fill="url(#c)" fill-opacity=".06" d="m11 1696.56 31.768-18.63c31.769-18.64 96.749-56.76 195.88-33.36 100.576 22.55 235.302 106.63 310.452 85.84 73.706-19.93 87.837-144.73 136.119-208.01 48.281-63.28 133.602-66.73 212.393-78 80.235-12.11 153.938-32.05 213.838-78.84 58.45-45.94 103.09-118.73 166.63-156.01 63.53-37.27 148.85-40.72 207.31-86.66 59.89-46.79 92.92-136.071 162.98-165.524 68.63-28.605 174.29 2.616 226.39 18.651l52.11 16.035 421.58 718.618c-577.6 338.85-1158.39 672.29-1735.99 1011.14L11 1696.56Z"/></g><defs><linearGradient id="b" x1="850.035" x2="381.611" y1="389.173" y2="-563.567" gradientUnits="userSpaceOnUse"><stop stop-color="#1097CD"/><stop offset="1" stop-color="#00339B"/></linearGradient><linearGradient id="c" x1="877.406" x2="1482.04" y1="1188.29" y2="2218.95" gradientUnits="userSpaceOnUse"><stop stop-color="#1097CD"/><stop offset="1" stop-color="#00339B"/></linearGradient><clipPath id="a"><path fill="#fff" d="M0 0h1919v1558H0z"/></clipPath></defs></svg>