<svg width="2022" height="933" viewBox="0 0 2022 933" fill="none" xmlns="http://www.w3.org/2000/svg">
<path fill-rule="evenodd" clip-rule="evenodd" d="M0.421875 21.752L112.661 53.0174C223.242 84.3377 447.72 146.869 667.999 132.594C783.409 125.115 898.577 96.5228 1013.72 67.9361C1118.35 41.9603 1222.97 15.9889 1327.73 5.86646C1547.77 -15.3957 1771.79 33.1605 1882.14 57.4935L1994.15 81.7716L2001.08 291.391L2001.08 291.391L2013.29 660.977L2021.56 911.247L1909.32 879.982C1798.74 848.662 1574.27 786.131 1353.99 800.406C1238.58 807.885 1123.41 836.477 1008.26 865.063C903.631 891.039 799.019 917.011 694.259 927.133C474.21 948.395 250.194 899.839 139.844 875.506L27.836 851.228L20.9084 641.608L20.9094 641.608L11.5083 357.144L11.506 357.144L0.421875 21.752Z" fill="url(#paint0_linear_3565_4319)" fill-opacity="0.08"/>
<defs>
<linearGradient id="paint0_linear_3565_4319" x1="-20.6263" y1="12.9793" x2="1477.6" y2="1575.74" gradientUnits="userSpaceOnUse">
<stop stop-color="#0099FF" stop-opacity="0.63"/>
<stop offset="1" stop-color="#00F0FF"/>
</linearGradient>
</defs>
</svg>
