<svg width="1917" height="1163" viewBox="0 0 1917 1163" fill="none" xmlns="http://www.w3.org/2000/svg">
<g clip-path="url(#clip0_3627_2320)">
<mask id="mask0_3627_2320" style="mask-type:luminance" maskUnits="userSpaceOnUse" x="0" y="0" width="1917" height="1163">
<path d="M1917 0H0V1163H1917V0Z" fill="white"/>
</mask>
<g mask="url(#mask0_3627_2320)">
<path d="M-24 1126.71L37.6222 1080.69C99.5722 1034.66 222.817 942.619 345.733 930.181C468.65 917.742 591.239 984.91 714.156 976.701C837.072 968.243 960.317 884.655 1083.23 872.963C1206.15 861.271 1328.74 921.971 1451.66 985.408C1574.57 1048.84 1697.82 1115.02 1820.73 1092.38C1943.65 1069.49 2066.24 957.546 2189.16 919.732C2312.07 882.168 2435.32 918.488 2558.23 976.701C2681.15 1034.66 2803.74 1114.27 2864.71 1154.07L2926 1193.88V738.627H2864.71C2803.74 738.627 2681.15 738.627 2558.23 738.627C2435.32 738.627 2312.07 738.627 2189.16 738.627C2066.24 738.627 1943.65 738.627 1820.73 738.627C1697.82 738.627 1574.57 738.627 1451.66 738.627C1328.74 738.627 1206.15 738.627 1083.23 738.627C960.317 738.627 837.072 738.627 714.156 738.627C591.239 738.627 468.65 738.627 345.733 738.627C222.817 738.627 99.5722 738.627 37.6222 738.627H-24V1126.71Z" fill="#0066FF" fill-opacity="0.08"/>
<path fill-rule="evenodd" clip-rule="evenodd" d="M1917 -6H-54V606.121V657V1160.14L28.125 1146.98L30.1785 1146.64C112.966 1133.12 275.858 1106.52 438.75 1021.76C490.173 995.083 541.596 962.633 593.019 930.182C705.846 858.984 818.673 787.785 931.5 777.545C1039.61 767.733 1147.73 813.894 1255.84 860.055C1311.98 884.024 1368.11 907.992 1424.25 924.125C1588.5 971.328 1752.75 951.453 1834.88 941.516L1917 931.578V657V606.121V-6Z" fill="url(#paint0_linear_3627_2320)"/>
<mask id="mask1_3627_2320" style="mask-type:luminance" maskUnits="userSpaceOnUse" x="-54" y="-6" width="1971" height="1167">
<path fill-rule="evenodd" clip-rule="evenodd" d="M1917 -6H-54V606.121V657V1160.14L28.125 1146.98L30.1785 1146.64C112.966 1133.12 275.858 1106.52 438.75 1021.76C490.173 995.083 541.596 962.633 593.019 930.182C705.846 858.984 818.673 787.785 931.5 777.545C1039.61 767.733 1147.73 813.894 1255.84 860.055C1311.98 884.024 1368.11 907.992 1424.25 924.125C1588.5 971.328 1752.75 951.453 1834.88 941.516L1917 931.578V657V606.121V-6Z" fill="#1565C0"/>
</mask>
<g mask="url(#mask1_3627_2320)">
<path d="M-54 -6V-7H-55V-6H-54ZM1917 -6H1918V-7H1917V-6ZM-54 1160.14H-55V1161.32L-53.8417 1161.13L-54 1160.14ZM28.125 1146.98L28.2833 1147.96H28.2862L28.125 1146.98ZM438.75 1021.76L438.289 1020.87H438.288L438.75 1021.76ZM1917 931.578L1917.12 932.571L1918 932.464V931.578H1917ZM-54 -5H1917V-7H-54V-5ZM-53 606.121V-6H-55V606.121H-53ZM-55 606.121V657H-53V606.121H-55ZM-55 657V1160.14H-53V657H-55ZM-53.8417 1161.13L28.2833 1147.96L27.9667 1145.99L-54.1583 1159.16L-53.8417 1161.13ZM28.2862 1147.96L30.3397 1147.63L30.0173 1145.65L27.9638 1145.99L28.2862 1147.96ZM30.3397 1147.63C113.134 1134.11 276.166 1107.49 439.212 1022.65L438.288 1020.87C275.55 1105.55 112.798 1132.13 30.0173 1145.65L30.3397 1147.63ZM439.211 1022.65C490.678 995.948 542.137 963.474 593.553 931.028L592.485 929.337C541.055 961.792 489.668 994.218 438.289 1020.87L439.211 1022.65ZM593.553 931.028C706.444 859.789 819.052 788.754 931.59 778.541L931.41 776.549C818.294 786.815 705.249 858.178 592.485 929.337L593.553 931.028ZM931.59 778.541C1039.41 768.756 1147.28 814.789 1255.45 860.975L1256.23 859.136C1148.18 813 1039.82 766.71 931.41 776.549L931.59 778.541ZM1255.45 860.975C1311.57 884.939 1367.77 908.933 1423.97 925.086L1424.53 923.164C1368.46 907.051 1312.38 883.109 1256.23 859.136L1255.45 860.975ZM1423.97 925.086C1588.44 972.352 1752.87 952.446 1835 942.508L1834.75 940.523C1752.63 950.461 1588.56 970.305 1424.53 923.164L1423.97 925.086ZM1835 942.508L1917.12 932.571L1916.88 930.585L1834.75 940.523L1835 942.508ZM1918 931.578V657H1916V931.578H1918ZM1918 657V606.121H1916V657H1918ZM1916 -6V606.121H1918V-6H1916Z" fill="#1565C0"/>
</g>
<mask id="mask2_3627_2320" style="mask-type:alpha" maskUnits="userSpaceOnUse" x="-47" y="-6" width="1971" height="1142">
<path fill-rule="evenodd" clip-rule="evenodd" d="M1924 -6H-47V648V657V1136L35.125 1124.4L37.1797 1124.11C119.967 1112.2 282.859 1088.77 445.75 1014.11C497.173 990.61 548.596 962.027 600.019 933.443C712.846 870.729 825.673 808.015 938.5 798.996C1046.61 790.353 1154.73 831.013 1262.84 871.673C1318.98 892.785 1375.11 913.897 1431.25 928.108C1595.5 969.686 1759.75 952.179 1841.88 943.426L1924 934.673V657V648V-6Z" fill="url(#paint1_linear_3627_2320)"/>
<mask id="mask3_3627_2320" style="mask-type:luminance" maskUnits="userSpaceOnUse" x="-47" y="-6" width="1971" height="1142">
<path fill-rule="evenodd" clip-rule="evenodd" d="M1924 -6H-47V648V657V1136L35.125 1124.4L37.1797 1124.11C119.967 1112.2 282.859 1088.77 445.75 1014.11C497.173 990.61 548.596 962.027 600.019 933.443C712.846 870.729 825.673 808.015 938.5 798.996C1046.61 790.353 1154.73 831.013 1262.84 871.673C1318.98 892.785 1375.11 913.897 1431.25 928.108C1595.5 969.686 1759.75 952.179 1841.88 943.426L1924 934.673V657V648V-6Z" fill="#1565C0"/>
</mask>
<g mask="url(#mask3_3627_2320)">
<path d="M-47 -6V-7H-48V-6H-47ZM1924 -6H1925V-7H1924V-6ZM-47 1136H-48V1137.15L-46.8602 1136.99L-47 1136ZM35.125 1124.4L35.2648 1125.39H35.2674L35.125 1124.4ZM445.75 1014.11L445.334 1013.2H445.333L445.75 1014.11ZM1924 934.673L1924.11 935.667L1925 935.572V934.673H1924ZM-47 -5H1924V-7H-47V-5ZM-46 648V-6H-48V648H-46ZM-48 648V657H-46V648H-48ZM-48 657V1136H-46V657H-48ZM-46.8602 1136.99L35.2648 1125.39L34.9852 1123.41L-47.1398 1135.01L-46.8602 1136.99ZM35.2674 1125.39L37.3221 1125.1L37.0373 1123.12L34.9826 1123.41L35.2674 1125.39ZM37.3221 1125.1C120.114 1113.19 283.132 1089.74 446.167 1015.02L445.333 1013.2C282.585 1087.79 119.821 1111.21 37.0373 1123.12L37.3221 1125.1ZM446.166 1015.02C497.631 991.5 549.089 962.897 600.505 934.317L599.533 932.569C548.104 961.156 496.715 989.72 445.334 1013.2L446.166 1015.02ZM600.505 934.317C713.386 871.573 826.012 808.991 938.58 799.992L938.42 797.999C825.334 807.039 712.306 869.885 599.533 932.569L600.505 934.317ZM938.58 799.992C1046.43 791.371 1154.33 831.931 1262.49 872.609L1263.19 870.737C1155.13 830.096 1046.8 789.335 938.42 797.999L938.58 799.992ZM1262.49 872.609C1318.62 893.717 1374.8 914.851 1431 929.077L1431.5 927.138C1375.42 912.944 1319.34 891.853 1263.19 870.737L1262.49 872.609ZM1431 929.077C1595.45 970.704 1759.86 953.173 1841.98 944.42L1841.77 942.432C1759.64 951.185 1595.55 968.668 1431.5 927.138L1431 929.077ZM1841.98 944.42L1924.11 935.667L1923.89 933.678L1841.77 942.432L1841.98 944.42ZM1925 934.673V657H1923V934.673H1925ZM1925 657V648H1923V657H1925ZM1923 -6V648H1925V-6H1923Z" fill="#1565C0"/>
</g>
</mask>
<g mask="url(#mask2_3627_2320)">
<g filter="url(#filter0_f_3627_2320)">
<path d="M1626.45 1505.97C2067.88 1505.97 2425.73 1148.21 2425.73 706.888C2425.73 265.566 2067.88 -92.1973 1626.45 -92.1973C1185.02 -92.1973 827.164 265.566 827.164 706.888C827.164 1148.21 1185.02 1505.97 1626.45 1505.97Z" fill="#14CBDD" fill-opacity="0.3"/>
<path d="M952.549 939.675C1393.98 939.675 1751.83 581.912 1751.83 140.59C1751.83 -300.733 1393.98 -658.495 952.549 -658.495C511.117 -658.495 153.266 -300.733 153.266 140.59C153.266 581.912 511.117 939.675 952.549 939.675Z" fill="#023AAC"/>
<path d="M1330.92 2034.22C1772.35 2034.22 2130.2 1676.46 2130.2 1235.13C2130.2 793.812 1772.35 436.05 1330.92 436.05C889.484 436.05 531.633 793.812 531.633 1235.13C531.633 1676.46 889.484 2034.22 1330.92 2034.22Z" fill="#14CBDD" fill-opacity="0.3"/>
<path d="M424.166 1573.12C865.598 1573.12 1223.45 1215.36 1223.45 774.038C1223.45 332.716 865.598 -25.0469 424.166 -25.0469C-17.266 -25.0469 -375.117 332.716 -375.117 774.038C-375.117 1215.36 -17.266 1573.12 424.166 1573.12Z" fill="#14CBDD" fill-opacity="0.3"/>
<path d="M504.768 1004.59C946.2 1004.59 1304.05 646.824 1304.05 205.502C1304.05 -235.821 946.2 -593.583 504.768 -593.583C63.3362 -593.583 -294.516 -235.821 -294.516 205.502C-294.516 646.824 63.3362 1004.59 504.768 1004.59Z" fill="#023AAC"/>
<path d="M1599.58 1035.92C2041.02 1035.92 2398.87 678.161 2398.87 236.838C2398.87 -204.484 2041.02 -562.247 1599.58 -562.247C1158.15 -562.247 800.297 -204.484 800.297 236.838C800.297 678.161 1158.15 1035.92 1599.58 1035.92Z" fill="#14CBDD" fill-opacity="0.3"/>
</g>
</g>
<g opacity="0.11" filter="url(#filter1_dd_3627_2320)">
<mask id="mask4_3627_2320" style="mask-type:luminance" maskUnits="userSpaceOnUse" x="74" y="637" width="380" height="380">
<path d="M422.942 931.254C480.3 843.695 455.818 726.216 368.259 668.857C280.7 611.498 163.22 635.981 105.862 723.54C48.5029 811.099 72.9852 928.578 160.544 985.937C248.104 1043.3 365.583 1018.81 422.942 931.254Z" fill="white"/>
</mask>
<g mask="url(#mask4_3627_2320)">
<path d="M422.949 931.254C480.308 843.695 455.826 726.216 368.267 668.857C280.707 611.498 163.228 635.981 105.869 723.54C48.5107 811.099 72.993 928.578 160.552 985.937C248.111 1043.3 365.591 1018.81 422.949 931.254Z" fill="#EB6F47" fill-opacity="0.8"/>
<path d="M422.949 931.254C480.308 843.695 455.826 726.216 368.267 668.857C280.707 611.498 163.228 635.981 105.869 723.54C48.5107 811.099 72.993 928.578 160.552 985.937C248.111 1043.3 365.591 1018.81 422.949 931.254Z" fill="url(#paint2_radial_3627_2320)"/>
<path d="M422.949 931.254C480.308 843.695 455.826 726.216 368.267 668.857C280.707 611.498 163.228 635.981 105.869 723.54C48.5107 811.099 72.993 928.578 160.552 985.937C248.111 1043.3 365.591 1018.81 422.949 931.254Z" fill="url(#paint3_radial_3627_2320)"/>
<path d="M422.949 931.254C480.308 843.695 455.826 726.216 368.267 668.857C280.707 611.498 163.228 635.981 105.869 723.54C48.5107 811.099 72.993 928.578 160.552 985.937C248.111 1043.3 365.591 1018.81 422.949 931.254Z" fill="url(#paint4_radial_3627_2320)" fill-opacity="0.7"/>
<g filter="url(#filter2_f_3627_2320)">
<path d="M244.951 685.247C248.783 693.151 229.693 704.588 205.079 716.522C180.466 728.455 159.65 736.366 155.818 728.462C151.986 720.558 166.588 699.833 191.202 687.899C215.815 675.965 241.119 677.343 244.951 685.247Z" fill="white"/>
<path d="M242.77 686.304C243.188 687.166 243.193 688.4 241.804 690.414C240.403 692.444 237.87 694.796 234.26 697.411C227.076 702.615 216.317 708.38 204.021 714.342C191.726 720.303 180.533 725.181 171.994 727.6C167.703 728.815 164.287 729.348 161.824 729.191C159.381 729.035 158.415 728.267 157.997 727.405C157.471 726.32 157.408 724.33 158.537 721.318C159.632 718.395 161.706 714.918 164.72 711.223C170.738 703.844 180.258 695.897 192.258 690.079C204.258 684.261 216.39 681.71 225.907 681.556C230.673 681.48 234.686 682.006 237.658 682.956C240.721 683.936 242.243 685.218 242.77 686.304Z" stroke="white" stroke-width="4.846"/>
</g>
<g filter="url(#filter3_f_3627_2320)">
<path d="M139.47 750.476C143.185 751.404 146.949 749.144 147.877 745.428C148.805 741.713 146.545 737.949 142.829 737.021C139.114 736.094 135.35 738.354 134.422 742.069C133.494 745.785 135.754 749.549 139.47 750.476Z" fill="white"/>
<path d="M140.059 748.125C142.476 748.729 144.924 747.258 145.528 744.841C146.131 742.424 144.661 739.975 142.244 739.372C139.827 738.768 137.378 740.239 136.775 742.656C136.171 745.073 137.641 747.522 140.059 748.125Z" stroke="white" stroke-width="4.846"/>
</g>
<g filter="url(#filter4_f_3627_2320)">
<path d="M120.675 778.746C124.112 780.435 129.18 777.161 131.996 771.433C134.812 765.705 134.308 759.693 130.871 758.003C127.435 756.314 122.366 759.588 119.55 765.316C116.735 771.044 117.238 777.057 120.675 778.746Z" fill="white"/>
<path d="M129.826 770.365C128.578 772.903 126.879 774.789 125.258 775.836C123.59 776.914 122.403 776.894 121.748 776.572C121.094 776.25 120.353 775.323 120.187 773.344C120.026 771.42 120.482 768.923 121.729 766.385C122.976 763.847 124.676 761.961 126.297 760.914C127.965 759.836 129.152 759.856 129.807 760.178C130.461 760.5 131.202 761.427 131.368 763.407C131.529 765.33 131.073 767.827 129.826 770.365Z" stroke="white" stroke-width="4.846"/>
</g>
<g filter="url(#filter5_f_3627_2320)">
<path d="M155.479 1003.93C245.631 1062.99 366.59 1037.78 425.647 947.626C484.704 857.473 459.497 736.515 369.345 677.457C279.192 618.4 158.234 643.607 99.1765 733.76C40.119 823.912 65.3264 944.87 155.479 1003.93Z" stroke="white" stroke-width="34.5277"/>
</g>
</g>
</g>
<g opacity="0.12" filter="url(#filter6_dd_3627_2320)">
<mask id="mask5_3627_2320" style="mask-type:luminance" maskUnits="userSpaceOnUse" x="1634" y="467" width="380" height="380">
<path d="M1982.94 761.254C2040.3 673.695 2015.82 556.216 1928.26 498.857C1840.7 441.498 1723.22 465.981 1665.86 553.54C1608.5 641.099 1632.99 758.578 1720.54 815.937C1808.1 873.296 1925.58 848.814 1982.94 761.254Z" fill="white"/>
</mask>
<g mask="url(#mask5_3627_2320)">
<path d="M1982.94 761.254C2040.3 673.695 2015.82 556.216 1928.26 498.857C1840.7 441.498 1723.22 465.981 1665.86 553.54C1608.5 641.099 1632.99 758.578 1720.54 815.937C1808.1 873.296 1925.58 848.814 1982.94 761.254Z" fill="#EB6F47" fill-opacity="0.8"/>
<path d="M1982.94 761.254C2040.3 673.695 2015.82 556.216 1928.26 498.857C1840.7 441.498 1723.22 465.981 1665.86 553.54C1608.5 641.099 1632.99 758.578 1720.54 815.937C1808.1 873.296 1925.58 848.814 1982.94 761.254Z" fill="url(#paint5_radial_3627_2320)"/>
<path d="M1982.94 761.254C2040.3 673.695 2015.82 556.216 1928.26 498.857C1840.7 441.498 1723.22 465.981 1665.86 553.54C1608.5 641.099 1632.99 758.578 1720.54 815.937C1808.1 873.296 1925.58 848.814 1982.94 761.254Z" fill="url(#paint6_radial_3627_2320)"/>
<path d="M1982.94 761.254C2040.3 673.695 2015.82 556.216 1928.26 498.857C1840.7 441.498 1723.22 465.981 1665.86 553.54C1608.5 641.099 1632.99 758.578 1720.54 815.937C1808.1 873.296 1925.58 848.814 1982.94 761.254Z" fill="url(#paint7_radial_3627_2320)" fill-opacity="0.7"/>
<g filter="url(#filter7_f_3627_2320)">
<path d="M1804.95 515.247C1808.78 523.151 1789.69 534.588 1765.08 546.522C1740.47 558.455 1719.65 566.366 1715.82 558.462C1711.99 550.558 1726.59 529.833 1751.2 517.899C1775.82 505.965 1801.12 507.343 1804.95 515.247Z" fill="white"/>
<path d="M1802.77 516.304C1803.19 517.166 1803.19 518.4 1801.8 520.414C1800.4 522.444 1797.87 524.796 1794.26 527.411C1787.08 532.615 1776.32 538.38 1764.02 544.342C1751.73 550.303 1740.53 555.181 1732 557.6C1727.7 558.815 1724.29 559.348 1721.82 559.191C1719.38 559.035 1718.42 558.267 1718 557.405C1717.47 556.32 1717.41 554.33 1718.54 551.318C1719.63 548.395 1721.71 544.918 1724.72 541.223C1730.74 533.844 1740.26 525.897 1752.26 520.079C1764.26 514.261 1776.39 511.71 1785.91 511.556C1790.67 511.48 1794.69 512.006 1797.66 512.956C1800.72 513.936 1802.24 515.218 1802.77 516.304Z" stroke="white" stroke-width="4.846"/>
</g>
<g filter="url(#filter8_f_3627_2320)">
<path d="M1699.47 580.476C1703.19 581.404 1706.95 579.144 1707.88 575.428C1708.8 571.713 1706.54 567.949 1702.83 567.021C1699.11 566.094 1695.35 568.354 1694.42 572.069C1693.49 575.785 1695.75 579.549 1699.47 580.476Z" fill="white"/>
<path d="M1700.06 578.125C1702.48 578.729 1704.92 577.258 1705.53 574.841C1706.13 572.424 1704.66 569.975 1702.24 569.372C1699.83 568.768 1697.38 570.239 1696.77 572.656C1696.17 575.073 1697.64 577.522 1700.06 578.125Z" stroke="white" stroke-width="4.846"/>
</g>
<g filter="url(#filter9_f_3627_2320)">
<path d="M1680.68 608.746C1684.11 610.435 1689.18 607.161 1692 601.433C1694.81 595.705 1694.31 589.692 1690.87 588.003C1687.43 586.314 1682.37 589.588 1679.55 595.316C1676.73 601.044 1677.24 607.057 1680.68 608.746Z" fill="white"/>
<path d="M1689.83 600.365C1688.58 602.903 1686.89 604.789 1685.26 605.836C1683.6 606.914 1682.41 606.894 1681.75 606.572C1681.1 606.25 1680.36 605.323 1680.19 603.344C1680.03 601.42 1680.49 598.923 1681.73 596.385C1682.98 593.847 1684.68 591.961 1686.3 590.914C1687.97 589.836 1689.16 589.856 1689.81 590.178C1690.47 590.5 1691.21 591.427 1691.37 593.407C1691.53 595.33 1691.08 597.827 1689.83 600.365Z" stroke="white" stroke-width="4.846"/>
</g>
<g filter="url(#filter10_f_3627_2320)">
<path d="M1715.48 833.928C1805.63 892.985 1926.59 867.778 1985.65 777.626C2044.7 687.473 2019.5 566.515 1929.34 507.457C1839.19 448.4 1718.23 473.607 1659.18 563.76C1600.12 653.912 1625.33 774.87 1715.48 833.928Z" stroke="white" stroke-width="34.5277"/>
</g>
</g>
</g>
<g opacity="0.07" filter="url(#filter11_dd_3627_2320)">
<mask id="mask6_3627_2320" style="mask-type:luminance" maskUnits="userSpaceOnUse" x="990" y="53" width="251" height="251">
<path d="M1220.35 246.556C1258.18 188.808 1242.03 111.327 1184.28 73.4969C1126.53 35.6671 1049.05 51.8139 1011.22 109.562C973.392 167.31 989.539 244.791 1047.29 282.621C1105.03 320.45 1182.52 304.303 1220.35 246.556Z" fill="white"/>
</mask>
<g mask="url(#mask6_3627_2320)">
<path d="M1220.35 246.556C1258.18 188.808 1242.04 111.327 1184.29 73.4969C1126.54 35.6671 1049.06 51.8139 1011.23 109.562C973.4 167.31 989.547 244.791 1047.29 282.621C1105.04 320.45 1182.52 304.303 1220.35 246.556Z" fill="#EB6F47" fill-opacity="0.8"/>
<path d="M1220.35 246.556C1258.18 188.808 1242.04 111.327 1184.29 73.4969C1126.54 35.6671 1049.06 51.8139 1011.23 109.562C973.4 167.31 989.547 244.791 1047.29 282.621C1105.04 320.45 1182.52 304.303 1220.35 246.556Z" fill="url(#paint8_radial_3627_2320)"/>
<path d="M1220.35 246.556C1258.18 188.808 1242.04 111.327 1184.29 73.4969C1126.54 35.6671 1049.06 51.8139 1011.23 109.562C973.4 167.31 989.547 244.791 1047.29 282.621C1105.04 320.45 1182.52 304.303 1220.35 246.556Z" fill="url(#paint9_radial_3627_2320)"/>
<path d="M1220.35 246.556C1258.18 188.808 1242.04 111.327 1184.29 73.4969C1126.54 35.6671 1049.06 51.8139 1011.23 109.562C973.4 167.31 989.547 244.791 1047.29 282.621C1105.04 320.45 1182.52 304.303 1220.35 246.556Z" fill="url(#paint10_radial_3627_2320)" fill-opacity="0.7"/>
<g filter="url(#filter12_f_3627_2320)">
<path d="M1102.96 84.3063C1105.48 89.5192 1092.89 97.0625 1076.66 104.933C1060.43 112.804 1046.7 118.021 1044.17 112.808C1041.64 107.595 1051.27 93.9262 1067.51 86.0555C1083.74 78.1849 1100.43 79.0934 1102.96 84.3063Z" fill="white"/>
<path d="M1100.78 85.3632C1100.87 85.5528 1101.03 86.039 1100.2 87.2454C1099.36 88.4692 1097.78 89.9543 1095.42 91.6607C1090.75 95.0471 1083.71 98.8228 1075.6 102.753C1067.5 106.683 1060.17 109.872 1054.61 111.446C1051.81 112.239 1049.67 112.56 1048.18 112.466C1046.72 112.372 1046.44 111.94 1046.35 111.751C1046.15 111.338 1046.02 110.295 1046.74 108.386C1047.42 106.566 1048.73 104.351 1050.68 101.96C1054.57 97.1895 1060.75 92.0222 1068.56 88.2357C1076.37 84.4492 1084.26 82.7964 1090.41 82.6972C1093.49 82.6474 1096.04 82.9895 1097.9 83.5813C1099.84 84.202 1100.58 84.9502 1100.78 85.3632Z" stroke="white" stroke-width="4.846"/>
</g>
<g filter="url(#filter13_f_3627_2320)">
<path d="M1033.39 127.327C1035.84 127.939 1038.32 126.449 1038.93 123.998C1039.54 121.548 1038.05 119.065 1035.6 118.453C1033.15 117.842 1030.67 119.332 1030.06 121.783C1029.44 124.233 1030.94 126.716 1033.39 127.327Z" fill="white"/>
<path d="M1033.9 125.242C1035.2 125.566 1036.52 124.776 1036.84 123.478C1037.17 122.179 1036.38 120.864 1035.08 120.54C1033.78 120.216 1032.46 121.006 1032.14 122.304C1031.82 123.602 1032.61 124.918 1033.9 125.242Z" stroke="white" stroke-width="4.30034"/>
</g>
<g filter="url(#filter14_f_3627_2320)">
<path d="M1021 145.972C1023.27 147.086 1026.61 144.927 1028.47 141.149C1030.33 137.372 1030 133.406 1027.73 132.292C1025.46 131.178 1022.12 133.337 1020.26 137.115C1018.41 140.892 1018.74 144.858 1021 145.972Z" fill="white"/>
<mask id="mask7_3627_2320" style="mask-type:luminance" maskUnits="userSpaceOnUse" x="1019" y="131" width="11" height="16">
<path d="M1021 145.972C1023.27 147.086 1026.61 144.927 1028.47 141.149C1030.33 137.372 1030 133.406 1027.73 132.292C1025.46 131.178 1022.12 133.337 1020.26 137.115C1018.41 140.892 1018.74 144.858 1021 145.972Z" fill="white"/>
</mask>
<g mask="url(#mask7_3627_2320)">
<path d="M1024.11 139.011C1023.5 140.248 1022.75 141.004 1022.25 141.324C1021.66 141.706 1022.14 141.134 1023.13 141.623L1018.86 150.321C1022.12 151.924 1025.4 150.83 1027.51 149.466C1029.72 148.041 1031.56 145.829 1032.81 143.287L1024.11 139.011ZM1023.13 141.623C1024.13 142.112 1023.96 142.838 1023.9 142.138C1023.86 141.549 1023.99 140.488 1024.6 139.252L1015.9 134.977C1014.65 137.518 1014.03 140.329 1014.25 142.947C1014.46 145.452 1015.59 148.718 1018.86 150.321L1023.13 141.623ZM1024.6 139.252C1025.21 138.016 1025.96 137.26 1026.46 136.939C1027.05 136.558 1026.57 137.129 1025.58 136.641L1029.86 127.943C1026.59 126.34 1023.31 127.434 1021.2 128.798C1018.99 130.223 1017.15 132.435 1015.9 134.977L1024.6 139.252ZM1025.58 136.641C1024.59 136.152 1024.75 135.425 1024.81 136.126C1024.85 136.714 1024.72 137.775 1024.11 139.011L1032.81 143.287C1034.06 140.745 1034.68 137.934 1034.46 135.317C1034.25 132.812 1033.12 129.546 1029.86 127.943L1025.58 136.641Z" fill="white"/>
</g>
</g>
<g filter="url(#filter15_f_3627_2320)">
<path d="M1043.95 294.485C1103.41 333.435 1183.19 316.81 1222.14 257.352C1261.09 197.894 1244.46 118.118 1185 79.168C1125.54 40.2179 1045.77 56.8429 1006.82 116.301C967.868 175.759 984.493 255.535 1043.95 294.485Z" stroke="white" stroke-width="34.5277"/>
</g>
</g>
</g>
<g opacity="0.06" filter="url(#filter16_dd_3627_2320)">
<mask id="mask8_3627_2320" style="mask-type:luminance" maskUnits="userSpaceOnUse" x="192" y="265" width="198" height="198">
<path d="M344.58 281.514L344.579 281.514C299.175 251.77 238.255 264.466 208.511 309.87L208.511 309.871C178.767 355.275 191.463 416.195 236.867 445.939L236.867 445.939C282.272 475.683 343.192 462.987 372.936 417.583L372.936 417.583C402.68 372.178 389.984 311.258 344.58 281.514Z" fill="white"/>
</mask>
<g mask="url(#mask8_3627_2320)">
<path d="M344.587 281.514L344.587 281.514C299.183 251.77 238.263 264.466 208.519 309.87L208.519 309.871C178.775 355.275 191.471 416.195 236.875 445.939L236.875 445.939C282.28 475.683 343.2 462.987 372.944 417.583L372.944 417.583C402.688 372.178 389.992 311.258 344.587 281.514Z" fill="#EB6F47" fill-opacity="0.8"/>
<path d="M344.587 281.514L344.587 281.514C299.183 251.77 238.263 264.466 208.519 309.87L208.519 309.871C178.775 355.275 191.471 416.195 236.875 445.939L236.875 445.939C282.28 475.683 343.2 462.987 372.944 417.583L372.944 417.583C402.688 372.178 389.992 311.258 344.587 281.514Z" fill="url(#paint11_radial_3627_2320)"/>
<path d="M344.587 281.514L344.587 281.514C299.183 251.77 238.263 264.466 208.519 309.87L208.519 309.871C178.775 355.275 191.471 416.195 236.875 445.939L236.875 445.939C282.28 475.683 343.2 462.987 372.944 417.583L372.944 417.583C402.688 372.178 389.992 311.258 344.587 281.514Z" fill="url(#paint12_radial_3627_2320)"/>
<path d="M344.587 281.514L344.587 281.514C299.183 251.77 238.263 264.466 208.519 309.87L208.519 309.871C178.775 355.275 191.471 416.195 236.875 445.939L236.875 445.939C282.28 475.683 343.2 462.987 372.944 417.583L372.944 417.583C402.688 372.178 389.992 311.258 344.587 281.514Z" fill="url(#paint13_radial_3627_2320)" fill-opacity="0.7"/>
<g filter="url(#filter17_f_3627_2320)">
<path d="M280.637 290.013C282.624 294.111 272.725 300.042 259.961 306.231C247.198 312.419 236.404 316.521 234.416 312.423C232.429 308.324 240.001 297.577 252.765 291.388C265.528 285.2 278.65 285.914 280.637 290.013Z" fill="white"/>
<path d="M278.455 291.07C278.455 291.07 278.456 291.073 278.457 291.075C278.465 291.089 278.474 291.105 278.459 291.188C278.434 291.321 278.341 291.598 278.043 292.03C277.429 292.919 276.243 294.046 274.407 295.376C270.772 298.01 265.273 300.961 258.902 304.05C252.532 307.138 246.807 309.628 242.485 310.852C240.303 311.47 238.683 311.704 237.603 311.635C237.08 311.602 236.805 311.504 236.686 311.441C236.611 311.402 236.603 311.384 236.597 311.369L236.595 311.365C236.53 311.231 236.373 310.579 236.917 309.127C237.428 307.765 238.425 306.071 239.935 304.22C242.945 300.53 247.745 296.513 253.82 293.567C259.895 290.622 266.02 289.341 270.779 289.265C273.166 289.226 275.113 289.493 276.498 289.936C277.974 290.408 278.39 290.935 278.455 291.07Z" stroke="white" stroke-width="4.846"/>
</g>
<g filter="url(#filter18_f_3627_2320)">
<path d="M225.942 323.838C227.869 324.319 229.821 323.147 230.302 321.221C230.783 319.294 229.611 317.342 227.684 316.861C225.757 316.38 223.805 317.552 223.324 319.479C222.843 321.406 224.015 323.357 225.942 323.838Z" fill="white"/>
<path d="M226.224 322.701C227.522 323.025 228.838 322.235 229.162 320.937C229.486 319.638 228.696 318.323 227.398 317.999C226.099 317.675 224.784 318.465 224.46 319.763C224.136 321.061 224.926 322.377 226.224 322.701Z" stroke="white" stroke-width="2.34536"/>
</g>
<g filter="url(#filter19_f_3627_2320)">
<path d="M216.197 338.499C217.98 339.375 220.608 337.677 222.068 334.707C223.528 331.737 223.267 328.618 221.485 327.742C219.703 326.866 217.074 328.564 215.614 331.534C214.154 334.505 214.415 337.623 216.197 338.499Z" fill="white"/>
<mask id="mask9_3627_2320" style="mask-type:luminance" maskUnits="userSpaceOnUse" x="214" y="327" width="10" height="12">
<path d="M216.197 338.499C217.98 339.375 220.608 337.677 222.068 334.707C223.528 331.737 223.267 328.618 221.485 327.742C219.703 326.866 217.074 328.564 215.614 331.534C214.154 334.505 214.415 337.623 216.197 338.499Z" fill="white"/>
</mask>
<g mask="url(#mask9_3627_2320)">
<path d="M217.716 332.569C217.307 333.402 216.829 333.841 216.621 333.975C216.526 334.036 216.615 333.953 216.9 333.907C217.217 333.857 217.753 333.865 218.332 334.15L214.057 342.848C217.076 344.332 220.057 343.293 221.88 342.116C223.797 340.877 225.363 338.983 226.414 336.845L217.716 332.569ZM218.332 334.15C218.911 334.435 219.245 334.854 219.399 335.136C219.538 335.389 219.526 335.51 219.516 335.398C219.496 335.152 219.551 334.505 219.96 333.672L211.262 329.397C210.211 331.535 209.667 333.932 209.858 336.207C210.039 338.369 211.038 341.364 214.057 342.848L218.332 334.15ZM219.96 333.672C220.369 332.84 220.848 332.401 221.055 332.267C221.15 332.206 221.062 332.289 220.777 332.334C220.459 332.384 219.923 332.376 219.344 332.092L223.62 323.394C220.601 321.91 217.619 322.948 215.796 324.126C213.879 325.364 212.313 327.259 211.262 329.397L219.96 333.672ZM219.344 332.092C218.765 331.807 218.431 331.388 218.277 331.105C218.139 330.852 218.151 330.731 218.16 330.844C218.181 331.09 218.125 331.737 217.716 332.569L226.414 336.845C227.465 334.707 228.009 332.31 227.818 330.035C227.637 327.872 226.638 324.878 223.62 323.394L219.344 332.092Z" fill="white"/>
</g>
</g>
<g filter="url(#filter20_f_3627_2320)">
<path d="M234.245 455.268C280.994 485.893 343.719 472.822 374.344 426.072C404.968 379.323 391.897 316.599 345.147 285.974C298.398 255.349 235.674 268.42 205.049 315.17C174.424 361.919 187.495 424.644 234.245 455.268Z" stroke="white" stroke-width="34.5277"/>
</g>
</g>
</g>
<g opacity="0.03" filter="url(#filter21_dd_3627_2320)">
<mask id="mask10_3627_2320" style="mask-type:luminance" maskUnits="userSpaceOnUse" x="15" y="222" width="101" height="101">
<path d="M107.391 300.28C122.523 277.181 116.065 246.189 92.9654 231.057C69.8662 215.925 38.8738 222.384 23.7419 245.483C8.60996 268.582 15.0687 299.575 38.1679 314.706C61.267 329.838 92.2594 323.38 107.391 300.28Z" fill="white"/>
</mask>
<g mask="url(#mask10_3627_2320)">
<path d="M107.391 300.28C122.523 277.181 116.065 246.189 92.9654 231.057C69.8662 215.925 38.8738 222.384 23.7419 245.483C8.60996 268.582 15.0687 299.575 38.1679 314.706C61.267 329.838 92.2594 323.38 107.391 300.28Z" fill="#EB6F47" fill-opacity="0.8"/>
<path d="M107.391 300.28C122.523 277.181 116.065 246.189 92.9654 231.057C69.8662 215.925 38.8738 222.384 23.7419 245.483C8.60996 268.582 15.0687 299.575 38.1679 314.706C61.267 329.838 92.2594 323.38 107.391 300.28Z" fill="url(#paint14_radial_3627_2320)"/>
<path d="M107.391 300.28C122.523 277.181 116.065 246.189 92.9654 231.057C69.8662 215.925 38.8738 222.384 23.7419 245.483C8.60996 268.582 15.0687 299.575 38.1679 314.706C61.267 329.838 92.2594 323.38 107.391 300.28Z" fill="url(#paint15_radial_3627_2320)"/>
<path d="M107.391 300.28C122.523 277.181 116.065 246.189 92.9654 231.057C69.8662 215.925 38.8738 222.384 23.7419 245.483C8.60996 268.582 15.0687 299.575 38.1679 314.706C61.267 329.838 92.2594 323.38 107.391 300.28Z" fill="url(#paint16_radial_3627_2320)" fill-opacity="0.7"/>
<g filter="url(#filter22_f_3627_2320)">
<path d="M60.4324 235.38C61.4434 237.466 56.4071 240.483 49.9138 243.631C43.4205 246.779 37.929 248.866 36.918 246.781C35.9071 244.696 39.7594 239.228 46.2527 236.08C52.7461 232.932 59.4214 233.295 60.4324 235.38Z" fill="white"/>
<path d="M39.1798 245.999C39.1797 245.999 39.1797 245.998 39.1797 245.996M58.4121 236.67C58.4138 236.672 58.4145 236.672 58.4145 236.672M55.436 236.19C56.3069 236.176 57.0139 236.25 57.5422 236.364C57.2952 236.587 56.9738 236.848 56.5643 237.145C54.8061 238.419 52.0909 239.882 48.8552 241.451C45.6196 243.02 42.788 244.245 40.6982 244.837C40.2114 244.975 39.8072 245.066 39.4787 245.122C39.7163 244.636 40.097 244.036 40.6475 243.361C42.0655 241.622 44.3686 239.686 47.3083 238.26C50.248 236.835 53.1937 236.227 55.436 236.19Z" stroke="white" stroke-width="4.846"/>
</g>
<g filter="url(#filter23_f_3627_2320)">
<path d="M32.5995 252.589C33.5797 252.834 34.5727 252.238 34.8174 251.258C35.0621 250.277 34.4659 249.284 33.4857 249.04C32.5055 248.795 31.5126 249.391 31.2678 250.371C31.0231 251.352 31.6194 252.345 32.5995 252.589Z" fill="white"/>
</g>
<g filter="url(#filter24_f_3627_2320)">
<path d="M27.6471 260.048C28.5538 260.493 29.8909 259.63 30.6337 258.119C31.3765 256.607 31.2436 255.021 30.337 254.576C29.4303 254.13 28.0932 254.994 27.3504 256.505C26.6076 258.016 26.7405 259.602 27.6471 260.048Z" fill="white"/>
<mask id="mask11_3627_2320" style="mask-type:luminance" maskUnits="userSpaceOnUse" x="26" y="254" width="6" height="7">
<path d="M27.6471 260.048C28.5538 260.493 29.8909 259.63 30.6337 258.119C31.3765 256.607 31.2436 255.021 30.337 254.576C29.4303 254.13 28.0932 254.994 27.3504 256.505C26.6076 258.016 26.7405 259.602 27.6471 260.048Z" fill="white"/>
</mask>
<g mask="url(#mask11_3627_2320)">
<path d="M26.2845 255.981C26.234 256.084 26.2577 255.95 26.5723 255.746C26.7924 255.604 28.1102 254.876 29.7847 255.699L25.5092 264.397C28.0903 265.665 30.53 264.728 31.8311 263.888C33.2266 262.986 34.2903 261.665 34.9825 260.256L26.2845 255.981ZM29.7847 255.699C31.4591 256.522 31.6872 258.01 31.7091 258.271C31.7404 258.645 31.6486 258.745 31.6992 258.642L23.0012 254.367C22.309 255.775 21.9123 257.425 22.0509 259.08C22.1802 260.624 22.9281 263.128 25.5092 264.397L29.7847 255.699ZM31.6992 258.642C31.7497 258.54 31.726 258.674 31.4114 258.877C31.1913 259.019 29.8735 259.748 28.199 258.925L32.4745 250.227C29.8934 248.958 27.4537 249.895 26.1527 250.736C24.7571 251.637 23.6934 252.959 23.0012 254.367L31.6992 258.642ZM28.199 258.925C26.5246 258.101 26.2965 256.613 26.2746 256.352C26.2433 255.979 26.3351 255.878 26.2845 255.981L34.9825 260.256C35.6747 258.848 36.0714 257.199 35.9328 255.543C35.8035 254 35.0556 251.495 32.4745 250.227L28.199 258.925Z" fill="white"/>
</g>
</g>
<g filter="url(#filter25_f_3627_2320)">
<path d="M36.8305 319.452C60.6138 335.032 92.5241 328.382 108.104 304.599C123.684 280.816 117.034 248.905 93.2509 233.325C69.4677 217.745 37.5574 224.395 21.9773 248.179C6.39725 271.962 13.0473 303.872 36.8305 319.452Z" stroke="white" stroke-width="34.5277"/>
</g>
</g>
</g>
<g opacity="0.06" filter="url(#filter26_dd_3627_2320)">
<mask id="mask12_3627_2320" style="mask-type:luminance" maskUnits="userSpaceOnUse" x="491" y="92" width="101" height="101">
<path d="M583.391 170.28C598.523 147.181 592.065 116.189 568.965 101.057C545.866 85.925 514.874 92.3838 499.742 115.483C484.61 138.582 491.069 169.575 514.168 184.706C537.267 199.838 568.259 193.38 583.391 170.28Z" fill="white"/>
</mask>
<g mask="url(#mask12_3627_2320)">
<path d="M583.391 170.28C598.523 147.181 592.065 116.189 568.965 101.057C545.866 85.925 514.874 92.3838 499.742 115.483C484.61 138.582 491.069 169.575 514.168 184.706C537.267 199.838 568.259 193.38 583.391 170.28Z" fill="#EB6F47" fill-opacity="0.8"/>
<path d="M583.391 170.28C598.523 147.181 592.065 116.189 568.965 101.057C545.866 85.925 514.874 92.3838 499.742 115.483C484.61 138.582 491.069 169.575 514.168 184.706C537.267 199.838 568.259 193.38 583.391 170.28Z" fill="url(#paint17_radial_3627_2320)"/>
<path d="M583.391 170.28C598.523 147.181 592.065 116.189 568.965 101.057C545.866 85.925 514.874 92.3838 499.742 115.483C484.61 138.582 491.069 169.575 514.168 184.706C537.267 199.838 568.259 193.38 583.391 170.28Z" fill="url(#paint18_radial_3627_2320)"/>
<path d="M583.391 170.28C598.523 147.181 592.065 116.189 568.965 101.057C545.866 85.925 514.874 92.3838 499.742 115.483C484.61 138.582 491.069 169.575 514.168 184.706C537.267 199.838 568.259 193.38 583.391 170.28Z" fill="url(#paint19_radial_3627_2320)" fill-opacity="0.7"/>
<g filter="url(#filter27_f_3627_2320)">
<path d="M536.433 105.38C537.444 107.466 532.407 110.483 525.914 113.631C519.421 116.779 513.929 118.866 512.918 116.781C511.907 114.696 515.76 109.228 522.253 106.08C528.746 102.932 535.422 103.295 536.433 105.38Z" fill="white"/>
<path d="M534.413 106.67C534.414 106.672 534.415 106.672 534.415 106.672M531.437 106.19C532.308 106.176 533.015 106.25 533.543 106.364C533.296 106.587 532.975 106.848 532.565 107.145C530.807 108.419 528.092 109.882 524.856 111.451C521.62 113.02 518.789 114.245 516.699 114.837C516.212 114.975 515.808 115.066 515.479 115.122C515.717 114.636 516.098 114.036 516.648 113.361C518.066 111.622 520.369 109.686 523.309 108.26C526.249 106.835 529.194 106.227 531.437 106.19ZM515.18 115.999C515.18 115.999 515.18 115.998 515.18 115.996C515.181 115.998 515.18 115.999 515.18 115.999Z" stroke="white" stroke-width="4.846"/>
</g>
<g filter="url(#filter28_f_3627_2320)">
<path d="M508.6 122.589C509.58 122.834 510.573 122.238 510.817 121.258C511.062 120.277 510.466 119.284 509.486 119.04C508.506 118.795 507.513 119.391 507.268 120.371C507.023 121.352 507.619 122.345 508.6 122.589Z" fill="white"/>
</g>
<g filter="url(#filter29_f_3627_2320)">
<path d="M503.647 130.048C504.554 130.493 505.891 129.63 506.634 128.119C507.376 126.607 507.244 125.021 506.337 124.576C505.43 124.13 504.093 124.994 503.35 126.505C502.608 128.016 502.74 129.602 503.647 130.048Z" fill="white"/>
<mask id="mask13_3627_2320" style="mask-type:luminance" maskUnits="userSpaceOnUse" x="502" y="124" width="6" height="7">
<path d="M503.647 130.048C504.554 130.493 505.891 129.63 506.634 128.119C507.376 126.607 507.244 125.021 506.337 124.576C505.43 124.13 504.093 124.994 503.35 126.505C502.608 128.016 502.74 129.602 503.647 130.048Z" fill="white"/>
</mask>
<g mask="url(#mask13_3627_2320)">
<path d="M502.285 125.981C502.234 126.084 502.258 125.95 502.572 125.746C502.793 125.604 504.11 124.876 505.785 125.699L501.509 134.397C504.09 135.665 506.53 134.728 507.831 133.888C509.227 132.986 510.29 131.665 510.983 130.256L502.285 125.981ZM505.785 125.699C507.459 126.522 507.687 128.01 507.709 128.271C507.74 128.645 507.649 128.745 507.699 128.642L499.001 124.367C498.309 125.775 497.912 127.425 498.051 129.08C498.18 130.624 498.928 133.128 501.509 134.397L505.785 125.699ZM507.699 128.642C507.75 128.54 507.726 128.674 507.412 128.877C507.191 129.019 505.874 129.748 504.199 128.925L508.475 120.227C505.893 118.958 503.454 119.895 502.153 120.736C500.757 121.637 499.694 122.959 499.001 124.367L507.699 128.642ZM504.199 128.925C502.525 128.101 502.297 126.613 502.275 126.352C502.243 125.979 502.335 125.878 502.285 125.981L510.983 130.256C511.675 128.848 512.072 127.199 511.933 125.543C511.804 124 511.056 121.495 508.475 120.227L504.199 128.925Z" fill="white"/>
</g>
</g>
<g filter="url(#filter30_f_3627_2320)">
<path d="M512.831 189.452C536.614 205.032 568.524 198.382 584.104 174.599C599.684 150.816 593.034 118.905 569.251 103.325C545.468 87.7454 513.557 94.3954 497.977 118.179C482.397 141.962 489.047 173.872 512.831 189.452Z" stroke="white" stroke-width="34.5277"/>
</g>
</g>
</g>
</g>
</g>
<defs>
<filter id="filter0_f_3627_2320" x="-697.117" y="-980.495" width="3444.84" height="3336.71" filterUnits="userSpaceOnUse" color-interpolation-filters="sRGB">
<feFlood flood-opacity="0" result="BackgroundImageFix"/>
<feBlend mode="normal" in="SourceGraphic" in2="BackgroundImageFix" result="shape"/>
<feGaussianBlur stdDeviation="161" result="effect1_foregroundBlur_3627_2320"/>
</filter>
<filter id="filter1_dd_3627_2320" x="-14.7994" y="548.196" width="577.788" height="577.787" filterUnits="userSpaceOnUse" color-interpolation-filters="sRGB">
<feFlood flood-opacity="0" result="BackgroundImageFix"/>
<feColorMatrix in="SourceAlpha" type="matrix" values="0 0 0 0 0 0 0 0 0 0 0 0 0 0 0 0 0 0 127 0" result="hardAlpha"/>
<feOffset dx="-2.423" dy="-2.423"/>
<feGaussianBlur stdDeviation="23.3214"/>
<feComposite in2="hardAlpha" operator="out"/>
<feColorMatrix type="matrix" values="0 0 0 0 1 0 0 0 0 1 0 0 0 0 1 0 0 0 0.22 0"/>
<feBlend mode="normal" in2="BackgroundImageFix" result="effect1_dropShadow_3627_2320"/>
<feColorMatrix in="SourceAlpha" type="matrix" values="0 0 0 0 0 0 0 0 0 0 0 0 0 0 0 0 0 0 127 0" result="hardAlpha"/>
<feOffset dx="9.69199" dy="9.69199"/>
<feGaussianBlur stdDeviation="49.6715"/>
<feComposite in2="hardAlpha" operator="out"/>
<feColorMatrix type="matrix" values="0 0 0 0 1 0 0 0 0 1 0 0 0 0 1 0 0 0 0.25 0"/>
<feBlend mode="normal" in2="effect1_dropShadow_3627_2320" result="effect2_dropShadow_3627_2320"/>
<feBlend mode="normal" in="SourceGraphic" in2="effect2_dropShadow_3627_2320" result="shape"/>
</filter>
<filter id="filter2_f_3627_2320" x="138.25" y="662.165" width="124.156" height="86.4366" filterUnits="userSpaceOnUse" color-interpolation-filters="sRGB">
<feFlood flood-opacity="0" result="BackgroundImageFix"/>
<feBlend mode="normal" in="SourceGraphic" in2="BackgroundImageFix" result="shape"/>
<feGaussianBlur stdDeviation="8.48049" result="effect1_foregroundBlur_3627_2320"/>
</filter>
<filter id="filter3_f_3627_2320" x="125.125" y="727.727" width="32.0475" height="32.0436" filterUnits="userSpaceOnUse" color-interpolation-filters="sRGB">
<feFlood flood-opacity="0" result="BackgroundImageFix"/>
<feBlend mode="normal" in="SourceGraphic" in2="BackgroundImageFix" result="shape"/>
<feGaussianBlur stdDeviation="4.54312" result="effect1_foregroundBlur_3627_2320"/>
</filter>
<filter id="filter4_f_3627_2320" x="107.429" y="747.261" width="36.6892" height="42.2273" filterUnits="userSpaceOnUse" color-interpolation-filters="sRGB">
<feFlood flood-opacity="0" result="BackgroundImageFix"/>
<feBlend mode="normal" in="SourceGraphic" in2="BackgroundImageFix" result="shape"/>
<feGaussianBlur stdDeviation="5.14887" result="effect1_foregroundBlur_3627_2320"/>
</filter>
<filter id="filter5_f_3627_2320" x="3.94738" y="582.226" width="516.933" height="516.933" filterUnits="userSpaceOnUse" color-interpolation-filters="sRGB">
<feFlood flood-opacity="0" result="BackgroundImageFix"/>
<feBlend mode="normal" in="SourceGraphic" in2="BackgroundImageFix" result="shape"/>
<feGaussianBlur stdDeviation="23.0185" result="effect1_foregroundBlur_3627_2320"/>
</filter>
<filter id="filter6_dd_3627_2320" x="1545.2" y="378.196" width="577.788" height="577.787" filterUnits="userSpaceOnUse" color-interpolation-filters="sRGB">
<feFlood flood-opacity="0" result="BackgroundImageFix"/>
<feColorMatrix in="SourceAlpha" type="matrix" values="0 0 0 0 0 0 0 0 0 0 0 0 0 0 0 0 0 0 127 0" result="hardAlpha"/>
<feOffset dx="-2.423" dy="-2.423"/>
<feGaussianBlur stdDeviation="23.3214"/>
<feComposite in2="hardAlpha" operator="out"/>
<feColorMatrix type="matrix" values="0 0 0 0 1 0 0 0 0 1 0 0 0 0 1 0 0 0 0.22 0"/>
<feBlend mode="normal" in2="BackgroundImageFix" result="effect1_dropShadow_3627_2320"/>
<feColorMatrix in="SourceAlpha" type="matrix" values="0 0 0 0 0 0 0 0 0 0 0 0 0 0 0 0 0 0 127 0" result="hardAlpha"/>
<feOffset dx="9.69199" dy="9.69199"/>
<feGaussianBlur stdDeviation="49.6715"/>
<feComposite in2="hardAlpha" operator="out"/>
<feColorMatrix type="matrix" values="0 0 0 0 1 0 0 0 0 1 0 0 0 0 1 0 0 0 0.25 0"/>
<feBlend mode="normal" in2="effect1_dropShadow_3627_2320" result="effect2_dropShadow_3627_2320"/>
<feBlend mode="normal" in="SourceGraphic" in2="effect2_dropShadow_3627_2320" result="shape"/>
</filter>
<filter id="filter7_f_3627_2320" x="1698.25" y="492.165" width="124.149" height="86.4366" filterUnits="userSpaceOnUse" color-interpolation-filters="sRGB">
<feFlood flood-opacity="0" result="BackgroundImageFix"/>
<feBlend mode="normal" in="SourceGraphic" in2="BackgroundImageFix" result="shape"/>
<feGaussianBlur stdDeviation="8.48049" result="effect1_foregroundBlur_3627_2320"/>
</filter>
<filter id="filter8_f_3627_2320" x="1685.12" y="557.727" width="32.0475" height="32.0436" filterUnits="userSpaceOnUse" color-interpolation-filters="sRGB">
<feFlood flood-opacity="0" result="BackgroundImageFix"/>
<feBlend mode="normal" in="SourceGraphic" in2="BackgroundImageFix" result="shape"/>
<feGaussianBlur stdDeviation="4.54312" result="effect1_foregroundBlur_3627_2320"/>
</filter>
<filter id="filter9_f_3627_2320" x="1667.43" y="577.261" width="36.6892" height="42.2273" filterUnits="userSpaceOnUse" color-interpolation-filters="sRGB">
<feFlood flood-opacity="0" result="BackgroundImageFix"/>
<feBlend mode="normal" in="SourceGraphic" in2="BackgroundImageFix" result="shape"/>
<feGaussianBlur stdDeviation="5.14887" result="effect1_foregroundBlur_3627_2320"/>
</filter>
<filter id="filter10_f_3627_2320" x="1563.95" y="412.226" width="516.933" height="516.934" filterUnits="userSpaceOnUse" color-interpolation-filters="sRGB">
<feFlood flood-opacity="0" result="BackgroundImageFix"/>
<feBlend mode="normal" in="SourceGraphic" in2="BackgroundImageFix" result="shape"/>
<feGaussianBlur stdDeviation="23.0185" result="effect1_foregroundBlur_3627_2320"/>
</filter>
<filter id="filter11_dd_3627_2320" x="901.115" y="-36.6061" width="448.717" height="448.714" filterUnits="userSpaceOnUse" color-interpolation-filters="sRGB">
<feFlood flood-opacity="0" result="BackgroundImageFix"/>
<feColorMatrix in="SourceAlpha" type="matrix" values="0 0 0 0 0 0 0 0 0 0 0 0 0 0 0 0 0 0 127 0" result="hardAlpha"/>
<feOffset dx="-2.423" dy="-2.423"/>
<feGaussianBlur stdDeviation="23.3214"/>
<feComposite in2="hardAlpha" operator="out"/>
<feColorMatrix type="matrix" values="0 0 0 0 1 0 0 0 0 1 0 0 0 0 1 0 0 0 0.22 0"/>
<feBlend mode="normal" in2="BackgroundImageFix" result="effect1_dropShadow_3627_2320"/>
<feColorMatrix in="SourceAlpha" type="matrix" values="0 0 0 0 0 0 0 0 0 0 0 0 0 0 0 0 0 0 127 0" result="hardAlpha"/>
<feOffset dx="9.69199" dy="9.69199"/>
<feGaussianBlur stdDeviation="49.6715"/>
<feComposite in2="hardAlpha" operator="out"/>
<feColorMatrix type="matrix" values="0 0 0 0 1 0 0 0 0 1 0 0 0 0 1 0 0 0 0.25 0"/>
<feBlend mode="normal" in2="effect1_dropShadow_3627_2320" result="effect2_dropShadow_3627_2320"/>
<feBlend mode="normal" in="SourceGraphic" in2="effect2_dropShadow_3627_2320" result="shape"/>
</filter>
<filter id="filter12_f_3627_2320" x="1026.81" y="63.3086" width="93.4376" height="68.5567" filterUnits="userSpaceOnUse" color-interpolation-filters="sRGB">
<feFlood flood-opacity="0" result="BackgroundImageFix"/>
<feBlend mode="normal" in="SourceGraphic" in2="BackgroundImageFix" result="shape"/>
<feGaussianBlur stdDeviation="8.48049" result="effect1_foregroundBlur_3627_2320"/>
</filter>
<filter id="filter13_f_3627_2320" x="1020.83" y="109.23" width="27.3287" height="27.3209" filterUnits="userSpaceOnUse" color-interpolation-filters="sRGB">
<feFlood flood-opacity="0" result="BackgroundImageFix"/>
<feBlend mode="normal" in="SourceGraphic" in2="BackgroundImageFix" result="shape"/>
<feGaussianBlur stdDeviation="4.54312" result="effect1_foregroundBlur_3627_2320"/>
</filter>
<filter id="filter14_f_3627_2320" x="1008.76" y="121.701" width="31.2049" height="34.8621" filterUnits="userSpaceOnUse" color-interpolation-filters="sRGB">
<feFlood flood-opacity="0" result="BackgroundImageFix"/>
<feBlend mode="normal" in="SourceGraphic" in2="BackgroundImageFix" result="shape"/>
<feGaussianBlur stdDeviation="5.14887" result="effect1_foregroundBlur_3627_2320"/>
</filter>
<filter id="filter15_f_3627_2320" x="922.455" y="-5.19325" width="384.043" height="384.039" filterUnits="userSpaceOnUse" color-interpolation-filters="sRGB">
<feFlood flood-opacity="0" result="BackgroundImageFix"/>
<feBlend mode="normal" in="SourceGraphic" in2="BackgroundImageFix" result="shape"/>
<feGaussianBlur stdDeviation="23.0185" result="effect1_foregroundBlur_3627_2320"/>
</filter>
<filter id="filter16_dd_3627_2320" x="102.779" y="175.783" width="395.272" height="395.272" filterUnits="userSpaceOnUse" color-interpolation-filters="sRGB">
<feFlood flood-opacity="0" result="BackgroundImageFix"/>
<feColorMatrix in="SourceAlpha" type="matrix" values="0 0 0 0 0 0 0 0 0 0 0 0 0 0 0 0 0 0 127 0" result="hardAlpha"/>
<feOffset dx="-2.423" dy="-2.423"/>
<feGaussianBlur stdDeviation="23.3214"/>
<feComposite in2="hardAlpha" operator="out"/>
<feColorMatrix type="matrix" values="0 0 0 0 1 0 0 0 0 1 0 0 0 0 1 0 0 0 0.22 0"/>
<feBlend mode="normal" in2="BackgroundImageFix" result="effect1_dropShadow_3627_2320"/>
<feColorMatrix in="SourceAlpha" type="matrix" values="0 0 0 0 0 0 0 0 0 0 0 0 0 0 0 0 0 0 127 0" result="hardAlpha"/>
<feOffset dx="9.69199" dy="9.69199"/>
<feGaussianBlur stdDeviation="49.6715"/>
<feComposite in2="hardAlpha" operator="out"/>
<feColorMatrix type="matrix" values="0 0 0 0 1 0 0 0 0 1 0 0 0 0 1 0 0 0 0.25 0"/>
<feBlend mode="normal" in2="effect1_dropShadow_3627_2320" result="effect2_dropShadow_3627_2320"/>
<feBlend mode="normal" in="SourceGraphic" in2="effect2_dropShadow_3627_2320" result="shape"/>
</filter>
<filter id="filter17_f_3627_2320" x="217.141" y="269.878" width="80.711" height="61.1544" filterUnits="userSpaceOnUse" color-interpolation-filters="sRGB">
<feFlood flood-opacity="0" result="BackgroundImageFix"/>
<feBlend mode="normal" in="SourceGraphic" in2="BackgroundImageFix" result="shape"/>
<feGaussianBlur stdDeviation="8.48049" result="effect1_foregroundBlur_3627_2320"/>
</filter>
<filter id="filter18_f_3627_2320" x="214.125" y="307.667" width="25.3678" height="25.3658" filterUnits="userSpaceOnUse" color-interpolation-filters="sRGB">
<feFlood flood-opacity="0" result="BackgroundImageFix"/>
<feBlend mode="normal" in="SourceGraphic" in2="BackgroundImageFix" result="shape"/>
<feGaussianBlur stdDeviation="4.54312" result="effect1_foregroundBlur_3627_2320"/>
</filter>
<filter id="filter19_f_3627_2320" x="204.374" y="317.214" width="28.9392" height="31.8133" filterUnits="userSpaceOnUse" color-interpolation-filters="sRGB">
<feFlood flood-opacity="0" result="BackgroundImageFix"/>
<feBlend mode="normal" in="SourceGraphic" in2="BackgroundImageFix" result="shape"/>
<feGaussianBlur stdDeviation="5.14887" result="effect1_foregroundBlur_3627_2320"/>
</filter>
<filter id="filter20_f_3627_2320" x="125.19" y="206.113" width="329.011" height="329.015" filterUnits="userSpaceOnUse" color-interpolation-filters="sRGB">
<feFlood flood-opacity="0" result="BackgroundImageFix"/>
<feBlend mode="normal" in="SourceGraphic" in2="BackgroundImageFix" result="shape"/>
<feGaussianBlur stdDeviation="23.0185" result="effect1_foregroundBlur_3627_2320"/>
</filter>
<filter id="filter21_dd_3627_2320" x="-74.0885" y="133.225" width="298.694" height="298.698" filterUnits="userSpaceOnUse" color-interpolation-filters="sRGB">
<feFlood flood-opacity="0" result="BackgroundImageFix"/>
<feColorMatrix in="SourceAlpha" type="matrix" values="0 0 0 0 0 0 0 0 0 0 0 0 0 0 0 0 0 0 127 0" result="hardAlpha"/>
<feOffset dx="-2.423" dy="-2.423"/>
<feGaussianBlur stdDeviation="23.3214"/>
<feComposite in2="hardAlpha" operator="out"/>
<feColorMatrix type="matrix" values="0 0 0 0 1 0 0 0 0 1 0 0 0 0 1 0 0 0 0.22 0"/>
<feBlend mode="normal" in2="BackgroundImageFix" result="effect1_dropShadow_3627_2320"/>
<feColorMatrix in="SourceAlpha" type="matrix" values="0 0 0 0 0 0 0 0 0 0 0 0 0 0 0 0 0 0 127 0" result="hardAlpha"/>
<feOffset dx="9.69199" dy="9.69199"/>
<feGaussianBlur stdDeviation="49.6715"/>
<feComposite in2="hardAlpha" operator="out"/>
<feColorMatrix type="matrix" values="0 0 0 0 1 0 0 0 0 1 0 0 0 0 1 0 0 0 0.25 0"/>
<feBlend mode="normal" in2="effect1_dropShadow_3627_2320" result="effect2_dropShadow_3627_2320"/>
<feBlend mode="normal" in="SourceGraphic" in2="effect2_dropShadow_3627_2320" result="shape"/>
</filter>
<filter id="filter22_f_3627_2320" x="18.2656" y="216.805" width="61.3751" height="48.5782" filterUnits="userSpaceOnUse" color-interpolation-filters="sRGB">
<feFlood flood-opacity="0" result="BackgroundImageFix"/>
<feBlend mode="normal" in="SourceGraphic" in2="BackgroundImageFix" result="shape"/>
<feGaussianBlur stdDeviation="8.48049" result="effect1_foregroundBlur_3627_2320"/>
</filter>
<filter id="filter23_f_3627_2320" x="22.1247" y="239.899" width="21.8365" height="21.8317" filterUnits="userSpaceOnUse" color-interpolation-filters="sRGB">
<feFlood flood-opacity="0" result="BackgroundImageFix"/>
<feBlend mode="normal" in="SourceGraphic" in2="BackgroundImageFix" result="shape"/>
<feGaussianBlur stdDeviation="4.54312" result="effect1_foregroundBlur_3627_2320"/>
</filter>
<filter id="filter24_f_3627_2320" x="16.5694" y="244.16" width="24.8455" height="26.3025" filterUnits="userSpaceOnUse" color-interpolation-filters="sRGB">
<feFlood flood-opacity="0" result="BackgroundImageFix"/>
<feBlend mode="normal" in="SourceGraphic" in2="BackgroundImageFix" result="shape"/>
<feGaussianBlur stdDeviation="5.14887" result="effect1_foregroundBlur_3627_2320"/>
</filter>
<filter id="filter25_f_3627_2320" x="-49.7479" y="161.6" width="229.582" height="229.579" filterUnits="userSpaceOnUse" color-interpolation-filters="sRGB">
<feFlood flood-opacity="0" result="BackgroundImageFix"/>
<feBlend mode="normal" in="SourceGraphic" in2="BackgroundImageFix" result="shape"/>
<feGaussianBlur stdDeviation="23.0185" result="effect1_foregroundBlur_3627_2320"/>
</filter>
<filter id="filter26_dd_3627_2320" x="401.911" y="3.22496" width="298.694" height="298.698" filterUnits="userSpaceOnUse" color-interpolation-filters="sRGB">
<feFlood flood-opacity="0" result="BackgroundImageFix"/>
<feColorMatrix in="SourceAlpha" type="matrix" values="0 0 0 0 0 0 0 0 0 0 0 0 0 0 0 0 0 0 127 0" result="hardAlpha"/>
<feOffset dx="-2.423" dy="-2.423"/>
<feGaussianBlur stdDeviation="23.3214"/>
<feComposite in2="hardAlpha" operator="out"/>
<feColorMatrix type="matrix" values="0 0 0 0 1 0 0 0 0 1 0 0 0 0 1 0 0 0 0.22 0"/>
<feBlend mode="normal" in2="BackgroundImageFix" result="effect1_dropShadow_3627_2320"/>
<feColorMatrix in="SourceAlpha" type="matrix" values="0 0 0 0 0 0 0 0 0 0 0 0 0 0 0 0 0 0 127 0" result="hardAlpha"/>
<feOffset dx="9.69199" dy="9.69199"/>
<feGaussianBlur stdDeviation="49.6715"/>
<feComposite in2="hardAlpha" operator="out"/>
<feColorMatrix type="matrix" values="0 0 0 0 1 0 0 0 0 1 0 0 0 0 1 0 0 0 0.25 0"/>
<feBlend mode="normal" in2="effect1_dropShadow_3627_2320" result="effect2_dropShadow_3627_2320"/>
<feBlend mode="normal" in="SourceGraphic" in2="effect2_dropShadow_3627_2320" result="shape"/>
</filter>
<filter id="filter27_f_3627_2320" x="494.258" y="86.8046" width="61.3829" height="51.9981" filterUnits="userSpaceOnUse" color-interpolation-filters="sRGB">
<feFlood flood-opacity="0" result="BackgroundImageFix"/>
<feBlend mode="normal" in="SourceGraphic" in2="BackgroundImageFix" result="shape"/>
<feGaussianBlur stdDeviation="8.48049" result="effect1_foregroundBlur_3627_2320"/>
</filter>
<filter id="filter28_f_3627_2320" x="498.125" y="109.898" width="21.8365" height="21.8326" filterUnits="userSpaceOnUse" color-interpolation-filters="sRGB">
<feFlood flood-opacity="0" result="BackgroundImageFix"/>
<feBlend mode="normal" in="SourceGraphic" in2="BackgroundImageFix" result="shape"/>
<feGaussianBlur stdDeviation="4.54312" result="effect1_foregroundBlur_3627_2320"/>
</filter>
<filter id="filter29_f_3627_2320" x="492.569" y="114.16" width="24.8455" height="26.3025" filterUnits="userSpaceOnUse" color-interpolation-filters="sRGB">
<feFlood flood-opacity="0" result="BackgroundImageFix"/>
<feBlend mode="normal" in="SourceGraphic" in2="BackgroundImageFix" result="shape"/>
<feGaussianBlur stdDeviation="5.14887" result="effect1_foregroundBlur_3627_2320"/>
</filter>
<filter id="filter30_f_3627_2320" x="426.252" y="31.5997" width="229.582" height="229.579" filterUnits="userSpaceOnUse" color-interpolation-filters="sRGB">
<feFlood flood-opacity="0" result="BackgroundImageFix"/>
<feBlend mode="normal" in="SourceGraphic" in2="BackgroundImageFix" result="shape"/>
<feGaussianBlur stdDeviation="23.0185" result="effect1_foregroundBlur_3627_2320"/>
</filter>
<linearGradient id="paint0_linear_3627_2320" x1="-54" y1="-6" x2="2063.63" y2="963.765" gradientUnits="userSpaceOnUse">
<stop stop-color="#0059BB"/>
<stop offset="0.511683" stop-color="#0099FF"/>
<stop offset="0.973958" stop-color="#03E6F4"/>
</linearGradient>
<linearGradient id="paint1_linear_3627_2320" x1="-47" y1="-6" x2="1959.49" y2="1049.5" gradientUnits="userSpaceOnUse">
<stop stop-color="#0059BB"/>
<stop offset="0.511683" stop-color="#0099FF"/>
<stop offset="0.973958" stop-color="#03E6F4"/>
</linearGradient>
<radialGradient id="paint2_radial_3627_2320" cx="0" cy="0" r="1" gradientUnits="userSpaceOnUse" gradientTransform="translate(329.316 869.917) rotate(158.403) scale(212.075)">
<stop stop-color="#B541EC"/>
<stop offset="1" stop-color="#D441EC" stop-opacity="0"/>
</radialGradient>
<radialGradient id="paint3_radial_3627_2320" cx="0" cy="0" r="1" gradientUnits="userSpaceOnUse" gradientTransform="translate(121.264 792.835) rotate(48.5846) scale(229.418)">
<stop stop-color="#51ABFF"/>
<stop offset="1" stop-color="#4786FF" stop-opacity="0"/>
</radialGradient>
<radialGradient id="paint4_radial_3627_2320" cx="0" cy="0" r="1" gradientUnits="userSpaceOnUse" gradientTransform="translate(235.437 664.341) rotate(82.3858) scale(357.464)">
<stop stop-color="white"/>
<stop offset="0.97449" stop-color="white" stop-opacity="0"/>
</radialGradient>
<radialGradient id="paint5_radial_3627_2320" cx="0" cy="0" r="1" gradientUnits="userSpaceOnUse" gradientTransform="translate(1889.31 699.921) rotate(158.403) scale(212.075 212.075)">
<stop stop-color="#B541EC"/>
<stop offset="1" stop-color="#D441EC" stop-opacity="0"/>
</radialGradient>
<radialGradient id="paint6_radial_3627_2320" cx="0" cy="0" r="1" gradientUnits="userSpaceOnUse" gradientTransform="translate(1681.26 622.835) rotate(48.5846) scale(229.418 229.418)">
<stop stop-color="#51ABFF"/>
<stop offset="1" stop-color="#4786FF" stop-opacity="0"/>
</radialGradient>
<radialGradient id="paint7_radial_3627_2320" cx="0" cy="0" r="1" gradientUnits="userSpaceOnUse" gradientTransform="translate(1795.43 494.345) rotate(82.3858) scale(357.464 357.464)">
<stop stop-color="white"/>
<stop offset="0.97449" stop-color="white" stop-opacity="0"/>
</radialGradient>
<radialGradient id="paint8_radial_3627_2320" cx="0" cy="0" r="1" gradientUnits="userSpaceOnUse" gradientTransform="translate(1158.6 206.104) rotate(158.403) scale(139.87)">
<stop stop-color="#B541EC"/>
<stop offset="1" stop-color="#D441EC" stop-opacity="0"/>
</radialGradient>
<radialGradient id="paint9_radial_3627_2320" cx="0" cy="0" r="1" gradientUnits="userSpaceOnUse" gradientTransform="translate(1021.39 155.266) rotate(48.5846) scale(151.308)">
<stop stop-color="#51ABFF"/>
<stop offset="1" stop-color="#4786FF" stop-opacity="0"/>
</radialGradient>
<radialGradient id="paint10_radial_3627_2320" cx="0" cy="0" r="1" gradientUnits="userSpaceOnUse" gradientTransform="translate(1096.69 70.5202) rotate(82.3858) scale(235.758)">
<stop stop-color="white"/>
<stop offset="0.97449" stop-color="white" stop-opacity="0"/>
</radialGradient>
<radialGradient id="paint11_radial_3627_2320" cx="0" cy="0" r="1" gradientUnits="userSpaceOnUse" gradientTransform="translate(324.389 385.776) rotate(158.403) scale(109.973 109.973)">
<stop stop-color="#B541EC"/>
<stop offset="1" stop-color="#D441EC" stop-opacity="0"/>
</radialGradient>
<radialGradient id="paint12_radial_3627_2320" cx="0" cy="0" r="1" gradientUnits="userSpaceOnUse" gradientTransform="translate(216.502 345.803) rotate(48.5846) scale(118.967 118.967)">
<stop stop-color="#51ABFF"/>
<stop offset="1" stop-color="#4786FF" stop-opacity="0"/>
</radialGradient>
<radialGradient id="paint13_radial_3627_2320" cx="0" cy="0" r="1" gradientUnits="userSpaceOnUse" gradientTransform="translate(275.707 279.173) rotate(82.3858) scale(185.366 185.366)">
<stop stop-color="white"/>
<stop offset="0.97449" stop-color="white" stop-opacity="0"/>
</radialGradient>
<radialGradient id="paint14_radial_3627_2320" cx="0" cy="0" r="1" gradientUnits="userSpaceOnUse" gradientTransform="translate(82.69 284.099) rotate(158.403) scale(55.9478)">
<stop stop-color="#B541EC"/>
<stop offset="1" stop-color="#D441EC" stop-opacity="0"/>
</radialGradient>
<radialGradient id="paint15_radial_3627_2320" cx="0" cy="0" r="1" gradientUnits="userSpaceOnUse" gradientTransform="translate(27.8034 263.763) rotate(48.5846) scale(60.5232)">
<stop stop-color="#51ABFF"/>
<stop offset="1" stop-color="#4786FF" stop-opacity="0"/>
</radialGradient>
<radialGradient id="paint16_radial_3627_2320" cx="0" cy="0" r="1" gradientUnits="userSpaceOnUse" gradientTransform="translate(57.9233 229.866) rotate(82.3858) scale(94.3032)">
<stop stop-color="white"/>
<stop offset="0.97449" stop-color="white" stop-opacity="0"/>
</radialGradient>
<radialGradient id="paint17_radial_3627_2320" cx="0" cy="0" r="1" gradientUnits="userSpaceOnUse" gradientTransform="translate(558.69 154.099) rotate(158.403) scale(55.9478)">
<stop stop-color="#B541EC"/>
<stop offset="1" stop-color="#D441EC" stop-opacity="0"/>
</radialGradient>
<radialGradient id="paint18_radial_3627_2320" cx="0" cy="0" r="1" gradientUnits="userSpaceOnUse" gradientTransform="translate(503.803 133.763) rotate(48.5846) scale(60.5232)">
<stop stop-color="#51ABFF"/>
<stop offset="1" stop-color="#4786FF" stop-opacity="0"/>
</radialGradient>
<radialGradient id="paint19_radial_3627_2320" cx="0" cy="0" r="1" gradientUnits="userSpaceOnUse" gradientTransform="translate(533.923 99.8651) rotate(82.3858) scale(94.3032)">
<stop stop-color="white"/>
<stop offset="0.97449" stop-color="white" stop-opacity="0"/>
</radialGradient>
<clipPath id="clip0_3627_2320">
<rect width="1917" height="1163" fill="white"/>
</clipPath>
</defs>
</svg>
