<svg width="1917" height="930" viewBox="0 0 1917 930" fill="none" xmlns="http://www.w3.org/2000/svg">
<g clip-path="url(#clip0_3627_2320)">
<mask id="mask0_3627_2320" style="mask-type:luminance" maskUnits="userSpaceOnUse" x="0" y="0" width="1917" height="930">
<path d="M1917 0H0V930H1917V0Z" fill="white"/>
</mask>
<g mask="url(#mask0_3627_2320)">
<path d="M-24 900.98L37.6222 864.18C99.5722 827.372 222.817 753.771 345.733 743.825C468.65 733.878 591.239 787.589 714.156 781.025C837.072 774.261 960.317 707.42 1083.23 698.07C1206.15 688.72 1328.74 737.26 1451.66 787.987C1574.57 838.711 1697.82 891.632 1820.73 873.528C1943.65 855.224 2066.24 765.707 2189.16 735.469C2312.07 705.431 2435.32 734.474 2558.23 781.025C2681.15 827.372 2803.74 891.033 2864.71 922.859L2926 954.693V590.647H2864.71C2803.74 590.647 2681.15 590.647 2558.23 590.647C2435.32 590.647 2312.07 590.647 2189.16 590.647C2066.24 590.647 1943.65 590.647 1820.73 590.647C1697.82 590.647 1574.57 590.647 1451.66 590.647C1328.74 590.647 1206.15 590.647 1083.23 590.647C960.317 590.647 837.072 590.647 714.156 590.647C591.239 590.647 468.65 590.647 345.733 590.647C222.817 590.647 99.5722 590.647 37.6222 590.647H-24V900.98Z" fill="#0066FF" fill-opacity="0.08"/>
<path fill-rule="evenodd" clip-rule="evenodd" d="M1917 -4.79785H-54V484.688V525.374V927.713L28.125 917.19L30.1785 916.918C112.966 906.106 275.858 884.835 438.75 817.057C490.173 795.724 541.596 769.775 593.019 743.826C705.846 686.892 818.673 629.957 931.5 621.769C1039.61 613.922 1147.73 650.835 1255.84 687.748C1311.98 706.915 1368.11 726.081 1424.25 738.982C1588.5 776.728 1752.75 760.835 1834.88 752.889L1917 744.942V525.374V484.688V-4.79785Z" fill="url(#paint0_linear_3627_2320)"/>
<mask id="mask1_3627_2320" style="mask-type:luminance" maskUnits="userSpaceOnUse" x="-54" y="-5" width="1971" height="933">
<path fill-rule="evenodd" clip-rule="evenodd" d="M1917 -4.79785H-54V484.688V525.374V927.713L28.125 917.19L30.1785 916.918C112.966 906.106 275.858 884.835 438.75 817.057C490.173 795.724 541.596 769.775 593.019 743.826C705.846 686.892 818.673 629.957 931.5 621.769C1039.61 613.922 1147.73 650.835 1255.84 687.748C1311.98 706.915 1368.11 726.081 1424.25 738.982C1588.5 776.728 1752.75 760.835 1834.88 752.889L1917 744.942V525.374V484.688V-4.79785Z" fill="#1565C0"/>
</mask>
<g mask="url(#mask1_3627_2320)">
<path d="M-54 -4.798V-5.59766H-55V-4.798H-54ZM1917 -4.798H1918V-5.59766H1917V-4.798ZM-54 927.713H-55V928.657L-53.8417 928.505L-54 927.713ZM28.125 917.189L28.2833 917.973H28.2862L28.125 917.189ZM438.75 817.057L438.289 816.345H438.288L438.75 817.057ZM1917 744.942L1917.12 745.736L1918 745.65V744.942H1917ZM-54 -3.99834H1917V-5.59766H-54V-3.99834ZM-53 484.688V-4.798H-55V484.688H-53ZM-55 484.688V525.374H-53V484.688H-55ZM-55 525.374V927.713H-53V525.374H-55ZM-53.8417 928.505L28.2833 917.973L27.9667 916.398L-54.1583 926.929L-53.8417 928.505ZM28.2862 917.973L30.3397 917.709L30.0173 916.126L27.9638 916.398L28.2862 917.973ZM30.3397 917.709C113.134 906.898 276.166 885.611 439.212 817.768L438.288 816.345C275.55 884.06 112.798 905.315 30.0173 916.126L30.3397 917.709ZM439.211 817.768C490.678 796.416 542.137 770.448 593.553 744.502L592.485 743.15C541.055 769.103 489.668 795.032 438.289 816.345L439.211 817.768ZM593.553 744.502C706.444 687.535 819.052 630.732 931.59 622.565L931.41 620.972C818.294 629.181 705.249 686.247 592.485 743.15L593.553 744.502ZM931.59 622.565C1039.41 614.74 1147.28 651.551 1255.45 688.484L1256.23 687.013C1148.18 650.12 1039.82 613.104 931.41 620.972L931.59 622.565ZM1255.45 688.484C1311.57 707.647 1367.77 726.834 1423.97 739.751L1424.53 738.214C1368.46 725.329 1312.38 706.183 1256.23 687.013L1255.45 688.484ZM1423.97 739.751C1588.44 777.547 1752.87 761.629 1835 753.682L1834.75 752.095C1752.63 760.042 1588.56 775.91 1424.53 738.214L1423.97 739.751ZM1835 753.682L1917.12 745.736L1916.88 744.148L1834.75 752.095L1835 753.682ZM1918 744.942V525.374H1916V744.942H1918ZM1918 525.374V484.688H1916V525.374H1918ZM1916 -4.798V484.688H1918V-4.798H1916Z" fill="#1565C0"/>
</g>
<mask id="mask2_3627_2320" style="mask-type:alpha" maskUnits="userSpaceOnUse" x="-47" y="-5" width="1971" height="914">
<path fill-rule="evenodd" clip-rule="evenodd" d="M1924 -4.79785H-47V518.177V525.374V908.409L35.125 899.133L37.1797 898.901C119.967 889.377 282.859 870.642 445.75 810.939C497.173 792.147 548.596 769.291 600.019 746.433C712.846 696.284 825.673 646.134 938.5 638.922C1046.61 632.011 1154.73 664.525 1262.84 697.039C1318.98 713.921 1375.11 730.803 1431.25 742.167C1595.5 775.415 1759.75 761.416 1841.88 754.416L1924 747.417V525.374V518.177V-4.79785Z" fill="url(#paint1_linear_3627_2320)"/>
<mask id="mask3_3627_2320" style="mask-type:luminance" maskUnits="userSpaceOnUse" x="-47" y="-5" width="1971" height="914">
<path fill-rule="evenodd" clip-rule="evenodd" d="M1924 -4.79785H-47V518.177V525.374V908.409L35.125 899.133L37.1797 898.901C119.967 889.377 282.859 870.642 445.75 810.939C497.173 792.147 548.596 769.291 600.019 746.433C712.846 696.284 825.673 646.134 938.5 638.922C1046.61 632.011 1154.73 664.525 1262.84 697.039C1318.98 713.921 1375.11 730.803 1431.25 742.167C1595.5 775.415 1759.75 761.416 1841.88 754.416L1924 747.417V525.374V518.177V-4.79785Z" fill="#1565C0"/>
</mask>
<g mask="url(#mask3_3627_2320)">
<path d="M-47 -4.798V-5.59766H-48V-4.798H-47ZM1924 -4.798H1925V-5.59766H1924V-4.798ZM-47 908.409H-48V909.329L-46.8602 909.201L-47 908.409ZM35.125 899.133L35.2648 899.925H35.2674L35.125 899.133ZM445.75 810.939L445.334 810.211H445.333L445.75 810.939ZM1924 747.417L1924.11 748.212L1925 748.136V747.417H1924ZM-47 -3.99834H1924V-5.59766H-47V-3.99834ZM-46 518.177V-4.798H-48V518.177H-46ZM-48 518.177V525.374H-46V518.177H-48ZM-48 525.374V908.409H-46V525.374H-48ZM-46.8602 909.201L35.2648 899.925L34.9852 898.342L-47.1398 907.618L-46.8602 909.201ZM35.2674 899.925L37.3221 899.693L37.0373 898.11L34.9826 898.342L35.2674 899.925ZM37.3221 899.693C120.114 890.169 283.132 871.417 446.167 811.667L445.333 810.211C282.585 869.858 119.821 888.586 37.0373 898.11L37.3221 899.693ZM446.166 811.667C497.631 792.859 549.089 769.986 600.505 747.132L599.533 745.734C548.104 768.594 496.715 791.436 445.334 810.211L446.166 811.667ZM600.505 747.132C713.386 696.959 826.012 646.914 938.58 639.718L938.42 638.125C825.334 645.354 712.306 695.609 599.533 745.734L600.505 747.132ZM938.58 639.718C1046.43 632.825 1154.33 665.259 1262.49 697.787L1263.19 696.29C1155.13 663.791 1046.8 631.196 938.42 638.125L938.58 639.718ZM1262.49 697.787C1318.62 714.666 1374.8 731.566 1431 742.942L1431.5 741.391C1375.42 730.041 1319.34 713.176 1263.19 696.29L1262.49 697.787ZM1431 742.942C1595.45 776.229 1759.86 762.21 1841.98 755.211L1841.77 753.621C1759.64 760.621 1595.55 774.601 1431.5 741.391L1431 742.942ZM1841.98 755.211L1924.11 748.212L1923.89 746.621L1841.77 753.621L1841.98 755.211ZM1925 747.417V525.374H1923V747.417H1925ZM1925 525.374V518.177H1923V525.374H1925ZM1923 -4.798V518.177H1925V-4.798H1923Z" fill="#1565C0"/>
</g>
</mask>
<g mask="url(#mask2_3627_2320)">
<g filter="url(#filter0_f_3627_2320)">
<path d="M1626.45 1204.26C2067.88 1204.26 2425.73 918.173 2425.73 565.267C2425.73 212.362 2067.88 -73.7256 1626.45 -73.7256C1185.02 -73.7256 827.164 212.362 827.164 565.267C827.164 918.173 1185.02 1204.26 1626.45 1204.26Z" fill="#14CBDD" fill-opacity="0.3"/>
<path d="M952.549 751.417C1393.98 751.417 1751.83 465.33 1751.83 112.424C1751.83 -240.483 1393.98 -526.569 952.549 -526.569C511.117 -526.569 153.266 -240.483 153.266 112.424C153.266 465.33 511.117 751.417 952.549 751.417Z" fill="#023AAC"/>
<path d="M1330.92 1626.68C1772.35 1626.68 2130.2 1340.59 2130.2 987.68C2130.2 634.777 1772.35 348.69 1330.92 348.69C889.484 348.69 531.633 634.777 531.633 987.68C531.633 1340.59 889.484 1626.68 1330.92 1626.68Z" fill="#14CBDD" fill-opacity="0.3"/>
<path d="M424.166 1257.96C865.598 1257.96 1223.45 971.871 1223.45 618.965C1223.45 266.059 865.598 -20.0283 424.166 -20.0283C-17.266 -20.0283 -375.117 266.059 -375.117 618.965C-375.117 971.871 -17.266 1257.96 424.166 1257.96Z" fill="#14CBDD" fill-opacity="0.3"/>
<path d="M504.768 803.327C946.2 803.327 1304.05 517.237 1304.05 164.331C1304.05 -188.576 946.2 -474.662 504.768 -474.662C63.3362 -474.662 -294.516 -188.576 -294.516 164.331C-294.516 517.237 63.3362 803.327 504.768 803.327Z" fill="#023AAC"/>
<path d="M1599.58 828.379C2041.02 828.379 2398.87 542.295 2398.87 189.389C2398.87 -163.517 2041.02 -449.604 1599.58 -449.604C1158.15 -449.604 800.297 -163.517 800.297 189.389C800.297 542.295 1158.15 828.379 1599.58 828.379Z" fill="#14CBDD" fill-opacity="0.3"/>
</g>
</g>
<g opacity="0.11" filter="url(#filter1_dd_3627_2320)">
<mask id="mask4_3627_2320" style="mask-type:luminance" maskUnits="userSpaceOnUse" x="74" y="510" width="380" height="304">
<path d="M422.942 744.683C480.3 674.666 455.818 580.723 368.259 534.856C280.7 488.988 163.22 508.566 105.862 578.583C48.5029 648.6 72.9852 742.543 160.544 788.411C248.104 834.278 365.583 814.7 422.942 744.683Z" fill="white"/>
</mask>
<g mask="url(#mask4_3627_2320)">
<path d="M422.949 744.683C480.308 674.666 455.826 580.723 368.267 534.856C280.707 488.988 163.228 508.566 105.869 578.583C48.5107 648.6 72.993 742.543 160.552 788.411C248.111 834.278 365.591 814.7 422.949 744.683Z" fill="#EB6F47" fill-opacity="0.8"/>
<path d="M422.949 744.683C480.308 674.666 455.826 580.723 368.267 534.856C280.707 488.988 163.228 508.566 105.869 578.583C48.5107 648.6 72.993 742.543 160.552 788.411C248.111 834.278 365.591 814.7 422.949 744.683Z" fill="url(#paint2_radial_3627_2320)"/>
<path d="M422.949 744.683C480.308 674.666 455.826 580.723 368.267 534.856C280.707 488.988 163.228 508.566 105.869 578.583C48.5107 648.6 72.993 742.543 160.552 788.411C248.111 834.278 365.591 814.7 422.949 744.683Z" fill="url(#paint3_radial_3627_2320)"/>
<path d="M422.949 744.683C480.308 674.666 455.826 580.723 368.267 534.856C280.707 488.988 163.228 508.566 105.869 578.583C48.5107 648.6 72.993 742.543 160.552 788.411C248.111 834.278 365.591 814.7 422.949 744.683Z" fill="url(#paint4_radial_3627_2320)" fill-opacity="0.7"/>
<g filter="url(#filter2_f_3627_2320)">
<path d="M244.951 547.962C248.783 554.283 229.693 563.428 205.079 572.971C180.466 582.514 159.65 588.84 155.818 582.519C151.986 576.199 166.588 559.626 191.202 550.083C215.815 540.54 241.119 541.642 244.951 547.962Z" fill="white"/>
<path d="M242.77 548.807C243.188 549.497 243.193 550.483 241.804 552.094C240.403 553.717 237.87 555.598 234.26 557.689C227.076 561.851 216.317 566.461 204.021 571.228C191.726 575.995 180.533 579.896 171.994 581.83C167.703 582.802 164.287 583.228 161.824 583.102C159.381 582.978 158.415 582.363 157.997 581.674C157.471 580.806 157.408 579.215 158.537 576.807C159.632 574.469 161.706 571.689 164.72 568.734C170.738 562.833 180.258 556.479 192.258 551.826C204.258 547.174 216.39 545.134 225.907 545.011C230.673 544.95 234.686 545.37 237.658 546.13C240.721 546.914 242.243 547.939 242.77 548.807Z" stroke="white" stroke-width="4.846"/>
</g>
<g filter="url(#filter3_f_3627_2320)">
<path d="M139.47 600.123C143.185 600.865 146.949 599.057 147.877 596.086C148.805 593.115 146.545 590.105 142.829 589.364C139.114 588.622 135.35 590.429 134.422 593.4C133.494 596.371 135.754 599.381 139.47 600.123Z" fill="white"/>
<path d="M140.059 598.244C142.476 598.726 144.924 597.55 145.528 595.617C146.131 593.685 144.661 591.726 142.244 591.244C139.827 590.761 137.378 591.937 136.775 593.87C136.171 595.803 137.641 597.761 140.059 598.244Z" stroke="white" stroke-width="4.846"/>
</g>
<g filter="url(#filter4_f_3627_2320)">
<path d="M120.675 622.729C124.112 624.08 129.18 621.462 131.996 616.882C134.812 612.301 134.308 607.493 130.871 606.142C127.435 604.791 122.366 607.409 119.55 611.99C116.735 616.57 117.238 621.379 120.675 622.729Z" fill="white"/>
<path d="M129.826 616.027C128.578 618.057 126.879 619.565 125.258 620.402C123.59 621.264 122.403 621.248 121.748 620.991C121.094 620.733 120.353 619.992 120.187 618.409C120.026 616.871 120.482 614.874 121.729 612.845C122.976 610.815 124.676 609.307 126.297 608.47C127.965 607.608 129.152 607.624 129.807 607.881C130.461 608.139 131.202 608.88 131.368 610.463C131.529 612.001 131.073 613.998 129.826 616.027Z" stroke="white" stroke-width="4.846"/>
</g>
<g filter="url(#filter5_f_3627_2320)">
<path d="M155.479 802.797C245.631 850.023 366.59 829.866 425.647 757.775C484.704 685.684 459.497 588.959 369.345 541.733C279.192 494.508 158.234 514.665 99.1765 586.756C40.119 658.847 65.3264 755.572 155.479 802.797Z" stroke="white" stroke-width="34.5277"/>
</g>
</g>
</g>
<g opacity="0.12" filter="url(#filter6_dd_3627_2320)">
<mask id="mask5_3627_2320" style="mask-type:luminance" maskUnits="userSpaceOnUse" x="1634" y="374" width="380" height="304">
<path d="M1982.94 608.742C2040.3 538.725 2015.82 444.782 1928.26 398.914C1840.7 353.047 1723.22 372.624 1665.86 442.642C1608.5 512.659 1632.99 606.602 1720.54 652.469C1808.1 698.336 1925.58 678.759 1982.94 608.742Z" fill="white"/>
</mask>
<g mask="url(#mask5_3627_2320)">
<path d="M1982.94 608.742C2040.3 538.725 2015.82 444.782 1928.26 398.914C1840.7 353.047 1723.22 372.624 1665.86 442.642C1608.5 512.659 1632.99 606.602 1720.54 652.469C1808.1 698.336 1925.58 678.759 1982.94 608.742Z" fill="#EB6F47" fill-opacity="0.8"/>
<path d="M1982.94 608.742C2040.3 538.725 2015.82 444.782 1928.26 398.914C1840.7 353.047 1723.22 372.624 1665.86 442.642C1608.5 512.659 1632.99 606.602 1720.54 652.469C1808.1 698.336 1925.58 678.759 1982.94 608.742Z" fill="url(#paint5_radial_3627_2320)"/>
<path d="M1982.94 608.742C2040.3 538.725 2015.82 444.782 1928.26 398.914C1840.7 353.047 1723.22 372.624 1665.86 442.642C1608.5 512.659 1632.99 606.602 1720.54 652.469C1808.1 698.336 1925.58 678.759 1982.94 608.742Z" fill="url(#paint6_radial_3627_2320)"/>
<path d="M1982.94 608.742C2040.3 538.725 2015.82 444.782 1928.26 398.914C1840.7 353.047 1723.22 372.624 1665.86 442.642C1608.5 512.659 1632.99 606.602 1720.54 652.469C1808.1 698.336 1925.58 678.759 1982.94 608.742Z" fill="url(#paint7_radial_3627_2320)" fill-opacity="0.7"/>
<g filter="url(#filter7_f_3627_2320)">
<path d="M1804.95 412.021C1808.78 418.341 1789.69 427.487 1765.08 437.03C1740.47 446.572 1719.65 452.898 1715.82 446.578C1711.99 440.257 1726.59 423.684 1751.2 414.141C1775.82 404.598 1801.12 405.7 1804.95 412.021Z" fill="white"/>
<path d="M1802.77 412.866C1803.19 413.555 1803.19 414.542 1801.8 416.153C1800.4 417.776 1797.87 419.657 1794.26 421.748C1787.08 425.909 1776.32 430.519 1764.02 435.287C1751.73 440.054 1740.53 443.954 1732 445.889C1727.7 446.86 1724.29 447.286 1721.82 447.161C1719.38 447.036 1718.42 446.422 1718 445.733C1717.47 444.865 1717.41 443.274 1718.54 440.865C1719.63 438.528 1721.71 435.747 1724.72 432.793C1730.74 426.892 1740.26 420.537 1752.26 415.885C1764.26 411.232 1776.39 409.192 1785.91 409.069C1790.67 409.008 1794.69 409.429 1797.66 410.189C1800.72 410.972 1802.24 411.998 1802.77 412.866Z" stroke="white" stroke-width="4.846"/>
</g>
<g filter="url(#filter8_f_3627_2320)">
<path d="M1699.47 464.182C1703.19 464.923 1706.95 463.116 1707.88 460.145C1708.8 457.174 1706.54 454.164 1702.83 453.422C1699.11 452.68 1695.35 454.488 1694.42 457.459C1693.49 460.43 1695.75 463.44 1699.47 464.182Z" fill="white"/>
<path d="M1700.06 462.302C1702.48 462.785 1704.92 461.609 1705.53 459.676C1706.13 457.743 1704.66 455.785 1702.24 455.302C1699.83 454.82 1697.38 455.996 1696.77 457.929C1696.17 459.861 1697.64 461.82 1700.06 462.302Z" stroke="white" stroke-width="4.846"/>
</g>
<g filter="url(#filter9_f_3627_2320)">
<path d="M1680.68 486.788C1684.11 488.139 1689.18 485.521 1692 480.94C1694.81 476.36 1694.31 471.552 1690.87 470.201C1687.43 468.85 1682.37 471.468 1679.55 476.048C1676.73 480.629 1677.24 485.437 1680.68 486.788Z" fill="white"/>
<path d="M1689.83 480.086C1688.58 482.115 1686.89 483.623 1685.26 484.461C1683.6 485.323 1682.41 485.307 1681.75 485.049C1681.1 484.792 1680.36 484.05 1680.19 482.468C1680.03 480.929 1680.49 478.933 1681.73 476.903C1682.98 474.874 1684.68 473.365 1686.3 472.528C1687.97 471.666 1689.16 471.682 1689.81 471.94C1690.47 472.197 1691.21 472.938 1691.37 474.522C1691.53 476.059 1691.08 478.056 1689.83 480.086Z" stroke="white" stroke-width="4.846"/>
</g>
<g filter="url(#filter10_f_3627_2320)">
<path d="M1715.48 666.856C1805.63 714.082 1926.59 693.924 1985.65 621.833C2044.7 549.743 2019.5 453.017 1929.34 405.792C1839.19 358.566 1718.23 378.723 1659.18 450.814C1600.12 522.905 1625.33 619.63 1715.48 666.856Z" stroke="white" stroke-width="34.5277"/>
</g>
</g>
</g>
<g opacity="0.07" filter="url(#filter11_dd_3627_2320)">
<mask id="mask6_3627_2320" style="mask-type:luminance" maskUnits="userSpaceOnUse" x="990" y="42" width="251" height="201">
<path d="M1220.35 197.159C1258.18 150.981 1242.03 89.0228 1184.28 58.772C1126.53 28.5212 1049.05 41.4331 1011.22 87.6116C973.392 133.79 989.539 195.748 1047.29 225.999C1105.03 256.25 1182.52 243.338 1220.35 197.159Z" fill="white"/>
</mask>
<g mask="url(#mask6_3627_2320)">
<path d="M1220.35 197.159C1258.18 150.981 1242.04 89.0228 1184.29 58.772C1126.54 28.5212 1049.06 41.4331 1011.23 87.6116C973.4 133.79 989.547 195.748 1047.29 225.999C1105.04 256.25 1182.52 243.338 1220.35 197.159Z" fill="#EB6F47" fill-opacity="0.8"/>
<path d="M1220.35 197.159C1258.18 150.981 1242.04 89.0228 1184.29 58.772C1126.54 28.5212 1049.06 41.4331 1011.23 87.6116C973.4 133.79 989.547 195.748 1047.29 225.999C1105.04 256.25 1182.52 243.338 1220.35 197.159Z" fill="url(#paint8_radial_3627_2320)"/>
<path d="M1220.35 197.159C1258.18 150.981 1242.04 89.0228 1184.29 58.772C1126.54 28.5212 1049.06 41.4331 1011.23 87.6116C973.4 133.79 989.547 195.748 1047.29 225.999C1105.04 256.25 1182.52 243.338 1220.35 197.159Z" fill="url(#paint9_radial_3627_2320)"/>
<path d="M1220.35 197.159C1258.18 150.981 1242.04 89.0228 1184.29 58.772C1126.54 28.5212 1049.06 41.4331 1011.23 87.6116C973.4 133.79 989.547 195.748 1047.29 225.999C1105.04 256.25 1182.52 243.338 1220.35 197.159Z" fill="url(#paint10_radial_3627_2320)" fill-opacity="0.7"/>
<g filter="url(#filter12_f_3627_2320)">
<path d="M1102.96 67.4155C1105.48 71.5841 1092.89 77.6161 1076.66 83.9099C1060.43 90.204 1046.7 94.3758 1044.17 90.2072C1041.64 86.0386 1051.27 75.1082 1067.51 68.8143C1083.74 62.5205 1100.43 63.247 1102.96 67.4155Z" fill="white"/>
<path d="M1100.78 68.2607C1100.87 68.4123 1101.03 68.8011 1100.2 69.7658C1099.36 70.7444 1097.78 71.932 1095.42 73.2965C1090.75 76.0045 1083.71 79.0238 1075.6 82.1666C1067.5 85.3092 1060.17 87.8593 1054.61 89.118C1051.81 89.7521 1049.67 90.0088 1048.18 89.9336C1046.72 89.8585 1046.44 89.513 1046.35 89.3619C1046.15 89.0316 1046.02 88.1976 1046.74 86.671C1047.42 85.2157 1048.73 83.4444 1050.68 81.5324C1054.57 77.7177 1060.75 73.5856 1068.56 70.5577C1076.37 67.5298 1084.26 66.2082 1090.41 66.1288C1093.49 66.089 1096.04 66.3626 1097.9 66.8358C1099.84 67.3321 1100.58 67.9305 1100.78 68.2607Z" stroke="white" stroke-width="4.846"/>
</g>
<g filter="url(#filter13_f_3627_2320)">
<path d="M1033.39 101.818C1035.84 102.307 1038.32 101.115 1038.93 99.1556C1039.54 97.196 1038.05 95.2109 1035.6 94.7217C1033.15 94.2325 1030.67 95.4245 1030.06 97.384C1029.44 99.3435 1030.94 101.329 1033.39 101.818Z" fill="white"/>
<path d="M1033.9 100.15C1035.2 100.409 1036.52 99.7776 1036.84 98.7394C1037.17 97.7012 1036.38 96.6494 1035.08 96.3902C1033.78 96.131 1032.46 96.7625 1032.14 97.8008C1031.82 98.839 1032.61 99.8908 1033.9 100.15Z" stroke="white" stroke-width="4.30034"/>
</g>
<g filter="url(#filter14_f_3627_2320)">
<path d="M1021 116.728C1023.27 117.619 1026.61 115.892 1028.47 112.871C1030.33 109.85 1030 106.679 1027.73 105.788C1025.46 104.897 1022.12 106.624 1020.26 109.645C1018.41 112.666 1018.74 115.837 1021 116.728Z" fill="white"/>
<mask id="mask7_3627_2320" style="mask-type:luminance" maskUnits="userSpaceOnUse" x="1019" y="105" width="11" height="12">
<path d="M1021 116.728C1023.27 117.619 1026.61 115.892 1028.47 112.871C1030.33 109.85 1030 106.679 1027.73 105.788C1025.46 104.897 1022.12 106.624 1020.26 109.645C1018.41 112.666 1018.74 115.837 1021 116.728Z" fill="white"/>
</mask>
<g mask="url(#mask7_3627_2320)">
<path d="M1024.11 111.161C1023.5 112.15 1022.75 112.755 1022.25 113.011C1021.66 113.316 1022.14 112.859 1023.13 113.25L1018.86 120.205C1022.12 121.487 1025.4 120.612 1027.51 119.521C1029.72 118.382 1031.56 116.613 1032.81 114.58L1024.11 111.161ZM1023.13 113.25C1024.13 113.641 1023.96 114.221 1023.9 113.662C1023.86 113.191 1023.99 112.342 1024.6 111.354L1015.9 107.935C1014.65 109.967 1014.03 112.215 1014.25 114.308C1014.46 116.312 1015.59 118.923 1018.86 120.205L1023.13 113.25ZM1024.6 111.354C1025.21 110.365 1025.96 109.761 1026.46 109.504C1027.05 109.199 1026.57 109.656 1025.58 109.266L1029.86 102.31C1026.59 101.029 1023.31 101.903 1021.2 102.994C1018.99 104.134 1017.15 105.903 1015.9 107.935L1024.6 111.354ZM1025.58 109.266C1024.59 108.875 1024.75 108.293 1024.81 108.854C1024.85 109.324 1024.72 110.173 1024.11 111.161L1032.81 114.58C1034.06 112.548 1034.68 110.3 1034.46 108.207C1034.25 106.204 1033.12 103.592 1029.86 102.31L1025.58 109.266Z" fill="white"/>
</g>
</g>
<g filter="url(#filter15_f_3627_2320)">
<path d="M1043.95 235.487C1103.41 266.634 1183.19 253.339 1222.14 205.793C1261.09 158.247 1244.46 94.454 1185 63.3072C1125.54 32.1605 1045.77 45.4548 1006.82 93.0009C967.868 140.547 984.493 204.34 1043.95 235.487Z" stroke="white" stroke-width="34.5277"/>
</g>
</g>
</g>
<g opacity="0.06" filter="url(#filter16_dd_3627_2320)">
<mask id="mask8_3627_2320" style="mask-type:luminance" maskUnits="userSpaceOnUse" x="192" y="212" width="198" height="158">
<path d="M344.58 225.114L344.579 225.114C299.175 201.329 238.255 211.481 208.511 247.789L208.511 247.79C178.767 284.098 191.463 332.813 236.867 356.597L236.868 356.597C282.272 380.382 343.192 370.23 372.936 333.922L372.936 333.922C402.68 297.614 389.984 248.899 344.58 225.114Z" fill="white"/>
</mask>
<g mask="url(#mask8_3627_2320)">
<path d="M344.587 225.114L344.587 225.114C299.183 201.329 238.263 211.481 208.519 247.789L208.519 247.79C178.775 284.098 191.471 332.813 236.875 356.597L236.875 356.597C282.28 380.382 343.2 370.23 372.944 333.922L372.944 333.922C402.688 297.614 389.992 248.899 344.587 225.114Z" fill="#EB6F47" fill-opacity="0.8"/>
<path d="M344.587 225.114L344.587 225.114C299.183 201.329 238.263 211.481 208.519 247.789L208.519 247.79C178.775 284.098 191.471 332.813 236.875 356.597L236.875 356.597C282.28 380.382 343.2 370.23 372.944 333.922L372.944 333.922C402.688 297.614 389.992 248.899 344.587 225.114Z" fill="url(#paint11_radial_3627_2320)"/>
<path d="M344.587 225.114L344.587 225.114C299.183 201.329 238.263 211.481 208.519 247.789L208.519 247.79C178.775 284.098 191.471 332.813 236.875 356.597L236.875 356.597C282.28 380.382 343.2 370.23 372.944 333.922L372.944 333.922C402.688 297.614 389.992 248.899 344.587 225.114Z" fill="url(#paint12_radial_3627_2320)"/>
<path d="M344.587 225.114L344.587 225.114C299.183 201.329 238.263 211.481 208.519 247.789L208.519 247.79C178.775 284.098 191.471 332.813 236.875 356.597L236.875 356.597C282.28 380.382 343.2 370.23 372.944 333.922L372.944 333.922C402.688 297.614 389.992 248.899 344.587 225.114Z" fill="url(#paint13_radial_3627_2320)" fill-opacity="0.7"/>
<g filter="url(#filter17_f_3627_2320)">
<path d="M280.637 231.91C282.624 235.187 272.725 239.93 259.961 244.879C247.198 249.827 236.404 253.108 234.416 249.831C232.429 246.553 240.001 237.959 252.765 233.01C265.528 228.062 278.65 228.632 280.637 231.91Z" fill="white"/>
<path d="M278.455 232.755C278.455 232.755 278.456 232.758 278.457 232.759C278.465 232.77 278.474 232.784 278.459 232.85C278.434 232.957 278.341 233.177 278.043 233.523C277.429 234.234 276.243 235.135 274.407 236.198C270.772 238.305 265.273 240.665 258.902 243.136C252.532 245.605 246.807 247.596 242.485 248.575C240.303 249.069 238.683 249.256 237.603 249.201C237.08 249.175 236.805 249.096 236.686 249.046C236.611 249.015 236.603 249 236.597 248.988L236.595 248.985C236.53 248.878 236.373 248.356 236.917 247.195C237.428 246.105 238.425 244.751 239.935 243.271C242.945 240.32 247.745 237.108 253.82 234.753C259.895 232.398 266.02 231.373 270.779 231.313C273.166 231.281 275.113 231.494 276.498 231.848C277.974 232.226 278.39 232.647 278.455 232.755Z" stroke="white" stroke-width="4.846"/>
</g>
<g filter="url(#filter18_f_3627_2320)">
<path d="M225.942 258.959C227.869 259.344 229.821 258.407 230.302 256.866C230.783 255.326 229.611 253.765 227.684 253.38C225.757 252.995 223.805 253.933 223.324 255.473C222.843 257.014 224.015 258.575 225.942 258.959Z" fill="white"/>
<path d="M226.224 258.049C227.522 258.309 228.838 257.677 229.162 256.639C229.486 255.601 228.696 254.549 227.398 254.29C226.099 254.03 224.784 254.662 224.46 255.7C224.136 256.738 224.926 257.79 226.224 258.049Z" stroke="white" stroke-width="2.34536"/>
</g>
<g filter="url(#filter19_f_3627_2320)">
<path d="M216.197 270.682C217.98 271.383 220.608 270.025 222.068 267.65C223.528 265.275 223.267 262.781 221.485 262.081C219.703 261.38 217.074 262.738 215.614 265.113C214.154 267.488 214.415 269.982 216.197 270.682Z" fill="white"/>
<mask id="mask9_3627_2320" style="mask-type:luminance" maskUnits="userSpaceOnUse" x="214" y="261" width="10" height="10">
<path d="M216.197 270.682C217.98 271.383 220.608 270.025 222.068 267.65C223.528 265.275 223.267 262.781 221.485 262.081C219.703 261.38 217.074 262.738 215.614 265.113C214.154 267.488 214.415 269.982 216.197 270.682Z" fill="white"/>
</mask>
<g mask="url(#mask9_3627_2320)">
<path d="M217.716 265.94C217.307 266.606 216.829 266.957 216.621 267.064C216.526 267.113 216.615 267.047 216.9 267.01C217.217 266.97 217.753 266.976 218.332 267.204L214.057 274.16C217.076 275.346 220.057 274.516 221.88 273.574C223.797 272.584 225.363 271.069 226.414 269.359L217.716 265.94ZM218.332 267.204C218.911 267.432 219.245 267.767 219.399 267.993C219.538 268.195 219.526 268.292 219.516 268.202C219.496 268.006 219.551 267.488 219.96 266.822L211.262 263.404C210.211 265.113 209.667 267.03 209.858 268.849C210.039 270.578 211.038 272.973 214.057 274.16L218.332 267.204ZM219.96 266.822C220.369 266.157 220.848 265.806 221.055 265.699C221.15 265.65 221.062 265.716 220.777 265.752C220.459 265.792 219.923 265.786 219.344 265.559L223.62 258.603C220.601 257.416 217.619 258.247 215.796 259.189C213.879 260.179 212.313 261.694 211.262 263.404L219.96 266.822ZM219.344 265.559C218.765 265.331 218.431 264.996 218.277 264.769C218.139 264.567 218.151 264.47 218.16 264.561C218.181 264.757 218.125 265.275 217.716 265.94L226.414 269.359C227.465 267.65 228.009 265.733 227.818 263.914C227.637 262.184 226.638 259.79 223.62 258.603L219.344 265.559Z" fill="white"/>
</g>
</g>
<g filter="url(#filter20_f_3627_2320)">
<path d="M234.245 364.057C280.994 388.547 343.719 378.094 374.344 340.711C404.968 303.327 391.897 253.169 345.147 228.68C298.398 204.19 235.674 214.643 205.049 252.027C174.424 289.41 187.495 339.568 234.245 364.057Z" stroke="white" stroke-width="34.5277"/>
</g>
</g>
</g>
<g opacity="0.03" filter="url(#filter21_dd_3627_2320)">
<mask id="mask10_3627_2320" style="mask-type:luminance" maskUnits="userSpaceOnUse" x="15" y="178" width="101" height="81">
<path d="M107.391 240.121C122.523 221.65 116.065 196.866 92.9654 184.766C69.8662 172.666 38.8738 177.83 23.7419 196.302C8.60996 214.773 15.0687 239.557 38.1679 251.657C61.267 263.757 92.2594 258.592 107.391 240.121Z" fill="white"/>
</mask>
<g mask="url(#mask10_3627_2320)">
<path d="M107.391 240.121C122.523 221.65 116.065 196.866 92.9654 184.766C69.8662 172.666 38.8738 177.83 23.7419 196.302C8.60996 214.773 15.0687 239.557 38.1679 251.657C61.267 263.757 92.2594 258.592 107.391 240.121Z" fill="#EB6F47" fill-opacity="0.8"/>
<path d="M107.391 240.121C122.523 221.65 116.065 196.866 92.9654 184.766C69.8662 172.666 38.8738 177.83 23.7419 196.302C8.60996 214.773 15.0687 239.557 38.1679 251.657C61.267 263.757 92.2594 258.592 107.391 240.121Z" fill="url(#paint14_radial_3627_2320)"/>
<path d="M107.391 240.121C122.523 221.65 116.065 196.866 92.9654 184.766C69.8662 172.666 38.8738 177.83 23.7419 196.302C8.60996 214.773 15.0687 239.557 38.1679 251.657C61.267 263.757 92.2594 258.592 107.391 240.121Z" fill="url(#paint15_radial_3627_2320)"/>
<path d="M107.391 240.121C122.523 221.65 116.065 196.866 92.9654 184.766C69.8662 172.666 38.8738 177.83 23.7419 196.302C8.60996 214.773 15.0687 239.557 38.1679 251.657C61.267 263.757 92.2594 258.592 107.391 240.121Z" fill="url(#paint16_radial_3627_2320)" fill-opacity="0.7"/>
<g filter="url(#filter22_f_3627_2320)">
<path d="M60.4324 188.224C61.4434 189.892 56.4071 192.304 49.9138 194.822C43.4205 197.339 37.929 199.008 36.918 197.34C35.9071 195.673 39.7594 191.301 46.2527 188.783C52.7461 186.266 59.4214 186.556 60.4324 188.224Z" fill="white"/>
<path d="M39.1798 196.715C39.1797 196.715 39.1797 196.714 39.1797 196.713M58.4121 189.255C58.4138 189.257 58.4145 189.257 58.4145 189.257M55.436 188.871C56.3069 188.86 57.0139 188.919 57.5422 189.011C57.2952 189.189 56.9738 189.398 56.5643 189.635C54.8061 190.654 52.0909 191.824 48.8552 193.078C45.6196 194.333 42.788 195.313 40.6982 195.786C40.2114 195.896 39.8072 195.969 39.4787 196.014C39.7163 195.625 40.097 195.146 40.6475 194.606C42.0655 193.215 44.3686 191.667 47.3083 190.527C50.248 189.387 53.1937 188.901 55.436 188.871Z" stroke="white" stroke-width="4.846"/>
</g>
<g filter="url(#filter23_f_3627_2320)">
<path d="M32.5995 201.984C33.5797 202.179 34.5727 201.703 34.8174 200.919C35.0621 200.135 34.4659 199.341 33.4857 199.145C32.5055 198.95 31.5126 199.426 31.2678 200.21C31.0231 200.994 31.6194 201.788 32.5995 201.984Z" fill="white"/>
</g>
<g filter="url(#filter24_f_3627_2320)">
<path d="M27.6471 207.948C28.5538 208.304 29.8909 207.614 30.6337 206.405C31.3765 205.197 31.2436 203.928 30.337 203.572C29.4303 203.216 28.0932 203.906 27.3504 205.115C26.6076 206.323 26.7405 207.592 27.6471 207.948Z" fill="white"/>
<mask id="mask11_3627_2320" style="mask-type:luminance" maskUnits="userSpaceOnUse" x="26" y="203" width="6" height="6">
<path d="M27.6471 207.948C28.5538 208.304 29.8909 207.614 30.6337 206.405C31.3765 205.197 31.2436 203.928 30.337 203.572C29.4303 203.216 28.0932 203.906 27.3504 205.115C26.6076 206.323 26.7405 207.592 27.6471 207.948Z" fill="white"/>
</mask>
<g mask="url(#mask11_3627_2320)">
<path d="M26.2845 204.696C26.234 204.778 26.2577 204.671 26.5723 204.508C26.7924 204.395 28.1102 203.812 29.7847 204.471L25.5092 211.426C28.0903 212.44 30.53 211.691 31.8311 211.019C33.2266 210.298 34.2903 209.241 34.9825 208.115L26.2845 204.696ZM29.7847 204.471C31.4591 205.129 31.6872 206.319 31.7091 206.527C31.7404 206.826 31.6486 206.906 31.6992 206.824L23.0012 203.405C22.309 204.531 21.9123 205.851 22.0509 207.174C22.1802 208.409 22.9281 210.411 25.5092 211.426L29.7847 204.471ZM31.6992 206.824C31.7497 206.742 31.726 206.849 31.4114 207.012C31.1913 207.125 29.8735 207.708 28.199 207.05L32.4745 200.095C29.8934 199.08 27.4537 199.829 26.1527 200.502C24.7571 201.222 23.6934 202.279 23.0012 203.405L31.6992 206.824ZM28.199 207.05C26.5246 206.391 26.2965 205.201 26.2746 204.993C26.2433 204.694 26.3351 204.614 26.2845 204.696L34.9825 208.115C35.6747 206.989 36.0714 205.67 35.9328 204.346C35.8035 203.112 35.0556 201.109 32.4745 200.095L28.199 207.05Z" fill="white"/>
</g>
</g>
<g filter="url(#filter25_f_3627_2320)">
<path d="M36.8305 255.452C60.6138 267.91 92.5241 262.593 108.104 243.574C123.684 224.556 117.034 199.039 93.2509 186.58C69.4677 174.121 37.5574 179.439 21.9773 198.457C6.39725 217.476 13.0473 242.993 36.8305 255.452Z" stroke="white" stroke-width="34.5277"/>
</g>
</g>
</g>
<g opacity="0.06" filter="url(#filter26_dd_3627_2320)">
<mask id="mask12_3627_2320" style="mask-type:luminance" maskUnits="userSpaceOnUse" x="491" y="74" width="101" height="81">
<path d="M583.391 136.166C598.523 117.695 592.065 92.9113 568.965 80.8109C545.866 68.7106 514.874 73.8754 499.742 92.3468C484.61 110.818 491.069 135.601 514.168 147.702C537.267 159.802 568.259 154.637 583.391 136.166Z" fill="white"/>
</mask>
<g mask="url(#mask12_3627_2320)">
<path d="M583.391 136.166C598.523 117.695 592.065 92.9113 568.965 80.8109C545.866 68.7106 514.874 73.8754 499.742 92.3468C484.61 110.818 491.069 135.601 514.168 147.702C537.267 159.802 568.259 154.637 583.391 136.166Z" fill="#EB6F47" fill-opacity="0.8"/>
<path d="M583.391 136.166C598.523 117.695 592.065 92.9113 568.965 80.8109C545.866 68.7106 514.874 73.8754 499.742 92.3468C484.61 110.818 491.069 135.601 514.168 147.702C537.267 159.802 568.259 154.637 583.391 136.166Z" fill="url(#paint17_radial_3627_2320)"/>
<path d="M583.391 136.166C598.523 117.695 592.065 92.9113 568.965 80.8109C545.866 68.7106 514.874 73.8754 499.742 92.3468C484.61 110.818 491.069 135.601 514.168 147.702C537.267 159.802 568.259 154.637 583.391 136.166Z" fill="url(#paint18_radial_3627_2320)"/>
<path d="M583.391 136.166C598.523 117.695 592.065 92.9113 568.965 80.8109C545.866 68.7106 514.874 73.8754 499.742 92.3468C484.61 110.818 491.069 135.601 514.168 147.702C537.267 159.802 568.259 154.637 583.391 136.166Z" fill="url(#paint19_radial_3627_2320)" fill-opacity="0.7"/>
<g filter="url(#filter27_f_3627_2320)">
<path d="M536.433 84.2685C537.444 85.9366 532.407 88.3492 525.914 90.8665C519.421 93.3838 513.929 95.0527 512.918 93.3854C511.907 91.7181 515.76 87.3456 522.253 84.8283C528.746 82.311 535.422 82.6012 536.433 84.2685Z" fill="white"/>
<path d="M534.413 85.3002C534.414 85.3018 534.415 85.3018 534.415 85.3018M531.437 84.9164C532.308 84.9052 533.015 84.9644 533.543 85.0555C533.296 85.2339 532.975 85.4426 532.565 85.6801C530.807 86.6988 528.092 87.8687 524.856 89.1234C521.62 90.378 518.789 91.3576 516.699 91.831C516.212 91.9414 515.808 92.0141 515.479 92.0589C515.717 91.6703 516.098 91.1905 516.648 90.6507C518.066 89.2601 520.369 87.712 523.309 86.5717C526.249 85.4322 529.194 84.946 531.437 84.9164ZM515.18 92.7602C515.18 92.7602 515.18 92.7594 515.18 92.7578C515.181 92.7594 515.18 92.7602 515.18 92.7602Z" stroke="white" stroke-width="4.846"/>
</g>
<g filter="url(#filter28_f_3627_2320)">
<path d="M508.6 98.0287C509.58 98.2244 510.573 97.7476 510.817 96.9638C511.062 96.18 510.466 95.3859 509.486 95.1903C508.506 94.9946 507.513 95.4713 507.268 96.2552C507.023 97.039 507.619 97.833 508.6 98.0287Z" fill="white"/>
</g>
<g filter="url(#filter29_f_3627_2320)">
<path d="M503.647 103.993C504.554 104.349 505.891 103.659 506.634 102.45C507.376 101.242 507.244 99.9734 506.337 99.617C505.43 99.2606 504.093 99.9512 503.35 101.16C502.608 102.368 502.74 103.636 503.647 103.993Z" fill="white"/>
<mask id="mask13_3627_2320" style="mask-type:luminance" maskUnits="userSpaceOnUse" x="502" y="99" width="6" height="6">
<path d="M503.647 103.993C504.554 104.349 505.891 103.659 506.634 102.45C507.376 101.242 507.244 99.9734 506.337 99.617C505.43 99.2606 504.093 99.9512 503.35 101.16C502.608 102.368 502.74 103.636 503.647 103.993Z" fill="white"/>
</mask>
<g mask="url(#mask13_3627_2320)">
<path d="M502.285 100.741C502.234 100.823 502.258 100.716 502.572 100.553C502.793 100.439 504.11 99.8573 505.785 100.515L501.509 107.471C504.09 108.485 506.53 107.736 507.831 107.064C509.227 106.343 510.29 105.286 510.983 104.159L502.285 100.741ZM505.785 100.515C507.459 101.174 507.687 102.363 507.709 102.572C507.74 102.871 507.649 102.951 507.699 102.869L499.001 99.4503C498.309 100.576 497.912 101.896 498.051 103.219C498.18 104.454 498.928 106.456 501.509 107.471L505.785 100.515ZM507.699 102.869C507.75 102.787 507.726 102.894 507.412 103.057C507.191 103.17 505.874 103.753 504.199 103.095L508.475 96.1397C505.893 95.125 503.454 95.8742 502.153 96.5467C500.757 97.2672 499.694 98.3244 499.001 99.4503L507.699 102.869ZM504.199 103.095C502.525 102.436 502.297 101.246 502.275 101.038C502.243 100.739 502.335 100.659 502.285 100.741L510.983 104.159C511.675 103.034 512.072 101.715 511.933 100.391C511.804 99.1568 511.056 97.1537 508.475 96.1397L504.199 103.095Z" fill="white"/>
</g>
</g>
<g filter="url(#filter30_f_3627_2320)">
<path d="M512.831 151.497C536.614 163.955 568.524 158.638 584.104 139.619C599.684 120.601 593.034 95.0835 569.251 82.6249C545.468 70.1662 513.557 75.4839 497.977 94.5023C482.397 113.521 489.047 139.038 512.831 151.497Z" stroke="white" stroke-width="34.5277"/>
</g>
</g>
</g>
</g>
</g>
<defs>
<filter id="filter0_f_3627_2320" x="-697.117" y="-848.569" width="3444.84" height="2797.25" filterUnits="userSpaceOnUse" color-interpolation-filters="sRGB">
<feFlood flood-opacity="0" result="BackgroundImageFix"/>
<feBlend mode="normal" in="SourceGraphic" in2="BackgroundImageFix" result="shape"/>
<feGaussianBlur stdDeviation="161" result="effect1_foregroundBlur_3627_2320"/>
</filter>
<filter id="filter1_dd_3627_2320" x="-14.7994" y="420.407" width="577.788" height="501.836" filterUnits="userSpaceOnUse" color-interpolation-filters="sRGB">
<feFlood flood-opacity="0" result="BackgroundImageFix"/>
<feColorMatrix in="SourceAlpha" type="matrix" values="0 0 0 0 0 0 0 0 0 0 0 0 0 0 0 0 0 0 127 0" result="hardAlpha"/>
<feOffset dx="-2.423" dy="-2.423"/>
<feGaussianBlur stdDeviation="23.3214"/>
<feComposite in2="hardAlpha" operator="out"/>
<feColorMatrix type="matrix" values="0 0 0 0 1 0 0 0 0 1 0 0 0 0 1 0 0 0 0.22 0"/>
<feBlend mode="normal" in2="BackgroundImageFix" result="effect1_dropShadow_3627_2320"/>
<feColorMatrix in="SourceAlpha" type="matrix" values="0 0 0 0 0 0 0 0 0 0 0 0 0 0 0 0 0 0 127 0" result="hardAlpha"/>
<feOffset dx="9.69199" dy="9.69199"/>
<feGaussianBlur stdDeviation="49.6715"/>
<feComposite in2="hardAlpha" operator="out"/>
<feColorMatrix type="matrix" values="0 0 0 0 1 0 0 0 0 1 0 0 0 0 1 0 0 0 0.25 0"/>
<feBlend mode="normal" in2="effect1_dropShadow_3627_2320" result="effect2_dropShadow_3627_2320"/>
<feBlend mode="normal" in="SourceGraphic" in2="effect2_dropShadow_3627_2320" result="shape"/>
</filter>
<filter id="filter2_f_3627_2320" x="138.25" y="525.621" width="124.156" height="76.8868" filterUnits="userSpaceOnUse" color-interpolation-filters="sRGB">
<feFlood flood-opacity="0" result="BackgroundImageFix"/>
<feBlend mode="normal" in="SourceGraphic" in2="BackgroundImageFix" result="shape"/>
<feGaussianBlur stdDeviation="8.48049" result="effect1_foregroundBlur_3627_2320"/>
</filter>
<filter id="filter3_f_3627_2320" x="125.054" y="579.696" width="32.1881" height="30.0953" filterUnits="userSpaceOnUse" color-interpolation-filters="sRGB">
<feFlood flood-opacity="0" result="BackgroundImageFix"/>
<feBlend mode="normal" in="SourceGraphic" in2="BackgroundImageFix" result="shape"/>
<feGaussianBlur stdDeviation="4.54312" result="effect1_foregroundBlur_3627_2320"/>
</filter>
<filter id="filter4_f_3627_2320" x="107.429" y="595.005" width="36.6892" height="38.8621" filterUnits="userSpaceOnUse" color-interpolation-filters="sRGB">
<feFlood flood-opacity="0" result="BackgroundImageFix"/>
<feBlend mode="normal" in="SourceGraphic" in2="BackgroundImageFix" result="shape"/>
<feGaussianBlur stdDeviation="5.14887" result="effect1_foregroundBlur_3627_2320"/>
</filter>
<filter id="filter5_f_3627_2320" x="2.36144" y="454.624" width="520.105" height="435.282" filterUnits="userSpaceOnUse" color-interpolation-filters="sRGB">
<feFlood flood-opacity="0" result="BackgroundImageFix"/>
<feBlend mode="normal" in="SourceGraphic" in2="BackgroundImageFix" result="shape"/>
<feGaussianBlur stdDeviation="23.0185" result="effect1_foregroundBlur_3627_2320"/>
</filter>
<filter id="filter6_dd_3627_2320" x="1545.2" y="284.465" width="577.788" height="501.836" filterUnits="userSpaceOnUse" color-interpolation-filters="sRGB">
<feFlood flood-opacity="0" result="BackgroundImageFix"/>
<feColorMatrix in="SourceAlpha" type="matrix" values="0 0 0 0 0 0 0 0 0 0 0 0 0 0 0 0 0 0 127 0" result="hardAlpha"/>
<feOffset dx="-2.423" dy="-2.423"/>
<feGaussianBlur stdDeviation="23.3214"/>
<feComposite in2="hardAlpha" operator="out"/>
<feColorMatrix type="matrix" values="0 0 0 0 1 0 0 0 0 1 0 0 0 0 1 0 0 0 0.22 0"/>
<feBlend mode="normal" in2="BackgroundImageFix" result="effect1_dropShadow_3627_2320"/>
<feColorMatrix in="SourceAlpha" type="matrix" values="0 0 0 0 0 0 0 0 0 0 0 0 0 0 0 0 0 0 127 0" result="hardAlpha"/>
<feOffset dx="9.69199" dy="9.69199"/>
<feGaussianBlur stdDeviation="49.6715"/>
<feComposite in2="hardAlpha" operator="out"/>
<feColorMatrix type="matrix" values="0 0 0 0 1 0 0 0 0 1 0 0 0 0 1 0 0 0 0.25 0"/>
<feBlend mode="normal" in2="effect1_dropShadow_3627_2320" result="effect2_dropShadow_3627_2320"/>
<feBlend mode="normal" in="SourceGraphic" in2="effect2_dropShadow_3627_2320" result="shape"/>
</filter>
<filter id="filter7_f_3627_2320" x="1698.25" y="389.68" width="124.149" height="76.8868" filterUnits="userSpaceOnUse" color-interpolation-filters="sRGB">
<feFlood flood-opacity="0" result="BackgroundImageFix"/>
<feBlend mode="normal" in="SourceGraphic" in2="BackgroundImageFix" result="shape"/>
<feGaussianBlur stdDeviation="8.48049" result="effect1_foregroundBlur_3627_2320"/>
</filter>
<filter id="filter8_f_3627_2320" x="1685.05" y="443.755" width="32.1881" height="30.0953" filterUnits="userSpaceOnUse" color-interpolation-filters="sRGB">
<feFlood flood-opacity="0" result="BackgroundImageFix"/>
<feBlend mode="normal" in="SourceGraphic" in2="BackgroundImageFix" result="shape"/>
<feGaussianBlur stdDeviation="4.54312" result="effect1_foregroundBlur_3627_2320"/>
</filter>
<filter id="filter9_f_3627_2320" x="1667.43" y="459.064" width="36.6892" height="38.8621" filterUnits="userSpaceOnUse" color-interpolation-filters="sRGB">
<feFlood flood-opacity="0" result="BackgroundImageFix"/>
<feBlend mode="normal" in="SourceGraphic" in2="BackgroundImageFix" result="shape"/>
<feGaussianBlur stdDeviation="5.14887" result="effect1_foregroundBlur_3627_2320"/>
</filter>
<filter id="filter10_f_3627_2320" x="1562.36" y="318.683" width="520.105" height="435.282" filterUnits="userSpaceOnUse" color-interpolation-filters="sRGB">
<feFlood flood-opacity="0" result="BackgroundImageFix"/>
<feBlend mode="normal" in="SourceGraphic" in2="BackgroundImageFix" result="shape"/>
<feGaussianBlur stdDeviation="23.0185" result="effect1_foregroundBlur_3627_2320"/>
</filter>
<filter id="filter11_dd_3627_2320" x="901.115" y="-47.234" width="448.717" height="398.623" filterUnits="userSpaceOnUse" color-interpolation-filters="sRGB">
<feFlood flood-opacity="0" result="BackgroundImageFix"/>
<feColorMatrix in="SourceAlpha" type="matrix" values="0 0 0 0 0 0 0 0 0 0 0 0 0 0 0 0 0 0 127 0" result="hardAlpha"/>
<feOffset dx="-2.423" dy="-2.423"/>
<feGaussianBlur stdDeviation="23.3214"/>
<feComposite in2="hardAlpha" operator="out"/>
<feColorMatrix type="matrix" values="0 0 0 0 1 0 0 0 0 1 0 0 0 0 1 0 0 0 0.22 0"/>
<feBlend mode="normal" in2="BackgroundImageFix" result="effect1_dropShadow_3627_2320"/>
<feColorMatrix in="SourceAlpha" type="matrix" values="0 0 0 0 0 0 0 0 0 0 0 0 0 0 0 0 0 0 127 0" result="hardAlpha"/>
<feOffset dx="9.69199" dy="9.69199"/>
<feGaussianBlur stdDeviation="49.6715"/>
<feComposite in2="hardAlpha" operator="out"/>
<feColorMatrix type="matrix" values="0 0 0 0 1 0 0 0 0 1 0 0 0 0 1 0 0 0 0.25 0"/>
<feBlend mode="normal" in2="effect1_dropShadow_3627_2320" result="effect2_dropShadow_3627_2320"/>
<feBlend mode="normal" in="SourceGraphic" in2="effect2_dropShadow_3627_2320" result="shape"/>
</filter>
<filter id="filter12_f_3627_2320" x="1026.81" y="46.7412" width="93.4376" height="62.589" filterUnits="userSpaceOnUse" color-interpolation-filters="sRGB">
<feFlood flood-opacity="0" result="BackgroundImageFix"/>
<feBlend mode="normal" in="SourceGraphic" in2="BackgroundImageFix" result="shape"/>
<feGaussianBlur stdDeviation="8.48049" result="effect1_foregroundBlur_3627_2320"/>
</filter>
<filter id="filter13_f_3627_2320" x="1020.77" y="85.1579" width="27.4459" height="26.2242" filterUnits="userSpaceOnUse" color-interpolation-filters="sRGB">
<feFlood flood-opacity="0" result="BackgroundImageFix"/>
<feBlend mode="normal" in="SourceGraphic" in2="BackgroundImageFix" result="shape"/>
<feGaussianBlur stdDeviation="4.54312" result="effect1_foregroundBlur_3627_2320"/>
</filter>
<filter id="filter14_f_3627_2320" x="1008.76" y="95.256" width="31.2049" height="32.0037" filterUnits="userSpaceOnUse" color-interpolation-filters="sRGB">
<feFlood flood-opacity="0" result="BackgroundImageFix"/>
<feBlend mode="normal" in="SourceGraphic" in2="BackgroundImageFix" result="shape"/>
<feGaussianBlur stdDeviation="5.14887" result="effect1_foregroundBlur_3627_2320"/>
</filter>
<filter id="filter15_f_3627_2320" x="920.869" y="-15.1083" width="387.215" height="329.011" filterUnits="userSpaceOnUse" color-interpolation-filters="sRGB">
<feFlood flood-opacity="0" result="BackgroundImageFix"/>
<feBlend mode="normal" in="SourceGraphic" in2="BackgroundImageFix" result="shape"/>
<feGaussianBlur stdDeviation="23.0185" result="effect1_foregroundBlur_3627_2320"/>
</filter>
<filter id="filter16_dd_3627_2320" x="102.779" y="122.604" width="395.272" height="355.888" filterUnits="userSpaceOnUse" color-interpolation-filters="sRGB">
<feFlood flood-opacity="0" result="BackgroundImageFix"/>
<feColorMatrix in="SourceAlpha" type="matrix" values="0 0 0 0 0 0 0 0 0 0 0 0 0 0 0 0 0 0 127 0" result="hardAlpha"/>
<feOffset dx="-2.423" dy="-2.423"/>
<feGaussianBlur stdDeviation="23.3214"/>
<feComposite in2="hardAlpha" operator="out"/>
<feColorMatrix type="matrix" values="0 0 0 0 1 0 0 0 0 1 0 0 0 0 1 0 0 0 0.22 0"/>
<feBlend mode="normal" in2="BackgroundImageFix" result="effect1_dropShadow_3627_2320"/>
<feColorMatrix in="SourceAlpha" type="matrix" values="0 0 0 0 0 0 0 0 0 0 0 0 0 0 0 0 0 0 127 0" result="hardAlpha"/>
<feOffset dx="9.69199" dy="9.69199"/>
<feGaussianBlur stdDeviation="49.6715"/>
<feComposite in2="hardAlpha" operator="out"/>
<feColorMatrix type="matrix" values="0 0 0 0 1 0 0 0 0 1 0 0 0 0 1 0 0 0 0.25 0"/>
<feBlend mode="normal" in2="effect1_dropShadow_3627_2320" result="effect2_dropShadow_3627_2320"/>
<feBlend mode="normal" in="SourceGraphic" in2="effect2_dropShadow_3627_2320" result="shape"/>
</filter>
<filter id="filter17_f_3627_2320" x="217.141" y="211.926" width="80.711" height="56.6681" filterUnits="userSpaceOnUse" color-interpolation-filters="sRGB">
<feFlood flood-opacity="0" result="BackgroundImageFix"/>
<feBlend mode="normal" in="SourceGraphic" in2="BackgroundImageFix" result="shape"/>
<feGaussianBlur stdDeviation="8.48049" result="effect1_foregroundBlur_3627_2320"/>
</filter>
<filter id="filter18_f_3627_2320" x="214.093" y="244.007" width="25.4381" height="24.3258" filterUnits="userSpaceOnUse" color-interpolation-filters="sRGB">
<feFlood flood-opacity="0" result="BackgroundImageFix"/>
<feBlend mode="normal" in="SourceGraphic" in2="BackgroundImageFix" result="shape"/>
<feGaussianBlur stdDeviation="4.54312" result="effect1_foregroundBlur_3627_2320"/>
</filter>
<filter id="filter19_f_3627_2320" x="204.374" y="251.599" width="28.9392" height="29.5652" filterUnits="userSpaceOnUse" color-interpolation-filters="sRGB">
<feFlood flood-opacity="0" result="BackgroundImageFix"/>
<feBlend mode="normal" in="SourceGraphic" in2="BackgroundImageFix" result="shape"/>
<feGaussianBlur stdDeviation="5.14887" result="effect1_foregroundBlur_3627_2320"/>
</filter>
<filter id="filter20_f_3627_2320" x="123.604" y="153.863" width="332.183" height="285.011" filterUnits="userSpaceOnUse" color-interpolation-filters="sRGB">
<feFlood flood-opacity="0" result="BackgroundImageFix"/>
<feBlend mode="normal" in="SourceGraphic" in2="BackgroundImageFix" result="shape"/>
<feGaussianBlur stdDeviation="23.0185" result="effect1_foregroundBlur_3627_2320"/>
</filter>
<filter id="filter21_dd_3627_2320" x="-74.0885" y="88.5726" width="298.694" height="278.662" filterUnits="userSpaceOnUse" color-interpolation-filters="sRGB">
<feFlood flood-opacity="0" result="BackgroundImageFix"/>
<feColorMatrix in="SourceAlpha" type="matrix" values="0 0 0 0 0 0 0 0 0 0 0 0 0 0 0 0 0 0 127 0" result="hardAlpha"/>
<feOffset dx="-2.423" dy="-2.423"/>
<feGaussianBlur stdDeviation="23.3214"/>
<feComposite in2="hardAlpha" operator="out"/>
<feColorMatrix type="matrix" values="0 0 0 0 1 0 0 0 0 1 0 0 0 0 1 0 0 0 0.22 0"/>
<feBlend mode="normal" in2="BackgroundImageFix" result="effect1_dropShadow_3627_2320"/>
<feColorMatrix in="SourceAlpha" type="matrix" values="0 0 0 0 0 0 0 0 0 0 0 0 0 0 0 0 0 0 127 0" result="hardAlpha"/>
<feOffset dx="9.69199" dy="9.69199"/>
<feGaussianBlur stdDeviation="49.6715"/>
<feComposite in2="hardAlpha" operator="out"/>
<feColorMatrix type="matrix" values="0 0 0 0 1 0 0 0 0 1 0 0 0 0 1 0 0 0 0.25 0"/>
<feBlend mode="normal" in2="effect1_dropShadow_3627_2320" result="effect2_dropShadow_3627_2320"/>
<feBlend mode="normal" in="SourceGraphic" in2="effect2_dropShadow_3627_2320" result="shape"/>
</filter>
<filter id="filter22_f_3627_2320" x="17.789" y="169.486" width="62.8048" height="46.6134" filterUnits="userSpaceOnUse" color-interpolation-filters="sRGB">
<feFlood flood-opacity="0" result="BackgroundImageFix"/>
<feBlend mode="normal" in="SourceGraphic" in2="BackgroundImageFix" result="shape"/>
<feGaussianBlur stdDeviation="8.48049" result="effect1_foregroundBlur_3627_2320"/>
</filter>
<filter id="filter23_f_3627_2320" x="22.1247" y="190.015" width="21.8365" height="21.0983" filterUnits="userSpaceOnUse" color-interpolation-filters="sRGB">
<feFlood flood-opacity="0" result="BackgroundImageFix"/>
<feBlend mode="normal" in="SourceGraphic" in2="BackgroundImageFix" result="shape"/>
<feGaussianBlur stdDeviation="4.54312" result="effect1_foregroundBlur_3627_2320"/>
</filter>
<filter id="filter24_f_3627_2320" x="16.5694" y="193.181" width="24.8455" height="25.159" filterUnits="userSpaceOnUse" color-interpolation-filters="sRGB">
<feFlood flood-opacity="0" result="BackgroundImageFix"/>
<feBlend mode="normal" in="SourceGraphic" in2="BackgroundImageFix" result="shape"/>
<feGaussianBlur stdDeviation="5.14887" result="effect1_foregroundBlur_3627_2320"/>
</filter>
<filter id="filter25_f_3627_2320" x="-51.3339" y="118.268" width="232.746" height="205.497" filterUnits="userSpaceOnUse" color-interpolation-filters="sRGB">
<feFlood flood-opacity="0" result="BackgroundImageFix"/>
<feBlend mode="normal" in="SourceGraphic" in2="BackgroundImageFix" result="shape"/>
<feGaussianBlur stdDeviation="23.0185" result="effect1_foregroundBlur_3627_2320"/>
</filter>
<filter id="filter26_dd_3627_2320" x="401.911" y="-15.3825" width="298.694" height="278.662" filterUnits="userSpaceOnUse" color-interpolation-filters="sRGB">
<feFlood flood-opacity="0" result="BackgroundImageFix"/>
<feColorMatrix in="SourceAlpha" type="matrix" values="0 0 0 0 0 0 0 0 0 0 0 0 0 0 0 0 0 0 127 0" result="hardAlpha"/>
<feOffset dx="-2.423" dy="-2.423"/>
<feGaussianBlur stdDeviation="23.3214"/>
<feComposite in2="hardAlpha" operator="out"/>
<feColorMatrix type="matrix" values="0 0 0 0 1 0 0 0 0 1 0 0 0 0 1 0 0 0 0.22 0"/>
<feBlend mode="normal" in2="BackgroundImageFix" result="effect1_dropShadow_3627_2320"/>
<feColorMatrix in="SourceAlpha" type="matrix" values="0 0 0 0 0 0 0 0 0 0 0 0 0 0 0 0 0 0 127 0" result="hardAlpha"/>
<feOffset dx="9.69199" dy="9.69199"/>
<feGaussianBlur stdDeviation="49.6715"/>
<feComposite in2="hardAlpha" operator="out"/>
<feColorMatrix type="matrix" values="0 0 0 0 1 0 0 0 0 1 0 0 0 0 1 0 0 0 0.25 0"/>
<feBlend mode="normal" in2="effect1_dropShadow_3627_2320" result="effect2_dropShadow_3627_2320"/>
<feBlend mode="normal" in="SourceGraphic" in2="effect2_dropShadow_3627_2320" result="shape"/>
</filter>
<filter id="filter27_f_3627_2320" x="493.781" y="65.5312" width="62.8126" height="49.2247" filterUnits="userSpaceOnUse" color-interpolation-filters="sRGB">
<feFlood flood-opacity="0" result="BackgroundImageFix"/>
<feBlend mode="normal" in="SourceGraphic" in2="BackgroundImageFix" result="shape"/>
<feGaussianBlur stdDeviation="8.48049" result="effect1_foregroundBlur_3627_2320"/>
</filter>
<filter id="filter28_f_3627_2320" x="498.125" y="86.0602" width="21.8365" height="21.0983" filterUnits="userSpaceOnUse" color-interpolation-filters="sRGB">
<feFlood flood-opacity="0" result="BackgroundImageFix"/>
<feBlend mode="normal" in="SourceGraphic" in2="BackgroundImageFix" result="shape"/>
<feGaussianBlur stdDeviation="4.54312" result="effect1_foregroundBlur_3627_2320"/>
</filter>
<filter id="filter29_f_3627_2320" x="492.569" y="89.2257" width="24.8455" height="25.159" filterUnits="userSpaceOnUse" color-interpolation-filters="sRGB">
<feFlood flood-opacity="0" result="BackgroundImageFix"/>
<feBlend mode="normal" in="SourceGraphic" in2="BackgroundImageFix" result="shape"/>
<feGaussianBlur stdDeviation="5.14887" result="effect1_foregroundBlur_3627_2320"/>
</filter>
<filter id="filter30_f_3627_2320" x="424.666" y="14.3126" width="232.746" height="205.497" filterUnits="userSpaceOnUse" color-interpolation-filters="sRGB">
<feFlood flood-opacity="0" result="BackgroundImageFix"/>
<feBlend mode="normal" in="SourceGraphic" in2="BackgroundImageFix" result="shape"/>
<feGaussianBlur stdDeviation="23.0185" result="effect1_foregroundBlur_3627_2320"/>
</filter>
<linearGradient id="paint0_linear_3627_2320" x1="-54" y1="-4.79785" x2="1875.07" y2="1099.94" gradientUnits="userSpaceOnUse">
<stop stop-color="#0059BB"/>
<stop offset="0.511683" stop-color="#0099FF"/>
<stop offset="0.973958" stop-color="#03E6F4"/>
</linearGradient>
<linearGradient id="paint1_linear_3627_2320" x1="-47" y1="-4.79785" x2="1740.98" y2="1171.4" gradientUnits="userSpaceOnUse">
<stop stop-color="#0059BB"/>
<stop offset="0.511683" stop-color="#0099FF"/>
<stop offset="0.973958" stop-color="#03E6F4"/>
</linearGradient>
<radialGradient id="paint2_radial_3627_2320" cx="0" cy="0" r="1" gradientUnits="userSpaceOnUse" gradientTransform="translate(329.316 695.634) rotate(162.435) scale(206.831 173.887)">
<stop stop-color="#B541EC"/>
<stop offset="1" stop-color="#D441EC" stop-opacity="0"/>
</radialGradient>
<radialGradient id="paint3_radial_3627_2320" cx="0" cy="0" r="1" gradientUnits="userSpaceOnUse" gradientTransform="translate(121.264 633.995) rotate(42.1936) scale(204.842 205.466)">
<stop stop-color="#51ABFF"/>
<stop offset="1" stop-color="#4786FF" stop-opacity="0"/>
</radialGradient>
<radialGradient id="paint4_radial_3627_2320" cx="0" cy="0" r="1" gradientUnits="userSpaceOnUse" gradientTransform="translate(235.437 531.245) rotate(80.5095) scale(287.26 355.708)">
<stop stop-color="white"/>
<stop offset="0.97449" stop-color="white" stop-opacity="0"/>
</radialGradient>
<radialGradient id="paint5_radial_3627_2320" cx="0" cy="0" r="1" gradientUnits="userSpaceOnUse" gradientTransform="translate(1889.31 559.696) rotate(162.435) scale(206.831 173.887)">
<stop stop-color="#B541EC"/>
<stop offset="1" stop-color="#D441EC" stop-opacity="0"/>
</radialGradient>
<radialGradient id="paint6_radial_3627_2320" cx="0" cy="0" r="1" gradientUnits="userSpaceOnUse" gradientTransform="translate(1681.26 498.054) rotate(42.1936) scale(204.842 205.466)">
<stop stop-color="#51ABFF"/>
<stop offset="1" stop-color="#4786FF" stop-opacity="0"/>
</radialGradient>
<radialGradient id="paint7_radial_3627_2320" cx="0" cy="0" r="1" gradientUnits="userSpaceOnUse" gradientTransform="translate(1795.43 395.306) rotate(80.5095) scale(287.26 355.708)">
<stop stop-color="white"/>
<stop offset="0.97449" stop-color="white" stop-opacity="0"/>
</radialGradient>
<radialGradient id="paint8_radial_3627_2320" cx="0" cy="0" r="1" gradientUnits="userSpaceOnUse" gradientTransform="translate(1158.6 164.812) rotate(162.435) scale(136.411 114.684)">
<stop stop-color="#B541EC"/>
<stop offset="1" stop-color="#D441EC" stop-opacity="0"/>
</radialGradient>
<radialGradient id="paint9_radial_3627_2320" cx="0" cy="0" r="1" gradientUnits="userSpaceOnUse" gradientTransform="translate(1021.39 124.159) rotate(42.1936) scale(135.099 135.511)">
<stop stop-color="#51ABFF"/>
<stop offset="1" stop-color="#4786FF" stop-opacity="0"/>
</radialGradient>
<radialGradient id="paint10_radial_3627_2320" cx="0" cy="0" r="1" gradientUnits="userSpaceOnUse" gradientTransform="translate(1096.69 56.3917) rotate(80.5095) scale(189.456 234.6)">
<stop stop-color="white"/>
<stop offset="0.97449" stop-color="white" stop-opacity="0"/>
</radialGradient>
<radialGradient id="paint11_radial_3627_2320" cx="0" cy="0" r="1" gradientUnits="userSpaceOnUse" gradientTransform="translate(324.389 308.487) rotate(162.435) scale(107.253 90.1704)">
<stop stop-color="#B541EC"/>
<stop offset="1" stop-color="#D441EC" stop-opacity="0"/>
</radialGradient>
<radialGradient id="paint12_radial_3627_2320" cx="0" cy="0" r="1" gradientUnits="userSpaceOnUse" gradientTransform="translate(216.502 276.523) rotate(42.1936) scale(106.223 106.546)">
<stop stop-color="#51ABFF"/>
<stop offset="1" stop-color="#4786FF" stop-opacity="0"/>
</radialGradient>
<radialGradient id="paint13_radial_3627_2320" cx="0" cy="0" r="1" gradientUnits="userSpaceOnUse" gradientTransform="translate(275.707 223.242) rotate(80.5095) scale(148.961 184.455)">
<stop stop-color="white"/>
<stop offset="0.97449" stop-color="white" stop-opacity="0"/>
</radialGradient>
<radialGradient id="paint14_radial_3627_2320" cx="0" cy="0" r="1" gradientUnits="userSpaceOnUse" gradientTransform="translate(82.69 227.181) rotate(162.435) scale(54.5643 45.8734)">
<stop stop-color="#B541EC"/>
<stop offset="1" stop-color="#D441EC" stop-opacity="0"/>
</radialGradient>
<radialGradient id="paint15_radial_3627_2320" cx="0" cy="0" r="1" gradientUnits="userSpaceOnUse" gradientTransform="translate(27.8034 210.92) rotate(42.1936) scale(54.0397 54.2044)">
<stop stop-color="#51ABFF"/>
<stop offset="1" stop-color="#4786FF" stop-opacity="0"/>
</radialGradient>
<radialGradient id="paint16_radial_3627_2320" cx="0" cy="0" r="1" gradientUnits="userSpaceOnUse" gradientTransform="translate(57.9233 183.814) rotate(80.5095) scale(75.7825 93.8399)">
<stop stop-color="white"/>
<stop offset="0.97449" stop-color="white" stop-opacity="0"/>
</radialGradient>
<radialGradient id="paint17_radial_3627_2320" cx="0" cy="0" r="1" gradientUnits="userSpaceOnUse" gradientTransform="translate(558.69 123.226) rotate(162.435) scale(54.5643 45.8734)">
<stop stop-color="#B541EC"/>
<stop offset="1" stop-color="#D441EC" stop-opacity="0"/>
</radialGradient>
<radialGradient id="paint18_radial_3627_2320" cx="0" cy="0" r="1" gradientUnits="userSpaceOnUse" gradientTransform="translate(503.803 106.965) rotate(42.1936) scale(54.0397 54.2044)">
<stop stop-color="#51ABFF"/>
<stop offset="1" stop-color="#4786FF" stop-opacity="0"/>
</radialGradient>
<radialGradient id="paint19_radial_3627_2320" cx="0" cy="0" r="1" gradientUnits="userSpaceOnUse" gradientTransform="translate(533.923 79.8579) rotate(80.5095) scale(75.7825 93.8399)">
<stop stop-color="white"/>
<stop offset="0.97449" stop-color="white" stop-opacity="0"/>
</radialGradient>
<clipPath id="clip0_3627_2320">
<rect width="1917" height="930" fill="white"/>
</clipPath>
</defs>
</svg>
