<svg width="78" height="47" viewBox="0 0 78 47" fill="none" xmlns="http://www.w3.org/2000/svg">
<g clip-path="url(#clip0_2968_2606)">
<path d="M22.1718 17.1464C22.1718 18.1019 22.2744 18.8766 22.454 19.4447C22.6593 20.0129 22.9158 20.6327 23.275 21.3041C23.4033 21.5107 23.4546 21.7173 23.4546 21.898C23.4546 22.1563 23.3007 22.4145 22.9671 22.6728L21.3507 23.7574C21.1198 23.9123 20.8889 23.9898 20.6836 23.9898C20.427 23.9898 20.1704 23.8607 19.9139 23.6283C19.5546 23.2409 19.2468 22.8277 18.9902 22.4145C18.7336 21.9755 18.477 21.4849 18.1948 20.8909C16.1935 23.2667 13.679 24.4546 10.6514 24.4546C8.49609 24.4546 6.77701 23.8349 5.51978 22.5953C4.26254 21.3557 3.62109 19.703 3.62109 17.637C3.62109 15.442 4.39083 13.6601 5.95596 12.3173C7.52109 10.9744 9.59938 10.303 12.2421 10.303C13.1145 10.303 14.0125 10.3805 14.9619 10.5096C15.9112 10.6387 16.8862 10.8453 17.9125 11.0777V9.19254C17.9125 7.22991 17.502 5.86122 16.7066 5.06068C15.8856 4.26013 14.5 3.87276 12.5244 3.87276C11.6264 3.87276 10.7027 3.97606 9.75333 4.20848C8.80399 4.4409 7.8803 4.72496 6.98228 5.0865C6.57175 5.26727 6.26386 5.37057 6.08425 5.42221C5.90465 5.47386 5.77636 5.49969 5.67373 5.49969C5.31451 5.49969 5.13491 5.24144 5.13491 4.69914V3.43375C5.13491 3.02057 5.18623 2.71068 5.31451 2.52991C5.4428 2.34914 5.67373 2.16837 6.03294 1.9876C6.93096 1.52276 8.00859 1.1354 9.26583 0.825511C10.5231 0.489797 11.8573 0.334851 13.2685 0.334851C16.3218 0.334851 18.554 1.0321 19.9908 2.42661C21.402 3.82111 22.1204 5.9387 22.1204 8.77936V17.1464H22.1718ZM11.7546 21.0717C12.6014 21.0717 13.4737 20.9167 14.3974 20.6068C15.3211 20.2969 16.1421 19.7288 16.8349 18.9541C17.2454 18.4634 17.5533 17.9211 17.7073 17.3013C17.8612 16.6816 17.9639 15.9327 17.9639 15.0546V13.97C17.2198 13.7892 16.4244 13.6343 15.6033 13.531C14.7823 13.4277 13.9869 13.3761 13.1915 13.3761C11.4724 13.3761 10.2152 13.7118 9.36846 14.409C8.52175 15.1063 8.11123 16.0876 8.11123 17.3788C8.11123 18.5925 8.41912 19.4964 9.06057 20.1162C9.67636 20.7618 10.5744 21.0717 11.7546 21.0717ZM32.3579 23.8607C31.8961 23.8607 31.5882 23.7832 31.3829 23.6024C31.1777 23.4475 30.9981 23.0859 30.8441 22.5953L24.8145 2.6332C24.6606 2.11672 24.5836 1.78101 24.5836 1.60024C24.5836 1.18705 24.7889 0.954632 25.1994 0.954632H27.7139C28.2014 0.954632 28.5349 1.0321 28.7145 1.21287C28.9198 1.36782 29.0737 1.72936 29.2277 2.22002L33.5382 19.3156L37.5408 2.22002C37.6691 1.70353 37.8231 1.36782 38.0283 1.21287C38.2336 1.05793 38.5928 0.954632 39.0546 0.954632H41.1073C41.5948 0.954632 41.9283 1.0321 42.1336 1.21287C42.3389 1.36782 42.5185 1.72936 42.6211 2.22002L46.675 19.5222L51.1139 2.22002C51.2678 1.70353 51.4474 1.36782 51.627 1.21287C51.8323 1.05793 52.1658 0.954632 52.6277 0.954632H55.0139C55.4244 0.954632 55.6553 1.16123 55.6553 1.60024C55.6553 1.72936 55.6296 1.85848 55.604 2.01342C55.5783 2.16837 55.527 2.37496 55.4244 2.65903L49.2408 22.6211C49.0869 23.1376 48.9073 23.4733 48.702 23.6283C48.4967 23.7832 48.1632 23.8865 47.727 23.8865H45.5204C45.0329 23.8865 44.6994 23.809 44.4941 23.6283C44.2889 23.4475 44.1092 23.1118 44.0066 22.5953L40.0296 5.9387L36.0783 22.5695C35.95 23.0859 35.7961 23.4217 35.5908 23.6024C35.3856 23.7832 35.0264 23.8607 34.5645 23.8607H32.3579ZM65.3283 24.5579C63.9941 24.5579 62.6599 24.403 61.377 24.0931C60.0941 23.7832 59.0935 23.4475 58.4264 23.0601C58.0158 22.8277 57.7336 22.5695 57.631 22.337C57.5283 22.1046 57.477 21.8464 57.477 21.614V20.2969C57.477 19.7546 57.6823 19.4964 58.0671 19.4964C58.2211 19.4964 58.375 19.5222 58.529 19.5739C58.6829 19.6255 58.9139 19.7288 59.1704 19.8321C60.0428 20.2195 60.9921 20.5294 61.9928 20.736C63.0191 20.9425 64.0198 21.0458 65.0461 21.0458C66.6625 21.0458 67.9198 20.7618 68.7921 20.1936C69.6645 19.6255 70.1264 18.7991 70.1264 17.7403C70.1264 17.0173 69.8954 16.4233 69.4336 15.9327C68.9718 15.442 68.0994 15.003 66.8421 14.5898L63.1217 13.4277C61.2487 12.8338 59.8632 11.9557 59.0165 10.7936C58.1698 9.65738 57.7336 8.39199 57.7336 7.04914C57.7336 5.96452 57.9645 5.00903 58.4264 4.18265C58.8882 3.35628 59.504 2.6332 60.2737 2.06507C61.0435 1.47112 61.9158 1.0321 62.9421 0.722214C63.9685 0.412324 65.0461 0.283203 66.175 0.283203C66.7395 0.283203 67.3296 0.309027 67.8941 0.3865C68.4843 0.463972 69.0231 0.567269 69.5619 0.670566C70.075 0.799687 70.5625 0.928807 71.0244 1.08375C71.4862 1.2387 71.8454 1.39364 72.102 1.54859C72.4612 1.75518 72.7178 1.96177 72.8717 2.19419C73.0257 2.40079 73.1027 2.68485 73.1027 3.04639V4.26013C73.1027 4.80243 72.8974 5.0865 72.5125 5.0865C72.3073 5.0865 71.9737 4.9832 71.5375 4.77661C70.075 4.10518 68.4329 3.76947 66.6112 3.76947C65.1487 3.76947 63.9941 4.00188 63.1987 4.49254C62.4033 4.9832 61.9928 5.7321 61.9928 6.79089C61.9928 7.51397 62.2494 8.13375 62.7625 8.62441C63.2757 9.11507 64.225 9.60573 65.5849 10.0447L69.2283 11.2068C71.0757 11.8008 72.4099 12.6272 73.2053 13.686C74.0007 14.7447 74.3856 15.9585 74.3856 17.3013C74.3856 18.4118 74.1546 19.4189 73.7185 20.2969C73.2566 21.175 72.6408 21.9497 71.8454 22.5695C71.05 23.2151 70.1007 23.6799 68.9974 24.0156C67.8428 24.3772 66.6369 24.5579 65.3283 24.5579Z" fill="#252F3E"/>
<path fill-rule="evenodd" clip-rule="evenodd" d="M70.1761 37.1092C61.7346 43.3845 49.4701 46.7158 38.9247 46.7158C24.1458 46.7158 10.8293 41.2153 0.771455 32.0735C-0.0239397 31.3504 0.694481 30.3691 1.64382 30.9373C12.5228 37.29 25.9418 41.1378 39.8228 41.1378C49.1879 41.1378 59.4767 39.1752 68.9445 35.1466C70.3557 34.501 71.5616 36.0763 70.1761 37.1092Z" fill="#FF9900"/>
<path fill-rule="evenodd" clip-rule="evenodd" d="M73.6917 33.0803C72.614 31.6858 66.5588 32.4088 63.8134 32.7446C62.9923 32.8479 62.864 32.1248 63.6081 31.5825C68.4318 28.1737 76.3601 29.155 77.2838 30.2913C78.2075 31.4534 77.0272 39.433 72.5114 43.255C71.8186 43.849 71.1515 43.5391 71.4594 42.7643C72.4858 40.2077 74.7693 34.449 73.6917 33.0803Z" fill="#FF9900"/>
</g>
<defs>
<clipPath id="clip0_2968_2606">
<rect width="78" height="47" fill="white"/>
</clipPath>
</defs>
</svg>
