<svg width="140" height="36" viewBox="0 0 140 36" fill="none" xmlns="http://www.w3.org/2000/svg">
<path d="M65.651 10.4948C64.9064 10.4715 64.3013 11.0533 64.2781 11.7747C64.2781 11.798 64.2781 11.8445 64.2781 11.8678V18.4767C61.09 15.9169 56.4125 16.4289 53.8527 19.617C52.8055 20.9434 52.2238 22.5724 52.2238 24.2712C52.1539 28.3668 55.4119 31.7411 59.5075 31.8109C63.6032 31.8807 66.9775 28.6228 67.0473 24.5271C67.0473 24.434 67.0473 24.3642 67.0473 24.2712V11.8678C67.0473 11.4955 66.9077 11.1464 66.6517 10.8904C66.3724 10.6344 66.0234 10.4948 65.651 10.4948ZM63.9057 26.063C63.4403 27.18 62.556 28.0643 61.439 28.553C60.2755 29.0417 58.9723 29.0417 57.8088 28.553C56.6918 28.0876 55.8307 27.18 55.3653 26.0863C54.8766 24.946 54.8766 23.6428 55.3653 22.4793C55.8307 21.3623 56.715 20.478 57.8088 20.0126C58.9723 19.5239 60.2755 19.5239 61.439 20.0126C62.556 20.5013 63.4403 21.3856 63.9057 22.5026C64.3944 23.6196 64.3944 24.9227 63.9057 26.063Z" fill="#0091E2"/>
<path d="M81.1255 19.0353C78.2399 16.1497 73.5392 16.1497 70.6536 19.0353C69.2573 20.4315 68.4894 22.3165 68.4894 24.2712C68.4196 28.3669 71.6775 31.7412 75.7732 31.811C79.8688 31.8808 83.2431 28.6229 83.3129 24.5272C83.3129 24.4341 83.3129 24.3643 83.3129 24.2712C83.3129 23.2938 83.1267 22.3397 82.7544 21.4322C82.3821 20.5246 81.8236 19.7101 81.1255 19.0353ZM80.1713 26.0398C79.9386 26.5983 79.5896 27.087 79.1707 27.5059C78.7518 27.9247 78.2399 28.2738 77.7046 28.5065C76.5411 28.9952 75.2379 28.9952 74.0744 28.5065C72.9574 28.0411 72.0731 27.1335 71.6077 26.0398C71.119 24.8995 71.119 23.5964 71.6077 22.4328C72.0731 21.3158 72.9574 20.4548 74.0744 19.9661C75.2379 19.4774 76.5411 19.4774 77.7046 19.9661C78.2631 20.1988 78.7518 20.5479 79.1707 20.9668C79.5896 21.3856 79.9386 21.8976 80.1713 22.4328C80.66 23.6196 80.66 24.9228 80.1713 26.0398Z" fill="#0091E2"/>
<path d="M111.771 18.222C111.771 18.0359 111.725 17.8497 111.655 17.6868C111.585 17.5239 111.469 17.3843 111.353 17.2446C111.236 17.1283 111.073 17.0119 110.91 16.9421C110.748 16.8723 110.561 16.8258 110.375 16.8258C110.119 16.8258 109.863 16.8956 109.631 17.0352L101.718 22.1781V11.8923C101.718 11.52 101.579 11.1709 101.323 10.915C101.067 10.659 100.718 10.4961 100.345 10.4961C99.5775 10.4961 98.9725 11.1011 98.9492 11.8691C98.9492 11.8691 98.9492 11.8691 98.9492 11.8923V30.2763C98.9492 30.6486 99.0888 30.9977 99.3448 31.2537C99.6008 31.5329 99.9499 31.6726 100.322 31.6726C100.695 31.6726 101.044 31.5329 101.3 31.2537C101.556 30.9977 101.718 30.6486 101.695 30.2763V25.5058L103.301 24.4586L109.421 31.3235C109.677 31.5562 110.003 31.6958 110.352 31.6726C110.538 31.6726 110.724 31.6493 110.887 31.5562C111.05 31.4864 111.19 31.3933 111.329 31.2537C111.446 31.1141 111.562 30.9744 111.632 30.8115C111.702 30.6486 111.748 30.4625 111.748 30.2763C111.748 29.9273 111.609 29.5782 111.376 29.3222L105.698 22.9227L111.236 19.3157C111.609 19.083 111.795 18.6642 111.771 18.222Z" fill="#0091E2"/>
<path d="M88.8064 20.9666C89.2253 20.5478 89.7373 20.1987 90.2958 19.966C90.8775 19.7333 91.4826 19.5937 92.1109 19.5937C92.6694 19.5937 93.2046 19.6867 93.7166 19.8729C94.2286 20.0823 94.7172 20.3616 95.1361 20.7339C95.3921 20.9434 95.7179 21.0365 96.0437 21.0365C96.416 21.0597 96.7883 20.9201 97.0443 20.6409C97.3003 20.3849 97.4399 20.0125 97.4399 19.6402C97.4399 19.2446 97.277 18.849 96.9512 18.593C95.6248 17.4062 93.9028 16.7546 92.1109 16.8012C88.0152 16.8012 84.6875 20.1289 84.6875 24.2246C84.6875 28.3202 87.992 31.6247 92.0644 31.648C93.8562 31.648 95.5783 31.0196 96.928 29.8561C97.2072 29.6001 97.3701 29.2278 97.3701 28.8322C97.3934 28.0875 96.8116 27.4825 96.0902 27.4592C96.0669 27.4592 96.0204 27.4592 95.9971 27.4592C95.6713 27.4592 95.3688 27.5523 95.1128 27.7385C94.694 28.1108 94.2286 28.39 93.7166 28.5995C93.2046 28.7856 92.6461 28.8787 92.1109 28.8787C91.4826 28.8787 90.8775 28.7624 90.2958 28.5064C89.7373 28.2737 89.2486 27.9246 88.8064 27.5058C86.9913 25.6906 86.9913 22.7585 88.7832 20.9434C88.8064 20.9899 88.8064 20.9899 88.8064 20.9666Z" fill="#0091E2"/>
<path d="M139.254 17.7787C138.975 17.5227 138.673 17.3365 138.324 17.2202C137.928 17.0805 137.509 16.9875 137.09 16.9409C136.671 16.8944 136.252 16.8711 135.834 16.8711C134.996 16.8711 134.135 17.0107 133.344 17.3132C132.552 17.5925 131.831 18.0114 131.179 18.5233V18.2441C131.156 17.4761 130.505 16.8944 129.737 16.9176C129.015 16.9409 128.433 17.5227 128.41 18.2441V30.3216C128.433 31.0896 129.085 31.6714 129.853 31.6481C130.574 31.6248 131.156 31.043 131.179 30.3216V24.2945C131.179 23.6662 131.296 23.0611 131.552 22.4794C131.784 21.9209 132.11 21.4322 132.552 21.0133C132.971 20.5944 133.483 20.2454 134.018 20.0127C134.6 19.7799 135.205 19.6403 135.834 19.6403C136.462 19.6403 137.067 19.7567 137.649 19.9661C137.835 20.0592 138.021 20.1057 138.23 20.1057C138.417 20.1057 138.603 20.0825 138.766 19.9894C138.929 19.9196 139.068 19.8265 139.208 19.6869C139.324 19.5705 139.441 19.4076 139.51 19.2447C139.58 19.0818 139.627 18.8957 139.627 18.7095C139.65 18.3604 139.51 18.0346 139.254 17.7787Z" fill="#0091E2"/>
<path d="M126.409 21.4322C125.223 18.6862 122.523 16.8944 119.544 16.8711C115.449 16.8711 112.144 20.1756 112.121 24.2712C112.121 28.3669 115.449 31.6946 119.544 31.6946C121.313 31.6946 123.035 31.0663 124.385 29.9028C124.408 29.8795 124.431 29.8562 124.431 29.8562C124.548 29.7631 124.664 29.6468 124.734 29.5072C125.176 28.8556 125.013 27.9946 124.385 27.5524C123.85 27.2033 123.151 27.2732 122.686 27.7153C122.64 27.7619 122.5 27.8782 122.5 27.9015L122.477 27.9247C122.081 28.2505 121.639 28.5298 121.15 28.6927C120.638 28.8789 120.103 28.9719 119.544 28.9487C119.033 28.9487 118.544 28.8788 118.055 28.716C117.59 28.5531 117.148 28.3436 116.752 28.0411C116.356 27.7619 116.007 27.4128 115.728 27.0172C115.426 26.6216 115.216 26.1562 115.076 25.6907H125.548C125.921 25.6907 126.27 25.5511 126.526 25.2951C126.805 25.0392 126.945 24.6901 126.921 24.3178C126.945 23.3171 126.758 22.3397 126.409 21.4322ZM115.076 22.9215C115.216 22.4328 115.426 21.9907 115.728 21.5951C116.007 21.1995 116.356 20.8504 116.752 20.5712C117.148 20.2919 117.59 20.0592 118.055 19.8963C118.521 19.7334 119.033 19.6636 119.521 19.6636C120.01 19.6636 120.522 19.7334 120.987 19.8963C121.918 20.1988 122.733 20.8039 123.314 21.5951C123.617 21.9907 123.826 22.4561 123.989 22.9215H115.076Z" fill="#0091E2"/>
<path d="M134.532 29.6699C133.997 29.6699 133.578 30.1121 133.578 30.6473C133.578 31.1825 134.02 31.6014 134.555 31.6014C135.091 31.6014 135.51 31.1593 135.51 30.6473C135.51 30.0888 135.067 29.6699 134.532 29.6699ZM134.532 31.392C134.113 31.4152 133.764 31.0894 133.741 30.6706C133.718 30.2517 134.044 29.9026 134.462 29.8794C134.881 29.8561 135.23 30.1819 135.254 30.6008C135.254 30.624 135.254 30.624 135.254 30.6473C135.277 31.0429 134.951 31.392 134.555 31.392C134.555 31.392 134.555 31.392 134.532 31.392Z" fill="#0091E2"/>
<path d="M134.765 30.6467C134.882 30.6235 134.951 30.5304 134.951 30.414C134.951 30.3209 134.928 30.2511 134.858 30.2046C134.765 30.158 134.649 30.1348 134.532 30.1348C134.416 30.1348 134.277 30.1348 134.16 30.158V31.1121H134.37V30.7398H134.463C134.579 30.7398 134.649 30.7864 134.672 30.8794C134.695 30.9492 134.719 31.0423 134.742 31.1121H134.975C134.928 31.0423 134.905 30.9492 134.905 30.8794C134.928 30.7864 134.858 30.6933 134.765 30.6467ZM134.486 30.5769H134.37V30.2977C134.416 30.2977 134.463 30.2977 134.486 30.2977C134.626 30.2977 134.695 30.3675 134.695 30.4373C134.719 30.5304 134.602 30.6002 134.486 30.5769Z" fill="#0091E2"/>
<path d="M49.6863 13.6143C49.5467 13.4979 48.29 12.5438 45.5906 12.5438C44.8925 12.5438 44.1711 12.6136 43.473 12.73C42.961 9.16955 40.0056 7.4475 39.8893 7.35442L39.1679 6.93555L38.7025 7.6104C38.1207 8.51796 37.6785 9.54188 37.4226 10.5891C36.9339 12.6136 37.2364 14.5218 38.2603 16.1508C37.027 16.8489 35.0257 17.0118 34.6068 17.0351H1.56218C0.701163 17.0351 0.00303724 17.7332 0.00303724 18.5942C-0.0435045 21.4798 0.445183 24.3654 1.44583 27.0881C2.5861 30.0668 4.28487 32.2775 6.47233 33.6272C8.93904 35.1398 12.9649 36.0008 17.5027 36.0008C19.5505 36.0008 21.5984 35.8147 23.6229 35.4423C26.4387 34.9304 29.1381 33.953 31.6281 32.5335C33.676 31.3467 35.5144 29.8341 37.0735 28.0655C39.7031 25.1101 41.2622 21.8056 42.4025 18.8735C42.5654 18.8735 42.705 18.8735 42.8679 18.8735C45.7303 18.8735 47.4988 17.7332 48.4762 16.7558C49.1278 16.1508 49.6165 15.4061 49.9655 14.5684L50.175 13.9633L49.6863 13.6143Z" fill="#0091E2"/>
<path d="M4.63389 16.0793H9.05535C9.26478 16.0793 9.45095 15.9164 9.45095 15.6837V11.7276C9.45095 11.5182 9.28806 11.332 9.05535 11.332H4.63389C4.42445 11.332 4.23828 11.4949 4.23828 11.7276V15.6837C4.26155 15.9164 4.42445 16.0793 4.63389 16.0793Z" fill="#0091E2"/>
<path d="M10.7315 16.0793H15.153C15.3624 16.0793 15.5486 15.9164 15.5486 15.6837V11.7276C15.5486 11.5182 15.3857 11.332 15.153 11.332H10.7315C10.5221 11.332 10.3359 11.4949 10.3359 11.7276V15.6837C10.3592 15.9164 10.5221 16.0793 10.7315 16.0793Z" fill="#0091E2"/>
<path d="M16.9425 16.0793H21.3639C21.5734 16.0793 21.7595 15.9164 21.7595 15.6837V11.7276C21.7595 11.5182 21.5966 11.332 21.3639 11.332H16.9425C16.733 11.332 16.5469 11.4949 16.5469 11.7276V15.6837C16.5469 15.9164 16.7098 16.0793 16.9425 16.0793Z" fill="#0091E2"/>
<path d="M23.0636 16.0793H27.485C27.6945 16.0793 27.8806 15.9164 27.8806 15.6837V11.7276C27.8806 11.5182 27.7177 11.332 27.485 11.332H23.0636C22.8541 11.332 22.668 11.4949 22.668 11.7276V15.6837C22.668 15.9164 22.8541 16.0793 23.0636 16.0793Z" fill="#0091E2"/>
<path d="M10.7315 10.425H15.153C15.3624 10.425 15.5486 10.2388 15.5486 10.0294V6.07334C15.5486 5.8639 15.3857 5.67773 15.153 5.67773H10.7315C10.5221 5.67773 10.3359 5.84063 10.3359 6.07334V10.0294C10.3592 10.2388 10.5221 10.425 10.7315 10.425Z" fill="#0091E2"/>
<path d="M16.9425 10.425H21.3639C21.5734 10.425 21.7595 10.2388 21.7595 10.0294V6.07334C21.7595 5.8639 21.5966 5.67773 21.3639 5.67773H16.9425C16.733 5.67773 16.5469 5.84063 16.5469 6.07334V10.0294C16.5469 10.2388 16.7098 10.425 16.9425 10.425Z" fill="#0091E2"/>
<path d="M23.0636 10.425H27.485C27.6945 10.425 27.8806 10.2388 27.8806 10.0294V6.07334C27.8806 5.8639 27.6945 5.67773 27.485 5.67773H23.0636C22.8541 5.67773 22.668 5.84063 22.668 6.07334V10.0294C22.668 10.2388 22.8541 10.425 23.0636 10.425Z" fill="#0091E2"/>
<path d="M23.0636 4.74725H27.485C27.6945 4.74725 27.8806 4.58436 27.8806 4.35165V0.395607C27.8806 0.18617 27.6945 0 27.485 0H23.0636C22.8541 0 22.668 0.162899 22.668 0.395607V4.35165C22.668 4.56109 22.8541 4.74725 23.0636 4.74725Z" fill="#0091E2"/>
<path d="M29.2315 16.0793H33.653C33.8624 16.0793 34.0486 15.9164 34.0486 15.6837V11.7276C34.0486 11.5182 33.8857 11.332 33.653 11.332H29.2315C29.0221 11.332 28.8359 11.4949 28.8359 11.7276V15.6837C28.8592 15.9164 29.0221 16.0793 29.2315 16.0793Z" fill="#0091E2"/>
</svg>
