<svg width="148" height="42" viewBox="0 0 148 42" fill="none" xmlns="http://www.w3.org/2000/svg">
<g clip-path="url(#clip0_2968_2519)">
<path opacity="0.54" d="M44.4248 31.9827H41.6562V10.4252H54.2297V13.0737H44.4251V20.1513H53.2688V22.7387H44.4251V31.9827L44.4248 31.9827ZM59.4353 13.5276C58.7754 14.1911 57.739 14.2953 56.9604 13.7766C56.1817 13.2579 55.8778 12.2607 56.2346 11.3954C56.5914 10.53 57.5093 10.0374 58.4269 10.2191C59.3444 10.4008 60.0059 11.2061 60.0065 12.1422C60.0154 12.6636 59.8078 13.1653 59.4331 13.5276H59.4353ZM59.4353 31.9827H56.6668V17.23H59.4353V31.9827ZM65.5105 31.9827H62.742V17.23H65.3883V19.6386H65.5082C65.8279 18.7898 66.4418 18.0844 67.2379 17.651C67.9983 17.1626 68.8776 16.8917 69.7808 16.8678C70.4899 16.8476 71.1957 16.9708 71.856 17.23L70.8032 19.8173C70.3283 19.6592 69.8294 19.5875 69.3296 19.6057C68.3144 19.6108 67.3482 20.0427 66.6669 20.7958C65.8945 21.5893 65.5082 22.6282 65.5082 23.9124L65.5105 31.9827ZM79.4424 32.4531C77.216 32.4531 75.4063 31.7106 74.0135 30.2258C72.6207 28.7411 71.9234 26.8677 71.9218 24.6065C71.8809 22.5706 72.6057 20.5936 73.9524 19.0672C75.2422 17.5479 77.1503 16.6951 79.1416 16.7476C81.3272 16.7476 83.0773 17.4604 84.3918 18.8858C85.7064 20.3112 86.3629 22.218 86.361 24.6062L86.3304 25.119H74.6853C74.7652 26.604 75.2618 27.7801 76.1753 28.6472C77.0295 29.4864 78.1817 29.9518 79.3783 29.941C81.3634 29.941 82.7069 29.0978 83.4089 27.4124L85.8766 28.4355C85.3765 29.602 84.5517 30.5998 83.5006 31.3099C82.3961 32.072 81.0431 32.453 79.4418 32.453L79.4424 32.4531ZM83.4142 22.8093C83.3547 21.9656 82.9685 21.1628 82.2556 20.4006C81.5427 19.6385 80.4827 19.2654 79.0758 19.281C78.0999 19.2639 77.152 19.6072 76.4131 20.2454C75.6389 20.9244 75.0972 21.8293 74.8643 22.8328L83.4142 22.8093ZM96.3637 32.4531C95.3162 32.4739 94.2803 32.2313 93.3508 31.7475C92.5345 31.3354 91.8438 30.7115 91.3508 29.941H91.2309V31.9827H88.5823V10.4252H91.3508V17.23L91.231 19.2764H91.3508C91.8438 18.5058 92.5345 17.8819 93.3508 17.4699C94.2789 16.9805 95.3149 16.7322 96.3637 16.7478C98.2689 16.7478 99.914 17.5005 101.299 19.0059C102.684 20.5113 103.376 22.3781 103.374 24.6064C103.373 26.8346 102.683 28.7015 101.299 30.2068C99.9156 31.7122 98.2705 32.461 96.3637 32.4531ZM95.9124 29.9245C97.1736 29.9345 98.3785 29.4027 99.2214 28.4638C100.144 27.49 100.606 26.2003 100.606 24.5945C100.606 22.9888 100.144 21.6991 99.2214 20.7252C98.3688 19.7976 97.1678 19.2686 95.9084 19.2659C94.649 19.2632 93.4458 19.7871 92.5892 20.711C91.6774 21.6739 91.2214 22.9683 91.2214 24.5945C91.2214 26.2206 91.682 27.519 92.6033 28.4896C93.4515 29.425 94.6597 29.9516 95.9218 29.9362L95.9124 29.9245ZM110.422 32.4531C108.856 32.4531 107.547 32.0015 106.498 31.0983C105.448 30.1951 104.921 29.001 104.918 27.5159C104.918 25.9102 105.54 24.651 106.784 23.7384C108.028 22.8257 109.562 22.3694 111.386 22.3694C113.011 22.3694 114.343 22.6705 115.381 23.2726V22.8516C115.421 21.86 115.012 20.9034 114.267 20.2478C113.509 19.5944 112.534 19.2494 111.534 19.281C110.769 19.2715 110.015 19.4687 109.353 19.8526C108.733 20.1965 108.257 20.7527 108.014 21.4192L105.487 20.3348C105.829 19.4488 106.501 18.6271 107.507 17.8697C108.513 17.1124 109.833 16.736 111.479 16.7407C113.359 16.7407 114.925 17.2896 116.179 18.3872C117.432 19.4848 118.054 21.0404 118.045 23.0539V31.9827H115.389V29.9363H115.269C114.165 31.6142 112.55 32.45 110.426 32.45L110.422 32.4531ZM110.874 29.9245C112.037 29.9204 113.154 29.4661 113.99 28.6567C114.881 27.9047 115.397 26.7985 115.4 25.6318C114.617 24.9889 113.442 24.6674 111.875 24.6674C110.531 24.6674 109.518 24.9583 108.836 25.54C108.2 26.0294 107.823 26.7835 107.814 27.5864C107.801 28.2851 108.158 28.9387 108.754 29.3035C109.38 29.7248 110.12 29.9454 110.874 29.9362V29.9244L110.874 29.9245ZM126.185 32.4531C124.54 32.4531 123.182 32.0517 122.11 31.2488C121.067 30.4781 120.255 29.4371 119.76 28.238L122.227 27.2148C123.011 29.0621 124.343 29.9857 126.223 29.9857C126.97 30.0163 127.708 29.8168 128.338 29.4141C128.857 29.0913 129.171 28.5207 129.165 27.9087C129.165 26.9459 128.493 26.2936 127.146 25.9517L124.168 25.2296C123.188 24.9702 122.275 24.5033 121.491 23.8607C120.656 23.2092 120.186 22.1955 120.227 21.1369C120.227 19.8323 120.803 18.7737 121.956 17.9614C123.163 17.1327 124.599 16.7063 126.062 16.743C127.283 16.7235 128.487 17.0313 129.55 17.6345C130.553 18.2043 131.328 19.1033 131.745 20.1795L129.341 21.1627C128.8 19.8582 127.677 19.2057 125.97 19.2057C125.245 19.1815 124.526 19.3591 123.895 19.7185C123.378 19.9866 123.054 20.521 123.054 21.1039C123.054 21.9475 123.706 22.5199 125.009 22.821L127.926 23.5149C129.309 23.8285 130.332 24.3773 130.995 25.1614C131.637 25.8938 131.99 26.8356 131.987 27.8099C132 29.1089 131.397 30.3372 130.363 31.1217C129.28 32.0093 127.887 32.4531 126.182 32.4531L126.185 32.4531ZM141.076 32.4531C138.849 32.4531 137.04 31.7106 135.647 30.2258C134.254 28.7411 133.557 26.8636 133.555 24.5946C133.514 22.5586 134.239 20.5816 135.586 19.0552C136.88 17.5397 138.79 16.6916 140.782 16.7478C142.975 16.7478 144.726 17.4605 146.032 18.8859C147.339 20.3113 147.995 22.2181 148.002 24.6063L147.971 25.1191H136.316C136.396 26.6041 136.893 27.7802 137.806 28.6473C138.663 29.4865 139.818 29.9503 141.017 29.9363C143.002 29.9363 144.345 29.0931 145.047 27.4077L147.515 28.4309C147.015 29.5974 146.19 30.5952 145.139 31.3052C144.034 32.0704 142.68 32.453 141.075 32.453L141.076 32.4531ZM145.048 22.8093C144.988 21.9656 144.602 21.1628 143.889 20.4006C143.176 19.6385 142.118 19.2654 140.714 19.281C139.738 19.2641 138.79 19.6075 138.051 20.2454C137.277 20.9244 136.735 21.8293 136.502 22.8328L145.048 22.8093Z" fill="black"/>
<path d="M0.261719 33.6376L5.35248 0.792315C5.41471 0.389497 5.72541 0.0719519 6.12403 0.00367004C6.52266 -0.0646118 6.91989 0.131834 7.11049 0.491347L12.3752 10.3923L14.4737 6.36365C14.6362 6.05215 14.9566 5.8571 15.3057 5.8571C15.6549 5.8571 15.9752 6.05215 16.1378 6.36365L30.3454 33.6376L0.261719 33.6376Z" fill="#FFA000"/>
<path d="M17.849 20.8442L12.3728 10.3887L0.261719 33.6387L17.849 20.8442Z" fill="#F57C00"/>
<path d="M30.3455 33.6374L26.4464 9.30916C26.3875 8.95979 26.1402 8.67279 25.8053 8.56461C25.4705 8.45643 25.104 8.54647 24.8553 8.79695L0.261719 33.6371L13.87 41.3318C14.7245 41.8129 15.7652 41.8129 16.6198 41.3318L30.3455 33.6371V33.6374Z" fill="#FFCA28"/>
<path d="M26.4472 9.3088C26.3883 8.95944 26.141 8.67244 25.8061 8.56426C25.4713 8.45608 25.1048 8.54612 24.8561 8.79659L19.9748 13.7308L16.1364 6.36295C15.9739 6.05145 15.6535 5.8564 15.3044 5.8564C14.9553 5.8564 14.6349 6.05145 14.4724 6.36295L12.3739 10.3916L7.10891 0.490808C6.91799 0.131199 6.52028 -0.0649287 6.12119 0.00386221C5.72209 0.0726531 5.41243 0.390994 5.35089 0.794131L0.262503 33.6371H0.246094L0.262503 33.656L0.39646 33.7224L24.849 9.03864C25.0975 8.78679 25.4649 8.69627 25.8007 8.80413C26.1365 8.912 26.3842 9.20011 26.4425 9.55049L30.3087 33.6607L30.3464 33.637L26.4472 9.3088ZM0.307156 33.5921L5.35326 1.0264C5.41473 0.623267 5.72512 0.304926 6.12387 0.236135C6.52262 0.167344 6.92036 0.363408 7.11159 0.723081L12.376 10.624L14.4745 6.59538C14.637 6.28388 14.9574 6.08883 15.3065 6.08883C15.6556 6.08883 15.976 6.28388 16.1386 6.59538L19.899 13.8067L0.307156 33.5921Z" fill="white" fill-opacity="0.2"/>
<path opacity="0.2" d="M16.6198 41.1003C15.7653 41.5814 14.7245 41.5814 13.87 41.1003L0.294632 33.427L0.261719 33.6379L13.87 41.3303C14.7245 41.8114 15.7652 41.8114 16.6198 41.3303L30.3455 33.6379L30.3103 33.4199L16.6198 41.1003Z" fill="#A52714"/>
<path d="M26.4095 9.31451C26.3508 8.96524 26.1044 8.67815 25.7707 8.5706C25.437 8.46305 25.0718 8.55246 24.8239 8.80287L19.9595 13.7346L16.1348 6.37015C15.9728 6.05878 15.6536 5.8638 15.3057 5.8638C14.9579 5.8638 14.6386 6.05878 14.4767 6.37015L12.3852 10.3971L7.13892 0.500364C6.94864 0.140914 6.55235 -0.0551819 6.15499 0.0136409C5.75763 0.0824636 5.44831 0.40055 5.38706 0.803591L0.316406 33.6321L13.8771 41.3211C14.7286 41.802 15.7657 41.802 16.6173 41.3211L30.2951 33.6321L26.4095 9.31444V9.31451Z" fill="url(#paint0_linear_2968_2519)"/>
</g>
<defs>
<linearGradient id="paint0_linear_2968_2519" x1="-104.309" y1="709.424" x2="3650.15" y2="2673.57" gradientUnits="userSpaceOnUse">
<stop stop-color="white" stop-opacity="0.1"/>
<stop offset="0.14" stop-color="white" stop-opacity="0.08"/>
<stop offset="0.61" stop-color="white" stop-opacity="0.02"/>
<stop offset="1" stop-color="white" stop-opacity="0"/>
</linearGradient>
<clipPath id="clip0_2968_2519">
<rect width="148" height="42" fill="white"/>
</clipPath>
</defs>
</svg>
