<svg width="148" height="42" viewBox="0 0 148 42" fill="none" xmlns="http://www.w3.org/2000/svg">
<g clip-path="url(#clip0_2968_2511)">
<path d="M21.1623 0.631085L33.8455 0.617188L12.5665 21.7639L7.02074 27.247L0.710938 20.9656L21.1623 0.631085ZM21.0442 19.5126C21.2089 19.2964 21.5117 19.4029 21.7415 19.3751L33.8347 19.3782L22.8131 30.326L16.4707 24.0584L21.0442 19.5126Z" fill="#44D1FD"/>
<path opacity="0.54" d="M51.6733 9.45117L65.4996 9.4558L65.498 12.1626C61.8811 12.1626 58.2626 12.1518 54.6442 12.1673C54.3677 12.2584 54.4982 12.6027 54.4671 12.8143L54.478 20.0948C54.5696 20.3681 54.9175 20.2368 55.1318 20.2708L64.4125 20.2662V22.9699C61.527 22.9684 58.6431 22.9684 55.7577 22.9699C55.329 22.9684 54.8957 22.9421 54.4718 23.0147L54.4392 33.2923C53.5089 33.2553 52.5802 33.2893 51.65 33.2692L51.6484 9.88816L51.6733 9.45117ZM68.8525 9.4558H71.6913L71.6929 25.632L71.6618 33.2491C70.7378 33.2321 69.8138 33.2275 68.8913 33.2522C68.8199 32.8754 68.8494 32.4925 68.8494 32.1126L68.8525 9.4558ZM96.6386 11.4616L99.4868 11.4632L99.4914 16.2499C100.884 16.2839 102.285 16.1882 103.675 16.2978C103.636 17.1563 103.669 18.0148 103.653 18.8734C102.268 18.8765 100.884 18.8873 99.5007 18.8672L99.4899 28.4006C99.5194 29.2838 99.7088 30.3508 100.572 30.8063C101.558 31.3637 102.77 31.1012 103.703 30.5639V33.3371C102.675 33.8004 101.503 33.856 100.398 33.7062C98.8423 33.4699 97.3514 32.4153 96.8808 30.882C96.5687 30.042 96.6401 29.1356 96.6339 28.2585L96.6277 18.9737L96.5578 18.895C95.5748 18.8425 94.5886 18.9027 93.604 18.8687C93.6102 17.9948 93.5699 17.1208 93.6258 16.2484C94.6259 16.2314 95.6307 16.2932 96.6293 16.2175L96.6386 11.4616ZM108.671 11.4523C109.618 11.4848 110.566 11.4415 111.512 11.474L111.577 11.545C111.613 13.1169 111.529 14.6935 111.614 16.2623C112.964 16.2376 114.313 16.2576 115.661 16.2499L115.67 18.8533C114.313 18.9043 112.951 18.8734 111.594 18.8657L111.578 28.5643C111.577 29.4089 111.822 30.4079 112.644 30.8233C113.652 31.3699 114.874 31.0889 115.81 30.5299L115.807 33.3186C114.809 33.7664 113.683 33.8529 112.605 33.7293C111.206 33.544 109.836 32.7581 109.179 31.4842C108.862 30.8171 108.685 30.079 108.656 29.3425V18.8765C107.673 18.8749 106.691 18.8796 105.71 18.8765L105.716 16.2407C106.683 16.2669 107.651 16.2329 108.618 16.2654C108.721 14.6657 108.611 13.0551 108.671 11.4523ZM122.496 16.3395C124.462 15.5288 126.731 15.5134 128.739 16.1928C131.039 16.9818 132.819 18.9768 133.471 21.2915C133.898 22.5746 133.881 23.9381 133.82 25.2722L120.301 25.2861C120.413 26.7175 120.843 28.1767 121.844 29.2514C123.265 30.899 125.711 31.5104 127.776 30.8635C129.225 30.4388 130.356 29.3301 131.099 28.0562C131.923 28.4222 132.722 28.8391 133.542 29.2143C132.421 31.339 130.382 33.0268 127.986 33.4838C126.018 33.8498 123.866 33.859 122.061 32.8924C119.719 31.7359 118.107 29.3811 117.647 26.8487C117.314 24.9032 117.418 22.8449 118.154 20.9981C118.926 18.9707 120.486 17.215 122.496 16.3395ZM123.566 18.7807C121.912 19.5404 120.847 21.2282 120.514 22.9699L130.882 22.9375C130.717 21.7995 130.311 20.6429 129.472 19.8199C128.003 18.2542 125.492 17.9485 123.566 18.7807ZM139.975 19.0046C141.057 16.3904 144.382 15.0177 147.011 16.1125V19.1637C145.907 18.7313 144.669 18.4642 143.503 18.8054C141.91 19.2764 140.731 20.6893 140.279 22.2442C139.969 23.2942 140.085 24.3905 140.097 25.4668C139.976 26.8596 140.158 28.2539 140.066 29.6467C140.141 30.8496 140.001 32.0524 140.104 33.2568C139.138 33.3032 138.172 33.2537 137.207 33.2862C137.151 29.656 137.2 26.0242 137.184 22.3924L137.206 16.2793C138.111 16.304 139.018 16.2762 139.925 16.2978C140.007 17.1996 139.824 18.106 139.975 19.0046ZM75.7633 16.2453C76.7261 16.2854 77.6968 16.1882 78.6549 16.2962L78.641 26.4164C78.6317 27.6532 78.8087 29.0043 79.669 29.9648C80.7794 31.1877 82.6601 31.4116 84.1789 30.9283C86.2087 30.2057 87.625 28.0686 87.5427 25.9315L87.5738 16.2453L90.4732 16.2515L90.4561 33.2445C89.5367 33.229 88.6189 33.2445 87.7011 33.2337L87.6902 30.8156C87.0954 31.5583 86.4711 32.3103 85.6186 32.7782C83.873 33.8729 81.6584 34.0181 79.7032 33.4576C78.4422 33.0793 77.3442 32.2007 76.7122 31.0518C75.9621 29.7887 75.7726 28.2956 75.7291 26.8565L75.7633 16.2453Z" fill="black"/>
<path d="M10.1484 30.337L16.4707 24.0586L22.8131 30.3262L22.8395 30.354L16.4722 36.6262L10.1484 30.337Z" fill="#1FBCFD"/>
<path d="M16.4727 36.6257L22.8399 30.3535L33.8398 41.3013C29.6964 41.3106 25.5545 41.2982 21.4127 41.3075C21.1767 41.36 21.0307 41.1454 20.88 41.0126L16.4727 36.6257Z" fill="#08589C"/>
</g>
<defs>
<clipPath id="clip0_2968_2511">
<rect width="148" height="42" fill="white"/>
</clipPath>
</defs>
</svg>
