<svg width="69" height="69" viewBox="0 0 69 69" fill="none" xmlns="http://www.w3.org/2000/svg">
<path d="M48.8292 17.983C48.0981 16.3352 50.9556 15.6822 49.7571 11.5628C48.4283 7.0006 46.049 3.63697 44.76 2.05181C44.5479 1.79088 44.2808 1.58 43.9778 1.43423C43.6748 1.28847 43.3433 1.21142 43.0071 1.20859H31.3488C31.2614 0.909265 31.0924 0.640187 30.8607 0.431499C30.6291 0.222811 30.3438 0.0827588 30.0371 0.0270329C29.7303 -0.0286931 29.414 0.00210916 29.1237 0.115989C28.8335 0.229868 28.5806 0.422325 28.3936 0.671798C28.2065 0.92127 28.0926 1.2179 28.0646 1.52846C28.0367 1.83901 28.0957 2.15123 28.2352 2.43011C28.3746 2.709 28.589 2.94354 28.8543 3.10747C29.1195 3.27139 29.4252 3.35821 29.737 3.35821C30.0588 3.35883 30.3739 3.26602 30.644 3.09106C30.9848 2.87169 31.2351 2.53673 31.3488 2.1477H41.9883V3.09106H38.4422C38.0016 3.42495 37.5879 3.79299 37.205 4.19177C36.8038 4.60358 36.3238 4.93039 35.7936 5.15271C35.2634 5.37503 34.6939 5.48832 34.119 5.4858H28.446L24.006 2.70443C23.9365 2.66085 23.8561 2.63767 23.7741 2.63755H20.1568C20.0504 2.24466 19.8049 1.9038 19.4659 1.67836C19.127 1.45292 18.7177 1.35824 18.3142 1.41193C17.9107 1.46563 17.5405 1.66404 17.2723 1.97027C17.0041 2.27649 16.8563 2.6697 16.8563 3.07675C16.8563 3.48381 17.0041 3.87701 17.2723 4.18324C17.5405 4.48947 17.9107 4.68788 18.3142 4.74157C18.7177 4.79526 19.127 4.70059 19.4659 4.47515C19.8049 4.24971 20.0504 3.90885 20.1568 3.51596H23.6473L27.3109 5.80941L22.2643 7.56855C22.0344 7.23347 21.6907 6.9932 21.297 6.89233C20.9034 6.79146 20.4865 6.83684 20.1238 7.02005C19.7611 7.20325 19.4771 7.51185 19.3247 7.88854C19.1722 8.26524 19.1616 8.68445 19.2949 9.06837C19.4281 9.45228 19.6961 9.77481 20.0491 9.9761C20.4021 10.1774 20.8162 10.2438 21.2144 10.1629C21.6127 10.082 21.968 9.85942 22.2146 9.53638C22.4611 9.21335 22.5821 8.81183 22.555 8.40636C22.555 8.40365 22.555 8.40095 22.555 8.39824L28.3931 6.36189H40.3162V7.30525H34.9954C34.8704 7.54032 34.7501 7.78042 34.6343 8.02553L34.6189 8.05762C34.4084 8.49981 34.0768 8.87326 33.6627 9.13466C33.2485 9.39607 32.7688 9.53471 32.279 9.53453H28.7321C28.6257 9.14174 28.3802 8.80098 28.0414 8.57561C27.7025 8.35025 27.2933 8.25561 26.8899 8.3093C26.4866 8.363 26.1164 8.56136 25.8483 8.86752C25.5802 9.17367 25.4324 9.56678 25.4324 9.97373C25.4324 10.3807 25.5802 10.7738 25.8483 11.0799C26.1164 11.3861 26.4866 11.5845 26.8899 11.6382C27.2933 11.6919 27.7025 11.5972 28.0414 11.3718C28.3802 11.1465 28.6257 10.8057 28.7321 10.4129H42.4909V11.3544H33.3809C33.2417 11.8164 32.9572 12.2212 32.5697 12.5086C32.1822 12.7961 31.7122 12.9508 31.2297 12.95H17.1787C17.0722 12.5572 16.8267 12.2164 16.4879 11.991C16.149 11.7657 15.7399 11.671 15.3365 11.7247C14.9331 11.7784 14.5629 11.9768 14.2948 12.283C14.0267 12.5891 13.8789 12.9822 13.8789 13.3892C13.8789 13.7961 14.0267 14.1892 14.2948 14.4954C14.5629 14.8015 14.9331 14.9999 15.3365 15.0536C15.7399 15.1073 16.149 15.0126 16.4879 14.7873C16.8267 14.5619 17.0722 14.2212 17.1787 13.8284H38.8926V14.7694H32.2605C31.9833 15.6289 31.7246 16.5011 31.512 17.4305L31.5081 17.4468C31.4028 17.9068 31.1444 18.3174 30.7753 18.6115C30.4063 18.9056 29.9483 19.0657 29.4764 19.0656H24.257L22.8458 17.9583C22.945 17.7254 22.9898 17.473 22.9769 17.2202C22.9581 16.846 22.8148 16.4889 22.5697 16.2055C22.3246 15.9221 21.9919 15.7288 21.6243 15.6563C21.2568 15.5837 20.8755 15.6362 20.5412 15.8052C20.2068 15.9742 19.9386 16.2502 19.7791 16.5891C19.6196 16.9281 19.5779 17.3107 19.6608 17.6761C19.7437 18.0414 19.9464 18.3686 20.2366 18.6056C20.5268 18.8425 20.8878 18.9757 21.2624 18.9839C21.6369 18.992 22.0035 18.8748 22.3037 18.6507L23.834 19.8516C23.9112 19.9122 24.0065 19.9453 24.1046 19.9455H25.0298L21.8684 22.6484H18.7178C18.6114 22.2556 18.3659 21.9149 18.027 21.6895C17.6882 21.4641 17.279 21.3695 16.8756 21.4232C16.4722 21.4769 16.1021 21.6753 15.834 21.9814C15.5659 22.2876 15.4181 22.6807 15.4181 23.0876C15.4181 23.4946 15.5659 23.8877 15.834 24.1938C16.1021 24.5 16.4722 24.6984 16.8756 24.752C17.279 24.8057 17.6882 24.7111 18.027 24.4857C18.3659 24.2604 18.6114 23.9196 18.7178 23.5268H22.0304C22.1351 23.527 22.2363 23.4895 22.3157 23.4213L26.3819 19.9444H42.0915V20.8858H30.8021C30.6946 21.4769 30.5953 22.07 30.506 22.6616C30.419 23.2349 30.1292 23.758 29.6893 24.1357C29.2493 24.5134 28.6884 24.7208 28.1085 24.7199H21.4972C21.4391 24.72 21.3816 24.7316 21.328 24.754C21.2744 24.7765 21.2257 24.8093 21.1849 24.8506L18.5257 27.54C18.2583 27.3876 17.954 27.3123 17.6465 27.3223C16.8021 27.3482 16.0513 28.0956 16.0207 28.9388C16.0126 29.1688 16.0518 29.398 16.1359 29.6122C16.22 29.8265 16.3471 30.0212 16.5095 30.1843C16.6719 30.3473 16.866 30.4754 17.0799 30.5604C17.2937 30.6454 17.5228 30.6857 17.7528 30.6786C18.6034 30.6515 19.3538 29.8976 19.3766 29.0463C19.3859 28.7344 19.3073 28.4263 19.1497 28.157L21.6801 25.5976H35.8615V26.5398H30.0803C30.0436 27.1584 30.025 27.7615 30.0277 28.3465C30.0287 28.6568 29.9685 28.9643 29.8504 29.2514C29.7323 29.5384 29.5588 29.7993 29.3397 30.0191C29.1206 30.2389 28.8603 30.4133 28.5736 30.5324C28.287 30.6514 27.9797 30.7126 27.6693 30.7126H25.8661L25.2614 30.0167C25.4886 29.6784 25.5851 29.2692 25.5331 28.865C25.4812 28.4609 25.2842 28.0894 24.9788 27.8197C24.6734 27.5499 24.2805 27.4002 23.873 27.3985C23.4656 27.3968 23.0714 27.5431 22.7637 27.8102C22.456 28.0773 22.2559 28.4471 22.2004 28.8508C22.145 29.2545 22.2381 29.6645 22.4623 30.0047C22.6866 30.3449 23.0268 30.5921 23.4196 30.7002C23.8124 30.8084 24.2312 30.7702 24.598 30.5928L25.3326 31.441C25.3738 31.4886 25.4247 31.5267 25.4819 31.5528C25.5392 31.579 25.6014 31.5925 25.6643 31.5926H39.108V32.5336H30.552L30.5555 32.546C30.5961 32.6854 30.6038 32.8324 30.5779 32.9753C30.5519 33.1182 30.4931 33.2531 30.4061 33.3693C30.319 33.4856 30.2061 33.58 30.0763 33.6451C29.9465 33.7102 29.8033 33.7443 29.6581 33.7445H20.0312C19.9728 33.7446 19.915 33.7564 19.8612 33.779C19.8074 33.8016 19.7586 33.8347 19.7176 33.8764L17.9167 35.7124C17.6473 35.5613 17.3414 35.4874 17.0327 35.4989C16.7239 35.5105 16.4244 35.607 16.167 35.7778C15.9096 35.9487 15.7043 36.1873 15.5738 36.4673C15.4433 36.7473 15.3926 37.0579 15.4273 37.3649C15.4759 37.7912 15.6859 38.1827 16.0141 38.459C16.3424 38.7354 16.764 38.8756 17.1923 38.8508C17.6207 38.8261 18.0234 38.6383 18.3176 38.326C18.6119 38.0137 18.7754 37.6006 18.7746 37.1715C18.7751 36.8723 18.695 36.5785 18.5427 36.321L20.2144 34.616H37.6264V35.5574H31.8564C31.9943 35.7894 32.1397 36.0176 32.2926 36.2421C32.7843 36.9628 32.2736 37.9394 31.4014 37.9394H25.9581C25.8517 37.5466 25.6062 37.2058 25.2673 36.9805C24.9285 36.7551 24.5193 36.6605 24.1159 36.7142C23.7125 36.7678 23.3424 36.9662 23.0743 37.2724C22.8062 37.5785 22.6584 37.9716 22.6584 38.3786C22.6584 38.7855 22.8062 39.1786 23.0743 39.4848C23.3424 39.791 23.7125 39.9893 24.1159 40.043C24.5193 40.0967 24.9285 40.0021 25.2673 39.7767C25.6062 39.5513 25.8517 39.2106 25.9581 38.8178H34.5953C34.6073 38.8282 34.6193 38.8391 34.6316 38.8491H43.4107V39.7901H35.8796C36.4389 40.1576 37.0236 40.485 37.6291 40.7699C38.1596 41.0204 37.9856 41.8137 37.3971 41.8137H21.365C21.2586 41.421 21.0131 41.0802 20.6743 40.8548C20.3354 40.6295 19.9262 40.5348 19.5228 40.5885C19.1194 40.6422 18.7493 40.8406 18.4812 41.1467C18.2131 41.4529 18.0653 41.846 18.0653 42.2529C18.0653 42.6599 18.2131 43.053 18.4812 43.3592C18.7493 43.6653 19.1194 43.8637 19.5228 43.9174C19.9262 43.9711 20.3354 43.8764 20.6743 43.6511C21.0131 43.4257 21.2586 43.0849 21.365 42.6922H46.4148C48.1673 42.6922 49.6682 42.1377 50.4318 40.3542C51.1219 38.7432 50.182 37.6479 50.1055 36.5557C50.0289 35.4634 51.4679 35.2322 51.4296 34.2924C51.3914 33.3525 50.6042 33.0068 50.6042 33.0068C50.6042 33.0068 51.6593 32.2011 51.8893 31.5493C52.1194 30.8974 51.2758 29.9378 51.1992 29.2086C51.1227 28.4795 51.4892 28.0101 52.5226 27.77C54.0498 27.4128 55.0357 25.8899 53.0121 23.7603C51.1872 21.8446 49.5692 19.6498 48.8292 17.983ZM30.4746 1.67717C30.4743 1.87276 30.3965 2.06025 30.2583 2.19859C30.12 2.33693 29.9326 2.41483 29.737 2.41524C29.6126 2.41542 29.4902 2.38417 29.3812 2.3244C29.2721 2.26463 29.1799 2.17827 29.1132 2.07335C29.0464 1.96842 29.0073 1.84833 28.9993 1.72422C28.9914 1.60011 29.015 1.47601 29.0678 1.36344C29.1207 1.25088 29.2011 1.15349 29.3017 1.08033C29.4023 1.00717 29.5197 0.960613 29.6431 0.944971C29.7664 0.92933 29.8918 0.945116 30.0074 0.990865C30.123 1.03661 30.2253 1.11084 30.3045 1.20665C30.4148 1.33862 30.475 1.50521 30.4746 1.67717ZM19.2738 3.07714C19.274 3.25279 19.2116 3.42276 19.0978 3.55658C18.9841 3.69041 18.8263 3.77932 18.653 3.80737C18.4796 3.83543 18.3018 3.8008 18.1517 3.70968C18.0015 3.61857 17.8887 3.47693 17.8335 3.31018C17.7783 3.14343 17.7843 2.96247 17.8505 2.79976C17.9167 2.63704 18.0386 2.50322 18.1945 2.42229C18.3504 2.34136 18.53 2.31861 18.7012 2.35813C18.8723 2.39765 19.0238 2.49685 19.1284 2.63793C19.2231 2.76478 19.2741 2.91887 19.2738 3.07714ZM20.8786 9.255C20.7328 9.25492 20.5902 9.21159 20.4689 9.13049C20.3477 9.04939 20.2532 8.93415 20.1974 8.79935C20.1416 8.66455 20.1271 8.51624 20.1556 8.37317C20.1841 8.2301 20.2544 8.09869 20.3576 7.99557C20.4607 7.89244 20.5922 7.82222 20.7353 7.79379C20.8783 7.76536 21.0267 7.77999 21.1614 7.83583C21.2962 7.89168 21.4114 7.98623 21.4924 8.10753C21.5735 8.22883 21.6167 8.37144 21.6167 8.51732C21.6166 8.59176 21.6054 8.66577 21.5835 8.73692C21.5362 8.88691 21.4424 9.01796 21.3157 9.1111C21.189 9.20424 21.0359 9.25464 20.8786 9.255ZM27.8495 9.97296C27.8499 10.1313 27.7987 10.2855 27.7037 10.4122C27.5994 10.552 27.4486 10.6502 27.2785 10.6891C27.1084 10.728 26.93 10.705 26.7753 10.6243C26.6205 10.5436 26.4996 10.4105 26.434 10.2487C26.3685 10.087 26.3627 9.90722 26.4177 9.74159C26.4727 9.57596 26.5848 9.43531 26.734 9.34483C26.8832 9.25435 27.0598 9.21995 27.2321 9.24778C27.4043 9.27562 27.5611 9.36388 27.6742 9.49676C27.7873 9.62964 27.8495 9.79845 27.8495 9.97296ZM16.296 13.3896C16.2956 13.5851 16.2177 13.7726 16.0794 13.9109C15.941 14.0491 15.7535 14.1269 15.5579 14.1272C15.4123 14.127 15.2699 14.0836 15.1489 14.0025C15.0279 13.9215 14.9336 13.8063 14.878 13.6717C14.8224 13.5371 14.8079 13.389 14.8364 13.2461C14.8649 13.1033 14.9351 12.9721 15.0382 12.8691C15.1412 12.7661 15.2724 12.696 15.4153 12.6676C15.5581 12.6392 15.7062 12.6537 15.8408 12.7094C15.9754 12.7651 16.0905 12.8594 16.1715 12.9805C16.2525 13.1015 16.2958 13.2439 16.296 13.3896ZM21.4945 18.0147C21.3457 18.0559 21.1877 18.0494 21.0428 17.996C20.8978 17.9426 20.7733 17.8452 20.6867 17.7173C20.6001 17.5895 20.5557 17.4377 20.56 17.2833C20.5642 17.1289 20.6167 16.9797 20.7101 16.8568C20.8036 16.7338 20.9333 16.6433 21.0809 16.5979C21.2285 16.5525 21.3866 16.5546 21.533 16.6038C21.6794 16.653 21.8066 16.7469 21.8968 16.8723C21.987 16.9976 22.0356 17.1481 22.0358 17.3026C22.0362 17.3095 22.0362 17.3165 22.0358 17.3234C22.0313 17.4814 21.9763 17.6337 21.8789 17.7582C21.7815 17.8826 21.6468 17.9725 21.4945 18.0147ZM17.8351 23.0876C17.8347 23.2832 17.7568 23.4707 17.6185 23.6089C17.4802 23.7472 17.2927 23.825 17.0971 23.8253C16.9514 23.8251 16.8091 23.7817 16.6881 23.7006C16.5671 23.6195 16.4728 23.5044 16.4172 23.3698C16.3616 23.2351 16.3471 23.0871 16.3756 22.9442C16.4041 22.8014 16.4743 22.6702 16.5773 22.5672C16.6803 22.4642 16.8116 22.3941 16.9544 22.3657C17.0973 22.3372 17.2454 22.3518 17.38 22.4075C17.5146 22.4632 17.6296 22.5575 17.7107 22.6785C17.7917 22.7996 17.835 22.942 17.8351 23.0876ZM18.4394 29.0006C18.4395 29.1466 18.3963 29.2894 18.3152 29.4108C18.2342 29.5322 18.1189 29.6269 17.9841 29.6828C17.8492 29.7387 17.7008 29.7534 17.5576 29.725C17.4144 29.6965 17.2829 29.6263 17.1796 29.5231C17.0764 29.4199 17.006 29.2883 16.9775 29.1452C16.949 29.002 16.9636 28.8536 17.0195 28.7187C17.0753 28.5838 17.1699 28.4685 17.2913 28.3874C17.4127 28.3063 17.5554 28.263 17.7014 28.263C17.7364 28.2628 17.7715 28.2653 17.8062 28.2703C17.9627 28.2931 18.1078 28.3655 18.2202 28.4768C18.3326 28.5881 18.4063 28.7326 18.4305 28.8889C18.4364 28.9259 18.4394 28.9632 18.4394 29.0006ZM23.8669 29.8176C23.7209 29.8176 23.5782 29.7743 23.4568 29.6932C23.3354 29.612 23.2408 29.4968 23.1849 29.3619C23.1291 29.227 23.1145 29.0786 23.143 28.9354C23.1715 28.7922 23.2418 28.6607 23.3451 28.5575C23.4484 28.4543 23.5799 28.384 23.7231 28.3556C23.8663 28.3271 24.0147 28.3418 24.1496 28.3977C24.2844 28.4537 24.3997 28.5483 24.4807 28.6697C24.5618 28.7912 24.605 28.9339 24.6049 29.0799C24.6047 29.1336 24.5988 29.1871 24.5871 29.2396C24.5529 29.394 24.4698 29.5334 24.3503 29.637C24.2308 29.7407 24.0811 29.8032 23.9233 29.8153C23.9045 29.817 23.8857 29.8178 23.8669 29.8176ZM17.8355 37.1735C17.8355 37.3195 17.7922 37.4622 17.7111 37.5835C17.63 37.7049 17.5148 37.7995 17.3799 37.8554C17.2451 37.9112 17.0967 37.9258 16.9535 37.8974C16.8103 37.8689 16.6788 37.7986 16.5756 37.6954C16.4724 37.5922 16.4021 37.4606 16.3736 37.3175C16.3451 37.1743 16.3597 37.0259 16.4156 36.891C16.4714 36.7562 16.566 36.6409 16.6874 36.5598C16.8088 36.4787 16.9515 36.4354 17.0975 36.4354C17.1314 36.4354 17.1652 36.438 17.1988 36.4431C17.3551 36.4651 17.5003 36.5366 17.613 36.6473C17.7256 36.758 17.7997 36.9019 17.8243 37.0579C17.831 37.0961 17.8347 37.1347 17.8351 37.1735H17.8355ZM25.0754 38.3821C25.0758 38.5579 25.0136 38.7281 24.8998 38.8622C24.786 38.9963 24.6282 39.0855 24.4547 39.1137C24.2811 39.142 24.1031 39.1075 23.9527 39.0164C23.8023 38.9253 23.6893 38.7836 23.6339 38.6167C23.5785 38.4498 23.5844 38.2686 23.6505 38.1057C23.7166 37.9427 23.8386 37.8087 23.9946 37.7275C24.1506 37.6464 24.3305 37.6235 24.5018 37.663C24.6732 37.7024 24.8249 37.8017 24.9297 37.9429C25.0245 38.0697 25.0756 38.2238 25.0754 38.3821ZM38.0331 26.5398V25.5987H39.2471V26.5398H38.0331ZM41.6937 35.5609H39.408V34.6194H41.6937V35.5609ZM20.4824 42.256C20.4822 42.4517 20.4043 42.6393 20.266 42.7777C20.1276 42.9161 19.94 42.9939 19.7443 42.9941C19.5984 42.994 19.4559 42.9507 19.3346 42.8696C19.2134 42.7885 19.1189 42.6733 19.0631 42.5385C19.0073 42.4038 18.9927 42.2555 19.0212 42.1124C19.0497 41.9694 19.1199 41.838 19.2231 41.7348C19.3262 41.6317 19.4576 41.5614 19.6007 41.5329C19.7437 41.5045 19.892 41.519 20.0268 41.5748C20.1616 41.6306 20.2768 41.7251 20.3579 41.8463C20.439 41.9676 20.4823 42.1102 20.4824 42.256ZM40.7658 14.7694V13.8288H43.5108V14.7698L40.7658 14.7694Z" fill="url(#paint0_linear_2968_2615)"/>
<path d="M1.58902 59.2369H0L2.89658 51.9027C3.2024 51.1333 3.76455 50.8398 4.63252 50.8398C5.48774 50.8398 6.05027 51.1333 6.34372 51.9027L9.1305 59.2369H7.52911L5.0234 52.5994C4.95033 52.4061 4.8154 52.3187 4.62015 52.3187C4.42491 52.3187 4.28998 52.4045 4.20453 52.5994L1.58902 59.2369Z" fill="white"/>
<path d="M14.8068 50.9863C16.6626 50.9863 17.4591 52.1361 17.4591 53.4557C17.4591 54.483 16.97 55.5821 15.7115 55.937L17.6292 59.2373H16.0289L14.1468 56.0472H11.9949C11.8607 56.0472 11.7877 56.1079 11.7877 56.2545V59.2373H10.3456V55.9738C10.3456 55.0459 10.7364 54.6658 11.6408 54.6658H14.8555C15.6744 54.6658 16.0046 54.1037 16.0046 53.5164C16.0046 52.9291 15.65 52.4284 14.8555 52.4284H10.332V50.9863H14.8068Z" fill="white"/>
<path d="M24.5519 50.9863V52.4284H22.144V59.2373H20.6891V52.4284H18.2812V50.9863H24.5519Z" fill="white"/>
<path d="M27.3566 50.9863V59.2373H25.9141V50.9863H27.3566Z" fill="white"/>
<path d="M35.7429 50.9863V52.4284H32.4179C31.1099 52.4284 30.7191 53.0524 30.7191 53.8203V54.6028H35.6941V55.9722H30.7194V59.2357H29.2773V53.835C29.2773 52.1849 30.1326 50.9863 32.3208 50.9863H35.7429Z" fill="white"/>
<path d="M38.9038 50.9863V59.2373H37.4609V50.9863H38.9038Z" fill="white"/>
<path d="M47.5077 50.9863V52.4284H44.3181C42.729 52.4284 42.032 53.2237 42.032 55.1178C42.032 57.0006 42.7167 57.7952 44.3181 57.7952H47.5077V59.2373H44.3181C41.9098 59.2373 40.5898 57.8806 40.5898 55.1178C40.5898 52.343 41.9218 50.9863 44.3181 50.9863H47.5077Z" fill="white"/>
<path d="M50.6808 50.9863V59.2373H49.2383V50.9863H50.6808Z" fill="white"/>
<path d="M53.4914 59.2369H51.9023L54.7993 51.9027C55.1047 51.1333 55.6669 50.8398 56.5349 50.8398C57.3905 50.8398 57.9526 51.1333 58.2461 51.9027L61.0328 59.2369H59.4315L56.9261 52.5994C56.8523 52.4061 56.7181 52.3187 56.5225 52.3187C56.3269 52.3187 56.1923 52.4045 56.1069 52.5994L53.4914 59.2369Z" fill="white"/>
<path d="M63.1398 50.9863V56.3766C63.1398 57.1711 63.531 57.7952 64.8262 57.7952H68.029V59.2373H64.7427C62.5552 59.2373 61.6992 58.0387 61.6992 56.3886V50.9863H63.1398Z" fill="white"/>
<path d="M1.07675 61.9355V68.0956H0V61.9355H1.07675Z" fill="url(#paint1_linear_2968_2615)"/>
<path d="M3.63298 68.0941H2.55469V63.1662C2.55469 62.3636 3.0109 61.8242 3.96857 61.8242C4.82687 61.8242 5.21041 62.2627 5.46596 62.9655L7.26338 66.899C7.33645 67.0448 7.45669 67.1546 7.6558 67.1546C7.88391 67.1546 8.02077 67.017 8.02077 66.8066V61.9356H9.1068V66.8546C9.1068 67.6665 8.64285 68.2054 7.69214 68.2054C6.83461 68.2054 6.44219 67.7674 6.18663 67.0645L4.38844 63.1306C4.30687 62.9489 4.19513 62.8662 4.0053 62.8662C3.75902 62.8662 3.63143 63.0038 3.63143 63.2226L3.63298 68.0941Z" fill="url(#paint2_linear_2968_2615)"/>
<path d="M14.7867 61.9355V63.0131H12.9893V68.0956H11.9033V63.0115H10.1055V61.9355H14.7867Z" fill="url(#paint3_linear_2968_2615)"/>
<path d="M20.7165 61.9359V63.0134H17.632C16.984 63.0134 16.701 63.3138 16.701 63.789C16.701 64.2916 17.0203 64.519 17.6409 64.519H20.6705V65.4929H17.6134C16.9948 65.4929 16.6735 65.7395 16.6735 66.2406C16.6735 66.725 16.9747 67.0165 17.6045 67.0165H20.7254V68.0937H17.6045C16.1446 68.0937 15.5508 67.373 15.5508 66.4146C15.5508 65.7117 15.8705 65.2373 16.4365 64.9999C15.8612 64.7633 15.5693 64.2877 15.5693 63.6131C15.5693 62.6276 16.181 61.9336 17.632 61.9336L20.7165 61.9359Z" fill="url(#paint4_linear_2968_2615)"/>
<path d="M23.1353 61.9355V65.9603C23.1353 66.553 23.4272 67.0185 24.395 67.0185H26.7858V68.0956H24.3308C22.6977 68.0956 22.0586 67.201 22.0586 65.9692V61.9355H23.1353Z" fill="url(#paint5_linear_2968_2615)"/>
<path d="M28.6471 61.9355V65.9603C28.6471 66.553 28.939 67.0185 29.9067 67.0185H32.2976V68.0956H29.8425C28.2094 68.0956 27.5703 67.201 27.5703 65.9692V61.9355H28.6471Z" fill="url(#paint6_linear_2968_2615)"/>
<path d="M34.3892 61.9355V68.0956H33.3125V61.9355H34.3892Z" fill="url(#paint7_linear_2968_2615)"/>
<path d="M40.9688 61.9355V63.0131H38.4321C37.2456 63.0131 36.7252 63.6061 36.7252 65.0208C36.7252 66.4254 37.2363 67.0185 38.4321 67.0185H39.454C40.0563 67.0185 40.3119 66.6539 40.3119 66.1517C40.3119 65.6587 40.0563 65.3672 39.5541 65.3672H38.1855V64.4266H39.6639C40.7592 64.4266 41.2974 65.1024 41.2974 66.1698C41.2974 67.247 40.7592 68.0956 39.3809 68.0956H38.4321C36.6339 68.0956 35.6484 67.0823 35.6484 65.0208C35.6484 62.9489 36.6432 61.9355 38.4321 61.9355H40.9688Z" fill="url(#paint8_linear_2968_2615)"/>
<path d="M47.4508 61.9359V63.0134H44.3663C43.7184 63.0134 43.4354 63.3138 43.4354 63.789C43.4354 64.2916 43.7547 64.519 44.3752 64.519H47.4048V65.4929H44.3466C43.728 65.4929 43.4067 65.7395 43.4067 66.2406C43.4067 66.725 43.7075 67.0165 44.3377 67.0165H47.4586V68.0937H44.3389C42.8786 68.0937 42.2852 67.373 42.2852 66.4146C42.2852 65.7117 42.6045 65.2373 43.1705 64.9999C42.5956 64.7633 42.3037 64.2877 42.3037 63.6131C42.3037 62.6276 42.915 61.9336 44.3663 61.9336L47.4508 61.9359Z" fill="url(#paint9_linear_2968_2615)"/>
<path d="M49.9244 68.0941H48.8477V63.1662C48.8477 62.3636 49.3043 61.8242 50.2619 61.8242C51.1202 61.8242 51.5034 62.2627 51.7585 62.9655L53.5567 66.899C53.6294 67.0448 53.75 67.1546 53.9492 67.1546C54.1773 67.1546 54.3141 67.017 54.3141 66.8066V61.9356H55.4002V66.8546C55.4002 67.6665 54.9343 68.2054 53.9855 68.2054C53.128 68.2054 52.7355 67.7674 52.48 67.0645L50.6818 63.1306C50.5998 62.9489 50.4885 62.8662 50.299 62.8662C50.0524 62.8662 49.9244 63.0038 49.9244 63.2226V68.0941Z" fill="url(#paint10_linear_2968_2615)"/>
<path d="M61.8137 61.9355V63.0131H59.4321C58.2456 63.0131 57.7256 63.6061 57.7256 65.0208C57.7256 66.4254 58.2367 67.0185 59.4321 67.0185H61.8137V68.0956H59.4321C57.6339 68.0956 56.6484 67.0823 56.6484 65.0208C56.6484 62.9489 57.6432 61.9355 59.4321 61.9355H61.8137Z" fill="url(#paint11_linear_2968_2615)"/>
<path d="M68.0211 61.9359V63.0134H64.9367C64.2887 63.0134 64.0057 63.3138 64.0057 63.789C64.0057 64.2916 64.325 64.519 64.9456 64.519H67.9751V65.4929H64.9181C64.2995 65.4929 63.9782 65.7395 63.9782 66.2406C63.9782 66.725 64.2794 67.0165 64.9092 67.0165H68.03V68.0937H64.9092C63.4489 68.0937 62.8555 67.373 62.8555 66.4146C62.8555 65.7117 63.1752 65.2373 63.7412 64.9999C63.1659 64.7633 62.874 64.2877 62.874 63.6131C62.874 62.6276 63.4857 61.9336 64.9367 61.9336L68.0211 61.9359Z" fill="url(#paint12_linear_2968_2615)"/>
<defs>
<linearGradient id="paint0_linear_2968_2615" x1="39.1899" y1="-0.361878" x2="28.5887" y2="40.7447" gradientUnits="userSpaceOnUse">
<stop stop-color="#00F9E7"/>
<stop offset="1" stop-color="#05C5FF"/>
</linearGradient>
<linearGradient id="paint1_linear_2968_2615" x1="1.52252" y1="56.256" x2="0.650302" y2="64.0187" gradientUnits="userSpaceOnUse">
<stop stop-color="#00F9E7"/>
<stop offset="1" stop-color="#05C5FF"/>
</linearGradient>
<linearGradient id="paint2_linear_2968_2615" x1="6.74839" y1="56.8433" x2="5.87617" y2="64.606" gradientUnits="userSpaceOnUse">
<stop stop-color="#00F9E7"/>
<stop offset="1" stop-color="#05C5FF"/>
</linearGradient>
<linearGradient id="paint3_linear_2968_2615" x1="12.9997" y1="57.5454" x2="12.1275" y2="65.3081" gradientUnits="userSpaceOnUse">
<stop stop-color="#00F9E7"/>
<stop offset="1" stop-color="#05C5FF"/>
</linearGradient>
<linearGradient id="paint4_linear_2968_2615" x1="18.9983" y1="58.2201" x2="18.1261" y2="65.9827" gradientUnits="userSpaceOnUse">
<stop stop-color="#00F9E7"/>
<stop offset="1" stop-color="#05C5FF"/>
</linearGradient>
<linearGradient id="paint5_linear_2968_2615" x1="25.1087" y1="58.9064" x2="24.2364" y2="66.6686" gradientUnits="userSpaceOnUse">
<stop stop-color="#00F9E7"/>
<stop offset="1" stop-color="#05C5FF"/>
</linearGradient>
<linearGradient id="paint6_linear_2968_2615" x1="30.5516" y1="59.518" x2="29.6793" y2="67.2802" gradientUnits="userSpaceOnUse">
<stop stop-color="#00F9E7"/>
<stop offset="1" stop-color="#05C5FF"/>
</linearGradient>
<linearGradient id="paint7_linear_2968_2615" x1="34.4198" y1="59.9526" x2="33.5476" y2="67.7148" gradientUnits="userSpaceOnUse">
<stop stop-color="#00F9E7"/>
<stop offset="1" stop-color="#05C5FF"/>
</linearGradient>
<linearGradient id="paint8_linear_2968_2615" x1="39.0395" y1="60.4714" x2="38.1673" y2="68.234" gradientUnits="userSpaceOnUse">
<stop stop-color="#00F9E7"/>
<stop offset="1" stop-color="#05C5FF"/>
</linearGradient>
<linearGradient id="paint9_linear_2968_2615" x1="45.399" y1="61.1862" x2="44.5268" y2="68.9489" gradientUnits="userSpaceOnUse">
<stop stop-color="#00F9E7"/>
<stop offset="1" stop-color="#05C5FF"/>
</linearGradient>
<linearGradient id="paint10_linear_2968_2615" x1="52.4645" y1="61.9796" x2="51.5923" y2="69.7423" gradientUnits="userSpaceOnUse">
<stop stop-color="#00F9E7"/>
<stop offset="1" stop-color="#05C5FF"/>
</linearGradient>
<linearGradient id="paint11_linear_2968_2615" x1="59.6367" y1="62.7857" x2="58.7644" y2="70.5484" gradientUnits="userSpaceOnUse">
<stop stop-color="#00F9E7"/>
<stop offset="1" stop-color="#05C5FF"/>
</linearGradient>
<linearGradient id="paint12_linear_2968_2615" x1="65.713" y1="63.4689" x2="64.8408" y2="71.2315" gradientUnits="userSpaceOnUse">
<stop stop-color="#00F9E7"/>
<stop offset="1" stop-color="#05C5FF"/>
</linearGradient>
</defs>
</svg>
