<svg width="168" height="63" viewBox="0 0 168 63" fill="none" xmlns="http://www.w3.org/2000/svg">
<path fill-rule="evenodd" clip-rule="evenodd" d="M66.3888 19.8838V39.2313H73.4205V42.5684H62.6451V19.8838H66.3888ZM86.6363 29.5082V27.4678H90.184V42.5684H86.6354V40.5263C86.1586 41.2826 85.48 41.877 84.6004 42.3087C83.7225 42.7404 82.8379 42.9563 81.9482 42.9563C80.7978 42.9563 79.745 42.7455 78.7906 42.3247C77.8614 41.9219 77.0248 41.3319 76.3326 40.5913C75.6484 39.8559 75.1076 38.9986 74.7382 38.0635C74.3545 37.0943 74.1609 36.06 74.1681 35.0173C74.1681 33.9591 74.3581 32.9491 74.7382 31.987C75.1051 31.0463 75.6461 30.1835 76.3326 29.4441C77.0248 28.7033 77.8614 28.113 78.7906 27.7098C79.745 27.2882 80.7978 27.0775 81.9482 27.0775C82.8379 27.0775 83.7225 27.2941 84.6012 27.7267C85.48 28.1584 86.1586 28.7528 86.6363 29.5082ZM86.31 36.8646C86.5284 36.2737 86.6389 35.6483 86.6363 35.0181C86.6363 34.3689 86.5269 33.7534 86.31 33.17C86.1061 32.6088 85.797 32.0919 85.3993 31.6473C85.0012 31.21 84.5197 30.8574 83.9832 30.6102C83.429 30.3514 82.816 30.2215 82.1433 30.2215C81.4706 30.2215 80.8626 30.3514 80.3202 30.6102C79.7778 30.8699 79.3111 31.2156 78.9209 31.6473C78.5241 32.0897 78.2199 32.6075 78.0262 33.17C77.8179 33.7633 77.7132 34.3883 77.7167 35.0173C77.7167 35.6657 77.8193 36.282 78.0262 36.8638C78.2196 37.4266 78.5239 37.9447 78.9209 38.3873C79.3147 38.822 79.7902 39.1744 80.3202 39.4244C80.8626 39.684 81.4706 39.813 82.1433 39.813C82.816 39.813 83.4299 39.684 83.9832 39.4252C84.5198 39.1783 85.0014 38.8256 85.3993 38.3881C85.7972 37.9433 86.1063 37.4261 86.31 36.8646ZM92.9834 42.5676V27.467H102.619V30.9424H96.5312V42.5676H92.9834ZM115.478 29.5082V27.4678H119.026V42.5684H115.477V40.5263C114.999 41.2826 114.322 41.877 113.442 42.3087C112.564 42.7404 111.679 42.9563 110.79 42.9563C109.638 42.9563 108.587 42.7455 107.632 42.3247C106.703 41.9219 105.866 41.3319 105.174 40.5913C104.49 39.8559 103.949 38.9986 103.58 38.0635C103.196 37.0943 103.002 36.06 103.01 35.0173C103.01 33.9591 103.199 32.9491 103.58 31.987C103.947 31.0463 104.488 30.1835 105.174 29.4441C105.866 28.7033 106.703 28.113 107.632 27.7098C108.587 27.2882 109.638 27.0775 110.79 27.0775C111.679 27.0775 112.564 27.2941 113.443 27.7267C114.322 28.1584 114.999 28.7528 115.478 29.5082ZM115.151 36.8646C115.37 36.2737 115.48 35.6482 115.477 35.0181C115.477 34.3689 115.368 33.7534 115.151 33.17C114.947 32.6087 114.638 32.0918 114.24 31.6473C113.842 31.21 113.36 30.8574 112.824 30.6102C112.271 30.3514 111.658 30.2215 110.985 30.2215C110.312 30.2215 109.704 30.3514 109.162 30.6102C108.619 30.8699 108.153 31.2156 107.762 31.6473C107.365 32.0896 107.061 32.6074 106.867 33.17C106.659 33.7633 106.554 34.3883 106.557 35.0173C106.557 35.6657 106.66 36.282 106.867 36.8638C107.061 37.4266 107.365 37.9447 107.762 38.3873C108.156 38.822 108.632 39.1744 109.162 39.4244C109.704 39.684 110.312 39.813 110.985 39.813C111.658 39.813 112.271 39.684 112.824 39.4252C113.36 39.1783 113.842 38.8256 114.24 38.3881C114.638 37.9434 114.948 37.4262 115.151 36.8646ZM133.25 27.467H136.844L131.02 42.5676H126.562L120.738 27.467H124.332L128.791 39.0306L133.25 27.467ZM144.582 27.0791C149.414 27.0791 152.709 31.3412 152.09 36.33H140.319C140.319 37.6327 141.64 40.1511 144.778 40.1511C147.477 40.1511 149.285 37.7878 149.286 37.7861L151.683 39.6326C149.54 41.9108 147.785 42.9571 145.037 42.9571C140.126 42.9571 136.799 39.8645 136.799 35.0181C136.799 30.6338 140.238 27.0791 144.582 27.0791ZM140.328 33.7054H148.832C148.806 33.4145 148.345 29.8843 144.555 29.8843C140.765 29.8843 140.356 33.4145 140.328 33.7054ZM154.401 42.5676V19.8838H157.95V42.5676H154.401ZM51.847 19.7067C51.8625 19.7639 51.8704 19.8229 51.8705 19.8821V29.0926C51.8704 29.211 51.8389 29.3273 51.7794 29.4296C51.7199 29.532 51.6344 29.6167 51.5317 29.6752L43.7667 34.1261V42.9478C43.7664 43.0661 43.7349 43.1823 43.6753 43.2844C43.6158 43.3866 43.5304 43.4712 43.4278 43.5296L27.2201 52.8201C27.1831 52.842 27.1419 52.8547 27.1024 52.869C27.0864 52.8741 27.0721 52.8834 27.057 52.8876C26.9434 52.9174 26.8241 52.9174 26.7105 52.8876C26.692 52.8825 26.6752 52.8724 26.6576 52.8657C26.6197 52.853 26.5819 52.8404 26.5466 52.8201L10.338 43.5313C10.2353 43.4726 10.15 43.3877 10.0906 43.2852C10.0312 43.1828 9.99995 43.0663 10 42.9478V15.3165C10.0001 15.2573 10.0081 15.1983 10.0235 15.1412C10.0286 15.1209 10.0404 15.1032 10.0471 15.0847C10.0605 15.0493 10.0723 15.013 10.0908 14.9801C10.1034 14.9582 10.1219 14.9405 10.1362 14.9211C10.1564 14.8941 10.1732 14.8655 10.1968 14.8418C10.2161 14.8225 10.2413 14.8081 10.2632 14.7913C10.2876 14.7727 10.3095 14.7508 10.3372 14.7348L10.338 14.7339L18.4427 10.0891C18.5453 10.0307 18.6612 10 18.7791 10C18.897 10 19.0129 10.0307 19.1155 10.0891L27.2201 14.7339H27.2218C27.2487 14.7508 27.2706 14.7727 27.2958 14.7913C27.3177 14.8081 27.3421 14.8225 27.3614 14.8418C27.385 14.8655 27.4018 14.8941 27.422 14.9203C27.4371 14.9405 27.4556 14.9582 27.4682 14.9801C27.4867 15.013 27.4985 15.0493 27.5119 15.0847C27.5187 15.1032 27.5296 15.1209 27.5355 15.1412C27.5507 15.1984 27.5583 15.2573 27.5582 15.3165V32.5747L34.3124 28.7039V19.8821C34.3122 19.8229 34.3199 19.764 34.3351 19.7067C34.341 19.6865 34.3519 19.6697 34.3595 19.6503C34.3721 19.6148 34.3838 19.5786 34.4023 19.5457C34.415 19.5238 34.4335 19.5061 34.4486 19.4867C34.4688 19.4597 34.4856 19.431 34.5091 19.4083C34.5285 19.3889 34.5529 19.3746 34.5747 19.3577C34.6 19.3383 34.6218 19.3155 34.6496 19.3004V19.2995L42.7542 14.6547C42.8568 14.596 42.9729 14.5651 43.091 14.5651C43.2092 14.5651 43.3252 14.596 43.4278 14.6547L51.5317 19.2995C51.5603 19.3164 51.583 19.3383 51.6082 19.3568C51.6292 19.3737 51.6544 19.3889 51.6738 19.4074C51.6973 19.431 51.7141 19.4597 51.7335 19.4858C51.7486 19.5061 51.7671 19.5238 51.7797 19.5457C51.7991 19.5786 51.81 19.6148 51.8235 19.6503C51.831 19.6697 51.842 19.6865 51.847 19.7067ZM50.52 28.7039V21.0448L47.6837 22.6704L43.7667 24.9157V32.5747L50.52 28.7039ZM42.4162 42.5591V34.895L38.5615 37.0855L27.5582 43.3374V51.0731L42.4162 42.5575V42.5591ZM11.3505 16.4792V42.5591L26.2077 51.0748V43.3399L18.4461 38.9674L18.4444 38.9648L18.441 38.964C18.4141 38.9488 18.3931 38.9269 18.3687 38.9084C18.3469 38.8915 18.3233 38.878 18.304 38.8595L18.3023 38.8569C18.2804 38.8358 18.2653 38.8097 18.2468 38.7861C18.23 38.7642 18.2098 38.7448 18.1963 38.7212L18.1955 38.7187C18.1804 38.6934 18.1711 38.663 18.1602 38.6343C18.1493 38.6099 18.135 38.5863 18.1282 38.5593C18.119 38.5273 18.1181 38.4927 18.1139 38.4598C18.1114 38.4345 18.1038 38.4101 18.1038 38.3839V20.3492L14.1877 18.1048L11.3505 16.4792ZM18.7791 11.4474L12.0291 15.3174L18.7791 19.1857L25.5299 15.3165L18.7791 11.4474ZM22.2907 35.5931L26.2077 33.3487V16.4792L23.3721 18.1048L19.4543 20.3501V37.2187L22.2907 35.5931ZM43.0915 16.0138L36.3406 19.8821L43.0915 23.7513L49.8414 19.8821L43.0915 16.0138ZM42.4162 24.9157L38.4984 22.6704L35.6629 21.0448V28.7039L39.5798 30.9491L42.4162 32.5747V24.9157ZM26.8821 42.1747L36.7838 36.5476L41.7334 33.7349L34.9876 29.8682L27.2201 34.32L20.1414 38.3772L26.8821 42.1747Z" fill="#FF2D20"/>
</svg>
