<svg width="159" height="42" viewBox="0 0 159 42" fill="none" xmlns="http://www.w3.org/2000/svg">
<path d="M18.5163 16.7141C16.3036 6.95303 11.6919 4.35449 10.5154 2.5176C10.0303 1.7084 9.60061 0.867278 9.22919 0C9.16704 0.867141 9.05287 1.41344 8.3158 2.07102C6.83588 3.39052 0.550552 8.51244 0.0215958 19.6032C-0.471229 29.9438 7.62353 36.3202 8.69301 36.9792C9.51535 37.3839 10.5169 36.9879 11.0054 36.6165C14.9075 33.9385 20.239 26.799 18.5206 16.7141" fill="#10AA50"/>
<path d="M9.56636 31.4727C9.36258 34.0322 9.21661 35.5193 8.69922 36.9819C8.69922 36.9819 9.03885 39.4186 9.27731 41.9997H10.1213C10.3227 40.1821 10.6301 38.3778 11.0419 36.596C9.94935 36.0584 9.60827 33.7186 9.56636 31.4727Z" fill="#B8C4C2"/>
<path d="M11.0378 36.5987C9.93368 36.0886 9.61428 33.6996 9.56514 31.4739C9.83821 27.8025 9.9178 24.1193 9.80361 20.4395C9.7458 18.5087 9.83107 2.5562 9.32812 0.220703C9.67216 1.01171 10.0686 1.77891 10.5147 2.51718C11.6911 4.35552 16.3043 6.95405 18.5155 16.7152C20.2382 26.7827 14.9356 33.9034 11.0378 36.5987Z" fill="#12924F"/>
<path d="M156.573 33.0687C156.1 33.0687 155.638 32.9289 155.245 32.6668C154.851 32.4048 154.544 32.0323 154.361 31.5961C154.179 31.16 154.13 30.6796 154.219 30.2154C154.309 29.7512 154.534 29.324 154.866 28.9874C155.198 28.6508 155.623 28.4199 156.085 28.3236C156.548 28.2274 157.029 28.2702 157.468 28.4465C157.907 28.6229 158.283 28.9251 158.551 29.315C158.818 29.7049 158.964 30.1651 158.971 30.6378C158.979 30.9566 158.924 31.2738 158.807 31.5704C158.689 31.8671 158.514 32.137 158.29 32.364C158.066 32.591 157.798 32.7705 157.503 32.8916C157.208 33.0127 156.892 33.0729 156.573 33.0687ZM156.573 28.4902C156.141 28.4874 155.718 28.6128 155.357 28.8506C154.997 29.0884 154.715 29.4278 154.547 29.826C154.38 30.2242 154.334 30.6631 154.416 31.0872C154.498 31.5113 154.704 31.9015 155.008 32.2084C155.313 32.5153 155.701 32.725 156.124 32.8111C156.547 32.8971 156.987 32.8556 157.387 32.6917C157.786 32.5279 158.128 32.2491 158.369 31.8906C158.611 31.5322 158.74 31.1103 158.741 30.6783C158.747 30.3911 158.695 30.1057 158.588 29.8391C158.481 29.5724 158.322 29.3298 158.12 29.1258C157.918 28.9217 157.677 28.7603 157.411 28.6512C157.145 28.542 156.86 28.4873 156.573 28.4902ZM157.151 32.1871L156.533 30.8532H156.034V32.1871H155.671V29.1521H156.566C157.232 29.1521 157.51 29.4412 157.51 30.0005C157.51 30.4456 157.3 30.7231 156.91 30.8084L157.549 32.1828L157.151 32.1871ZM156.049 30.5396H156.573C156.998 30.5396 157.16 30.395 157.16 30.0077C157.16 29.6204 157.005 29.4889 156.527 29.4889H156.049V30.5396Z" fill="#21313C"/>
<path d="M120.889 30.8825C121.538 31.4013 122.835 31.6152 123.978 31.6152C125.459 31.6152 126.912 31.3406 128.331 30.0587C129.776 28.745 130.771 26.7347 130.771 23.5248C130.771 20.4407 129.597 17.9375 127.189 16.472C125.831 15.6179 124.07 15.2812 122.063 15.2812C121.485 15.2812 120.889 15.3115 120.551 15.4647C120.413 15.5742 120.314 15.7267 120.272 15.8983C120.212 16.4475 120.212 20.63 120.212 23.1028C120.212 25.6377 120.212 29.1728 120.272 29.6063C120.304 29.9734 120.489 30.618 120.889 30.8883M114.727 13.9082C115.252 13.9082 117.246 13.9993 118.174 13.9993C119.908 13.9993 121.106 13.9082 124.348 13.9082C127.065 13.9082 129.351 14.6409 130.986 16.0443C132.963 17.7554 134.021 20.1357 134.021 23.0363C134.021 27.1581 132.142 29.5399 130.253 30.8825C128.374 32.2873 125.93 33.0807 122.449 33.0807C120.596 33.0807 117.415 33.02 114.76 32.9896H114.705C114.581 32.7454 114.932 31.793 115.149 31.7684C115.872 31.6875 116.062 31.6586 116.395 31.5213C116.955 31.2915 117.087 31.0053 117.149 29.998C117.242 28.1047 117.211 25.8458 117.211 23.2806C117.211 21.4494 117.242 17.8768 117.181 16.7466C117.087 15.8015 116.688 15.5572 115.88 15.3737C115.307 15.252 114.728 15.1603 114.146 15.0991C114.085 14.9155 114.559 14.0874 114.714 13.9082" fill="#21313C"/>
<path d="M141.675 15.4587C141.552 15.4891 141.398 15.7954 141.398 15.9472C141.366 17.047 141.335 19.9158 141.335 21.9001C141.343 21.9381 141.362 21.9728 141.39 22.0001C141.417 22.0273 141.452 22.0459 141.49 22.0533C141.89 22.0837 142.879 22.1155 143.713 22.1155C144.886 22.1155 145.566 21.9623 145.936 21.7787C146.924 21.2902 147.381 20.2208 147.381 19.0617C147.381 16.4053 145.528 15.398 142.781 15.398C142.409 15.3933 142.038 15.4136 141.669 15.4587M148.679 27.6709C148.679 24.9843 146.702 23.4581 143.088 23.4581C142.935 23.4581 141.788 23.4277 141.515 23.4884C141.422 23.5188 141.33 23.5795 141.33 23.6416C141.33 25.5652 141.298 28.6479 141.392 29.8692C141.454 30.388 141.825 31.1207 142.286 31.3346C142.781 31.6092 143.892 31.6699 144.664 31.6699C146.794 31.6699 148.679 30.4805 148.679 27.6709ZM136.096 13.9629C136.375 13.9629 137.196 14.0539 139.296 14.0539C141.272 14.0539 142.877 13.9932 144.788 13.9932C147.165 13.9932 150.437 14.8488 150.437 18.3896C150.437 20.1239 149.203 21.5345 147.598 22.2065C147.505 22.2369 147.505 22.2976 147.598 22.3279C149.883 22.906 151.889 24.3122 151.889 26.9989C151.889 29.6249 150.253 31.2739 147.875 32.3116C146.43 32.9533 144.633 33.1657 142.817 33.1657C141.428 33.1657 137.705 33.0212 135.635 33.0443C135.419 32.9533 135.833 31.9749 136.018 31.8231C136.493 31.8085 136.963 31.7347 137.419 31.6034C138.159 31.4213 138.247 31.1829 138.339 30.083C138.402 29.1364 138.402 25.7473 138.402 23.3352C138.402 20.0372 138.433 17.8101 138.402 16.7103C138.371 15.8561 138.062 15.5801 137.475 15.4284C137.013 15.3359 136.241 15.2448 135.624 15.1538C135.469 15.0006 135.945 14.0843 136.098 13.9629" fill="#21313C"/>
<path d="M25.3518 33.068C25.2723 32.8726 25.2401 32.6612 25.2579 32.4509C25.2509 32.3076 25.2834 32.1652 25.3518 32.039C25.7512 31.9814 26.1468 31.9008 26.5369 31.7977C27.0832 31.6618 27.2884 31.3641 27.3202 30.6675C27.4098 29.0214 27.4156 25.9329 27.3838 23.7622V23.6986C27.3838 23.4644 27.3838 23.1465 27.0948 22.9225C26.5867 22.6038 26.0352 22.3603 25.4573 22.1999C25.1986 22.1233 25.0555 21.9874 25.0628 21.8284C25.07 21.6695 25.2333 21.4816 25.57 21.4151C26.4646 21.324 28.8088 20.7647 29.7294 20.3398C29.8242 20.4634 29.8682 20.6185 29.8523 20.7734C29.8523 20.8688 29.8378 20.97 29.8277 21.074C29.8017 21.3804 29.7728 21.7287 29.7728 22.0756C29.7784 22.1177 29.7958 22.1574 29.8228 22.1903C29.8498 22.2231 29.8854 22.2477 29.9257 22.2614C29.9659 22.2751 30.0092 22.2772 30.0506 22.2676C30.092 22.258 30.13 22.2371 30.1601 22.2071C31.9132 20.8327 33.4841 20.3427 34.2891 20.3427C35.6144 20.3427 36.6463 20.9757 37.4455 22.2794C37.4639 22.3108 37.49 22.3371 37.5213 22.3555C37.5527 22.374 37.5883 22.3841 37.6247 22.3849C37.6578 22.3845 37.6904 22.3762 37.7196 22.3606C37.7488 22.345 37.7737 22.3226 37.7924 22.2952C39.4038 21.0726 41.0008 20.3427 42.0703 20.3427C44.5966 20.3427 46.1068 22.2345 46.1068 25.4011C46.1068 26.3116 46.0982 27.4663 46.0895 28.543C46.0823 29.4882 46.075 30.3741 46.075 30.9869C46.075 31.1314 46.2745 31.5476 46.5736 31.63C46.9436 31.8107 47.4769 31.9032 48.1518 32.0188H48.1779C48.2284 32.2009 48.1215 32.9076 48.0189 33.0521C47.8512 33.0521 47.62 33.0377 47.3309 33.0232C46.8063 32.9972 46.0866 32.9611 45.2498 32.9611C43.5704 32.9611 42.6932 32.9929 41.8549 33.0478C41.7914 32.8382 41.7697 32.1619 41.8463 32.0202C42.1934 31.966 42.537 31.8912 42.8753 31.7962C43.41 31.6199 43.5647 31.3771 43.5979 30.6675C43.6109 30.1631 43.7077 25.719 43.5358 24.664C43.3768 23.5699 42.553 22.2895 40.7508 22.2895C40.0816 22.2895 39.0021 22.5684 37.973 23.3488C37.9092 23.4212 37.8733 23.5139 37.8719 23.6104V23.6321C37.9933 24.2015 37.9933 24.8663 37.9933 25.8708C37.9933 26.4489 37.9933 27.0515 37.9861 27.6542C37.9788 28.8797 37.973 30.0359 37.9933 30.9103C37.9933 31.5057 38.3531 31.6488 38.6436 31.763C38.8012 31.7977 38.9255 31.828 39.0512 31.8569C39.2925 31.9162 39.544 31.9769 39.9183 32.0361C39.9737 32.29 39.9688 32.5534 39.9039 32.805C39.8886 32.8994 39.8515 32.989 39.7955 33.0666C38.8619 33.0348 37.9037 33.0073 36.5206 33.0073C36.1015 33.0073 35.4179 33.0247 34.8138 33.0406C34.3238 33.0536 33.8614 33.0666 33.5983 33.068C33.5272 32.9002 33.4955 32.7182 33.5058 32.5362C33.4911 32.3647 33.5246 32.1925 33.6027 32.039L33.9741 31.9711C34.2978 31.9133 34.5782 31.8642 34.8412 31.7977C35.2979 31.6531 35.4699 31.4046 35.5031 30.8221C35.5927 29.4636 35.6621 25.5485 35.4699 24.5686C35.1433 22.9962 34.2487 22.1984 32.8092 22.1984C31.9667 22.1984 30.9015 22.6045 30.0315 23.2563C29.9478 23.3378 29.8819 23.4357 29.8378 23.5439C29.7938 23.6521 29.7727 23.7682 29.7757 23.885C29.7757 24.3518 29.7757 24.9068 29.7757 25.5022C29.7757 27.4677 29.7627 29.9145 29.8104 30.9724C29.8393 31.2991 29.9549 31.6864 30.5662 31.828C30.7006 31.867 30.9319 31.9046 31.2007 31.9494C31.3553 31.9754 31.5244 32.0029 31.6993 32.0347C31.7549 32.3808 31.7266 32.7351 31.6169 33.068C31.3481 33.068 31.0171 33.0507 30.6385 33.0348C30.0604 33.0088 29.3378 32.977 28.5212 32.977C27.5558 32.977 26.8838 33.0088 26.3447 33.0348C25.9819 33.0521 25.6683 33.0666 25.3547 33.068" fill="#21313C"/>
<path d="M56.3466 21.6494C55.825 21.6386 55.3119 21.7829 54.8725 22.0642C53.8001 22.716 53.2538 24.0181 53.2538 25.9316C53.2538 29.5129 55.0473 32.0146 57.6155 32.0146C58.3041 32.0364 58.9758 31.7986 59.4972 31.3484C60.2863 30.7052 60.7054 29.3901 60.7054 27.5488C60.7054 24.021 58.9524 21.6494 56.3437 21.6494M56.838 33.3428C52.1988 33.3428 50.5469 29.9393 50.5469 26.7554C50.5469 24.5312 51.4559 22.7926 53.2495 21.5858C54.5057 20.8081 55.9476 20.3819 57.4247 20.3516C60.9641 20.3516 63.4369 22.8966 63.4369 26.543C63.4369 29.0201 62.4498 30.9769 60.5811 32.1996C59.6837 32.7488 58.1242 33.3428 56.838 33.3428Z" fill="#21313C"/>
<path d="M103.578 21.6494C103.055 21.6375 102.541 21.782 102.101 22.0642C101.029 22.716 100.482 24.0181 100.482 25.9316C100.482 29.5129 102.276 32.0146 104.844 32.0146C105.535 32.0379 106.209 31.8 106.732 31.3484C107.521 30.7052 107.938 29.3901 107.938 27.5488C107.938 24.021 106.187 21.6494 103.578 21.6494ZM104.072 33.3428C99.4331 33.3428 97.7812 29.9393 97.7812 26.7568C97.7812 24.5297 98.6903 22.7926 100.485 21.5858C101.741 20.8076 103.182 20.3813 104.659 20.3516C108.198 20.3516 110.671 22.8981 110.671 26.5415C110.671 29.0215 109.684 30.9769 107.816 32.1982C106.918 32.7488 105.359 33.3428 104.072 33.3428Z" fill="#21313C"/>
<path d="M87.9556 21.5278C86.5263 21.5278 85.6013 22.6566 85.6013 24.4038C85.6013 26.1511 86.3976 28.2279 88.6363 28.2279C89.0207 28.2279 89.7174 28.0574 90.0628 27.6773C90.583 27.1989 90.9299 26.2104 90.9299 25.1669C90.9299 22.8878 89.82 21.5278 87.9628 21.5278M87.7778 33.5869C87.374 33.5825 86.9759 33.682 86.6217 33.8759C85.49 34.5985 84.9654 35.3212 84.9654 36.1608C84.9654 36.947 85.2704 37.5728 85.9265 38.1278C86.7214 38.8013 87.7937 39.1293 89.2028 39.1293C91.9763 39.1293 93.2192 37.6379 93.2192 36.1608C93.2192 35.1318 92.7032 34.4425 91.641 34.0522C90.823 33.7531 89.4558 33.5883 87.7822 33.5883M87.9672 40.67C86.3023 40.67 85.1027 40.3188 84.078 39.5297C83.0808 38.7608 82.6328 37.6191 82.6328 36.83C82.6436 36.3215 82.8376 35.8339 83.1791 35.457C83.4682 35.1275 84.1402 34.5104 85.6938 33.4423C85.7179 33.4321 85.7384 33.415 85.7528 33.3931C85.7672 33.3713 85.7748 33.3457 85.7748 33.3195C85.7752 33.2903 85.7658 33.2618 85.7479 33.2387C85.7301 33.2156 85.7049 33.1992 85.6765 33.1923C84.3974 32.7024 84.0116 31.8916 83.8945 31.458C83.8945 31.4421 83.8945 31.4176 83.8815 31.3901C83.8454 31.2196 83.8107 31.0577 84.0434 30.8915C84.2226 30.7643 84.5087 30.5938 84.8151 30.4131C85.2476 30.1737 85.6625 29.9037 86.0566 29.6052C86.0778 29.5825 86.0935 29.5552 86.1025 29.5254C86.1115 29.4956 86.1135 29.4642 86.1085 29.4335C86.1035 29.4028 86.0915 29.3737 86.0735 29.3484C86.0555 29.323 86.0319 29.3021 86.0045 29.2873C84.1113 28.6514 83.1574 27.2452 83.1574 25.0961C83.1516 24.426 83.3075 23.7643 83.612 23.1673C83.9164 22.5702 84.3604 22.0554 84.9062 21.6666C85.6678 21.0639 87.5799 20.3398 88.8184 20.3398H88.8907C90.1639 20.3702 90.8822 20.6376 91.8765 21.0047C92.4421 21.2092 93.0415 21.3043 93.6426 21.285C94.6962 21.285 95.1572 20.9512 95.5532 20.5624C95.6174 20.7375 95.6516 20.9222 95.6544 21.1087C95.6786 21.5531 95.5579 21.9933 95.3104 22.3632C95.0951 22.6623 94.5878 22.8791 94.1239 22.8791C94.0762 22.8791 94.0299 22.8791 93.9793 22.8719C93.7352 22.8547 93.4933 22.8145 93.2567 22.7519L93.1382 22.7939C93.1007 22.8488 93.1252 22.9095 93.1556 22.9875C93.163 23.0028 93.1688 23.0188 93.1729 23.0352C93.2575 23.4209 93.315 23.8121 93.3449 24.2058C93.3449 26.4532 92.459 27.4316 91.5008 28.1571C90.5744 28.8522 89.4742 29.2783 88.3213 29.3885C88.2967 29.3885 88.1767 29.3986 87.9513 29.4188C87.8068 29.4318 87.6189 29.4492 87.5914 29.4492H87.564C87.3558 29.507 86.8124 29.7657 86.8124 30.2469C86.8124 30.6458 87.0581 31.1415 88.2331 31.2311L88.9933 31.2846C90.5426 31.393 92.4778 31.5274 93.3883 31.8352C93.9922 32.0476 94.5139 32.4451 94.8789 32.971C95.244 33.4969 95.4339 34.1246 95.4217 34.7647C95.4217 36.7808 93.988 38.677 91.5875 39.8361C90.4554 40.3768 89.2159 40.6549 87.9614 40.6497" fill="#21313C"/>
<path d="M80.8679 31.9932C80.1886 31.9021 79.6929 31.8096 79.1076 31.535C78.9927 31.416 78.9171 31.2647 78.8908 31.1015C78.8286 30.1548 78.8286 27.4074 78.8286 25.6096C78.8286 24.1426 78.583 22.8636 77.9615 21.9459C77.2201 20.9068 76.1709 20.2969 74.8123 20.2969C73.6085 20.2969 72.0028 21.1207 70.6761 22.2508C70.6443 22.2812 70.4405 22.4748 70.4448 22.1742C70.4492 21.8736 70.4954 21.2637 70.5243 20.8735C70.5372 20.7699 70.5255 20.6646 70.4904 20.5662C70.4553 20.4679 70.3976 20.3791 70.322 20.307C69.4549 20.7406 67.0225 21.3187 66.1221 21.4068C65.466 21.534 65.2998 22.1656 66.0007 22.3838H66.0109C66.5719 22.5385 67.1075 22.7742 67.6006 23.0833C67.8781 23.2972 67.8477 23.6021 67.8477 23.8464C67.8781 25.8914 67.8781 29.0362 67.7856 30.7459C67.7553 31.418 67.5688 31.6622 67.0746 31.785L67.1208 31.7692C66.7444 31.8635 66.3626 31.9349 65.9776 31.983C65.823 32.1348 65.823 33.0207 65.9776 33.2043C66.2869 33.2043 67.8564 33.1132 69.1571 33.1132C70.9463 33.1132 71.8727 33.2043 72.3366 33.2043C72.5231 32.9904 72.5838 32.1666 72.4609 31.983C72.0334 31.9637 71.6089 31.9022 71.1935 31.7995C70.7006 31.6781 70.5764 31.4324 70.546 30.8847C70.4853 29.4481 70.4853 26.3958 70.4853 24.319C70.4853 23.7409 70.6385 23.4648 70.8235 23.3073C71.4406 22.7581 72.4609 22.3925 73.3555 22.3925C74.2227 22.3925 74.8008 22.6671 75.2343 23.0327C75.7394 23.4734 76.056 24.091 76.1188 24.7583C76.2417 25.9145 76.2099 28.2399 76.2099 30.2502C76.2099 31.35 76.1188 31.6261 75.7171 31.7475C75.5321 31.8385 75.0378 31.931 74.451 31.9917C74.266 32.1753 74.3267 33.0294 74.451 33.2129C75.2531 33.2129 76.1853 33.1219 77.5381 33.1219C79.2362 33.1219 80.3172 33.2129 80.7494 33.2129C80.9344 32.999 80.9965 32.2013 80.8737 31.9917" fill="#21313C"/>
</svg>
