<svg width="143" height="100" viewBox="0 0 143 100" fill="none" xmlns="http://www.w3.org/2000/svg">
<path d="M43.7741 80.0485H39.9027C39.7658 73.5138 39.3887 67.3704 38.7723 61.6138H38.7379L32.8436 80.0485H29.8961L24.037 61.6138H24.0033C23.5686 67.1407 23.2948 73.2856 23.1811 80.0485H19.6523C19.8798 71.8246 20.4513 64.1147 21.3647 56.918H26.1631L31.7476 73.914H31.782L37.401 56.918H41.9921C42.9975 65.3476 43.5915 73.0582 43.7741 80.0485ZM60.5637 62.9828C58.9874 71.5366 56.9077 77.7518 54.3268 81.6314C52.3159 84.6178 50.1127 86.1126 47.7136 86.1126C47.0739 86.1126 46.2847 85.9195 45.3496 85.5365V83.474C45.8067 83.5398 46.343 83.5772 46.9595 83.5772C48.0801 83.5772 48.9808 83.269 49.6676 82.6511C50.489 81.8985 50.8997 81.0524 50.8997 80.1165C50.8997 79.4747 50.5795 78.1625 49.9407 76.1755L45.6922 62.9821H49.4955L52.5448 72.8495C53.23 75.0901 53.5158 76.6543 53.4014 77.5453C55.0689 73.0919 56.2337 68.236 56.8972 62.9813H60.5637V62.9828Z" fill="#5D87A1"/>
<path d="M112.095 80.0488H101.098V56.9183H104.798V77.2016H112.095V80.0488ZM98.2196 80.6077L93.9674 78.5092C94.3445 78.1995 94.705 77.8644 95.0297 77.4761C96.8371 75.353 97.7386 72.2132 97.7386 68.0546C97.7386 60.4022 94.7357 56.5742 88.7277 56.5742C85.7817 56.5742 83.4836 57.5452 81.84 59.4881C80.0341 61.6127 79.1326 64.7412 79.1326 68.8775C79.1326 72.9434 79.9316 75.9261 81.5303 77.818C82.9928 79.5319 85.1974 80.39 88.1457 80.39C89.2454 80.39 90.2546 80.2553 91.174 79.9838L96.71 83.2066L98.2196 80.6077ZM84.4449 75.4203C83.5082 73.9137 83.0399 71.4943 83.0399 68.1585C83.0399 62.3346 84.8092 59.4192 88.3514 59.4192C90.203 59.4192 91.56 60.1165 92.4278 61.5079C93.363 63.0169 93.8335 65.4145 93.8335 68.7039C93.8335 74.5757 92.0628 77.512 88.5228 77.512C86.6705 77.5128 85.3134 76.8178 84.4449 75.4203ZM77.5204 73.6376C77.5204 75.5991 76.8008 77.2083 75.3629 78.4689C73.9236 79.7242 71.9935 80.3533 69.5749 80.3533C67.3126 80.3533 65.1192 79.6306 62.9961 78.1928L63.9903 76.2066C65.8172 77.1215 67.4712 77.5764 68.9562 77.5764C70.3499 77.5764 71.4391 77.2674 72.2291 76.6547C73.0184 76.0398 73.4889 75.1772 73.4889 74.0865C73.4889 72.7122 72.5306 71.5377 70.7726 70.554C69.1515 69.6637 65.9092 67.8024 65.9092 67.8024C64.1519 66.5217 63.2721 65.1467 63.2721 62.8814C63.2721 61.0067 63.9282 59.4933 65.2411 58.342C66.5556 57.1862 68.2515 56.6101 70.3305 56.6101C72.4775 56.6101 74.4293 57.1854 76.1873 58.324L75.2956 60.311C73.7919 59.6721 72.3077 59.3527 70.8437 59.3527C69.6579 59.3527 68.7422 59.6377 68.1056 60.21C67.4637 60.78 67.068 61.5094 67.068 62.4042C67.068 63.7717 68.0465 64.9612 69.8524 65.9644C71.4953 66.8561 74.8183 68.7495 74.8183 68.7495C76.6205 70.028 77.5204 71.3903 77.5204 73.6376Z" fill="#F8981D"/>
<path d="M116.738 49.1719C114.501 49.115 112.769 49.3402 111.316 49.9551C110.896 50.1227 110.229 50.1227 110.17 50.6531C110.397 50.8776 110.423 51.2396 110.62 51.5493C110.955 52.1082 111.539 52.86 112.073 53.252C112.658 53.7009 113.246 54.1452 113.863 54.5365C114.95 55.209 116.182 55.6003 117.241 56.2706C117.858 56.6604 118.472 57.1646 119.09 57.5843C119.394 57.8079 119.588 58.1708 119.982 58.3107V58.2254C119.785 57.974 119.729 57.6104 119.535 57.3307L118.696 56.5212C117.885 55.432 116.877 54.4811 115.79 53.7001C114.895 53.0837 112.938 52.2458 112.575 51.2149L112.519 51.1581C113.133 51.1005 113.863 50.8776 114.447 50.7062C115.398 50.4556 116.265 50.5125 117.241 50.2619C117.689 50.1497 118.135 50.009 118.585 49.8706V49.6185C118.079 49.115 117.719 48.4462 117.187 47.9704C115.764 46.7413 114.196 45.5391 112.575 44.5329C111.708 43.9726 110.591 43.612 109.668 43.1355C109.335 42.9671 108.774 42.8841 108.578 42.6043C108.076 41.9894 107.794 41.1799 107.431 40.452C106.623 38.9162 105.838 37.212 105.141 35.5879C104.637 34.4987 104.33 33.4109 103.715 32.4032C100.835 27.6528 97.7069 24.7756 92.8996 21.9515C91.8665 21.3635 90.6374 21.1129 89.3245 20.8047L87.2275 20.694C86.7802 20.498 86.3321 19.9661 85.9416 19.7147C84.3466 18.7093 80.2403 16.53 79.0673 19.4072C78.3117 21.2259 80.1849 23.0138 80.8283 23.9362C81.3033 24.5766 81.919 25.3053 82.2512 26.0324C82.4479 26.5075 82.5033 27.0117 82.7001 27.5136C83.1474 28.7435 83.5656 30.1118 84.1536 31.2594C84.4603 31.8444 84.7947 32.4593 85.1867 32.989C85.4112 33.2987 85.8017 33.4356 85.887 33.9406C85.4972 34.4972 85.4665 35.3373 85.2428 36.036C84.2374 39.1937 84.6301 43.1055 86.0553 45.4261C86.5011 46.1249 87.5649 47.663 88.9878 47.0735C90.2476 46.5707 89.9686 44.978 90.3307 43.5813C90.4137 43.2439 90.3591 43.0225 90.5267 42.8011V42.8557C90.9164 43.6374 91.3099 44.3908 91.6713 45.1748C92.5383 46.5431 94.048 47.9689 95.3055 48.9168C95.9751 49.4225 96.5055 50.2873 97.3441 50.5963V50.5125H97.2887C97.1189 50.2619 96.8706 50.1497 96.6476 49.9551C96.1434 49.4517 95.5853 48.8367 95.1941 48.2787C94.0225 46.7129 92.9857 44.9795 92.0655 43.1908C91.6152 42.323 91.2269 41.3744 90.8641 40.5081C90.695 40.1737 90.695 39.6695 90.4145 39.5012C89.994 40.1154 89.3813 40.6473 89.0746 41.3999C88.5427 42.6036 88.4874 44.0841 88.2899 45.6236L88.1799 45.6775C87.2896 45.4538 86.9799 44.5329 86.6418 43.7512C85.8047 41.7657 85.664 38.5788 86.3904 36.2881C86.5849 35.7023 87.4265 33.8575 87.0906 33.2995C86.9223 32.7646 86.3627 32.4601 86.056 32.0389C85.6954 31.5092 85.3004 30.839 85.0491 30.2509C84.3788 28.6867 84.0414 26.9533 83.3195 25.3898C82.9821 24.6611 82.3963 23.9071 81.922 23.236C81.3894 22.4819 80.8036 21.9508 80.3824 21.0568C80.2433 20.7493 80.048 20.2466 80.2717 19.9122C80.3263 19.6878 80.44 19.604 80.663 19.5479C81.0251 19.2419 82.0597 19.6309 82.4225 19.7992C83.4586 20.2182 84.3249 20.6094 85.1897 21.1959C85.581 21.4765 86.0007 22.0076 86.5026 22.1475H87.0906C87.9831 22.342 88.9893 22.2014 89.8294 22.4543C91.3099 22.93 92.6513 23.628 93.8542 24.3814C97.5147 26.7027 100.533 30.0011 102.571 33.9406C102.905 34.5824 103.048 35.1704 103.353 35.84C103.942 37.2105 104.669 38.608 105.254 39.9493C105.841 41.2622 106.401 42.6028 107.239 43.6936C107.657 44.2801 109.338 44.5875 110.091 44.895C110.648 45.1456 111.516 45.3685 112.019 45.676C112.97 46.2618 113.917 46.9343 114.811 47.5784C115.256 47.9136 116.655 48.6123 116.738 49.1719ZM88.2308 24.8856C87.8449 24.8816 87.4603 24.9289 87.0869 25.0262V25.0823H87.1408C87.3659 25.5289 87.7572 25.8387 88.0362 26.2284C88.2614 26.6765 88.4567 27.1209 88.6774 27.5683L88.7312 27.5129C89.1255 27.2339 89.3215 26.7865 89.3215 26.1154C89.1517 25.918 89.1255 25.7249 88.9841 25.5289C88.8195 25.2491 88.4567 25.11 88.2308 24.8856Z" fill="#5D87A1"/>
<path d="M119.402 80.0455H119.981V77.2117H119.113L118.404 79.1455L117.635 77.2117H116.798V80.0455H117.345V77.8895H117.376L118.182 80.0455H118.599L119.402 77.8895V80.0455ZM114.738 80.0455H115.351V77.692H116.153V77.2109H113.902V77.692H114.736L114.738 80.0455Z" fill="#F8981D"/>
</svg>
