<svg width="117" height="25" viewBox="0 0 117 25" fill="none" xmlns="http://www.w3.org/2000/svg">
<path d="M3.48438 21.5706V2.50586L22.5469 21.5706V2.50586" stroke="#009900" stroke-width="5" stroke-linecap="round" stroke-linejoin="round"/>
<path d="M34.125 0.03125L33.4375 1.3125L28.125 10.9688L27.4375 12.1875L28.125 13.4062L33.4375 22.75L34.1562 24.0312H35.625H46.5H48.0625L48.75 22.625L52.7188 14.625L54.5 11H50.4688L40.3125 11.0312C38.9917 11.0126 37.7769 12.2103 37.7769 13.5312C37.7769 14.8522 38.9917 16.0499 40.3125 16.0312L46.4375 16L44.9375 19.0312H37.0625L33.1562 12.1562L37.0938 5.03125H45.471L47.4241 9.03906H52.4553L49.2835 1.4375L48.596 0.03125H47.0335H35.625H34.125Z" fill="#009900"/>
<path d="M59.4494 0.000167597C58.1404 0.0165576 56.9643 1.22243 56.9806 2.53142V9.04593H61.9806V2.53142C61.9972 1.2016 60.7792 -0.0164254 59.4494 0.000167597Z" fill="#009900"/>
<path d="M86.5273 21.6194V2.55469L67.4648 21.6194V2.55469" stroke="#009900" stroke-width="5" stroke-linecap="round" stroke-linejoin="round"/>
<path d="M94.4531 2.54883L113.538 21.5667" stroke="#009900" stroke-width="5" stroke-linecap="round" stroke-linejoin="round"/>
<path d="M113.559 2.54883L94.4738 21.5667" stroke="#009900" stroke-width="5" stroke-linecap="round" stroke-linejoin="round"/>
<path d="M59.4494 24.0483C58.1404 24.032 56.9643 22.8261 56.9806 21.5171V11.0527H61.9806V21.5171C61.9972 22.8469 60.7792 24.0649 59.4494 24.0483Z" fill="#009900"/>
</svg>
