<svg width="134" height="67" viewBox="0 0 134 67" fill="none" xmlns="http://www.w3.org/2000/svg">
<path d="M119.241 28.2871C118.938 28.2871 118.644 28.3497 118.383 28.4971L110.135 33.26C109.602 33.5673 109.277 34.1483 109.277 34.7659V44.2745C109.277 44.892 109.602 45.4719 110.135 45.7803L112.289 47.0215C113.336 47.5374 113.722 47.5292 114.198 47.5292C115.747 47.5292 116.632 46.589 116.632 44.955V35.5742C116.632 35.4415 116.517 35.3466 116.387 35.3466H115.354C115.221 35.3466 115.109 35.444 115.109 35.5742V44.9599C115.109 45.6841 114.354 46.4128 113.13 45.8005L110.891 44.4872C110.812 44.4442 110.751 44.3655 110.751 44.2772V34.7686C110.751 34.6786 110.811 34.5866 110.891 34.5411L119.121 29.7953C119.198 29.751 119.29 29.751 119.366 29.7953L127.596 34.5411C127.675 34.588 127.736 34.6757 127.736 34.7686V44.2772C127.736 44.368 127.691 44.461 127.614 44.5048L119.366 49.2505C119.293 49.2926 119.196 49.2926 119.121 49.2505L117.002 47.9899C116.939 47.9529 116.853 47.9558 116.792 47.9899C116.208 48.3213 116.098 48.3598 115.549 48.5501C115.414 48.5971 115.209 48.6703 115.619 48.9006L118.386 50.5312C118.649 50.6835 118.943 50.7587 119.244 50.7587C119.55 50.7587 119.839 50.6857 120.102 50.5312L128.35 45.7854C128.883 45.4748 129.208 44.8971 129.208 44.2796V34.7711C129.208 34.1534 128.883 33.5737 128.35 33.2651L120.102 28.5023C119.844 28.3548 119.547 28.2922 119.244 28.2922L119.241 28.2871ZM121.447 35.0816C119.099 35.0816 117.7 36.0811 117.7 37.7431C117.7 39.5441 119.088 40.0415 121.343 40.2645C124.039 40.5285 124.249 40.9245 124.249 41.4553C124.249 42.376 123.515 42.7685 121.78 42.7685C119.601 42.7685 119.122 42.2244 118.961 41.1379C118.942 41.0216 118.853 40.9279 118.734 40.9279H117.663C117.598 40.9293 117.537 40.9556 117.491 41.0013C117.445 41.0469 117.419 41.1084 117.418 41.173C117.418 42.5609 118.173 44.2022 121.778 44.2022C124.388 44.2022 125.893 43.1801 125.893 41.383C125.893 39.6064 124.677 39.1262 122.146 38.7911C119.59 38.4504 119.344 38.2873 119.344 37.6879C119.344 37.1933 119.551 36.5319 121.445 36.5319C123.137 36.5319 123.763 36.8969 124.019 38.0379C124.042 38.1449 124.136 38.2325 124.247 38.2325H125.318C125.384 38.2325 125.447 38.1922 125.493 38.1449C125.538 38.0946 125.569 38.0379 125.563 37.9697C125.398 36.0047 124.087 35.0804 121.448 35.0804L121.447 35.0816Z" fill="#83CD29"/>
<path d="M70.7537 15.8226C70.6616 15.8228 70.571 15.8469 70.4911 15.8927C70.4115 15.9392 70.3455 16.0057 70.2994 16.0855C70.2534 16.1654 70.2289 16.2559 70.2285 16.348V29.7438C70.2285 29.8752 70.1672 29.993 70.0533 30.0589C69.9974 30.0915 69.934 30.1086 69.8694 30.1086C69.8048 30.1086 69.7413 30.0915 69.6855 30.0589L67.4966 28.7983C67.337 28.7059 67.1558 28.6572 66.9713 28.6572C66.7868 28.6572 66.6056 28.7059 66.446 28.7983L57.7084 33.8412C57.3818 34.0296 57.1827 34.3922 57.1827 34.7692V44.8553C57.1825 45.0399 57.2309 45.2212 57.3232 45.3811C57.4154 45.5409 57.5482 45.6736 57.7082 45.7657L66.446 50.8089C66.6056 50.9015 66.7868 50.9503 66.9713 50.9503C67.1558 50.9503 67.337 50.9015 67.4966 50.8089L76.2344 45.7657C76.3944 45.6736 76.5272 45.5409 76.6194 45.3811C76.7117 45.2212 76.7601 45.0399 76.7599 44.8553V19.71C76.7599 19.3274 76.5511 18.9684 76.2172 18.782L71.0165 15.8749C70.9348 15.8294 70.8442 15.8216 70.7537 15.8226ZM14.5442 28.4128C14.3775 28.4196 14.2211 28.4485 14.0714 28.5354L5.3338 33.5783C5.17373 33.6703 5.04084 33.803 4.9486 33.9629C4.85636 34.1228 4.80806 34.3042 4.8086 34.4888L4.82636 48.025C4.82636 48.2133 4.92371 48.3881 5.08921 48.4801C5.25154 48.5774 5.45281 48.5774 5.61441 48.4801L10.7975 45.5031C11.1261 45.3084 11.3402 44.9687 11.3402 44.5929V38.2713C11.3402 37.8941 11.5386 37.5485 11.8659 37.3611L14.0723 36.0829C14.2318 35.9902 14.4131 35.9418 14.5975 35.9427C14.7821 35.9416 14.9635 35.99 15.123 36.0829L17.3284 37.3604C17.6553 37.5478 17.8536 37.8938 17.8536 38.2706V44.592C17.8536 44.9682 18.0727 45.3099 18.3964 45.5022L23.5795 48.4791C23.7425 48.5765 23.9433 48.5765 24.1047 48.4791C24.2653 48.3866 24.3675 48.2121 24.3675 48.024L24.385 34.4883C24.3861 34.3036 24.338 34.122 24.2457 33.962C24.1534 33.802 24.0202 33.6694 23.8598 33.5779L15.1223 28.5352C14.9745 28.4485 14.8173 28.4193 14.6494 28.4125H14.5447L14.5442 28.4128ZM93.0622 28.5354C92.8778 28.5349 92.6965 28.5833 92.5368 28.6756L83.799 33.7188C83.4728 33.9074 83.2733 34.2522 83.2733 34.629V44.7151C83.2733 45.0943 83.487 45.4379 83.816 45.6253L92.4837 50.5658C92.8038 50.7483 93.1944 50.7622 93.5168 50.5828L98.7701 47.6585C98.9368 47.566 99.0495 47.3932 99.0499 47.2033C99.0504 47.0135 98.9519 46.8427 98.7871 46.7482L89.9965 41.7051C89.8319 41.6111 89.7166 41.421 89.7166 41.2322V38.0783C89.7166 37.8899 89.8334 37.7172 89.9965 37.6232L92.7281 36.0471C92.8906 35.9532 93.0902 35.9532 93.2538 36.0471L95.9866 37.6232C96.0666 37.6692 96.133 37.7355 96.1792 37.8154C96.2253 37.8953 96.2495 37.986 96.2492 38.0783V40.5649C96.249 40.6571 96.2731 40.7478 96.3192 40.8278C96.3653 40.9077 96.4318 40.974 96.5118 41.02C96.6756 41.1144 96.8739 41.1149 97.0375 41.02L102.273 37.9737C102.598 37.7848 102.799 37.439 102.799 37.0635V34.6297C102.799 34.4452 102.75 34.2639 102.658 34.1041C102.566 33.9443 102.433 33.8116 102.273 33.7193L93.5879 28.6761C93.4283 28.5837 93.2469 28.5353 93.0625 28.5359L93.0622 28.5354ZM66.9361 36.0654C66.985 36.0652 67.0332 36.0771 67.0763 36.1002L70.0705 37.8337C70.1518 37.8807 70.2107 37.9676 70.2107 38.0613V41.5284C70.2107 41.6226 70.1523 41.7092 70.0705 41.7559L67.0763 43.4895C66.9948 43.5357 66.8953 43.5357 66.8135 43.4895L63.8193 41.7559C63.7377 41.709 63.6791 41.6221 63.6791 41.5284V38.0608C63.6791 37.9669 63.738 37.8807 63.8193 37.8332L66.8135 36.0999C66.8544 36.0763 66.8904 36.0654 66.9361 36.0654Z" fill="#404137"/>
<path d="M40.7926 28.4827C40.6081 28.4824 40.4268 28.5307 40.2669 28.6229L31.5291 33.6485C31.2025 33.8369 31.0039 34.1998 31.0039 34.5765V44.6626C31.0034 44.8472 31.0517 45.0286 31.144 45.1884C31.2362 45.3483 31.3691 45.4809 31.5291 45.5728L40.2669 50.616C40.4265 50.7086 40.6077 50.7574 40.7923 50.7574C40.9768 50.7574 41.158 50.7086 41.3176 50.616L50.0554 45.5728C50.2153 45.4807 50.3481 45.348 50.4404 45.1882C50.5327 45.0283 50.5811 44.8469 50.5808 44.6624V34.5762C50.5808 34.199 50.3822 33.8364 50.0552 33.6483L41.3173 28.6226C41.1577 28.53 40.9762 28.4816 40.7916 28.4824L40.7926 28.4827ZM93.0448 37.4833C93.01 37.4833 92.9713 37.4833 92.9397 37.5004L91.2587 38.4812C91.2274 38.4986 91.2012 38.5239 91.1827 38.5546C91.1643 38.5853 91.1542 38.6203 91.1536 38.6562V40.5825C91.1536 40.655 91.1957 40.7212 91.2587 40.7577L92.9397 41.7207C92.9685 41.7386 93.0018 41.7481 93.0358 41.7481C93.0698 41.7481 93.1031 41.7386 93.1319 41.7207L94.8129 40.7577C94.8752 40.7219 94.918 40.655 94.918 40.5825V38.6562C94.918 38.5836 94.8755 38.5174 94.8129 38.4809L93.1319 37.5001C93.1008 37.4816 93.0794 37.4831 93.0443 37.4831L93.0448 37.4833Z" fill="#83CD29"/>
</svg>
