<svg width="153" height="51" viewBox="0 0 153 51" fill="none" xmlns="http://www.w3.org/2000/svg">
<path d="M28.6125 30.5335C31.4576 30.5335 33.764 28.2271 33.764 25.382C33.764 22.5369 31.4576 20.2305 28.6125 20.2305C25.7674 20.2305 23.4609 22.5369 23.4609 25.382C23.4609 28.2271 25.7674 30.5335 28.6125 30.5335Z" fill="#00D8FF"/>
<path fill-rule="evenodd" clip-rule="evenodd" d="M28.6138 14.9062C35.5304 14.9062 41.9558 15.8987 46.8005 17.5666C52.6377 19.5762 56.2266 22.6222 56.2266 25.3804C56.2266 28.2546 52.423 31.4906 46.1547 33.5675C41.4156 35.1376 35.1794 35.9572 28.6138 35.9572C21.8822 35.9572 15.5077 35.1879 10.7153 33.5502C4.65199 31.4778 1 28.1999 1 25.3804C1 22.6446 4.42669 19.6221 10.1818 17.6156C15.0446 15.9202 21.6286 14.9062 28.6128 14.9062H28.6138Z" stroke="#00D8FF" stroke-width="1.66272"/>
<path fill-rule="evenodd" clip-rule="evenodd" d="M19.4969 20.1743C22.9523 14.1826 27.0218 9.11232 30.887 5.74868C35.5439 1.69601 39.9756 0.108868 42.3648 1.48663C44.8548 2.92251 45.7578 7.83417 44.4255 14.3016C43.4191 19.1914 41.0127 25.0029 37.7327 30.6906C34.3697 36.522 30.5189 41.6597 26.7064 44.9921C21.8821 49.2093 17.218 50.7355 14.7756 49.3269C12.4056 47.9611 11.4992 43.4819 12.6362 37.4939C13.5969 32.4345 16.0077 26.2244 19.4957 20.1742L19.4969 20.1743Z" stroke="#00D8FF" stroke-width="1.66272"/>
<path fill-rule="evenodd" clip-rule="evenodd" d="M19.5028 30.7066C16.0376 24.7218 13.6783 18.6627 12.6936 13.6343C11.5081 7.57571 12.3463 2.94347 14.7334 1.5617C17.2209 0.121611 21.9272 1.79214 26.8649 6.17649C30.5982 9.49125 34.4317 14.4775 37.7213 20.1598C41.094 25.9856 43.6218 31.8878 44.6051 36.855C45.8494 43.1408 44.8423 47.9436 42.4022 49.3562C40.0345 50.7269 35.7018 49.2757 31.0819 45.3C27.1784 41.9411 23.0022 36.7509 19.5028 30.7065V30.7066Z" stroke="#00D8FF" stroke-width="1.66272"/>
<path fill-rule="evenodd" clip-rule="evenodd" d="M86.2009 36.9227L79.8866 27.3832C83.0778 27.1016 85.9533 24.7893 85.9533 20.565C85.9533 16.2666 82.9029 13.5156 78.6238 13.5156H69.2266V36.905H72.1376V27.6115H76.8022L82.7636 36.905L86.2009 36.9227ZM78.2755 25.0695H72.1391V16.1273H78.2755C81.0472 16.1273 82.94 17.9504 82.94 20.5813C82.94 23.2123 81.0457 25.0724 78.2755 25.0724V25.0695ZM97.0373 37.3422C99.8091 37.3422 102.087 36.4306 103.771 34.7483L102.508 33.029C101.174 34.397 99.2117 35.1678 97.2834 35.1678C93.6371 35.1678 91.3916 32.5028 91.1811 29.3131H104.892V28.6461C104.892 23.5621 101.875 19.5631 96.7542 19.5631C91.9148 19.5631 88.4094 23.5265 88.4094 28.4356C88.4094 33.7315 92.0215 37.3289 97.0358 37.3289L97.0373 37.3422ZM102.299 27.3817H91.1826C91.3234 24.7879 93.1095 21.7345 96.7231 21.7345C100.581 21.7345 102.264 24.856 102.299 27.3817ZM122.359 36.9213V25.2785C122.359 21.1757 119.38 19.5616 115.802 19.5616C113.03 19.5616 110.857 20.4731 109.034 22.3674L110.262 24.1905C111.769 22.5779 113.419 21.8412 115.452 21.8412C117.907 21.8412 119.731 23.1382 119.731 25.4178V28.4682C118.363 26.8896 116.435 26.153 114.12 26.153C111.244 26.153 108.191 27.942 108.191 31.7291C108.191 35.4109 111.241 37.3407 114.12 37.3407C116.399 37.3407 118.329 36.5344 119.731 34.9914V36.9183L122.359 36.9213ZM115.067 35.4479C112.612 35.4479 110.893 33.9064 110.893 31.7661C110.893 29.5917 112.612 28.0487 115.067 28.0487C116.926 28.0487 118.713 28.7498 119.731 30.1535V33.3447C118.715 34.7468 116.926 35.4479 115.067 35.4479ZM135.077 37.3422C138.163 37.3422 139.986 36.0794 141.284 34.397L139.531 32.7844C138.409 34.2918 136.971 34.9929 135.232 34.9929C131.62 34.9929 129.378 32.1871 129.378 28.4356C129.378 24.6841 131.622 21.9138 135.232 21.9138C136.986 21.9138 138.424 22.5808 139.531 24.1223L141.284 22.5097C139.987 20.8259 138.163 19.5645 135.077 19.5645C130.027 19.5645 126.625 23.4227 126.625 28.4371C126.625 33.487 130.027 37.3303 135.077 37.3303V37.3422ZM149.247 37.3422C150.788 37.3422 151.737 36.8857 152.404 36.2557L151.633 34.2918C151.282 34.6772 150.596 34.9929 149.844 34.9929C148.688 34.9929 148.125 34.0813 148.125 32.8185V22.2977H151.564V19.984H148.125V15.3551H145.494V19.984H142.688V22.2992H145.494V33.3817C145.494 35.9074 146.757 37.3452 149.247 37.3452V37.3422Z" fill="#00D8FF"/>
</svg>
