<svg width="109" height="63" viewBox="0 0 109 63" fill="none" xmlns="http://www.w3.org/2000/svg">
<path d="M61.7804 14.8281C59.4796 16.6176 57.5197 18.5776 56.0711 20.8783C55.645 21.5601 55.0485 21.3896 54.5372 21.3896C50.7026 21.3896 46.8679 21.3896 42.9481 21.3896C42.4368 21.3896 41.9255 21.3896 41.329 21.3896C41.329 23.7756 41.329 26.0764 41.329 28.5476C45.2489 28.5476 49.1687 28.5476 53.1738 28.5476C52.6625 31.3597 52.7477 34.0013 53.1738 36.8134C49.1687 36.8134 45.3341 36.8134 41.4142 36.8134C41.4142 39.1994 41.4142 41.5002 41.4142 43.9714C43.5446 43.9714 45.7601 43.9714 47.8905 43.9714C50.1913 43.9714 52.4921 43.9714 54.7929 43.9714C55.3041 43.9714 55.8154 43.9714 56.1563 44.5679C57.6049 46.8687 59.4796 48.7434 61.8656 50.6181C52.1512 50.6181 42.6924 50.6181 33.1484 50.6181C33.1484 38.7733 33.1484 26.9285 33.1484 14.9133C42.522 14.8281 52.066 14.8281 61.7804 14.8281Z" fill="url(#paint0_linear_2968_2530)"/>
<path d="M28.2911 17.3838C27.439 19.5142 26.5868 21.5593 25.7347 23.6897C22.3261 21.9002 18.9176 20.7924 15.1681 20.8776C13.8047 20.9628 12.5265 21.1333 11.2483 21.7298C9.88485 22.4115 9.03271 23.3488 9.03271 24.9679C9.03271 26.5017 9.97007 27.2687 11.1631 27.8652C13.3786 28.8878 15.8499 29.3138 18.2359 29.9103C20.1958 30.4216 22.0705 30.9329 23.86 31.6998C27.2686 33.2337 29.5693 35.7049 29.7398 39.6248C29.9102 43.5446 28.3763 46.6123 25.1382 48.7427C22.5818 50.447 19.6845 51.1287 16.6168 51.3843C11.7596 51.7252 7.15799 50.9582 2.72685 48.9131C2.13035 48.6575 1.61907 48.3166 1.02257 47.9757C0.681711 47.8053 0.426071 47.5497 0 47.2088C0.937357 45.1637 1.7895 43.2037 2.72685 40.9882C5.62414 42.8629 8.60664 44.0559 11.8448 44.482C13.8899 44.7376 15.9351 44.8228 17.895 44.3115C18.5767 44.1411 19.2584 43.8855 19.8549 43.5446C21.9853 42.2664 21.9853 39.6248 19.9401 38.2613C18.1506 37.1535 16.1055 36.7275 14.0604 36.3014C11.5039 35.7049 8.94749 35.1084 6.5615 34.0858C3.15293 32.552 0.937359 30.0808 0.681717 26.1609C0.426074 22.3263 1.95993 19.2585 5.11286 17.043C8.09535 14.9126 11.5891 14.3161 15.1681 14.2309C19.7697 14.1457 24.1156 14.9126 28.2911 17.3838Z" fill="url(#paint1_linear_2968_2530)"/>
<path d="M108.052 57.009C103.535 52.8335 98.9339 48.7432 94.4175 44.653C93.821 44.9086 93.821 45.6755 93.1393 45.7607C92.5428 45.5051 92.1167 45.079 91.7759 44.4825C91.9463 44.2269 92.1167 43.9712 92.2872 43.7156C96.3775 37.1541 96.4627 30.5074 92.5428 23.8607C90.8385 20.8782 88.4525 18.4922 85.5552 16.7027C81.891 14.4019 78.0564 13.2089 74.307 13.3793L73.114 15.9357L69.7054 14.3167C68.4272 14.7427 67.149 15.3393 65.956 16.1062C59.3945 20.026 56.1563 26.0762 56.9232 33.7455C57.5197 40.0514 61.0135 44.7382 66.0412 48.4024C72.8583 53.43 82.2319 53.2596 88.7082 47.8911C90.1568 46.6981 90.1568 46.6981 91.2646 48.3172C91.1794 48.8285 90.4124 48.9989 90.4977 49.6806C94.9288 53.6857 99.36 57.6907 103.791 61.6958C105.155 62.8888 107.029 62.7184 108.222 61.4402C109.245 60.0767 109.33 58.1168 108.052 57.009ZM85.1292 40.9035C80.2719 46.3572 72.8583 46.7833 67.575 41.9261C62.2917 37.1541 62.0361 29.6552 66.9785 24.2867C71.921 18.9183 79.1642 18.5774 84.4475 23.3494C89.7307 28.2066 89.9864 35.4498 85.1292 40.9035ZM106.859 58.4577C102.683 54.623 98.4226 50.8736 94.2471 47.039C94.2471 46.9537 94.3323 46.8685 94.3323 46.8685C98.5078 50.7032 102.769 54.4526 106.944 58.2872C106.944 58.3725 106.944 58.3725 106.859 58.4577Z" fill="url(#paint2_linear_2968_2530)"/>
<path d="M94.4165 46.8691C98.592 50.7038 102.853 54.4532 107.028 58.2879C106.943 58.3731 106.943 58.3731 106.858 58.4583C102.682 54.6236 98.4216 50.8742 94.2461 47.0396C94.3313 47.0396 94.3313 46.9544 94.4165 46.8691Z" fill="#FCFCFD"/>
<path d="M76.0098 42.5217C81.4691 42.5217 85.8947 38.0961 85.8947 32.6368C85.8947 27.1776 81.4691 22.752 76.0098 22.752C70.5506 22.752 66.125 27.1776 66.125 32.6368C66.125 38.0961 70.5506 42.5217 76.0098 42.5217Z" fill="url(#paint3_linear_2968_2530)"/>
<path d="M72.4304 7.75427L70.2148 6.56127L71.3226 4.3457L73.5382 5.45349L72.4304 7.75427Z" fill="url(#paint4_linear_2968_2530)"/>
<path d="M76.6094 9.71398L74.3086 8.60619L75.4164 6.39062L77.7172 7.49841L76.6094 9.71398Z" fill="url(#paint5_linear_2968_2530)"/>
<path d="M72.6024 14.1466L69.0234 12.4423L70.8129 8.86328L74.3067 10.6528L72.6024 14.1466Z" fill="url(#paint6_linear_2968_2530)"/>
<path d="M67.5742 9.54456L65.2734 8.35156L66.3812 6.05078L68.7672 7.15857L67.5742 9.54456Z" fill="url(#paint7_linear_2968_2530)"/>
<path d="M69.1087 3.40857L66.7227 2.30078L67.9157 0L70.2164 1.10778L69.1087 3.40857Z" fill="url(#paint8_linear_2968_2530)"/>
<path d="M67.5742 13.2926L65.2734 12.0996L66.3812 9.79883L68.7672 10.9066L67.5742 13.2926Z" fill="url(#paint9_linear_2968_2530)"/>
<path d="M2.89845 57.2657C2.89845 57.3509 2.81323 57.3509 2.72801 57.3509H2.6428C2.55759 57.3509 2.55759 57.2657 2.47237 57.2657C2.38716 57.2657 2.30194 57.1805 2.21673 57.1805C2.13151 57.1805 2.0463 57.1805 1.87587 57.1805C1.79066 57.1805 1.70545 57.1805 1.62023 57.1805C1.53502 57.1805 1.4498 57.2657 1.36459 57.2657C1.27937 57.3509 1.27937 57.3509 1.19416 57.4361C1.19416 57.5213 1.10895 57.6066 1.10895 57.6066C1.10895 57.6918 1.10895 57.777 1.19416 57.8622C1.27937 57.9474 1.36458 57.9474 1.4498 58.0326C1.53501 58.1178 1.62023 58.1178 1.79066 58.1178C1.87587 58.1178 2.0463 58.2031 2.13152 58.2031C2.21673 58.2031 2.38716 58.2883 2.47237 58.3735C2.55759 58.4587 2.72802 58.4587 2.81323 58.5439C2.89845 58.6291 2.98366 58.7143 3.06887 58.7995C3.15409 58.8848 3.15408 59.0552 3.15408 59.2256C3.15408 59.396 3.15409 59.5665 3.06887 59.7369C2.98366 59.9073 2.89845 59.9925 2.81323 60.0778C2.72802 60.163 2.55759 60.2482 2.38716 60.3334C2.21673 60.4186 2.0463 60.4186 1.79066 60.4186C1.53501 60.4186 1.27938 60.4186 1.10895 60.3334C0.938518 60.2482 0.682871 60.163 0.597656 59.9926L0.768089 59.7369L0.853302 59.6517H0.938515C1.02373 59.6517 1.02373 59.6517 1.10895 59.7369C1.19416 59.7369 1.19416 59.8221 1.27937 59.8221C1.36459 59.8221 1.4498 59.9073 1.53502 59.9073C1.62023 59.9073 1.79066 59.9926 1.87587 59.9926C1.96108 59.9926 2.13151 59.9925 2.21673 59.9073C2.30194 59.9073 2.38716 59.8221 2.47237 59.7369C2.55759 59.6517 2.55759 59.6517 2.6428 59.5665C2.6428 59.4813 2.72801 59.3961 2.72801 59.3108C2.72801 59.2256 2.72801 59.1404 2.6428 59.0552C2.55759 58.97 2.47238 58.97 2.38716 58.8848C2.30195 58.7996 2.21673 58.7995 2.0463 58.7995C1.96109 58.7995 1.79066 58.7143 1.70544 58.7143C1.62023 58.7143 1.4498 58.6291 1.36459 58.5439C1.27937 58.4587 1.10894 58.4587 1.02373 58.3735C0.938513 58.2883 0.853303 58.2031 0.768089 58.1178C0.682874 58.0326 0.682876 57.8622 0.682876 57.6918C0.682876 57.5213 0.682874 57.4361 0.768089 57.2657C0.853303 57.0953 0.938513 57.0101 1.02373 56.9248C1.10894 56.8396 1.27937 56.7544 1.4498 56.6692C1.62023 56.584 1.79066 56.584 2.0463 56.584C2.30195 56.584 2.47237 56.584 2.72801 56.6692C2.89844 56.7544 3.06888 56.8396 3.2393 57.0101L2.89845 57.2657Z" fill="black"/>
<path d="M5.79485 56.584C6.0505 56.584 6.22092 56.584 6.39135 56.6692C6.56178 56.7544 6.73221 56.8396 6.90263 57.0101C7.07306 57.1805 7.15828 57.3509 7.24349 57.5213C7.32871 57.6918 7.32871 57.9474 7.32871 58.2031C7.32871 58.2883 7.32871 58.3735 7.32871 58.3735L7.24349 58.4587H4.77228C4.77228 58.7143 4.77228 58.8848 4.85749 59.0552C4.94271 59.2256 5.02792 59.396 5.11314 59.4813C5.19835 59.5665 5.36878 59.6517 5.454 59.7369C5.62442 59.8221 5.79485 59.8221 5.96528 59.8221C6.13571 59.8221 6.30614 59.8221 6.39135 59.7369C6.47656 59.7369 6.64699 59.6517 6.73221 59.6517C6.81742 59.5665 6.90263 59.5665 6.98785 59.5665C7.07306 59.5665 7.07307 59.4813 7.15828 59.4813C7.24349 59.4813 7.24349 59.4813 7.24349 59.5665L7.41392 59.8221C7.3287 59.9073 7.24349 59.9925 7.15828 60.0778C7.07307 60.163 6.90264 60.2482 6.81742 60.2482C6.64699 60.3334 6.56178 60.3334 6.39135 60.3334C6.22092 60.3334 6.13571 60.3334 5.96528 60.3334C5.70964 60.3334 5.45399 60.2482 5.28356 60.163C5.02792 60.0778 4.85749 59.9073 4.68707 59.8221C4.51664 59.6517 4.43142 59.4813 4.34621 59.2256C4.26099 58.97 4.17578 58.7143 4.17578 58.3735C4.17578 58.1178 4.17578 57.8622 4.26099 57.6066C4.34621 57.3509 4.43142 57.1805 4.60185 57.0101C4.77228 56.8396 4.94271 56.7544 5.11314 56.584C5.28357 56.584 5.53921 56.584 5.79485 56.584ZM5.88007 57.0101C5.53921 57.0101 5.28357 57.0953 5.11314 57.2657C4.94271 57.4361 4.85749 57.6918 4.77228 58.0326H6.81742C6.81742 57.8622 6.81742 57.777 6.73221 57.6066C6.73221 57.5213 6.64699 57.3509 6.56178 57.2657C6.47656 57.1805 6.39135 57.0953 6.30614 57.0101C6.13571 57.0953 5.96528 57.0101 5.88007 57.0101Z" fill="black"/>
<path d="M11.3341 60.3329H11.0784C10.9932 60.3329 10.9932 60.3329 10.908 60.3329L10.8228 60.2477L10.7376 59.9068C10.6523 59.992 10.5671 60.0773 10.4819 60.1625C10.3967 60.2477 10.3115 60.3329 10.2263 60.3329C10.1411 60.4181 10.0558 60.4181 9.88542 60.4181C9.8002 60.4181 9.62977 60.4181 9.45934 60.4181C9.28892 60.4181 9.2037 60.4181 9.03327 60.3329C8.94806 60.3329 8.77763 60.2477 8.69241 60.1625C8.6072 60.0773 8.52199 59.9921 8.43678 59.8216C8.35156 59.7364 8.35156 59.566 8.35156 59.3956C8.35156 59.2251 8.35156 59.1399 8.43678 58.9695C8.52199 58.7991 8.6072 58.7138 8.86285 58.6286C9.11849 58.5434 9.28891 58.4582 9.54456 58.373C9.8002 58.2878 10.2263 58.2878 10.6523 58.2878V58.0321C10.6523 57.7765 10.5671 57.5208 10.4819 57.3504C10.3967 57.18 10.1411 57.0948 9.97063 57.0948C9.8002 57.0948 9.71499 57.0948 9.54456 57.18C9.45934 57.18 9.37413 57.2652 9.28892 57.3504C9.2037 57.4356 9.11849 57.4356 9.11849 57.5208C9.03327 57.5208 9.03327 57.606 8.94806 57.606C8.86285 57.606 8.86285 57.606 8.86285 57.606L8.77763 57.5208L8.69241 57.3504C8.86284 57.18 9.11849 57.0095 9.37413 56.9243C9.62977 56.8391 9.88542 56.7539 10.1411 56.7539C10.3115 56.7539 10.5671 56.7539 10.7376 56.8391C10.908 56.9243 10.9932 57.0095 11.1636 57.0948C11.2488 57.18 11.3341 57.3504 11.4193 57.5208C11.5045 57.6913 11.5045 57.8617 11.5045 58.1173V60.3329H11.3341ZM9.62978 59.9068C9.71499 59.9068 9.88541 59.9068 9.97063 59.9068C10.0558 59.9068 10.1411 59.8216 10.2263 59.8216C10.3115 59.7364 10.3967 59.7364 10.4819 59.6512C10.5671 59.566 10.6523 59.4808 10.7376 59.4808V58.7138C10.3967 58.7138 10.1411 58.7138 9.97063 58.799C9.8002 58.799 9.62977 58.8843 9.45934 58.9695C9.28892 59.0547 9.20371 59.1399 9.20371 59.2251C9.11849 59.3103 9.11849 59.3955 9.11849 59.4808C9.11849 59.566 9.11849 59.6512 9.20371 59.7364C9.20371 59.8216 9.28892 59.9068 9.37413 59.9068C9.45935 59.992 9.45934 59.9921 9.54456 59.9921C9.62977 59.9921 9.54456 59.9068 9.62978 59.9068Z" fill="black"/>
<path d="M12.6992 60.3327V56.5833H13.0401C13.1253 56.5833 13.1253 56.5833 13.2105 56.5833C13.2105 56.5833 13.2957 56.6685 13.2957 56.7537L13.3809 57.3502C13.4661 57.0945 13.6366 56.9241 13.8922 56.7537C14.0626 56.5833 14.3183 56.498 14.5739 56.498C14.6591 56.498 14.7444 56.498 14.8296 56.498C14.9148 56.498 15 56.5833 15.0852 56.5833L15 57.0945C15 57.1798 14.9148 57.1798 14.9148 57.1798C14.9148 57.1798 14.8296 57.1798 14.7444 57.1798C14.6591 57.1798 14.5739 57.1798 14.4887 57.1798C14.2331 57.1798 14.0626 57.265 13.8922 57.3502C13.7218 57.5206 13.6366 57.691 13.4661 57.9467V60.3327H12.6992Z" fill="black"/>
<path d="M18.5777 57.2643C18.4925 57.3495 18.4925 57.3495 18.5777 57.2643C18.4925 57.3495 18.4925 57.3495 18.4073 57.3495C18.4073 57.3495 18.3221 57.3495 18.3221 57.2643C18.2368 57.2643 18.2368 57.179 18.1516 57.179C18.0664 57.179 17.9812 57.0938 17.896 57.0938C17.8108 57.0938 17.7256 57.0086 17.5551 57.0086C17.3847 57.0086 17.2143 57.0086 17.0438 57.0938C16.8734 57.179 16.7882 57.2642 16.703 57.3495C16.6178 57.4347 16.5326 57.6051 16.4473 57.7755C16.3621 57.946 16.3621 58.1164 16.3621 58.372C16.3621 58.6277 16.3621 58.7981 16.4473 58.9685C16.5326 59.139 16.5326 59.3094 16.703 59.3946C16.7882 59.4798 16.8734 59.565 17.0438 59.6502C17.2143 59.7355 17.2995 59.7355 17.4699 59.7355C17.6403 59.7355 17.7256 59.7355 17.896 59.6502C17.9812 59.6502 18.0664 59.565 18.1516 59.565C18.2368 59.4798 18.2368 59.4798 18.3221 59.4798C18.4073 59.4798 18.4073 59.3946 18.4925 59.3946C18.5777 59.3946 18.5777 59.3946 18.5777 59.4798L18.7481 59.7355C18.5777 59.9059 18.4073 60.0763 18.1516 60.1615C17.896 60.2467 17.6403 60.332 17.3847 60.332C17.1291 60.332 16.9586 60.2467 16.703 60.1615C16.5326 60.0763 16.3621 59.9911 16.1917 59.8207C16.0213 59.6503 15.9361 59.4798 15.8508 59.2242C15.7656 58.9685 15.7656 58.7129 15.7656 58.372C15.7656 58.1164 15.7656 57.8607 15.8508 57.6051C15.9361 57.3495 16.0213 57.179 16.1917 57.0086C16.3621 56.8382 16.5326 56.6677 16.703 56.5825C16.9586 56.4973 17.1291 56.4121 17.4699 56.4121C17.7256 56.4121 17.9812 56.4121 18.1516 56.4973C18.3221 56.5825 18.4925 56.6678 18.6629 56.8382L18.5777 57.2643Z" fill="black"/>
<path d="M19.8555 60.3326V54.8789H20.5372V57.0945C20.7076 56.924 20.878 56.7536 21.0485 56.6684C21.2189 56.5832 21.4745 56.498 21.7302 56.498C21.9006 56.498 22.071 56.498 22.2415 56.5832C22.4119 56.6684 22.4971 56.7536 22.6675 56.8388C22.7527 56.9241 22.838 57.0945 22.9232 57.2649C23.0084 57.4353 23.0084 57.6058 23.0084 57.8614V60.2474H22.3267V57.8614C22.3267 57.6058 22.2415 57.3501 22.1563 57.1797C21.9858 57.0093 21.8154 56.924 21.5598 56.924C21.3893 56.924 21.2189 57.0093 21.0485 57.0945C20.878 57.1797 20.7076 57.3501 20.6224 57.4353V60.1622H19.8555V60.3326Z" fill="black"/>
<path d="M27.5246 56.584C27.7802 56.584 27.9507 56.584 28.1211 56.6692C28.2915 56.7544 28.462 56.8396 28.6324 57.0101C28.8028 57.1805 28.888 57.3509 28.9732 57.5213C29.0585 57.6918 29.0585 57.9474 29.0585 58.2031C29.0585 58.2883 29.0585 58.3735 29.0585 58.3735L28.9732 58.4587H26.4168C26.4168 58.7143 26.4168 58.8848 26.502 59.0552C26.5872 59.2256 26.6725 59.396 26.7577 59.4813C26.8429 59.5665 27.0133 59.6517 27.0985 59.7369C27.269 59.8221 27.4394 59.8221 27.6098 59.8221C27.7802 59.8221 27.9507 59.8221 28.0359 59.7369C28.1211 59.7369 28.2915 59.6517 28.3767 59.6517C28.462 59.5665 28.5472 59.5665 28.6324 59.5665C28.7176 59.5665 28.7176 59.4813 28.8028 59.4813C28.888 59.4813 28.888 59.4813 28.888 59.5665L29.0585 59.8221C28.9732 59.9073 28.888 59.9925 28.8028 60.0778C28.7176 60.163 28.5472 60.2482 28.462 60.2482C28.2915 60.3334 28.2063 60.3334 28.0359 60.3334C27.8655 60.3334 27.7802 60.3334 27.6098 60.3334C27.3542 60.3334 27.0985 60.2482 26.9281 60.163C26.7577 60.0778 26.502 59.9073 26.3316 59.8221C26.1612 59.6517 26.076 59.4813 25.9907 59.2256C25.9055 58.97 25.8203 58.7143 25.8203 58.3735C25.8203 58.1178 25.8203 57.8622 25.9055 57.6066C25.9907 57.3509 26.076 57.1805 26.2464 57.0101C26.4168 56.8396 26.5872 56.7544 26.7577 56.584C27.0133 56.584 27.269 56.584 27.5246 56.584ZM27.5246 57.0101C27.1837 57.0101 26.9281 57.0953 26.7577 57.2657C26.5872 57.4361 26.502 57.6918 26.4168 58.0326H28.462C28.462 57.8622 28.462 57.777 28.3767 57.6066C28.3767 57.5213 28.2915 57.3509 28.2063 57.2657C28.1211 57.1805 28.0359 57.0953 27.9507 57.0101C27.8655 57.0953 27.695 57.0101 27.5246 57.0101Z" fill="black"/>
<path d="M30.2539 60.3334V56.584H30.68C30.7652 56.584 30.8504 56.6692 30.8504 56.7544L30.9356 57.1805C31.1061 57.0101 31.2765 56.8396 31.4469 56.7544C31.6173 56.6692 31.873 56.584 32.1286 56.584C32.299 56.584 32.4695 56.584 32.6399 56.6692C32.8103 56.7544 32.8956 56.8396 33.066 56.9248C33.1512 57.0101 33.2364 57.1805 33.3216 57.3509C33.4068 57.5213 33.4068 57.6918 33.4068 57.9474V60.3334H32.7251V57.9474C32.7251 57.6918 32.6399 57.4361 32.5547 57.2657C32.3843 57.0953 32.2138 57.0101 31.9582 57.0101C31.7878 57.0101 31.6173 57.0953 31.4469 57.1805C31.2765 57.2657 31.1061 57.4361 31.0208 57.5213V60.2482H30.2539V60.3334Z" fill="black"/>
<path d="M35.9621 56.5833C36.1325 56.5833 36.303 56.5833 36.3882 56.6685C36.5586 56.6685 36.6438 56.7537 36.8142 56.8389H37.8368V57.0945C37.8368 57.1798 37.7516 57.265 37.6664 57.265L37.2403 57.3502C37.3255 57.5206 37.3255 57.6911 37.3255 57.8615C37.3255 58.0319 37.3255 58.2023 37.2403 58.3728C37.1551 58.5432 37.0699 58.6284 36.9847 58.7136C36.8995 58.7988 36.729 58.8841 36.5586 58.9693C36.3882 59.0545 36.2177 59.0545 35.9621 59.0545C35.7917 59.0545 35.6212 59.0545 35.4508 58.9693C35.3656 59.0545 35.2804 59.0545 35.2804 59.1397C35.2804 59.2249 35.1952 59.2249 35.1952 59.3101C35.1952 59.3953 35.1952 59.4805 35.2804 59.4805C35.3656 59.5658 35.4508 59.5658 35.536 59.5658C35.6212 59.5658 35.7917 59.5658 35.9621 59.5658C36.1325 59.5658 36.303 59.5658 36.3882 59.5658C36.5586 59.5658 36.729 59.5658 36.8142 59.5658C36.9847 59.5658 37.0699 59.651 37.2403 59.7362C37.3255 59.8214 37.4107 59.9066 37.496 59.9918C37.5812 60.0771 37.5812 60.2475 37.5812 60.4179C37.5812 60.5883 37.5812 60.7588 37.496 60.9292C37.4107 61.0996 37.3255 61.1848 37.1551 61.3553C36.9847 61.4405 36.8142 61.5257 36.6438 61.6109C36.3882 61.6961 36.2177 61.6961 35.8769 61.6961C35.6212 61.6961 35.3656 61.6961 35.1952 61.6109C35.0247 61.5257 34.8543 61.5257 34.6839 61.3553C34.5135 61.27 34.4282 61.1848 34.343 61.0144C34.2578 60.9292 34.2578 60.7588 34.2578 60.6736C34.2578 60.5031 34.343 60.3327 34.4282 60.1623C34.5135 59.9918 34.6839 59.9066 34.9395 59.8214C34.8543 59.7362 34.7691 59.7362 34.6839 59.651C34.5987 59.5658 34.5987 59.4805 34.5987 59.3101C34.5987 59.2249 34.5987 59.2249 34.5987 59.1397C34.5987 59.0545 34.6839 59.0545 34.6839 58.9693C34.6839 58.8841 34.7691 58.884 34.8543 58.7988C34.9395 58.7136 34.9395 58.7136 35.0247 58.6284C34.8543 58.5432 34.6839 58.3728 34.5987 58.2023C34.5135 58.0319 34.4282 57.8615 34.4282 57.6058C34.4282 57.4354 34.4282 57.265 34.5135 57.0945C34.5987 56.9241 34.6839 56.8389 34.7691 56.7537C34.8543 56.6685 35.0247 56.5833 35.1952 56.498C35.6212 56.5833 35.7917 56.5833 35.9621 56.5833ZM37.1551 60.5031C37.1551 60.4179 37.1551 60.3327 37.0699 60.2475C36.9847 60.1623 36.9847 60.1623 36.8995 60.077C36.8142 60.077 36.729 59.9918 36.5586 59.9918C36.4734 59.9918 36.303 59.9918 36.2177 59.9918C36.1325 59.9918 35.9621 59.9918 35.7917 59.9918C35.6212 59.9918 35.536 59.9918 35.4508 59.9066C35.2804 59.9918 35.1952 60.077 35.11 60.1623C35.0247 60.2475 34.9395 60.3327 34.9395 60.5031C34.9395 60.5883 34.9395 60.6735 35.0247 60.7588C35.11 60.844 35.11 60.9292 35.1952 60.9292C35.2804 61.0144 35.3656 61.0144 35.536 61.0144C35.7065 61.0144 35.7917 61.0996 36.0473 61.0996C36.2177 61.0996 36.3882 61.0996 36.5586 61.0144C36.729 61.0144 36.8142 60.9292 36.8995 60.844C36.9847 60.7588 37.0699 60.6735 37.1551 60.5883C37.1551 60.7588 37.1551 60.6735 37.1551 60.5031ZM35.9621 58.5432C36.1325 58.5432 36.2177 58.5432 36.303 58.458C36.3882 58.458 36.4734 58.3728 36.5586 58.2876C36.6438 58.2023 36.6438 58.1171 36.729 58.0319C36.729 57.9467 36.8142 57.8615 36.8142 57.6911C36.8142 57.4354 36.729 57.265 36.6438 57.1798C36.4734 57.0093 36.303 57.0093 36.0473 57.0093C35.7917 57.0093 35.6212 57.0945 35.4508 57.1798C35.2804 57.3502 35.2804 57.5206 35.2804 57.6911C35.2804 57.7763 35.2804 57.8615 35.3656 58.0319C35.3656 58.1171 35.4508 58.2023 35.536 58.2876C35.6212 58.3728 35.7065 58.3728 35.7917 58.458C35.7917 58.5432 35.8769 58.5432 35.9621 58.5432Z" fill="black"/>
<path d="M39.7115 55.4749C39.7115 55.5601 39.7115 55.5601 39.7115 55.6453C39.7115 55.7305 39.6263 55.7305 39.6263 55.8158C39.5411 55.901 39.5411 55.901 39.4559 55.901C39.3707 55.901 39.3707 55.901 39.2854 55.901C39.2002 55.901 39.2002 55.901 39.115 55.901C39.0298 55.901 39.0298 55.8158 38.9446 55.8158C38.8594 55.7305 38.8594 55.7305 38.8594 55.6453C38.8594 55.5601 38.8594 55.5601 38.8594 55.4749C38.8594 55.3897 38.8594 55.3897 38.8594 55.3045C38.8594 55.2193 38.9446 55.2193 38.9446 55.134C39.0298 55.0488 39.0298 55.0488 39.115 55.0488C39.2002 55.0488 39.2002 55.0488 39.2854 55.0488C39.3707 55.0488 39.3707 55.0488 39.4559 55.0488C39.5411 55.0488 39.5411 55.134 39.6263 55.134C39.7115 55.2193 39.7115 55.2193 39.7115 55.3045C39.7115 55.3045 39.7115 55.3897 39.7115 55.4749ZM39.6263 56.5827V60.3321H38.9446V56.5827H39.6263Z" fill="black"/>
<path d="M41.1602 60.3334V56.584H41.5862C41.6714 56.584 41.7567 56.6692 41.7567 56.7544L41.8419 57.1805C42.0123 57.0101 42.1827 56.8396 42.3532 56.7544C42.5236 56.6692 42.7792 56.584 43.0349 56.584C43.2053 56.584 43.3757 56.584 43.5462 56.6692C43.7166 56.7544 43.8018 56.8396 43.9722 56.9248C44.0574 57.0101 44.1426 57.1805 44.2279 57.3509C44.3131 57.5213 44.3131 57.6918 44.3131 57.9474V60.3334H43.6314V57.9474C43.6314 57.6918 43.5462 57.4361 43.4609 57.2657C43.2905 57.0953 43.1201 57.0101 42.8644 57.0101C42.694 57.0101 42.5236 57.0953 42.3532 57.1805C42.1827 57.2657 42.0123 57.4361 41.9271 57.5213V60.2482H41.1602V60.3334Z" fill="black"/>
<path d="M47.0409 56.584C47.2966 56.584 47.467 56.584 47.6374 56.6692C47.8079 56.7544 47.9783 56.8396 48.1487 57.0101C48.3192 57.1805 48.4044 57.3509 48.4896 57.5213C48.5748 57.6918 48.5748 57.9474 48.5748 58.2031C48.5748 58.2883 48.5748 58.3735 48.5748 58.3735L48.4896 58.4587H46.0184C46.0184 58.7143 46.0184 58.8848 46.1036 59.0552C46.1888 59.2256 46.274 59.396 46.3592 59.4813C46.4444 59.5665 46.6149 59.6517 46.7001 59.7369C46.8705 59.8221 47.0409 59.8221 47.2114 59.8221C47.3818 59.8221 47.5522 59.8221 47.6374 59.7369C47.7227 59.7369 47.8931 59.6517 47.9783 59.6517C48.0635 59.5665 48.1487 59.5665 48.2339 59.5665C48.3192 59.5665 48.3192 59.4813 48.4044 59.4813C48.4896 59.4813 48.4896 59.4813 48.4896 59.5665L48.66 59.8221C48.5748 59.9073 48.4896 59.9925 48.4044 60.0778C48.3192 60.163 48.1487 60.2482 48.0635 60.2482C47.8931 60.3334 47.8079 60.3334 47.6374 60.3334C47.467 60.3334 47.3818 60.3334 47.2114 60.3334C46.9557 60.3334 46.7001 60.2482 46.5297 60.163C46.3592 60.0778 46.1036 59.9073 45.9332 59.8221C45.7627 59.6517 45.6775 59.4813 45.5923 59.2256C45.5071 58.97 45.4219 58.7143 45.4219 58.3735C45.4219 58.1178 45.4219 57.8622 45.5071 57.6066C45.5923 57.3509 45.6775 57.1805 45.8479 57.0101C46.0184 56.8396 46.1888 56.7544 46.3592 56.584C46.5297 56.584 46.7853 56.584 47.0409 56.584ZM47.0409 57.0101C46.7001 57.0101 46.4444 57.0953 46.274 57.2657C46.1036 57.4361 46.0184 57.6918 45.9332 58.0326H47.9783C47.9783 57.8622 47.9783 57.777 47.8931 57.6066C47.8931 57.5213 47.8079 57.3509 47.7227 57.2657C47.6374 57.1805 47.5522 57.0953 47.467 57.0101C47.3818 57.0953 47.2114 57.0101 47.0409 57.0101Z" fill="black"/>
<path d="M53.0903 56.584C53.3459 56.584 53.6016 56.6692 53.8572 56.7544C54.1129 56.8396 54.2833 57.0101 54.4537 57.1805C54.6241 57.3509 54.7094 57.5213 54.7946 57.777C54.8798 58.0326 54.8798 58.2883 54.8798 58.5439C54.8798 58.7996 54.8798 59.1404 54.7946 59.3108C54.7094 59.5665 54.6241 59.7369 54.4537 59.9073C54.2833 60.0778 54.1129 60.163 53.8572 60.3334C53.6016 60.4186 53.4311 60.5038 53.0903 60.5038C52.8346 60.5038 52.579 60.4186 52.3233 60.3334C52.0677 60.2482 51.8973 60.0778 51.7269 59.9073C51.5564 59.7369 51.4712 59.5665 51.386 59.3108C51.3008 59.0552 51.3008 58.7996 51.3008 58.5439C51.3008 58.2883 51.3008 57.9474 51.386 57.777C51.4712 57.5213 51.5564 57.3509 51.7269 57.1805C51.8973 57.0101 52.0677 56.9248 52.3233 56.7544C52.579 56.584 52.8346 56.584 53.0903 56.584ZM53.0903 59.9073C53.4311 59.9073 53.772 59.8221 53.9424 59.5665C54.1129 59.3108 54.1981 58.97 54.1981 58.5439C54.1981 58.1178 54.1129 57.777 53.9424 57.5213C53.772 57.2657 53.5164 57.1805 53.0903 57.1805C52.9199 57.1805 52.7494 57.1805 52.579 57.2657C52.4086 57.3509 52.3234 57.4361 52.2381 57.5213C52.1529 57.6065 52.0677 57.777 52.0677 57.9474C51.9825 58.1178 51.9825 58.2883 51.9825 58.5439C51.9825 58.7996 51.9825 58.97 52.0677 59.1404C52.1529 59.3108 52.1529 59.4813 52.2381 59.5665C52.3234 59.6517 52.4086 59.7369 52.579 59.8221C52.7494 59.8221 52.9199 59.9073 53.0903 59.9073Z" fill="black"/>
<path d="M56.0703 61.6116V56.584H56.4964C56.5816 56.584 56.6668 56.6692 56.6668 56.7544L56.752 57.1805C56.9225 57.0101 57.0929 56.8396 57.2633 56.7544C57.4337 56.6692 57.6894 56.584 57.945 56.584C58.2007 56.584 58.3711 56.584 58.5415 56.6692C58.7119 56.7544 58.8824 56.8396 58.9676 57.0101C59.0528 57.1805 59.2232 57.3509 59.2232 57.6066C59.3085 57.8622 59.3085 58.1178 59.3085 58.4587C59.3085 58.7143 59.3085 58.97 59.2232 59.2256C59.138 59.4813 59.0528 59.6517 58.8824 59.8221C58.712 59.9926 58.5415 60.163 58.3711 60.2482C58.2007 60.3334 57.945 60.4186 57.6894 60.4186C57.4337 60.4186 57.2633 60.4186 57.0929 60.3334C56.9225 60.2482 56.752 60.163 56.6668 59.9926V61.6116H56.0703ZM57.6894 57.0953C57.4337 57.0953 57.2633 57.1805 57.0929 57.2657C56.9225 57.3509 56.752 57.5213 56.6668 57.6918V59.4813C56.752 59.6517 56.9225 59.7369 57.0929 59.8221C57.2633 59.9073 57.4337 59.9073 57.6042 59.9073C57.945 59.9073 58.2007 59.8221 58.3711 59.5665C58.5415 59.3108 58.6267 58.97 58.6267 58.5439C58.6267 58.2883 58.6267 58.1178 58.5415 57.9474C58.4563 57.777 58.4563 57.6065 58.3711 57.5213C58.2859 57.4361 58.2007 57.3509 58.1154 57.2657C58.0302 57.0953 57.8598 57.0953 57.6894 57.0953Z" fill="black"/>
<path d="M61.6127 60.4183C61.3571 60.4183 61.1014 60.3331 60.931 60.1626C60.7606 59.9922 60.6753 59.7366 60.6753 59.4809V57.1801H60.2493H60.1641V57.0949V56.7541L60.7606 56.6688L60.931 55.4758C60.931 55.4758 60.931 55.3906 61.0162 55.3906H61.1014H61.4423V56.6688H62.5501V57.1801H61.3571V59.3957C61.3571 59.5661 61.3571 59.6513 61.4423 59.7366C61.5275 59.8218 61.6127 59.8218 61.6979 59.8218C61.7831 59.8218 61.8683 59.8218 61.8683 59.8218C61.8683 59.8218 61.9536 59.8218 62.0388 59.7366C62.124 59.6513 62.124 59.7366 62.124 59.6513H62.2092C62.2092 59.6513 62.2944 59.6513 62.2944 59.7366L62.4648 60.0774C62.3796 60.1626 62.2092 60.2478 62.0388 60.3331C61.9536 60.4183 61.7831 60.4183 61.6127 60.4183Z" fill="black"/>
<path d="M64.5084 55.4749C64.5084 55.5601 64.5084 55.5601 64.5084 55.6453C64.5084 55.7305 64.4232 55.7305 64.4232 55.8158C64.338 55.901 64.338 55.901 64.2527 55.901C64.1675 55.901 64.1675 55.901 64.0823 55.901C63.9971 55.901 63.9971 55.901 63.9119 55.901C63.8267 55.901 63.8267 55.8158 63.7415 55.8158C63.6563 55.7305 63.6562 55.7305 63.6562 55.6453C63.6562 55.5601 63.6562 55.5601 63.6562 55.4749C63.6562 55.3897 63.6562 55.3897 63.6562 55.3045C63.6562 55.2193 63.7415 55.2193 63.7415 55.134C63.8267 55.0488 63.8267 55.0488 63.9119 55.0488C63.9971 55.0488 63.9971 55.0488 64.0823 55.0488C64.1675 55.0488 64.1675 55.0488 64.2527 55.0488C64.338 55.0488 64.338 55.134 64.4232 55.134C64.5084 55.2193 64.5084 55.2193 64.5084 55.3045C64.4232 55.3045 64.5084 55.3897 64.5084 55.4749ZM64.338 56.5827V60.3321H63.6562V56.5827H64.338Z" fill="black"/>
<path d="M65.8711 60.332V56.5825H66.2972C66.3824 56.5825 66.4676 56.6677 66.4676 56.753L66.5528 57.0938C66.7232 56.9234 66.8085 56.753 66.9789 56.6677C67.1493 56.5825 67.3197 56.4973 67.5754 56.4973C67.831 56.4973 68.0014 56.5825 68.1719 56.6677C68.3423 56.8382 68.4275 57.0086 68.5127 57.2643C68.5979 57.0938 68.598 57.0086 68.6832 56.9234C68.7684 56.8382 68.8536 56.753 68.9388 56.6677C69.024 56.5825 69.1944 56.5825 69.2797 56.4973C69.3649 56.4973 69.5353 56.4121 69.6205 56.4121C69.7909 56.4121 69.9614 56.4121 70.1318 56.4973C70.3022 56.5825 70.3874 56.6677 70.5579 56.753C70.6431 56.8382 70.7283 57.0086 70.8135 57.179C70.8987 57.3495 70.8987 57.5199 70.8987 57.7755V60.1615H70.217V57.7755C70.217 57.5199 70.1318 57.2642 70.0466 57.0938C69.9614 56.9234 69.7057 56.8382 69.4501 56.8382C69.3649 56.8382 69.2797 56.8382 69.1092 56.9234C69.024 56.9234 68.9388 57.0086 68.8536 57.0938C68.7684 57.179 68.6832 57.2642 68.6832 57.3495C68.598 57.4347 68.5979 57.6051 68.5979 57.7755V60.1615H67.9162V57.7755C67.9162 57.4347 67.831 57.2642 67.7458 57.0938C67.6606 56.9234 67.4902 56.8382 67.2345 56.8382C67.0641 56.8382 66.8937 56.9234 66.8084 57.0086C66.638 57.0938 66.5528 57.179 66.4676 57.3495V60.1615H65.8711V60.332Z" fill="black"/>
<path d="M73.1139 55.4749C73.1139 55.5601 73.1139 55.5601 73.1139 55.6453C73.1139 55.7305 73.0286 55.7305 73.0286 55.8158C72.9434 55.901 72.9434 55.901 72.8582 55.901C72.773 55.901 72.773 55.901 72.6878 55.901C72.6026 55.901 72.6026 55.901 72.5174 55.901C72.4321 55.901 72.4321 55.8158 72.3469 55.8158C72.2617 55.7305 72.2617 55.7305 72.2617 55.6453C72.2617 55.5601 72.2617 55.5601 72.2617 55.4749C72.2617 55.3897 72.2617 55.3897 72.2617 55.3045C72.2617 55.2193 72.3469 55.2193 72.3469 55.134C72.4321 55.0488 72.4321 55.0488 72.5174 55.0488C72.6026 55.0488 72.6026 55.0488 72.6878 55.0488C72.773 55.0488 72.773 55.0488 72.8582 55.0488C72.9434 55.0488 72.9434 55.134 73.0286 55.134C73.1139 55.2193 73.1139 55.2193 73.1139 55.3045C73.1139 55.3045 73.1139 55.3897 73.1139 55.4749ZM73.0286 56.5827V60.3321H72.3469V56.5827H73.0286Z" fill="black"/>
<path d="M77.1199 56.9243C77.1199 57.0095 77.1199 57.0095 77.1199 57.0948C77.1199 57.18 77.1199 57.18 77.0347 57.18L74.9896 59.9068H77.0347V60.4181H74.2227V60.1625V60.0773C74.2227 59.992 74.2226 59.9921 74.3079 59.9921L76.353 57.2652H74.3079V56.7539H77.0347V56.9243H77.1199Z" fill="black"/>
<path d="M81.0411 60.3329H80.7854C80.7002 60.3329 80.7002 60.3329 80.615 60.3329L80.5298 60.2477L80.4446 59.9068C80.3594 59.992 80.2742 60.0773 80.189 60.1625C80.1037 60.2477 80.0185 60.3329 79.9333 60.3329C79.8481 60.4181 79.7629 60.4181 79.5924 60.4181C79.5072 60.4181 79.3368 60.4181 79.1664 60.4181C78.9959 60.4181 78.9107 60.4181 78.7403 60.3329C78.6551 60.3329 78.4847 60.2477 78.3994 60.1625C78.3142 60.0773 78.229 59.9921 78.1438 59.8216C78.0586 59.7364 78.0586 59.566 78.0586 59.3956C78.0586 59.2251 78.0586 59.1399 78.1438 58.9695C78.229 58.7991 78.3142 58.7138 78.5699 58.6286C78.7403 58.5434 78.9959 58.4582 79.2516 58.373C79.5072 58.2878 79.9333 58.2878 80.3594 58.2878V58.0321C80.3594 57.7765 80.2742 57.5208 80.189 57.3504C80.1037 57.18 79.8481 57.0948 79.6777 57.0948C79.5072 57.0948 79.422 57.0948 79.2516 57.18C79.1664 57.18 79.0812 57.2652 78.9959 57.3504C78.9107 57.4356 78.8255 57.4356 78.8255 57.5208C78.7403 57.5208 78.7403 57.606 78.6551 57.606C78.5699 57.606 78.5699 57.606 78.5699 57.606L78.4847 57.5208L78.3994 57.3504C78.5699 57.18 78.8255 57.0095 79.0812 56.9243C79.3368 56.8391 79.5924 56.7539 79.8481 56.7539C80.0185 56.7539 80.2742 56.7539 80.4446 56.8391C80.615 56.9243 80.7002 57.0095 80.8707 57.0948C80.9559 57.18 81.0411 57.3504 81.1263 57.5208C81.2115 57.6913 81.2115 57.8617 81.2115 58.1173V60.3329H81.0411ZM79.3368 59.9068C79.422 59.9068 79.5924 59.9068 79.6777 59.9068C79.7629 59.9068 79.8481 59.8216 79.9333 59.8216C80.0185 59.7364 80.1037 59.7364 80.189 59.6512C80.2742 59.566 80.3594 59.4808 80.4446 59.4808V58.7138C80.1037 58.7138 79.8481 58.7138 79.6777 58.799C79.5072 58.799 79.3368 58.8843 79.1664 58.9695C78.9959 59.0547 78.9107 59.1399 78.9107 59.2251C78.8255 59.3103 78.8255 59.3955 78.8255 59.4808C78.8255 59.566 78.8255 59.6512 78.9107 59.7364C78.9107 59.8216 78.9959 59.9068 79.0812 59.9068C79.1664 59.992 79.1664 59.9921 79.2516 59.9921C79.3368 59.9921 79.2516 59.9068 79.3368 59.9068Z" fill="black"/>
<path d="M83.5111 60.4183C83.2555 60.4183 82.9999 60.3331 82.8294 60.1626C82.659 59.9922 82.5738 59.7366 82.5738 59.4809V57.1801H82.1477H82.0625V57.0949V56.7541L82.659 56.6688L82.8294 55.4758C82.8294 55.4758 82.8294 55.3906 82.9146 55.3906H82.9998H83.3407V56.6688H84.4485V57.1801H83.3407V59.3957C83.3407 59.5661 83.3407 59.6513 83.4259 59.7366C83.5111 59.8218 83.5964 59.8218 83.6816 59.8218C83.7668 59.8218 83.852 59.8218 83.852 59.8218C83.852 59.8218 83.9372 59.8218 84.0224 59.7366C84.1076 59.6513 84.1076 59.7366 84.1076 59.6513H84.1929C84.1929 59.6513 84.2781 59.6513 84.2781 59.7366L84.4485 60.0774C84.3633 60.1626 84.1929 60.2478 84.0224 60.3331C83.852 60.4183 83.6816 60.4183 83.5111 60.4183Z" fill="black"/>
<path d="M86.4068 55.4749C86.4068 55.5601 86.4068 55.5601 86.4068 55.6453C86.4068 55.7305 86.3216 55.7305 86.3216 55.8158C86.2364 55.901 86.2364 55.901 86.1512 55.901C86.066 55.901 86.066 55.901 85.9808 55.901C85.8955 55.901 85.8955 55.901 85.8103 55.901C85.7251 55.901 85.7251 55.8158 85.6399 55.8158C85.5547 55.7305 85.5547 55.7305 85.5547 55.6453C85.5547 55.5601 85.5547 55.5601 85.5547 55.4749C85.5547 55.3897 85.5547 55.3897 85.5547 55.3045C85.5547 55.2193 85.6399 55.2193 85.6399 55.134C85.7251 55.0488 85.7251 55.0488 85.8103 55.0488C85.8955 55.0488 85.8955 55.0488 85.9808 55.0488C86.066 55.0488 86.066 55.0488 86.1512 55.0488C86.2364 55.0488 86.2364 55.134 86.3216 55.134C86.4068 55.2193 86.4068 55.2193 86.4068 55.3045C86.3216 55.3045 86.4068 55.3897 86.4068 55.4749ZM86.2364 56.5827V60.3321H85.5547V56.5827H86.2364Z" fill="black"/>
<path d="M89.2192 56.584C89.4748 56.584 89.7305 56.6692 89.9861 56.7544C90.2418 56.8396 90.4122 57.0101 90.5826 57.1805C90.753 57.3509 90.8382 57.5213 90.9235 57.777C91.0087 58.0326 91.0087 58.2883 91.0087 58.5439C91.0087 58.7996 91.0087 59.1404 90.9235 59.3108C90.8382 59.5665 90.753 59.7369 90.5826 59.9073C90.4122 60.0778 90.2418 60.163 89.9861 60.3334C89.7305 60.4186 89.56 60.5038 89.2192 60.5038C88.9635 60.5038 88.7079 60.4186 88.4523 60.3334C88.1966 60.2482 88.0262 60.0778 87.8558 59.9073C87.6853 59.7369 87.6001 59.5665 87.5149 59.3108C87.4297 59.0552 87.4297 58.7996 87.4297 58.5439C87.4297 58.2883 87.4297 57.9474 87.5149 57.777C87.6001 57.5213 87.6853 57.3509 87.8558 57.1805C88.0262 57.0101 88.1966 56.9248 88.4523 56.7544C88.7079 56.584 88.9635 56.584 89.2192 56.584ZM89.2192 59.9073C89.56 59.9073 89.9009 59.8221 90.0713 59.5665C90.2418 59.3108 90.327 58.97 90.327 58.5439C90.327 58.1178 90.2418 57.777 90.0713 57.5213C89.9009 57.2657 89.6453 57.1805 89.2192 57.1805C89.0488 57.1805 88.8783 57.1805 88.7079 57.2657C88.5375 57.3509 88.4523 57.4361 88.367 57.5213C88.2818 57.6065 88.1966 57.777 88.1966 57.9474C88.1114 58.1178 88.1114 58.2883 88.1114 58.5439C88.1114 58.7996 88.1114 58.97 88.1966 59.1404C88.2818 59.3108 88.2818 59.4813 88.367 59.5665C88.4523 59.6517 88.5375 59.7369 88.7079 59.8221C88.8783 59.8221 89.0488 59.9073 89.2192 59.9073Z" fill="black"/>
<path d="M92.2031 60.3334V56.584H92.6292C92.7144 56.584 92.7996 56.6692 92.7996 56.7544L92.8848 57.1805C93.0553 57.0101 93.2257 56.8396 93.3961 56.7544C93.5666 56.6692 93.8222 56.584 94.0778 56.584C94.2483 56.584 94.4187 56.584 94.5891 56.6692C94.7596 56.7544 94.8448 56.8396 95.0152 56.9248C95.1004 57.0101 95.1856 57.1805 95.2708 57.3509C95.3561 57.5213 95.3561 57.6918 95.3561 57.9474V60.3334H94.6743V57.9474C94.6743 57.6918 94.5891 57.4361 94.5039 57.2657C94.3335 57.0953 94.1631 57.0101 93.9074 57.0101C93.737 57.0101 93.5666 57.0953 93.3961 57.1805C93.2257 57.2657 93.0553 57.4361 92.9701 57.5213V60.2482H92.2031V60.3334Z" fill="black"/>
<defs>
<linearGradient id="paint0_linear_2968_2530" x1="33.1003" y1="32.6815" x2="61.7867" y2="32.6815" gradientUnits="userSpaceOnUse">
<stop stop-color="#0059BB"/>
<stop offset="1" stop-color="#2ABAFF"/>
</linearGradient>
<linearGradient id="paint1_linear_2968_2530" x1="0.100468" y1="32.7622" x2="29.845" y2="32.7622" gradientUnits="userSpaceOnUse">
<stop stop-color="#0059BB"/>
<stop offset="1" stop-color="#2ABAFF"/>
</linearGradient>
<linearGradient id="paint2_linear_2968_2530" x1="106.53" y1="67.4307" x2="55.7477" y2="9.58329" gradientUnits="userSpaceOnUse">
<stop stop-color="#0059BB"/>
<stop offset="1" stop-color="#2ABAFF"/>
</linearGradient>
<linearGradient id="paint3_linear_2968_2530" x1="106.542" y1="67.4181" x2="55.7595" y2="9.57069" gradientUnits="userSpaceOnUse">
<stop stop-color="#0059BB"/>
<stop offset="1" stop-color="#2ABAFF"/>
</linearGradient>
<linearGradient id="paint4_linear_2968_2530" x1="117.401" y1="57.885" x2="66.6188" y2="0.0374939" gradientUnits="userSpaceOnUse">
<stop stop-color="#0059BB"/>
<stop offset="1" stop-color="#2ABAFF"/>
</linearGradient>
<linearGradient id="paint5_linear_2968_2530" x1="118.74" y1="56.7125" x2="67.9575" y2="-1.13489" gradientUnits="userSpaceOnUse">
<stop stop-color="#0059BB"/>
<stop offset="1" stop-color="#2ABAFF"/>
</linearGradient>
<linearGradient id="paint6_linear_2968_2530" x1="114.569" y1="60.3733" x2="63.787" y2="2.52599" gradientUnits="userSpaceOnUse">
<stop stop-color="#0059BB"/>
<stop offset="1" stop-color="#2ABAFF"/>
</linearGradient>
<linearGradient id="paint7_linear_2968_2530" x1="113.767" y1="61.0767" x2="62.9847" y2="3.22943" gradientUnits="userSpaceOnUse">
<stop stop-color="#0059BB"/>
<stop offset="1" stop-color="#2ABAFF"/>
</linearGradient>
<linearGradient id="paint8_linear_2968_2530" x1="117.631" y1="57.6847" x2="66.8485" y2="-0.162561" gradientUnits="userSpaceOnUse">
<stop stop-color="#0059BB"/>
<stop offset="1" stop-color="#2ABAFF"/>
</linearGradient>
<linearGradient id="paint9_linear_2968_2530" x1="111.915" y1="62.7006" x2="61.1332" y2="4.85334" gradientUnits="userSpaceOnUse">
<stop stop-color="#0059BB"/>
<stop offset="1" stop-color="#2ABAFF"/>
</linearGradient>
</defs>
</svg>
